<svg xmlns="http://www.w3.org/2000/svg" viewBox="0.0 0.0 24.0 24.0" height="200px" width="200px"><path fill="none" stroke="black" stroke-width="0.3" stroke-opacity="1.0" filling="0" d="M13.1 7.0 L13.1 7.0 C14.4 7.3 15.4 7.7 16.2 8.6 C16.9 9.7 16.4 13.5 16.1 15.1 C15.6 16.7 14.7 18.5 13.0 18.5 C10.4 18.5 8.3 16.5 6.6 14.7 C5.2 13.3 4.9 10.7 6.2 8.6 C7.4 7.6 10.5 7.3 13.1 7.0 L13.1 7.0"/> <path fill="none" stroke="black" stroke-width="0.3" stroke-opacity="1.0" filling="0" d="M13.1 7.3 L13.1 11.4"/> <path fill="none" stroke="black" stroke-width="0.3" stroke-opacity="1.0" filling="0" d="M8.8 9.5 L14.5 11.7 L17.6 13.6 L17.6 16.4 C16.1 17.4 14.3 18.4 12.8 18.4 C10.5 18.4 8.3 17.4 7.0 16.4 C5.6 15.4 5.6 14.3 5.8 12.7 L8.8 9.5"/> <path fill="none" stroke="black" stroke-width="0.3" stroke-opacity="1.0" filling="0" d="M13.1 11.3 L13.5 14.9"/> <path fill="none" stroke="black" stroke-width="0.3" stroke-opacity="1.0" filling="0" d="M8.0 11.7 L13.4 13.3 L17.7 13.3 C17.9 13.4 18.1 13.4 18.2 13.5 L18.2 17.5 C17.7 17.6 17.3 17.6 17.0 17.7 L12.4 17.7 L6.6 17.7 C6.4 17.6 6.1 17.6 5.8 17.5 L5.8 14.5 C6.0 14.4 6.4 14.3 6.6 14.3 L8.0 11.7"/> <path fill="none" stroke="black" stroke-width="0.3" stroke-opacity="1.0" filling="0" d="M19.5 11.8 L19.5 13.4 C19.3 13.3 19.2 13.2 19.1 13.1 L19.1 13.1"/> <path fill="none" stroke="black" stroke-width="0.3" stroke-opacity="1.0" filling="0" d="M19.5 13.0 L18.8 13.0"/> <path fill="none" stroke="black" stroke-width="0.3" stroke-opacity="1.0" filling="0" d="M10.1 12.5 L10.1 12.5 C10.9 12.6 11.5 12.6 12.0 13.0 C13.1 14.1 13.2 15.9 11.8 15.9 C10.7 15.9 9.6 14.1 9.6 13.0 C9.1 12.6 9.8 12.6 10.1 12.5 L10.1 12.5"/> <path fill="none" stroke="black" stroke-width="0.3" stroke-opacity="1.0" filling="0" d="M10.1 13.1 L10.1 13.1 C10.6 13.2 11.2 13.3 11.7 13.5 L11.7 13.5 C11.2 13.6 10.8 13.8 10.1 13.9 L10.1 13.9 C10.1 13.8 10.1 13.7 10.1 13.6 L10.1 13.6 C10.0 13.3 10.0 13.2 10.0 13.1 L10.0 13.1"/> <path fill="none" stroke="black" stroke-width="0.3" stroke-opacity="1.0" filling="0" d="M13.2 14.4 L13.2 14.4 C12.4 14.6 12.0 14.8 11.7 15.2 L11.7 15.2 C12.8 15.3 12.9 15.5 13.0 16.5 L13.0 16.5 C12.9 16.3 12.9 16.3 12.8 16.3 L12.8 16.3 C12.7 16.3 12.8 16.3 12.7 16.3 L12.7 16.3 C12.4 16.3 12.2 16.2 12.0 16.0 L12.0 15.2 C12.2 15.1 12.4 15.1 12.7 15.1 L12.7 15.1 C12.9 15.0 13.1 14.9 13.2 14.8 L13.2 14.8 C13.1 14.7 13.0 14.6 12.9 14.4 L12.9 14.4"/> <path fill="none" stroke="black" stroke-width="0.3" stroke-opacity="1.0" filling="0" d="M8.3 15.0 L8.3 15.0 C8.8 14.3 9.3 13.4 9.9 13.0 L10.1 13.0 C10.3 13.0 10.5 13.0 10.6 13.0 L10.6 13.0 C10.8 13.1 11.1 13.2 11.3 13.3 L11.3 13.3 C11.1 13.4 10.9 13.4 10.7 13.4 L10.7 13.4 C10.6 13.3 10.5 13.3 10.3 13.3 L10.3 13.3 C10.3 13.2 10.3 13.2 10.3 13.1 L10.3 13.1 C6.8 13.1 5.5 13.1 4.1 11.0 L4.1 11.0 C4.4 10.6 4.8 10.4 4.9 10.0 L4.9 10.0 C5.3 9.5 6.4 9.2 7.7 9.0 L7.7 9.0 C8.1 8.7 8.5 8.0 8.7 7.7 L8.7 7.7 C9.6 7.4 10.3 6.8 10.6 7.5 L10.6 7.5 C11.5 7.6 11.8 8.4 12.5 9.0 L12.5 9.0 C12.7 9.3 12.9 9.4 13.4 9.5 L13.4 9.5 C12.9 9.5 12.3 9.6 12.0 9.8 L12.0 9.8 C11.9 9.8 11.7 9.7 11.6 9.6 L11.6 9.6 C11.4 9.2 11.1 8.8 10.8 8.6 L10.8 8.6 C10.8 8.4 10.8 8.2 10.6 8.0 L10.6 7.9 C10.5 8.2 10.3 8.6 10.2 9.0 L10.2 9.0 C10.1 8.7 9.2 8.5 8.1 8.4 L8.1 8.4 C8.3 8.2 8.6 8.0 8.8 7.8 L8.8 7.8 C8.8 7.6 8.7 7.3 8.7 7.1 L8.7 8.6 C8.7 8.8 8.7 9.0 8.7 9.3 L8.7 9.3 C8.7 9.2 8.7 9.1 8.7 9.0 L8.7 9.0 C8.7 8.9 8.6 8.8 8.5 8.8 L8.5 8.8 C8.6 8.7 8.6 8.5 8.6 8.4 L8.6 8.4 C8.7 8.3 8.8 8.2 9.0 8.1 L9.0 8.1 C9.0 8.0 9.0 7.8 9.0 7.7 L9.0 7.7 C9.1 7.7 9.1 7.7 9.1 7.7 L9.1 7.7 C9.2 7.6 9.3 7.5 9.4 7.4 L9.4 7.4 C9.5 7.4 9.5 7.3 9.6 7.2 L9.6 7.2 C9.5 7.1 9.4 7.0 9.3 6.9 L9.3 6.9 C9.4 6.8 9.5 6.8 9.6 6.8 L9.6 6.8 C9.5 6.7 9.4 6.6 9.5 6.5 L9.5 6.5 C9.5 6.5 9.5 6.5 9.5 6.5 L9.5 6.5 C9.5 6.5 9.6 6.5 9.6 6.5 L9.6 6.5 C9.6 6.4 9.6 6.3 9.6 6.2 L9.6 6.2"/> <path fill="none" stroke="black" stroke-width="0.3" stroke-opacity="1.0" filling="0" d="M7.1 7.7 L7.1 7.7 C7.2 7.7 7.2 7.7 7.3 7.7 L7.3 7.7 C7.3 7.7 7.3 7.7 7.3 7.7 L7.3 8.0 C7.3 8.1 7.3 8.1 7.3 8.0 L7.3 7.7 C7.3 7.7 7.4 7.7 7.4 7.7 L7.4 7.7 C7.4 7.7 7.4 7.7 7.4 7.7 L7.4 7.7 C7.4 7.7 7.3 7.7 7.1 7.7 L7.1 7.7 C7.2 7.7 7.3 7.7 7.3 7.7 L7.1 7.7 C7.1 7.7 7.0 7.7 7.0 7.7 L7.0 7.7 C7.0 7.7 7.0 7.7 7.1 7.7 L7.1 7.7 C7.2 7.7 7.3 7.7 7.4 7.7 L7.4 7.7 C7.4 7.7 7.4 7.6 7.4 7.7 L7.4 7.7 C7.3 7.7 7.2 7.7 7.1 7.7 L7.1 7.7 C7.0 7.6 6.9 7.7 6.9 7.7 L6.9 7.7 C6.9 7.7 7.0 7.6 7.0 7.7 L7.1 8.0 C7.1 8.0 7.1 8.0 7.1 8.0 L7.1 8.0 C7.1 8.1 7.1 8.1 7.1 8.0 L7.1 7.7 C7.1 7.6 7.1 7.5 7.1 7.4 L7.1 7.4 C7.1 7.4 7.1 7.3 7.1 7.3 L7.1 7.3 C7.1 7.3 7.1 7.3 7.1 7.3 L7.1 7.3 C7.1 7.3 7.1 7.3 7.1 7.3 L7.1 7.3 C7.1 7.2 7.1 7.1 7.1 7.1 L7.1 7.1 C7.0 7.0 7.0 7.0 7.0 6.9 L7.0 6.9 C7.0 6.8 7.1 6.8 7.1 6.7 L7.1 6.7 C7.2 6.6 7.2 6.5 7.1 6.4 L7.1 6.4 C7.1 6.4 7.1 6.4 7.1 6.3 L7.1 6.3 C7.1 6.3 7.1 6.2 7.1 6.2 L7.1 6.2 C7.1 6.1 7.1 6.1 7.1 6.1 L7.1 6.1 C7.1 6.0 7.1 5.9 7.9 5.8 L7.9 5.8 C8.0 5.7 8.1 5.7 8.3 5.6 L8.3 5.6 C8.3 5.6 8.4 5.6 8.4 5.6 L8.4 5.6 C8.4 5.5 8.4 5.5 8.4 5.4 L8.4 5.4 C8.4 5.3 8.4 5.3 8.5 5.2 L8.5 5.2"/> <path fill="none" stroke="black" stroke-width="0.3" stroke-opacity="1.0" filling="0" d="M10.7 14.1 L10.7 14.1 C11.8 14.9 12.6 15.7 13.4 17.0 C13.4 17.6 13.0 17.7 13.0 17.1 C12.7 16.4 12.7 15.9 11.8 15.7 C11.6 15.6 11.3 15.0 10.9 14.6 L10.9 14.6 C10.1 14.6 10.1 14.5 10.0 14.1 L10.0 14.1"/> <path fill="none" stroke="black" stroke-width="0.3" stroke-opacity="1.0" filling="0" d="M11.2 14.1 L11.2 14.1 C11.6 14.1 12.3 14.2 12.9 14.3 L12.9 14.3 C12.0 15.9 11.5 16.7 11.3 14.8 C11.0 14.5 11.3 14.3 11.2 14.1 L11.2 14.1"/></svg>