<svg xmlns="http://www.w3.org/2000/svg" viewBox="0.0 0.0 24.0 24.0" height="200px" width="200px"><path fill="none" stroke="black" stroke-width="0.3" stroke-opacity="1.0" filling="0" d="M6.6 6.8 L11.8 6.8 L17.0 6.8 L17.0 10.5 L12.8 10.5 L6.6 10.5"/> <path fill="none" stroke="black" stroke-width="0.3" stroke-opacity="1.0" filling="0" d="M8.6 9.4 L8.6 9.4 C9.6 11.3 5.5 11.3 8.6 9.4 L8.6 9.4"/> <path fill="none" stroke="black" stroke-width="0.3" stroke-opacity="1.0" filling="0" d="M15.3 9.4 L15.3 9.4 C17.8 11.3 14.6 11.3 15.3 9.4 L15.3 9.4"/> <path fill="none" stroke="black" stroke-width="0.3" stroke-opacity="1.0" filling="0" d="M15.3 9.4 L15.3 9.4 C17.3 11.0 14.2 11.3 15.3 9.4 L15.3 9.4"/> <path fill="none" stroke="black" stroke-width="0.3" stroke-opacity="1.0" filling="0" d="M15.3 9.4 L15.3 9.4 C17.1 9.6 18.3 9.7 19.0 12.0 L19.0 17.0 C18.3 17.2 17.8 17.4 17.4 17.6 L13.2 17.6 C13.8 17.4 14.6 17.2 15.3 17.0 L15.3 12.0 C15.2 11.5 15.2 11.0 15.3 10.5 C15.3 10.1 15.7 10.3 15.3 10.0 L15.3 9.4"/></svg>