<svg xmlns="http://www.w3.org/2000/svg" viewBox="0.0 0.0 24.0 24.0" height="200px" width="200px"><path fill="none" stroke="black" stroke-width="0.3" stroke-opacity="1.0" filling="0" d="M8.8 4.1 L13.5 4.1 L18.0 4.1 C18.3 4.4 18.7 4.7 19.0 5.0 L19.0 10.2 C18.7 10.4 18.3 10.7 18.0 11.0 L13.5 11.0 L8.8 11.0 C8.6 10.7 8.3 10.4 7.9 10.2 L7.9 5.0 C8.2 4.7 8.6 4.3 8.8 4.1 L8.8 4.1"/> <path fill="none" stroke="black" stroke-width="0.3" stroke-opacity="1.0" filling="0" d="M8.8 4.3 L13.5 4.3 L18.0 4.3 C18.3 4.6 18.7 4.8 18.8 5.0 L18.8 12.2 L18.8 19.4 C18.7 19.6 18.3 19.8 18.0 20.0 L13.5 20.0 L8.8 20.0 C8.4 19.8 8.1 19.6 7.9 19.4 L7.9 12.2 L7.9 6.0 C8.1 4.8 8.4 4.6 8.8 4.3 L8.8 4.3"/> <path fill="none" stroke="black" stroke-width="0.3" stroke-opacity="1.0" filling="0" d="M8.8 4.5 L13.5 4.5 L18.0 4.5 L18.0 8.3 L14.5 8.3 L8.8 8.3"/> <path fill="none" stroke="black" stroke-width="0.3" stroke-opacity="1.0" filling="0" d="M10.8 4.5 L16.0 4.5 L16.0 12.0 L10.8 12.0"/> <path fill="none" stroke="black" stroke-width="0.3" stroke-opacity="1.0" filling="0" d="M11.9 4.8 L16.0 4.8 L16.0 12.0 L11.9 12.0 L11.9 4.8"/> <path fill="none" stroke="black" stroke-width="0.3" stroke-opacity="1.0" filling="0" d="M16.2 4.8 L16.2 4.8 C16.3 4.9 16.3 5.0 16.3 5.1 L16.3 12.1 L10.5 12.1 L10.5 6.1 C10.6 5.7 10.6 5.9 10.7 6.0 L15.0 4.8 L15.0 4.8"/> <path fill="none" stroke="black" stroke-width="0.3" stroke-opacity="1.0" filling="0" d="M16.3 5.0 L16.3 5.0 C16.9 4.9 17.3 5.7 17.7 6.1 L18.1 12.1 C18.3 12.4 18.6 12.7 18.8 13.0 L18.8 13.0 L18.8 19.1 C18.4 19.6 18.0 20.0 17.5 20.4 L11.1 20.4 L5.9 20.4 C4.6 20.0 3.8 19.6 3.5 19.1 L3.5 12.1 C3.8 12.0 3.2 11.9 2.8 11.7 L2.3 6.1 C2.8 5.7 3.4 5.3 4.1 5.0 L10.3 5.0 L16.3 5.0"/> <path fill="none" stroke="black" stroke-width="0.3" stroke-opacity="1.0" filling="0" d="M8.6 8.1 L7.7 8.1 C7.6 8.4 7.5 8.7 7.4 8.9 L8.0 12.3 C8.0 12.3 8.0 12.3 8.0 12.3 L8.0 10.0 C7.8 9.9 7.7 9.8 7.5 9.6 L8.1 9.1 L8.5 8.9 C8.6 8.7 8.6 8.4 8.6 8.1 L8.6 8.1"/> <path fill="none" stroke="black" stroke-width="0.3" stroke-opacity="1.0" filling="0" d="M15.0 8.1 L15.0 8.1 C15.2 8.4 15.3 8.7 15.6 8.9 L16.0 9.1 C16.5 9.4 16.8 9.8 17.2 10.1 L17.2 16.3 C15.8 17.4 14.5 17.4 12.2 16.3 L12.2 16.3 L13.4 16.3 L13.4 13.3 L13.7 8.9 C13.9 8.7 14.2 8.4 14.4 8.1 L15.0 8.1"/></svg>