<svg xmlns="http://www.w3.org/2000/svg" viewBox="0.0 0.0 24.0 24.0" height="200px" width="200px"><path fill="none" stroke="black" stroke-width="0.3" stroke-opacity="1.0" filling="0" d="M7.2 7.6 L7.2 7.6 C7.2 7.4 7.2 7.4 7.2 7.3 L11.3 7.3 L15.4 11.4 L15.4 15.5 C15.5 15.6 15.6 15.7 15.7 15.8 L15.7 16.6 C15.6 16.7 15.5 16.9 15.3 17.0 L10.3 17.0 L7.2 17.0 C7.1 16.9 6.9 16.7 6.8 16.6 L6.8 15.4 L6.8 11.4 L7.2 7.2"/> <path fill="none" stroke="black" stroke-width="0.3" stroke-opacity="1.0" filling="0" d="M12.9 7.2 L16.0 12.4 L16.0 12.4 C15.9 12.4 15.7 12.3 15.6 12.3 L15.6 12.3 C15.4 12.3 15.1 12.3 15.0 12.3 L16.0 11.4 L12.9 7.2"/> <path fill="none" stroke="black" stroke-width="0.3" stroke-opacity="1.0" filling="0" d="M7.2 12.6 L11.5 12.6 L15.9 12.6 L15.9 13.0 L11.5 13.0 L7.2 13.0"/> <path fill="none" stroke="black" stroke-width="0.3" stroke-opacity="1.0" filling="0" d="M15.4 12.6 L15.4 13.6 C15.0 13.8 15.3 14.0 15.4 14.2 L15.4 14.2 C15.3 14.0 15.1 13.8 15.0 13.6 L15.0 12.6"/> <path fill="none" stroke="black" stroke-width="0.3" stroke-opacity="1.0" filling="0" d="M6.6 13.2 L6.6 13.2 C6.6 13.3 6.6 13.4 6.6 13.5 L6.6 13.5 C6.6 13.4 6.6 13.3 6.6 13.2 L6.6 13.2"/> <path fill="none" stroke="black" stroke-width="0.3" stroke-opacity="1.0" filling="0" d="M16.4 13.2 L16.4 13.2 C16.4 13.3 16.4 13.4 16.4 13.5 L16.4 13.5 C16.3 13.4 16.1 13.3 16.0 13.2 L16.0 13.2"/> <path fill="none" stroke="black" stroke-width="0.3" stroke-opacity="1.0" filling="0" d="M10.9 14.6 L10.9 14.6 C10.9 14.8 10.9 14.9 11.0 15.0 L8.9 15.0 C9.0 14.9 9.0 14.8 9.0 14.6 L9.0 14.6 C9.0 14.5 9.1 14.5 9.1 14.5 L9.1 14.6"/> <path fill="none" stroke="black" stroke-width="0.3" stroke-opacity="1.0" filling="0" d="M12.4 14.6 L12.4 14.6 C12.4 14.8 12.4 14.9 12.3 15.0 L10.4 15.0 C10.6 14.9 10.9 14.8 11.3 14.6 L11.3 14.6"/> <path fill="none" stroke="black" stroke-width="0.3" stroke-opacity="1.0" filling="0" d="M7.6 14.6 L8.1 14.6 C8.2 14.8 8.3 14.9 8.4 15.0 L8.4 15.0 C8.4 15.0 8.4 15.0 8.5 15.0 L8.5 15.0 C8.3 15.0 8.2 15.0 8.0 15.0 L7.6 15.0 C7.5 15.0 7.5 15.0 7.5 14.9 L7.5 14.9 C7.5 14.9 7.5 14.8 7.4 14.8 L7.4 14.8 C7.4 14.8 7.5 14.8 7.6 14.6 L7.6 14.6"/> <path fill="none" stroke="black" stroke-width="0.3" stroke-opacity="1.0" filling="0" d="M12.8 14.6 L12.8 14.6 C12.9 14.8 13.0 15.0 13.1 15.1 L13.1 15.1 C13.2 15.0 13.3 14.9 13.3 14.8 L13.3 14.8 C13.3 14.8 13.4 14.8 13.4 14.8 L13.4 14.8 C13.3 14.8 13.3 14.7 13.3 14.7 L13.3 14.7 C13.3 14.8 13.3 14.8 13.3 14.7 L13.3 14.7 C13.3 14.7 13.3 14.8 13.3 14.9 L12.8 14.9 C12.8 14.8 12.8 14.8 12.8 14.7 L12.8 14.7 C12.8 14.7 12.8 14.8 12.8 14.8 L12.8 14.8 C12.8 14.8 12.8 14.8 12.8 14.7 L12.8 14.7"/> <path fill="none" stroke="black" stroke-width="0.3" stroke-opacity="1.0" filling="0" d="M5.7 17.5 L9.5 17.5 L9.5 17.7 L9.5 18.0 L9.5 19.7 L8.4 19.7 L5.7 19.7 L5.7 19.0 L5.7 18.3 L5.7 18.3 L5.7 17.5"/> <path fill="none" stroke="black" stroke-width="0.3" stroke-opacity="1.0" filling="0" d="M8.9 17.5 L10.5 17.5 L10.5 18.0 L9.9 18.0 L9.9 19.1 L8.9 19.1 L8.9 18.0 L8.9 17.5"/> <path fill="none" stroke="black" stroke-width="0.3" stroke-opacity="1.0" filling="0" d="M8.9 17.5 L8.9 17.5 C9.0 17.7 9.1 17.8 9.2 17.9 L9.2 18.1 C8.8 18.0 8.5 17.9 8.1 17.8 L8.1 18.1 L8.9 17.9 C8.9 17.8 8.8 17.7 8.9 17.5 L8.9 17.5"/> <path fill="none" stroke="black" stroke-width="0.3" stroke-opacity="1.0" filling="0" d="M11.4 17.5 L11.4 17.5 C11.5 17.7 11.6 17.8 11.7 18.0 L11.7 18.0 C10.8 17.8 10.0 17.7 10.1 17.5 L10.1 17.5"/></svg>