<svg xmlns="http://www.w3.org/2000/svg" viewBox="0.0 0.0 24.0 24.0" height="200px" width="200px"><path fill="none" stroke="black" stroke-width="0.3" stroke-opacity="1.0" filling="0" d="M12.0 8.2 L12.0 9.1 C14.7 9.4 16.1 9.3 17.9 9.4 C20.1 9.5 21.1 11.6 19.7 13.0 C19.4 14.2 19.1 14.6 18.6 15.0 C17.4 15.3 15.8 16.0 14.6 16.5 L14.6 17.1 C13.4 17.3 12.1 18.3 10.7 18.1 L4.6 18.1 C3.4 17.7 3.5 17.3 3.5 17.1 C3.4 16.6 3.0 15.9 3.1 14.4 C3.3 12.6 4.3 9.4 6.7 9.1 C8.0 8.8 9.6 8.8 12.0 8.2 L12.0 8.2"/> <path fill="none" stroke="black" stroke-width="0.3" stroke-opacity="1.0" filling="0" d="M12.0 10.0 L12.0 10.0 C13.1 10.5 14.1 9.2 15.5 9.7 C16.8 10.3 18.1 11.2 18.7 12.0 C19.3 12.7 19.0 13.6 18.1 14.0 C17.3 14.5 16.7 14.9 15.5 15.5 C15.0 15.9 13.9 15.7 13.4 14.6 C12.5 13.4 11.4 10.9 12.0 10.0 L12.0 10.0"/> <path fill="none" stroke="black" stroke-width="0.3" stroke-opacity="1.0" filling="0" d="M13.8 11.1 L13.8 11.1 C14.3 11.1 15.0 11.0 14.7 11.2 C14.4 11.5 14.3 11.6 13.8 11.6 C13.3 11.6 13.2 11.2 13.0 11.1 L13.0 11.1"/> <path fill="none" stroke="black" stroke-width="0.3" stroke-opacity="1.0" filling="0" d="M13.1 11.2 L13.1 11.2 C13.3 11.2 13.3 11.2 13.1 11.2 L13.1 11.2 C14.0 11.6 13.6 12.2 13.1 12.8 C12.6 14.5 9.7 14.6 11.3 13.2 C11.4 13.0 11.9 13.1 12.3 12.5 C12.9 12.3 13.5 11.9 13.3 11.8 L13.3 11.8 C13.3 11.7 13.2 11.5 13.1 11.4 L13.1 11.4 C13.2 11.3 13.3 11.2 13.1 11.2 L13.1 11.2"/> <path fill="none" stroke="black" stroke-width="0.3" stroke-opacity="1.0" filling="0" d="M13.1 12.2 L9.2 12.2"/></svg>