<svg xmlns="http://www.w3.org/2000/svg" viewBox="0.0 0.0 24.0 24.0" height="200px" width="200px"><path fill="none" stroke="black" stroke-width="0.3" stroke-opacity="1.0" filling="0" d="M10.3 7.3 L10.3 7.3 C11.6 7.3 12.5 7.3 13.8 7.3 L13.8 7.3 C13.8 7.3 13.7 7.3 13.7 7.3 L16.8 11.3 C16.5 12.5 17.1 12.9 17.3 13.4 L17.3 13.4 C17.1 13.6 17.0 14.2 16.9 14.4 L13.7 16.3 C12.7 16.8 11.8 17.0 10.2 17.4 L5.0 14.2 C5.0 13.9 5.0 13.5 4.8 13.4 L3.7 11.4 C3.9 11.1 4.3 11.0 5.0 10.6 L10.1 7.3 C10.2 7.3 10.3 7.3 10.3 7.3 L10.3 7.3"/> <path fill="none" stroke="black" stroke-width="0.3" stroke-opacity="1.0" filling="0" d="M10.3 8.2 L10.3 8.2 C11.1 8.2 13.1 9.0 14.0 9.7 C14.9 10.3 15.0 11.0 15.4 11.5 C15.9 11.9 16.5 13.2 16.0 13.4 C15.6 13.7 15.1 14.4 14.3 14.6 C13.8 14.8 13.5 15.4 13.1 15.4 C12.1 15.6 10.6 15.5 9.3 15.0 C8.0 14.8 8.0 14.0 8.4 13.0 C8.9 12.6 9.3 12.3 9.8 12.0 L9.8 12.0 C9.4 11.5 9.0 11.1 10.3 10.7 C10.3 10.1 10.6 9.2 10.3 8.9 C10.0 8.5 10.3 8.4 10.3 8.2 L10.3 8.2"/> <path fill="none" stroke="black" stroke-width="0.3" stroke-opacity="1.0" filling="0" d="M10.3 9.1 L10.3 9.1 C11.3 10.3 12.1 11.0 12.2 12.2 L12.2 12.2"/> <path fill="none" stroke="black" stroke-width="0.3" stroke-opacity="1.0" filling="0" d="M10.3 13.2 L10.3 13.2 C11.2 13.5 12.1 15.3 10.3 15.5 L10.3 15.5 L10.3 13.2"/> <path fill="none" stroke="black" stroke-width="0.3" stroke-opacity="1.0" filling="0" d="M9.4 13.4 L9.4 13.4 C12.4 13.7 13.0 13.7 14.3 14.4 C16.0 14.9 17.6 16.1 17.9 17.3 C18.3 17.6 19.0 17.8 19.2 18.6 C19.5 19.4 19.0 20.7 17.9 21.1 C16.5 21.2 15.4 21.2 14.9 20.5 C14.0 19.8 13.6 19.2 13.1 18.5 L13.1 18.5 C11.1 18.1 9.9 17.5 9.4 16.6 L9.4 13.4"/></svg>