<svg xmlns="http://www.w3.org/2000/svg" viewBox="0.0 0.0 24.0 24.0" height="200px" width="200px"><path fill="none" stroke="black" stroke-width="0.3" stroke-opacity="1.0" filling="0" d="M5.7 5.0 L5.7 5.0 C6.4 5.3 7.2 5.7 7.9 6.7 C8.5 8.2 5.9 8.1 5.3 7.9 C3.8 7.7 3.2 6.8 4.7 5.7 C4.9 5.3 5.5 5.3 5.7 5.0 L5.7 5.0"/> <path fill="none" stroke="black" stroke-width="0.3" stroke-opacity="1.0" filling="0" d="M12.5 5.0 L12.5 5.0 C13.9 5.3 15.2 5.9 15.6 7.0 C16.0 8.2 15.0 10.2 12.5 10.2 C10.8 10.2 9.9 8.2 10.4 7.0 C10.9 5.9 11.6 5.3 12.5 5.0 L12.5 5.0"/> <path fill="none" stroke="black" stroke-width="0.3" stroke-opacity="1.0" filling="0" d="M14.4 5.0 L15.1 5.2 L15.1 11.2 L15.1 16.3 L14.4 16.3 L14.4 11.2 L14.4 5.0"/> <path fill="none" stroke="black" stroke-width="0.3" stroke-opacity="1.0" filling="0" d="M5.7 5.1 L5.7 5.1 C6.0 5.3 6.2 5.6 6.4 5.8 L12.1 5.8 L12.1 11.2 L12.1 16.5 L12.1 20.6 C11.5 20.8 11.0 20.9 10.4 20.8 L6.4 20.8 C5.9 20.3 5.4 20.0 4.9 19.6 L4.9 12.2 L4.9 6.8 C5.1 6.2 5.3 5.7 5.7 5.1 L5.7 5.1"/> <path fill="none" stroke="black" stroke-width="0.3" stroke-opacity="1.0" filling="0" d="M8.6 5.1 L8.6 5.1 C9.0 5.3 9.4 5.4 9.8 5.6 L9.8 11.2 L9.8 16.8 C9.5 17.2 9.0 17.6 8.6 17.8 L8.6 17.8 C8.4 17.6 8.1 17.2 7.8 17.0 L7.8 11.2 L8.0 5.6 C8.2 5.4 8.4 5.3 8.6 5.1 L8.6 5.1"/> <path fill="none" stroke="black" stroke-width="0.3" stroke-opacity="1.0" filling="0" d="M6.7 5.5 L6.7 5.5 C7.0 5.8 7.2 6.0 7.4 6.2 L10.0 6.2 L10.0 10.2 C10.2 10.4 10.4 10.6 10.6 10.7 L11.0 10.7 L11.0 17.5 C10.9 17.8 10.7 17.8 10.4 17.29 L5.5 11.9 C5.4 11.7 5.3 11.2 5.2 11.0 L5.2 5.5 C5.5 5.3 5.8 5.1 6.2 5.0 L6.2 5.0"/> <path fill="none" stroke="black" stroke-width="0.3" stroke-opacity="1.0" filling="0" d="M11.6 8.6 L11.6 8.6 C11.8 8.7 12.0 8.8 12.3 9.0 L12.3 13.6 C12.0 13.8 11.8 13.9 11.6 14.2 L11.6 14.2 C11.3 13.2 10.9 12.7 10.6 12.6 L10.6 9.0 C10.9 8.8 11.2 8.7 11.6 8.6 L11.6 8.6"/> <path fill="none" stroke="black" stroke-width="0.3" stroke-opacity="1.0" filling="0" d="M16.9 9.7 L16.9 9.7 C15.4 9.8 14.6 9.7 14.0 11.0 L14.0 15.5 C14.4 16.8 14.8 18.4 12.7 18.1 C11.1 17.9 9.6 15.4 11.0 14.0 C11.3 13.0 11.4 12.1 11.6 11.0 L11.6 9.7 C11.9 9.7 12.2 9.6 12.5 9.5 L12.5 9.5 C12.6 9.7 12.7 9.8 12.8 9.8 L16.4 9.8 C16.5 9.7 16.5 9.7 16.6 9.7 L16.6 9.7"/> <path fill="none" stroke="black" stroke-width="0.3" stroke-opacity="1.0" filling="0" d="M16.6 9.8 L16.6 9.8 C17.3 9.8 17.6 9.7 17.6 10.3 C17.6 10.9 16.5 11.6 16.2 11.6 C15.8 11.6 15.5 10.9 15.3 10.3 C15.2 10.0 14.8 9.8 14.8 9.8 L14.8 9.8 C15.2 9.7 15.6 9.7 15.9 9.8 L15.9 9.8 C16.1 9.9 16.3 10.2 16.5 10.3 C16.6 10.4 16.2 10.5 16.1 10.6 L16.1 10.6 C16.1 10.2 16.1 9.9 16.1 9.8 L16.1 9.8"/> <path fill="none" stroke="black" stroke-width="0.3" stroke-opacity="1.0" filling="0" d="M13.1 9.8 L13.1 9.8 C13.3 9.9 13.5 10.1 13.7 10.3 L13.7 10.3 C13.6 10.1 13.5 9.9 13.4 9.8 L13.1 9.8"/> <path fill="none" stroke="black" stroke-width="0.3" stroke-opacity="1.0" filling="0" d="M12.9 10.1 L12.9 10.1 C13.0 10.2 13.1 10.3 13.2 10.3 L13.9 10.3 C13.9 10.4 13.9 10.5 14.0 10.6 L14.4 11.1 C14.4 11.2 14.3 11.3 14.3 11.4 L14.3 11.4 C13.8 11.4 13.4 11.4 13.0 11.4 L12.9 10.9 C12.9 10.7 12.9 10.5 12.9 10.3 L12.9 10.3 C12.9 10.3 12.8 10.2 12.9 10.1 L12.9 10.1"/> <path fill="none" stroke="black" stroke-width="0.3" stroke-opacity="1.0" filling="0" d="M14.7 12.9 L14.7 12.9 C14.7 13.0 14.8 13.0 14.8 13.0 L14.5 13.2 C14.4 13.2 14.4 13.1 14.4 13.0 L14.7 12.9"/> <path fill="none" stroke="black" stroke-width="0.3" stroke-opacity="1.0" filling="0" d="M12.0 13.2 L12.0 13.2 C11.7 13.3 11.5 13.3 11.1 13.3 L11.7 13.6 C11.8 13.7 11.9 13.7 12.0 13.6 L12.0 13.2"/> <path fill="none" stroke="black" stroke-width="0.3" stroke-opacity="1.0" filling="0" d="M12.0 13.3 L12.0 13.3 C12.3 13.4 12.3 13.4 12.0 13.5 L12.0 13.9 C12.0 13.8 12.1 13.8 12.1 13.7 L12.1 13.4 C12.1 13.4 12.0 13.4 12.0 13.4 L12.0 13.4 C12.0 13.4 11.9 13.4 11.9 13.3 L11.7 13.3 C11.8 13.3 11.9 13.3 12.0 13.3 L11.9 13.3"/> <path fill="none" stroke="black" stroke-width="0.3" stroke-opacity="1.0" filling="0" d="M15.5 13.4 L15.5 13.4 C15.7 13.4 15.8 13.4 16.0 13.4 L16.4 13.9 C16.8 14.0 17.1 14.2 17.3 14.4 L17.6 14.7 C17.8 14.7 17.9 14.8 17.8 15.0 L12.8 15.3 C12.7 15.1 12.7 14.8 12.8 14.7 L12.9 14.4 C13.3 14.2 13.5 13.9 14.0 13.7 L15.5 13.4"/></svg>