<svg xmlns="http://www.w3.org/2000/svg" viewBox="0 0 24 24"><g><rect x="3" y="3" width="18" height="18" fill="none" stroke="black"/> <path fill="black" stroke-width="0.3" stroke-opacity="1.0" filling="0" d="M7.6 4.9 L7.3 6.1 L7.3 10.3 L9.7 10.3"/> <path fill="none" stroke="black" stroke-width="0.3" stroke-opacity="1.0" filling="0" d="M9.6 4.9 L10.4 4.9 L10.4 6.1 L9.6 6.1"/> <path fill="none" stroke="black" stroke-width="0.3" stroke-opacity="1.0" filling="0" d="M11.5 4.9 L12.3 4.9 L12.3 6.1 L11.5 6.1"/> <path fill="none" stroke="black" stroke-width="0.3" stroke-opacity="1.0" filling="0" d="M13.4 4.9 L14.5 4.9 L14.5 6.1 L13.4 6.1"/> <path fill="none" stroke="black" stroke-width="0.3" stroke-opacity="1.0" filling="0" d="M7.3 5.3 L7.3 5.3 C7.4 5.3 7.5 5.3 7.6 5.3 L10.4 8.2 L14.1 13.7 C14.4 14.1 14.7 14.3 14.9 14.6 L16.7 14.6 L12.2 18.7 C11.9 18.9 11.5 19.3 11.2 19.3 C10.9 19.3 10.5 18.9 10.2 18.7 L8.3 15.0 L5.3 15.0 L7.3 11.4 L7.3 5.3"/> <path fill="none" stroke="black" stroke-width="0.3" stroke-opacity="1.0" filling="0" d="M10.4 5.3 L10.4 5.3 C10.8 5.7 10.9 6.6 10.4 6.6 C10.0 6.6 10.0 5.7 10.4 5.3 L10.4 5.3"/> <path fill="none" stroke="black" stroke-width="0.3" stroke-opacity="1.0" filling="0" d="M11.5 5.3 L11.5 5.3 C11.7 5.7 11.8 6.6 11.5 6.6 C11.1 6.6 11.1 5.7 11.5 5.3 L11.5 5.3"/> <path fill="none" stroke="black" stroke-width="0.3" stroke-opacity="1.0" filling="0" d="M12.3 5.3 L12.3 5.3 C12.5 5.7 12.6 6.6 12.3 6.6 C11.9 6.6 11.9 5.7 12.3 5.3 L12.3 5.3"/> <path fill="none" stroke="black" stroke-width="0.3" stroke-opacity="1.0" filling="0" d="M13.4 5.3 L13.4 5.3 C13.6 5.7 13.7 6.6 13.4 6.6 C13.0 6.6 13.1 5.7 13.4 5.3 L13.4 5.3"/> <path fill="none" stroke="black" stroke-width="0.3" stroke-opacity="1.0" filling="0" d="M14.5 5.3 L14.5 5.3 C14.6 5.7 14.7 6.6 14.3 6.6 C14.0 6.6 14.0 5.7 14.5 5.3 L14.5 5.3"/> <path fill="none" stroke="black" stroke-width="0.3" stroke-opacity="1.0" filling="0" d="M15.8 5.3 L15.8 5.3 C16.2 5.7 16.3 6.6 15.8 6.6 C15.4 6.6 15.4 5.7 15.8 5.3 L15.8 5.3"/> <path fill="none" stroke="black" stroke-width="0.3" stroke-opacity="1.0" filling="0" d="M14.5 6.1 L14.5 6.1 C14.7 6.7 14.8 7.5 14.5 7.9 C14.1 8.2 14.0 7.5 13.9 7.2 L14.0 7.0 C14.2 6.8 14.4 6.5 14.5 6.1 L14.5 6.1"/> <path fill="none" stroke="black" stroke-width="0.3" stroke-opacity="1.0" filling="0" d="M10.2 7.6 L10.2 7.6 C11.5 8.7 13.6 10.7 11.7 12.3 L11.7 12.3 C11.2 12.5 10.7 12.9 10.2 12.7 C9.6 12.3 9.1 11.3 8.8 10.6 C8.6 10.2 8.3 9.9 8.3 9.5 C8.3 9.1 8.4 8.7 8.6 8.4 C8.9 8.0 9.6 8.0 10.2 7.6 L10.2 7.6"/> <path fill="none" stroke="black" stroke-width="0.3" stroke-opacity="1.0" filling="0" d="M14.5 7.6 L14.5 7.6 C15.5 8.7 16.8 10.7 14.9 11.7 C13.8 12.9 12.4 12.5 11.0 11.6 L11.0 11.6 C11.5 10.7 12.3 9.7 13.4 9.0 C13.7 8.7 13.7 8.3 13.9 8.0 C14.2 7.8 14.4 7.8 14.5 7.6 L14.5 7.6"/> <path fill="none" stroke="black" stroke-width="0.3" stroke-opacity="1.0" filling="0" d="M12.2 8.3 L12.2 8.3 C10.9 9.7 10.4 11.2 10.3 13.2 L10.3 13.2"/> <path fill="none" stroke="black" stroke-width="0.3" stroke-opacity="1.0" filling="0" d="M15.2 8.3 L15.2 8.3 C15.3 8.4 15.5 8.5 15.6 8.6 L15.6 8.6"/> <path fill="none" stroke="black" stroke-width="0.3" stroke-opacity="1.0" filling="0" d="M12.3 12.3 L14.8 12.3 C14.8 12.4 14.8 12.5 14.8 12.6 L12.3 12.6 C12.3 12.5 12.3 12.4 12.3 12.3 L12.3 12.3"/> <path fill="none" stroke="black" stroke-width="0.3" stroke-opacity="1.0" filling="0" d="M10.6 12.6 L10.6 12.6 C10.1 14.3 10.1 16.0 10.6 17.7 L10.6 17.7"/> <path fill="none" stroke="black" stroke-width="0.3" stroke-opacity="1.0" filling="0" d="M13.4 12.6 L13.4 12.6 C13.6 12.8 13.7 13.2 13.4 13.4 L13.4 13.4 C13.1 13.6 12.9 13.7 12.6 13.9 L12.6 13.9 C12.9 13.6 13.1 13.5 13.4 13.3 L13.4 13.3 C13.4 13.2 13.4 13.1 13.4 13.0 L13.4 13.0"/> <path fill="none" stroke="black" stroke-width="0.3" stroke-opacity="1.0" filling="0" d="M9.3 13.9 L9.3 13.9 C9.3 14.0 9.3 14.1 9.4 14.1 L9.4 14.1 C9.3 14.5 9.3 14.9 9.3 15.3 L9.3 15.3 C8.4 14.7 8.6 14.3 9.3 13.9 L9.3 13.9"/> <path fill="none" stroke="black" stroke-width="0.3" stroke-opacity="1.0" filling="0" d="M14.7 13.9 L14.7 13.9 C15.4 14.3 15.5 14.7 13.9 14.1 L13.9 14.1 C14.2 14.0 14.4 13.9 14.7 13.9 L14.7 13.9"/> <path fill="none" stroke="black" stroke-width="0.3" stroke-opacity="1.0" filling="0" d="M11.3 14.2 L11.3 14.2 C11.5 14.2 11.7 14.4 11.9 14.4 L11.9 14.4 C11.9 14.4 11.9 14.4 11.9 14.4 L11.9 14.4 C11.9 14.5 11.9 14.5 11.9 14.5 L11.9 14.5 C11.9 14.9 11.9 15.4 11.8 15.8 L11.8 15.8 C11.4 15.8 11.0 15.6 10.6 15.4 L10.6 15.4 C10.6 15.4 10.6 15.4 10.6 15.4 L10.6 15.4 C10.7 15.0 10.9 14.6 11.3 14.4 L11.3 14.4 C11.3 14.4 11.3 14.3 11.3 14.2 L11.3 14.2"/> <path fill="none" stroke="black" stroke-width="0.3" stroke-opacity="1.0" filling="0" d="M9.3 15.0 L11.3 15.0"/> <path fill="none" stroke="black" stroke-width="0.3" stroke-opacity="1.0" filling="0" d="M13.4 15.0 L13.4 15.0 C13.6 14.2 13.8 13.4 13.6 12.6 L13.6 12.6 C13.5 12.4 13.3 12.1 13.1 11.9 L13.1 11.9 C13.0 11.7 12.9 11.3 12.8 11.1 L12.8 11.1 C12.7 11.5 12.7 11.9 12.6 12.3 L12.6 12.3 C12.8 12.5 13.0 12.7 13.2 12.8 L13.2 12.8 C13.2 13.1 13.1 13.5 13.1 13.9 L13.1 13.9 C12.9 13.6 12.7 13.3 12.4 13.1 L12.4 13.1 C12.4 13.1 12.4 13.0 12.4 13.0 L12.4 13.0"/> <path fill="none" stroke="black" stroke-width="0.3" stroke-opacity="1.0" filling="0" d="M7.4 15.0 L7.4 15.0 C7.8 15.2 8.1 15.4 8.5 15.5 L8.5 15.5 C8.5 15.5 8.4 15.4 8.4 15.4 L8.4 15.4 C8.3 15.4 8.2 15.4 8.2 15.4 L8.2 15.4 C8.2 15.4 8.2 15.4 8.2 15.4 L8.2 15.4 C8.1 15.4 8.0 15.4 8.0 15.4 L8.0 15.4 C8.0 15.4 8.0 15.5 8.0 15.5 L8.0 15.5 C7.9 15.4 7.8 15.3 7.7 15.3 L7.7 15.3 C7.7 15.2 7.6 15.1 7.6 15.0 L7.6 15.0 C7.5 15.1 7.5 15.2 7.4 15.2 L7.4 15.2 C7.5 15.2 7.4 15.2 7.4 15.0 L7.4 15.0"/> <path fill="none" stroke="black" stroke-width="0.3" stroke-opacity="1.0" filling="0" d="M11.2 15.0 L11.2 15.0 C12.1 15.8 12.3 16.0 11.9 17.3 L11.9 17.3 C11.9 17.3 11.8 17.3 11.7 17.3 L11.7 17.3 C11.4 16.1 11.2 15.6 11.2 15.0 L11.2 15.0"/></svg>