<svg xmlns="http://www.w3.org/2000/svg" viewBox="0 0 24 24"><g><rect x="3" y="3" width="18" height="18" fill="none" stroke="black"/> <path fill="black" stroke-width="0.3" stroke-opacity="1.0" filling="0" d="M12.8 5.8 L12.8 5.8 C13.6 5.8 14.5 5.8 15.4 6.0 C16.9 6.5 17.8 7.4 18.2 9.1 C18.9 10.8 18.3 12.8 17.0 14.0 C15.8 15.2 14.1 16.3 12.8 16.3 C11.5 16.3 10.9 15.2 10.6 14.0 C9.4 12.8 8.8 11.2 9.1 9.9 C9.4 8.6 9.8 7.6 10.6 7.1 C11.4 6.5 12.3 6.1 12.8 5.8 L12.8 5.8"/> <path fill="none" stroke="black" stroke-width="0.3" stroke-opacity="1.0" filling="0" d="M12.8 8.4 L12.8 8.4 C13.8 9.0 14.8 9.4 15.3 10.6 C15.9 11.9 15.5 13.4 15.1 14.7 L15.1 14.7"/> <path fill="none" stroke="black" stroke-width="0.3" stroke-opacity="1.0" filling="0" d="M17.6 14.3 L17.6 14.3 C17.8 14.7 18.3 15.1 18.3 15.5 C18.3 15.9 17.8 16.1 17.6 16.4 L17.6 16.4"/></svg>