<svg xmlns="http://www.w3.org/2000/svg" viewBox="0 0 24 24"><g><rect x="3" y="3" width="18" height="18" fill="none" stroke="black"/> <path fill="black" stroke-width="0.3" stroke-opacity="1.0" filling="0" d="M5 6.7 L6.7 6.7 C6.7 6.7 6.7 6.7 6.7 6.7 L5.8 8.5 C5.8 8.5 5.7 8.5 5.7 8.5 L5.7 8.5 C5.7 8.4 5.7 8.4 5.7 8.4 L6.7 6.6 C6.7 6.6 6.8 6.6 6.9 6.6 L6.9 6.6"/> <path fill="none" stroke="black" stroke-width="0.3" stroke-opacity="1.0" filling="0" d="M15.9 6.6 L15.9 6.6 C16.0 6.6 16.1 6.6 16.2 6.6 L17.7 8.5 C17.7 8.5 17.7 8.5 17.7 8.5 L17.7 7.8 L17.3 8.5 C17.2 8.5 17.2 8.5 17.1 8.5 L15.8 8.5 C15.7 8.5 15.6 8.5 15.5 8.5 L15.3 8.5 C15.2 8.5 15.2 8.5 15.2 8.5 L15.2 8.5 C15.2 8.4 15.1 8.4 15.0 8.4 L15.4 7.9 C15.5 7.8 15.6 7.8 15.7 7.8 L16.2 7.8 L16.2 8.4 C16.1 8.4 16.0 8.5 15.9 8.5 L15.0 6.7 C15.1 6.6 15.6 6.6 15.9 6.6 L15.9 6.6"/> <path fill="none" stroke="black" stroke-width="0.3" stroke-opacity="1.0" filling="0" d="M7.7 9.6 L7.7 9.6 C7.7 10.0 7.7 10.4 7.7 10.8 L7.7 10.8"/> <path fill="none" stroke="black" stroke-width="0.3" stroke-opacity="1.0" filling="0" d="M17.2 9.6 L17.2 9.6 C17.2 10.0 17.2 10.4 17.2 10.8 L17.2 10.8"/> <path fill="none" stroke="black" stroke-width="0.3" stroke-opacity="1.0" filling="0" d="M13.3 11.0 L13.3 11.0 C13.3 11.0 13.4 11.0 13.5 11.0 L13.5 11.0"/> <path fill="none" stroke="black" stroke-width="0.3" stroke-opacity="1.0" filling="0" d="M14.0 11.0 L14.0 11.0 C14.2 11.3 14.6 11.6 14.6 12.0 C14.6 12.7 12.5 14.7 12.5 12.0 C12.5 11.6 13.0 11.3 13.3 11.0 L13.3 11.0"/> <path fill="none" stroke="black" stroke-width="0.3" stroke-opacity="1.0" filling="0" d="M9.8 12.0 L9.8 12.0 C9.8 12.1 9.8 12.1 9.9 12.1 L9.9 12.1 C9.9 12.1 10.0 12.1 10.1 12.2 L10.5 12.2 C10.6 12.3 10.6 12.4 10.6 12.5 L10.6 12.5 C10.7 12.6 10.9 12.6 11.0 12.6 L11.0 12.6 C10.8 12.6 10.7 12.6 10.5 12.6 L9.9 12.6 C9.8 12.5 9.8 12.4 9.7 12.3 L9.7 12.3 C9.8 12.2 9.8 12.1 9.8 12.0 L9.8 12.0"/></svg>