<svg xmlns="http://www.w3.org/2000/svg" viewBox="0 0 24 24"><g><rect x="3" y="3" width="18" height="18" fill="none" stroke="black"/> <path fill="0.3" stroke="black" stroke-width="0.3" stroke-opacity="1.0" filling="0" d="M7.7 9.5 L7.7 9.5 C7.3 9.1 6.8 8.7 6.5 8.1 L6.5 7.7 C6.4 7.6 6.4 7.6 6.3 7.5 L7.0 7.0 C7.2 6.9 7.4 6.9 7.7 7.0 L7.7 7.7 C7.5 7.8 7.3 7.8 7.2 7.9 L7.2 8.4 C7.2 8.5 7.3 8.5 7.4 8.5 L7.4 8.7 C7.4 8.8 7.5 8.9 7.5 9.0 L7.5 9.5"/> <path fill="none" stroke="black" stroke-width="0.3" stroke-opacity="1.0" filling="0" d="M15.9 9.5 L15.9 9.5 C16.0 9.5 16.0 9.5 16.0 9.5 L17.0 9.5 C17.0 9.5 17.0 9.6 17.0 9.6 L17.0 10.3 C17.0 10.4 17.0 10.4 17.0 10.4 L17.0 10.4 C16.9 10.5 16.9 10.5 16.9 10.6 L16.9 10.6 C16.9 10.6 16.9 10.5 16.9 10.5 L16.9 11.2 C16.9 11.3 16.9 11.4 16.9 11.5 L16.9 12.8 C16.9 12.9 16.9 13.1 16.9 13.3 L16.0 13.3 C15.9 13.1 15.9 12.9 15.9 12.8 L15.9 12.8 C15.9 12.9 15.9 13.1 15.9 13.3 L15.9 13.3 C15.9 13.4 15.9 13.5 15.9 13.6 L15.9 13.6 C16.0 13.7 16.0 13.8 16.1 13.9 L16.1 14.4 C16.0 14.5 15.9 14.6 15.9 14.7 L15.9 14.7 C15.9 14.8 15.9 14.9 15.9 15.0 L15.9 15.0 C15.9 15.0 15.9 15.0 15.9 15.0 L15.9 15.0 C15.9 15.1 15.9 15.2 15.9 15.2 L15.9 15.2 C15.9 15.2 15.9 15.3 15.9 15.3 L15.9 15.3 C15.9 15.4 15.9 15.6 15.9 15.7 L15.9 16.1 C15.9 16.3 15.9 16.5 15.9 16.6 L15.9 16.6 C15.9 16.6 15.9 16.6 15.9 16.6 L15.9 16.6 C15.9 16.7 15.9 16.8 15.9 16.9 L15.9 17.1 C15.9 17.2 15.9 17.4 15.9 17.3 L15.9 17.3 C15.9 17.4 15.9 17.5 15.9 17.6 L15.9 18.0 C15.9 18.2 15.9 18.3 15.9 18.4 L15.9 18.4 C15.9 18.5 15.9 18.8 15.9 18.9 L15.9 18.9 C15.9 18.9 15.9 19.0 15.9 19.0 L15.9 19.0 C15.9 18.8 15.9 18.7 15.9 18.6 L15.9 18.6 C15.9 18.6 15.9 18.5 15.9 18.5 L15.9 18.5 C15.9 18.5 15.9 18.6 15.9 18.5 L15.9 18.5 C15.9 18.5 15.9 18.5 15.9 18.5 L15.9 18.5 C15.9 18.6 15.9 18.6 15.9 18.6 L15.9 19.0 C15.9 19.2 15.9 19.3 15.9 19.3 L15.9 19.3 C15.9 19.3 15.9 19.3 15.9 19.3 L15.9 19.3 C15.9 19.3 15.9 19.3 15.9 19.3 L15.9 19.3 C15.9 19.3 15.9 19.2 15.9 19.0 L15.9 19.0 C15.9 18.9 15.9 18.9 15.9 18.8 L15.9 18.5 C15.9 18.4 15.9 18.2 15.9 18.1 L15.9 18.1 C15.9 18.2 15.9 18.3 15.9 18.3 L15.9 18.3 C15.9 18.4 15.9 18.5 15.9 18.5 L15.9 18.5 C15.9 18.5 15.9 18.5 15.9 18.5 L15.9 18.5 C16.0 18.5 16.0 18.5 15.9 18.5 L15.9 18.5 C15.9 18.5 15.9 18.5 15.9 18.5 L15.9 18.5 C15.9 18.5 15.9 18.5 15.9 18.5 L15.9 18.5 C15.9 18.5 15.9 18.6 15.9 18.5 L15.9 18.5 C15.9 18.5 15.9 18.5 15.9 18.5 L15.9 18.5 C15.9 18.5 15.9 18.5 15.9 18.5 L15.9 18.5 C15.9 18.5 15.9 18.5 15.9 18.5 L15.9 18.5 C15.9 18.5 15.9 18.5 15.9 18.5 L15.9 18.5 C15.9 18.5 15.9 18.5 15.9 18.5 L15.9 18.5 C15.9 18.5 15.9 18.5 15.9 18.5 L15.9 18.5 C15.9 18.5 15.9 18.5 15.9 18.5 L15.9 18.5 C15.9 18.5 15.9 18.5 15.9 18.5 L15.9 18.5 C15.9 18.5 15.9 18.5 15.9 18.5 L15.9 18.5 C15.9 18.5 15.9 18.5 15.9 18.5 L15.9 18.5 C15.9 18.5 15.9 18.5 15.9 18.5 L15.9 18.5 C15.9 18.5 15.9 18.5 15.9 18.5 L15.9 18.5 C15.9 18.5 15.9 18.5 15.9 18.5 L15.9 18.5 C15.9 18.5 15.9 18.5 15.9 18.5 L15.9 18.5 C15.9 18.5 15.9 18.5 15.9 18.5 L15.9 18.5 C15.9 18.5 15.9 18.5 15.9 18.5 L15.9 18.5 C15.9 18.5 15.9 18.5 15.9 18.5 L15.9 18.5 C15.9 18.5 15.9 18.5 15.9 18.5 L15.9 18.5 C15.9 18.5 15.9 18.5 15.9 18.5 L15.9 18.5 C15.9 18.5 15.9 18.5 15.9 18.5 L15.9 18.5 C15.9 18.5 15.9 18.5 15.9 18.5 L15.9 18.5 C15.9 18.5 15.9 18.5 15.9 18.5 L15.9 18.5 C15.9 18.5 15.9 18.5 15.9 18.5 L15.9 18.5 C15.9 18.5 15.9 18.5 15.9 18.5 L15.9 18.5 C15.9 18.5 15.9 18.5 15.9 18.5 L15.9 18.5 C15.9 18.5 15.9 18.5 15.9 18.5 L15.9 18.5 C15.9 18.5 15.9 18.5 15.9 18.5 L15.9 18.5 C15.9 18.5 15.9 18.5 15.9 18.5 L15.9 18.5 C15.9 18.5 15.9 18.5 15.9 18.5 L15.9 18.5"/> <path fill="none" stroke="black" stroke-width="0.3" stroke-opacity="1.0" filling="0" d="M16.2 18.5 L16.2 18.5 C16.2 18.5 16.2 18.5 16.2 18.5 L16.2 18.5"/> <path fill="none" stroke="black" stroke-width="0.3" stroke-opacity="1.0" filling="0" d="M16.9 18.5 L16.9 18.5 C16.9 18.5 16.9 18.5 16.9 18.5 L16.9 18.5"/></svg>