<svg xmlns="http://www.w3.org/2000/svg" viewBox="0 0 24 24"><g><rect x="3" y="3" width="18" height="18" fill="none" stroke="black"/> <path fill="black" stroke-width="0.3" stroke-opacity="1.0" filling="0" d="M18.8 5.2 L18.9 6.3 L13.2 7.9 L10.6 9.4 L7.6 11.7 L8.8 13.5 C9.0 13.8 9.2 14.2 9.5 14.4 L16.6 14.4 C17.0 14.2 17.4 13.8 17.4 13.5 L11.3 13.5 L6.8 13.5 C6.5 13.8 6.2 14.2 6.0 14.4 L6.0 16.2 L10.7 16.2 L14.1 16.2 C14.3 16.6 14.6 17.0 14.8 17.4 L17.4 17.4 C17.6 17.0 17.9 16.6 18.2 16.2 L18.2 13.5 L14.7 13.5 C14.6 13.2 14.3 13.0 14.1 12.7 L10.7 12.7 L6.8 12.7 L13.5 8.1 C14.1 8.0 14.6 8.0 15.1 8.1 L17.4 7.0 L12.5 8.2 L7.7 7.1 L8.9 5.6 L13.7 5.6 C14.6 5.2 15.5 5.0 16.5 4.8 L18.8 5.2"/> <path fill="none" stroke="black" stroke-width="0.3" stroke-opacity="1.0" filling="0" d="M6.9 6.7 L6.9 6.7 C7.5 7.1 8.2 7.5 8.8 8.0 L9.1 10.2 L11.4 11.7 C11.6 12.0 11.8 12.2 12.0 12.5 L12.0 14.4 C12.0 14.6 12.0 14.8 11.9 14.9 L7.7 14.9 C7.4 14.8 7.0 14.6 6.9 14.4 L6.9 10.2 L6.9 6.7"/> <path fill="none" stroke="black" stroke-width="0.3" stroke-opacity="1.0" filling="0" d="M8.8 9.4 L12.8 9.4 L12.8 10.9 C12.4 12.2 12.0 12.7 11.8 13.4 L7.7 13.4 L4.8 11.2 C5.3 10.6 5.8 9.9 6.4 9.4 L8.8 9.4"/> <path fill="none" stroke="black" stroke-width="0.3" stroke-opacity="1.0" filling="0" d="M11.9 10.4 L12.3 10.4 C12.5 10.6 12.8 10.7 13.0 10.8 L13.0 12.4 C12.8 12.6 12.5 12.8 12.3 13.0 L7.7 13.0 L5.4 12.2 L5.4 10.3 C5.7 10.2 6.0 10.1 6.3 10.1 L11.9 10.1 C12.3 10.1 12.6 10.1 12.8 10.1 L11.9 10.1 C11.7 10.0 11.5 9.9 11.4 9.9 C11.4 10.0 11.7 10.2 12.0 10.4 L12.3 10.4 C12.4 10.4 12.6 10.4 12.7 10.4 L11.9 10.4"/> <path fill="none" stroke="black" stroke-width="0.3" stroke-opacity="1.0" filling="0" d="M10.8 13.1 L13.4 13.1 C13.6 13.1 13.7 13.2 13.9 13.3 L13.9 15.0 C13.7 15.2 13.6 15.4 13.4 15.6 L10.8 15.6 C10.6 15.4 10.4 15.2 10.2 15.0 L10.2 13.3 C10.4 13.2 10.6 13.1 10.8 13.1 L10.8 13.1"/> <path fill="none" stroke="black" stroke-width="0.3" stroke-opacity="1.0" filling="0" d="M17.4 16.8 L17.4 16.8 C18.1 17.0 18.1 18.1 17.4 18.1 C16.7 18.1 16.7 17.0 17.4 16.8 L17.4 16.8"/></svg>