<svg xmlns="http://www.w3.org/2000/svg" viewBox="0 0 24 24"><g><rect x="3" y="3" width="18" height="18" fill="none" stroke="black"/> <path fill="black" stroke-width="0.3" stroke-opacity="1.0" filling="0" d="M14.9 1.5 L14.9 1.5 C15.5 1.9 15.4 3.5 15.0 4.1 C14.4 5.5 13.1 6.8 12.4 7.3 C11.7 8.0 11.1 8.0 10.8 8.1 L10.4 8.1 C9.4 8.2 8.2 9.1 6.4 9.1 C5.9 9.0 5.4 8.6 5.3 8.5 C4.9 8.3 5.4 8.2 5.7 8.0 L6.1 8.1 C6.1 8.4 6.1 8.7 6.0 8.9 C5.9 9.2 7.0 9.6 7.0 9.5 C7.2 9.4 6.2 6.5 5.9 6.2 L5.9 6.2 C5.2 6.8 4.5 7.5 4.2 8.1 C3.7 9.0 3.1 9.7 3.0 10.4 C2.7 11.0 2.6 12.4 2.3 13.0 C2.1 13.4 2.8 10.9 2.6 10.7 C2.9 10.3 3.6 9.7 3.9 9.4 C4.1 8.9 4.1 7.5 3.9 6.7 C3.7 6.3 3.3 4.5 3.1 7.6 C4.7 9.0 7.2 9.4 8.1 8.1 L9.2 8.1 C9.6 7.7 9.8 7.2 10.2 6.7 L10.2 6.7 C10.6 5.4 10.8 4.6 11.1 3.8 L11.1 3.8 C11.5 3.0 12.0 2.4 12.6 2.0 L12.6 2.0 C13.2 2.0 14.0 1.9 14.9 1.5 L14.9 1.5"/> <path fill="none" stroke="black" stroke-width="0.3" stroke-opacity="1.0" filling="0" d="M14.9 1.5 L14.9 1.5 C15.3 1.6 15.7 1.6 16.3 1.6 L16.3 2.1 C17.2 2.5 18.2 2.6 19.2 3.0 C20.2 3.4 21.0 3.9 21.5 4.6 C22.5 5.1 22.7 6.3 22.8 7.6 C22.8 9.2 22.5 10.6 22.8 11.8 L22.8 11.8 C22.5 13.0 22.0 14.2 21.7 15.4 C21.1 16.6 20.3 17.7 19.3 19.1 L14.3 19.1 C14.2 18.6 14.0 18.1 14.0 17.7 C14.1 17.2 14.6 16.8 14.2 16.4 L7.4 16.4 C6.7 16.0 5.4 15.6 4.2 15.0 C3.8 14.3 3.7 12.8 3.6 11.5 L3.6 11.5 C3.1 11.0 2.7 9.2 3.1 7.4 L3.1 7.4 C3.7 6.7 4.5 6.2 5.5 6.0 L5.5 6.0 C6.4 6.9 7.8 6.7 8.5 6.2 C9.2 6.0 9.3 6.1 9.3 5.6 L9.3 5.6 C10.6 5.3 11.2 5.7 12.4 6.3 L12.4 6.3 C12.8 6.8 13.4 7.3 14.0 7.7 C14.7 8.7 14.7 9.2 15.2 10.1 C15.7 11.0 16.1 12.2 16.6 13.9 L16.6 13.9 C17.2 14.4 18.8 15.1 18.8 16.4 C19.1 17.6 18.2 18.8 17.1 19.1 C15.7 20.4 14.2 21.6 12.5 21.5 C11.0 21.4 9.1 20.9 8.1 20.2 C7.5 19.6 6.4 19.3 5.7 18.6 C4.5 17.9 3.9 17.2 3.2 16.2 C2.4 14.7 2.6 13.3 2.9 11.1 L2.9 11.1 C3.8 11.1 4.3 10.1 4.8 9.4 C5.3 8.6 5.0 7.2 5.7 5.7 C6.1 3.9 7.2 3.3 9.1 3.1 L9.1 3.1 C9.7 2.8 10.4 2.5 11.1 3.1 C11.6 3.5 11.9 5.0 12.4 6.1 C12.8 7.3 13.4 8.0 14.1 8.8 C14.6 9.7 15.6 10.6 15.9 11.7 C16.1 12.7 16.6 13.0 16.5 14.2 C16.4 15.2 15.7 16.0 15.3 16.7 C14.7 17.6 13.8 18.6 13.1 19.1 C12.7 19.6 12.3 19.9 11.7 20.2 C10.7 20.5 9.2 20.6 9.0 21.0 C7.8 21.1 6.4 21.4 5.0 21.3 C3.7 21.2 3.2 21.6 2.5 21.9 L1.2 21.8 C1.7 21.1 1.2 20.3 1.2 19.8 L1.2 19.8 C1.2 19.6 1.4 19.4 1.5 18.8 C1.5 18.4 1.5 18.0 1.7 17.6 L1.7 17.6 C1.4 16.3 1.1 15.9 1.2 15.3 C1.6 14.9 1.5 15.3 1.2 14.7 L1.2 14.7 C1.1 14.4 1.1 13.6 1.2 14.0 L1.2 14.0 C1.9 14.0 2.6 13.0 2.9 11.8 L2.9 11.8 C2.2 11.0 1.9 9.3 2.4 8.7 C2.8 7.1 3.6 6.7 4.2 5.9 C4.7 5.0 5.9 4.8 6.7 4.5 L6.7 4.5 C7.4 3.9 8.3 3.2 9.2 3.5 L9.2 3.5"/> <path fill="none" stroke="black" stroke-width="0.3" stroke-opacity="1.0" filling="0" d="M12.5 3.9 L12.5 3.9 C12.8 4.3 13.4 4.5 13.6 4.9 C14.5 5.8 12.7 7.9 12.2 7.9 C11.9 7.9 11.8 7.4 11.9 6.9 C12.2 6.2 12.9 5.6 13.6 5.1 L14.8 6.0 C14.9 6.5 15.4 6.9 15.0 7.4 C14.7 7.8 14.4 8.4 14.0 8.2 C13.6 8.0 13.2 7.6 12.8 7.2 C12.5 6.8 12.3 6.3 12.1 5.7 C11.8 5.3 11.9 5.3 11.9 5.0 L12.6 3.9"/></svg>