<svg xmlns="http://www.w3.org/2000/svg" viewBox="0 0 24 24"><g><rect x="3" y="3" width="18" height="18" fill="none" stroke="black"/>="none" stroke-width="0.3" stroke-opacity="1.0" filling="0" d="M7.0 7.3 L10.5 7.3 L14.0 7.3 C14.3 7.6 14.6 7.9 15.0 8.2 L15.0 11.3 C15.1 11.5 15.1 11.7 15.0 11.0 L15.8 8.0 C15.6 7.7 15.5 7.5 15.4 7.3 L15.4 7.3"/> <path fill="none" stroke="black" stroke-width="0.3" stroke-opacity="1.0" filling="0" d="M14.0 7.4 L15.4 7.4 L13.4 8.9 C13.0 8.6 12.6 8.3 12.2 8.9 L12.2 7.9 C12.9 7.5 13.5 7.4 14.0 7.4 L14.0 7.4"/> <path fill="none" stroke="black" stroke-width="0.3" stroke-opacity="1.0" filling="0" d="M11.4 10.5 L12.2 10.5 C12.2 10.8 12.1 10.1 12.1 10.3 L12.1 10.0 C13.0 10.0 13.8 10.9 14.4 11.8 L14.4 12.8 C16.3 13.1 17.5 14.8 18.4 16.9 L18.4 16.8 C17.8 16.9 17.8 16.0 18.4 16.1 L18.4 17.1 C17.4 18.5 16.0 19.0 14.7 19.9 L14.7 19.9 L10.5 19.9 L10.5 19.8"/></svg>