<svg xmlns="http://www.w3.org/2000/svg" viewBox="0 0 24 24"><g><rect x="3" y="3" width="18" height="18" fill="none" stroke="black"/>="none" stroke-width="0.3" stroke-opacity="1.0" filling="0" d="M11.4 10.8 L11.4 10.8 C11.4 11.1 11.4 11.4 11.4 11.7 L11.4 11.7 C11.0 11.7 11.2 11.9 11.4 12.9 C11.6 13.4 12.9 13.8 13.2 13.2 C13.6 13.7 14.0 13.5 14.5 13.8 L14.5 13.8 C14.0 14.8 13.5 15.3 13.2 15.0 C13.1 14.2 13.1 13.0 14.2 12.6 C15.9 11.7 16.6 9.7 18.0 8.5 C20.0 7.3 20.8 11.1 19.6 13.5 C18.0 15.8 17.6 15.8 16.1 16.3 C15.8 17.5 15.3 18.9 14.6 19.2 C13.9 19.2 13.7 18.8 12.0 18.8 C10.3 17.9 9.0 17.7 8.0 16.9 C7.4 16.8 7.5 15.9 8.0 14.6 C8.3 12.2 7.7 10.8 9.0 9.6 L9.0 9.3 C9.5 8.2 10.9 7.3 12.4 8.5 C14.3 9.4 15.1 11.8 15.5 13.6 C15.7 14.5 15.3 14.1 15.1 13.8 L15.1 13.8 C14.2 14.9 12.3 16.5 11.9 16.5 C11.6 16.5 11.6 16.4 11.4 16.6 L11.4 16.6 C11.4 16.0 11.3 15.4 11.3 14.9 C11.3 14.4 10.8 13.8 10.3 13.2 L10.3 13.2 C10.7 11.8 11.1 11.5 12.3 11.3 L12.3 11.3 C12.2 11.2 12.2 11.3 12.0 10.3 L12.5 10.3 C12.4 8.3 12.3 7.2 12.3 7.4 C12.3 7.6 12.6 8.4 12.4 9.7 L12.4 9.7"/> <path fill="none" stroke="black" stroke-width="0.3" stroke-opacity="1.0" filling="0" d="M17.7 9.2 L17.7 9.2 C17.8 9.4 18.9 9.5 18.2 9.8 C17.6 11.3 16.9 11.8 17.7 11.1 C18.4 10.9 17.0 10.8 16.6 10.3 C16.2 10.7 15.5 10.8 16.2 11.3 C16.7 12.6 17.1 15.2 16.5 16.0 C16.0 16.5 15.5 17.2 16.0 16.6 C16.6 16.8 16.9 16.5 17.7 16.0 C18.4 15.7 16.8 15.2 16.9 14.6 C16.3 13.5 15.9 11.7 16.7 11.4 C16.9 11.0 17.7 10.4 18.1 9.2 L17.7 9.2"/></svg>