<svg xmlns="http://www.w3.org/2000/svg" viewBox="0 0 24 24"><g><rect x="3" y="3" width="18" height="18" fill="none" stroke="black"/>="none" stroke-width="0.3" stroke-opacity="1.0" filling="0" d="M14.6 7.4 L14.6 7.4 C15.1 8.5 15.5 9.4 16.3 10.5 L16.3 11.3 C16.7 12.9 17.2 14.5 16.8 15.1 L16.8 15.1 C15.3 15.7 13.8 18.9 11.3 18.8 C8.9 18.7 8.8 15.3 9.1 13.0 L9.1 12.5 C9.3 11.8 9.9 11.9 10.1 12.7 C10.4 12.2 10.2 11.4 10.2 11.5 L10.2 11.5 C10.2 11.1 10.2 10.8 10.2 10.5 L10.2 10.5 C9.8 10.4 9.2 9.2 9.8 8.1 L9.8 8.1 C10.1 7.5 11.5 7.5 14.6 7.4 L14.6 7.4"/> <path fill="none" stroke="black" stroke-width="0.3" stroke-opacity="1.0" filling="0" d="M15.2 7.2 L15.2 7.2 C15.6 7.3 16.0 7.3 16.4 7.4 L16.4 7.2 C17.1 7.6 17.4 8.6 18.1 9.4 L18.1 11.4 C17.7 13.7 17.4 15.8 15.8 17.1 C14.5 18.9 13.7 18.2 11.3 16.0 L11.3 16.2 C11.2 16.5 10.2 16.0 9.5 15.5 L9.5 15.5 C8.9 15.0 8.2 13.8 7.3 13.4 C7.3 12.1 7.7 10.0 8.4 9.6 C9.2 9.0 9.3 8.1 9.6 7.0 L9.6 7.0 C10.3 7.1 11.9 7.1 12.4 7.2 C13.9 7.2 14.3 7.3 15.2 7.2 L15.2 7.2"/> <path fill="none" stroke="black" stroke-width="0.3" stroke-opacity="1.0" filling="0" d="M15.2 7.9 L15.2 7.9 C15.8 7.0 16.1 7.1 16.5 7.2 L16.5 7.2 C16.8 8.0 17.1 8.8 17.4 9.0 L17.4 9.0 C16.5 9.9 15.0 10.0 13.9 10.0 C12.9 10.0 14.0 9.8 14.2 9.4 L14.2 9.4 C14.6 9.8 15.7 10.0 16.2 10.1 L16.2 10.3 C16.6 10.0 17.0 10.2 17.4 10.9 L17.4 11.9 C18.0 13.4 17.5 13.1 17.0 12.6 L15.4 12.1 C15.1 12.9 15.9 13.6 14.6 13.3 C13.2 12.9 12.0 11.8 12.6 10.3 C12.3 9.9 12.9 9.0 13.3 8.8 C14.7 7.4 14.1 7.2 15.2 7.9 L15.2 7.9"/> <path fill="none" stroke="black" stroke-width="0.3" stroke-opacity="1.0" filling="0" d="M15.9 9.2 L16.3 13.5 C16.3 13.8 16.4 13.0 16.4 12.2 L16.9 12.0 C16.5 12.0 15.0 12.8 15.6 13.5 L15.2 12.3 C14.5 12.8 14.7 13.0 15.9 13.4 L15.9 9.2"/> <path fill="none" stroke="black" stroke-width="0.3" stroke-opacity="1.0" filling="0" d="M11.3 11.2 L11.9 11.2 C12.8 11.7 13.7 11.3 14.5 11.8 L15.8 12.0 C14.8 12.8 14.8 13.3 14.8 14.8 L14.5 14.1 C13.2 13.7 12.6 12.0 11.3 12.0 C11.2 12.0 11.6 12.7 11.3 12.2 L11.3 12.2"/></svg>