<svg xmlns="http://www.w3.org/2000/svg" viewBox="0 0 24 24"><g><rect x="3" y="3" width="18" height="18" fill="none" stroke="black"/>="none" stroke-width="0.3" stroke-opacity="1.0" filling="0" d="M4.3 6.8 L5.3 6.8 L5.3 9.8 L7.2 9.0 L7.2 9.3 L8.7 13.3 L8.7 13.7 L8.2 13.7 L7.2 13.2 L7.2 15.2 L7.2 15.2 L5.3 15.2 L5.3 13.2 L5.3 10.9 L4.4 10.9 L4.4 10.9"/> <path fill="none" stroke="black" stroke-width="0.3" stroke-opacity="1.0" filling="0" d="M18.3 10.8 L20.3 10.8 L20.3 14.9 L20.3 14.9 L19.9 15.9 L18.3 15.8 L18.3 15.8 L18.3 14.8 L16.3 14.8 L16.3 10.8 L17.3 10.8 L17.3 10.8 L17.3 10.8 L18.3 10.8"/></svg>