<svg xmlns="http://www.w3.org/2000/svg" viewBox="0 0 24 24"><g><rect x="3" y="3" width="18" height="18" fill="none" stroke="black"/>="none" filling="0.0.5 2.0 24.0" height="200px" width="200px"><path fill="none" stroke="black" stroke-width="0.3" stroke-opacity="1.0" filling="0" d="M13.1 6.2 L13.1 6.2 C15.7 7.6 17.2 8.6 18.2 10.1 C19.1 12.5 19.0 14.2 18.2 15.2 C17.9 16.2 16.6 18.6 15.1 19.6 C13.5 20.6 11.2 20.5 9.7 19.2 C7.5 17.1 6.3 15.4 6.4 13.5 C7.1 10.8 8.2 8.0 9.9 6.4 C10.8 6.2 12.7 6.5 13.1 6.2 L13.1 6.2"/> <path fill="none" stroke="black" stroke-width="0.3" stroke-opacity="1.0" filling="0" d="M13.1 6.3 L13.1 6.3 C14.3 7.6 15.4 8.8 14.8 10.3 C14.4 11.9 13.5 13.7 12.1 13.7 C11.6 13.7 10.3 13.3 9.6 13.9 C8.9 15.8 8.1 17.3 8.3 18.7 C7.5 19.0 7.7 19.4 7.0 19.0 C7.3 18.7 7.4 18.5 7.8 17.3 L7.8 17.3 C6.3 14.8 5.2 13.6 6.2 11.5 C7.2 9.4 9.2 8.4 11.1 8.6 C11.5 8.0 12.5 7.9 13.1 6.9 L13.1 6.3"/> <path fill="none" stroke="black" stroke-width="0.3" stroke-opacity="1.0" filling="0" d="M13.6 6.4 L13.6 6.4 C15.2 7.0 17.8 8.4 18.8 10.1 C19.9 11.9 20.7 13.4 20.2 15.2 C19.5 16.9 18.8 18.5 17.0 19.5 C15.5 20.5 14.1 20.0 12.6 18.0 C11.2 16.0 10.8 14.5 11.1 13.5 L12.3 12.5 C12.5 12.4 12.7 12.4 12.9 12.5 L13.1 12.5 C13.3 11.1 13.8 10.7 14.8 9.7 C15.8 8.7 17.3 8.1 18.2 7.4 C18.0 6.4 18.3 6.6 18.1 8.5 L13.0 9.5 L13.4 9.7 C14.5 9.1 14.5 8.1 13.6 7.4 C12.9 6.7 12.2 6.3 12.6 6.4 L13.6 10.4"/> <path fill="none" stroke="black" stroke-width="0.3" stroke-opacity="1.0" filling="0" d="M11.3 11.3 L11.3 11.3 C12.9 11.8 13.9 11.6 15.7 11.5 C17.0 11.5 17.8 11.4 18.9 11.4 L18.9 11.0 C18.8 10.7 18.6 10.3 18.3 10.0 L18.3 10.5 C16.3 12.6 14.8 12.5 12.0 11.3 L12.0 11.3 C11.3 12.0 11.7 11.0 11.7 11.3 L11.7 11.3 C11.7 11.1 11.7 11.9 11.7 11.8 L11.7 11.3 C11.4 11.6 11.7 11.8 11.4 11.3 L11.4 11.3"/> <path fill="none" stroke="black" stroke-width="0.3" stroke-opacity="1.0" filling="0" d="M10.2 11.4 L10.2 11.4 C11.4 12.9 12.9 14.4 10.6 15.1 L10.6 15.2 C12.5 17.1 10.3 17.6 9.2 15.8 L9.2 15.8 C9.9 14.9 10.0 14.3 9.6 13.8 L9.6 13.8 C9.0 14.4 8.5 15.5 7.0 16.2 L7.0 16.2 C6.7 14.1 7.4 12.8 9.4 11.3 L9.4 11.3 C10.2 11.7 11.1 11.5 12.0 11.4 L12.4 11.4 C12.9 11.1 13.0 11.7 13.7 12.4 C14.3 12.9 15.5 14.9 16.2 15.4 L16.2 15.4 C16.4 15.8 16.3 16.1 16.6 16.6 L16.6 16.6 C14.3 16.8 12.1 15.2 9.5 15.4 L9.5 15.4 C9.0 15.0 8.3 14.7 9.9 14.4 C10.5 13.0 11.9 11.6 10.0 11.4 L10.4 11.4"/></svg>