<svg xmlns="http://www.w3.org/2000/svg" viewBox="0 0 24 24"><path d="M4 4 L20 4 L20 20.1 8.3 L20.1 6.3 L15.0 6.3 L9.0 6.3 L4.9 6.3 L4.9 5.6 C5.3 5.3 5.7 5.0 6.2 4.7 L6.2 4.7"/> <path fill="none" stroke="black" stroke-width="0.3" stroke-opacity="1.0" filling="0" d="M5.8 5.6 L12.6 5.6 L20.4 5.6 L20.4 7.4 L12.6 7.4 L5.8 7.4 L5.8 5.6"/> <path fill="none" stroke="black" stroke-width="0.3" stroke-opacity="1.0" filling="0" d="M5.8 6.3 L12.6 6.3 L20.4 6.3 L20.4 11.3 L20.4 16.4 L12.6 16.4 L5.8 16.4 L5.8 11.3 L5.8 6.3"/> <path fill="none" stroke="black" stroke-width="0.3" stroke-opacity="1.0" filling="0" d="M5.8 6.3 L12.6 6.3 L20.4 6.3 L20.4 11.3 L20.4 16.4 L12.6 16.4 L5.8 16.4 L5.8 11.3 L5.8 6.3"/> <path fill="none" stroke="black" stroke-width="0.3" stroke-opacity="1.0" filling="0" d="M5.8 6.3 L12.6 6.3 L20.4 6.3 L20.4 7.4 L12.6 7.4 L5.8 7.4"/> <path fill="none" stroke="black" stroke-width="0.3" stroke-opacity="1.0" filling="0" d="M20.4 6.3 L20.4 8.0 L12.6 8.0 L6.8 8.0 L6.8 6.3 L12.6 6.3 L20.4 6.3"/> <path fill="none" stroke="black" stroke-width="0.3" stroke-opacity="1.0" filling="0" d="M5.8 8.7 L12.6 8.7 L20.4 8.7 L20.4 14.1 L20.4 19.5 L12.6 19.5 L5.8 19.5 L5.8 14.1 L5.8 8.7"/> <path fill="none" stroke="black" stroke-width="0.3" stroke-opacity="1.0" filling="0" d="M5.8 8.7 L12.6 8.7 L20.4 8.7 L20.4 14.1 L20.4 19.5 L15.2 15.3 L10.0 11.2 L5.8 8.7"/> <path fill="none" stroke="black" stroke-width="0.3" stroke-opacity="1.0" filling="0" d="M20.4 8.7 L20.4 14.1 L20.4 19.5 L12.6 19.5 L5.8 19.5 L5.8 14.1 L5.8 8.7 L12.6 8.7 L20.4 8.7"/> <path fill="none" stroke="black" stroke-width="0.3" stroke-opacity="1.0" filling="0" d="M20.4 8.7 L20.4 14.1 L20.4 19.5 L12.6 19.5 L5.8 19.5 L5.8 14.1 L5.8 8.7 L12.6 8.7 L20.4 8.7"/> <path fill="none" stroke="black" stroke-width="0.3" stroke-opacity="1.0" filling="0" d="M20.4 8.7 L20.4 14.1 L20.4 19.5 L12.6 19.5 L6.8 19.5 L6.8 14.1 L6.8 9.0 L12.6 9.0 L20.4 8.7"/> <path fill="none" stroke="black" stroke-width="0.3" stroke-opacity="1.0" filling="0" d="M20.4 8.7 L20.4 14.1 L20.4 19.5 L12.6 19.5 L6.8 19.5 L6.8 14.1 L6.8 8.7 L12.6 8.7 L20.4 8.7"/> <path fill="none" stroke="black" stroke-width="0.3" stroke-opacity="1.0" filling="0" d="M8.1 10.2 L8.1 10.2 C8.7 10.4 9.3 10.5 9.6 11.2 C10.5 12.7 8.8 13.4 7.9 13.1 C6.9 12.8 6.7 11.7 7.3 11.2 C7.5 10.8 8.0 10.5 8.1 10.2 L8.1 10.2"/> <path fill="none" stroke="black" stroke-width="0.3" stroke-opacity="1.0" filling="0" d="M8.1 10.5 L8.1 10.5 C8.6 10.7 9.3 10.8 9.6 11.2 C10.2 11.7 10.2 12.8 9.6 13.2 C8.9 13.4 8.3 12.8 7.6 12.5 L7.6 12.5 C8.0 12.2 8.5 11.8 8.7 11.4 C8.8 10.9 8.4 10.5 8.1 10.5 L8.1 10.5"/> <path fill="none" stroke="black" stroke-width="0.3" stroke-opacity="1.0" filling="0" d="M13.4 11.2 L13.4 11.2 C13.8 11.5 14.4 11.6 14.7 12.0 C16.1 13.8 13.0 14.4 12.7 14.3 C12.4 14.2 10.7 14.0 11.3 13.5 C11.7 12.3 12.3 11.9 13.4 11.2 L13.4 11.2"/> <path fill="none" stroke="black" stroke-width="0.3" stroke-opacity="1.0" filling="0" d="M13.4 11.2 L13.4 11.2 C13.7 11.6 14.1 12.1 14.5 12.5 L14.5 12.5 C14.1 11.9 13.7 11.4 13.4 11.2 L13.4 11.2"/> <path fill="none" stroke="black" stroke-width="0.3" stroke-opacity="1.0" filling="0" d="M16.4 13.0 L16.4 13.0 C18.1 13.4 19.4 13.8 20.1 15.5 C20.8 16.9 20.5 19.0 18.9 19.7 C18.9 19.7 19.2 19.9 19.1 20.1 C18.8 20.7 18.4 21.3 17.9 21.3 C17.4 21.3 17.1 19.7 16.9 19.7 C16.1 19.7 14.4 21.3 13.8 21.3 C13.2 21.3 11.1 22.0 10.4 21.3 C9.9 21.3 9.5 20.7 9.4 20.1 C9.3 19.9 9.6 19.7 9.8 19.7 C10.0 19.7 10.4 20.0 10.6 20.1 C11.0 20.2 11.6 20.0 12.0 20.2 C13.7 20.4 14.7 21.8 16.4 21.8 C18.2 21.8 19.9 21.2 21.6 19.7 C21.5 18.9 21.9 18.3 21.6 17.5 C21.5 16.9 21.3 16.3 21.0 15.7 C20.6 15.1 20.0 14.5 19.5 14.4 C19.2 14.3 18.8 14.7 18.5 15.0 C18.3 15.2 18.2 16.0 18.0 16.4 C17.8 16.8 17.5 17.4 17.3 17.8 C17.1 18.4 17.3 19.0 16.9 19.5 C16.0 19.9 15.2 20.2 14.4 20.4 C13.9 20.6 13.1 21.3 12.6 21.2 C12.1 21.2 11.8 21.0 11.4 21.0 C11.0 21.0 10.3 21.3 9.9 21.3 C9.1 21.2 8.3 20.9 7.7 21.1 C7.3 21.2 7.3 21.7 6.9 21.8 L9.8 21.8 C10.3 21.3 10.7 20.7 11.2 20.2 C10.8 19.9 10.3 20.0 9.9 20.0 L9.9 20.0 C9.4 20.2 9.0 20.6 8.6 20.3 C8.1 20.1 7.0 21.0 7.9 21.0 L7.9 21.0 C6.5 20.6 5.9 19.9 6.9 19.8 C7.4 19.8 7.8 19.4 8.2 19.1 C8.7 19.0 9.0 19.5 9.5 19.6 C9.9 19.6 10.3 19.8 10.8 19.8 C11.2 19.6 11.7 19.7 12.1 19.7 C12.5 19.8 12.9 20.0 13.3 20.0 C13.7 20.1 14.2 20.2 14.8 20.0 C15.4 19.9 15.8 19.3 15.9 19.0 C16.0 18.7 16.3 19.9 16.0 20.1 C15.8 20.3 15.3 20.3 15.0 20.2 C14.8 20.1 14.5 20.0 14.3 19.9 C16.1 20.3 17.4 20.0 19.2 18.4 C19.8 18.3 20.2 18.4 20.3 18.4 C20.7 18.4 21.1 18.1 21.4 18.2 C22.0 18.4 22.6 19.0 22.8 19.4 C22.9 19.9 22.6 20.3 22.5 20.7 C19.5 22.9 17.1 23.7 15.0 22.5 C13.6 22.3 12.5 21.3 10.7 21.1 C9.2 20.9 7.8 21.2 7.6 21.8 L7.6 21.8 C8.3 21.2 9.8 21.3 10.5 21.1 C12.9 20.7 14.2 21.6 16.6 21.0 C17.1 21.0 18.6 21.0 19.2 21.1 C19.8 21.2 20.2 21.8 20.7 21.8 C21.2 22.2 21.0 22.8 20.6 22.8 C20.3 22.9 20.0 22.3 19.8 22.5 C19.2 22.5 18.8 22.8 18.3 22.8 C17.9 22.8 16.5 22.9 15.9 22.9 C13.3 22.9 11.8 21.6 10.5 21.1 C9.2 20.8 7.8 20.7 6.7 19.9 C5.6 19.3 4.6 18.5 3.8 17.4 L3.8 17.4 C4.5 17.3 5.2 17.2 6.0 16.7 C6.5 16.5 7.2 16.1 7.7 15.9 C8.2 15.4 8.1 14.5 7.7 14.3 C7.6 13.9 7.5 13.2 7.3 12.9 C4.7 11.2 2.8 9.3 2.9 6.6 L2.9 6.6 C2.3 6.2 2.0 5.4 1.9 4.9 C1.9 3.2 4.0 2.7 5.8 2.8 L5.8 2.8"/> <path fill="none" stroke="black" stroke-width="0.3" stroke-opacity="1.0" filling="0" d="M13.4 3.5 L13.4 3.5 C14.2 4.7 14.5 6.3 14.5 7.9 C14.5 8.4 14.5 9.2 14.4 9.8 L14.4 10.6 C14.0 11.0 13.9 11.7 13.4 12.0 C12.6 12.9 10.2 13.8 8.7 13.4 C7.3 13.0 4.0 11.9 4.8 9.8 C5.1 8.6 6.8 8.0 7.2 7.4 C7.8 6.8 7.9 5.9 8.5 5.6 C8.7 5.6 8.7 5.9 9.0 5.8 C9.4 5.8 9.7 6.3 10.0 6.2 C10.2 5.9 10.7 5.7 11.0 5.4 L11.0 4.6 C11.5 4.0 12.4 3.7 13.4 3.5 L13.4 3.5"/> <path fill="none" stroke="black" stroke-width="0.3" stroke-opacity="1.0" filling="0" d="M15.1 7.0 L17.7 10.8 L19.4 14.6 L22.8 18.4 L16.3 19.9 L12.7 16.5 C12.0 16.9 11.4 17.7 10.7 18.4 L6.1 18.4 L8.8 14.6 L10.4 10.8 L12.2 10.8 L15.1 7.0"/> <path fill="none" stroke="black" stroke-width="0.3" stroke-opacity="1.0" filling="0" d="M11.2 8.5 L13.4 10.8 L15.5 14.1 L19.4 17.4 L13.7 19.8 L7.1 20.5 L8.8 14.0 L11.2 8.5"/> <path fill="none" stroke="black" stroke-width="0.3" stroke-opacity="1.0" filling="0" d="M11.4 10.1 L14.8 15.0 L19.0 20.0 L13.8 20.8 L9.6 21.8 L10.4 15.0 L11.4 10.1"/> <path fill="none" stroke="black" stroke-width="0.3" stroke-opacity="1.0" filling="0" d="M7.0 11.7 L7.0 11.7 C7.3 10.2 7.8 8.9 8.9 8.0 C9.3 7.3 10.2 6.9 11.5 6.8 C12.8 6.7 14.3 7.3 15.3 8.1 C16.4 9.0 17.2 9.9 17.8 11.7 L19.2 15.5 C19.0 16.1 18.8 16.8 18.7 17.4 L16.8 19.8 L11.5 19.8 L12.8 16.2 L14.4 11.7 L11.1 11.7 L6.9 11.7 C6.6 11.6 6.2 11.6 6.3 11.7 L7.0 11.7"/></svg>