<svg xmlns="http://www.w3.org/2000/svg" viewBox="0 0 24 24"><path d="M4 4 L20 4 L20 20.4 4.9 L20.4 10.8 L20.4 16.7 L20.4 17.5 L14.7 17.5 L9.2 17.5 L4.6 17.5 L4.6 15.5 L5.6 15.5 L5.6 15.0 L5.6 10.9 L6.6 10.9 L6.6 10.1 L6.6 10.5 L4.6 10.5 L4.6 10.9 L4.6 10.3 L4.6 10.1 L4.6 10.6 L4.9 10.6 L4.9 11.0 L4.6 11.4 L4.3 11.4 L4.3 11.0 L4.3 10.9 L4.9 9.6 L4.9 9.7 L4.9 9.0 L4.9 9.1 L4.5 9.3 L4.6 9.5 L4.6 9.9 L4.9 9.6 L4.9 9.0 L4.6 9.6 L4.9 9.6 L4.9 10.0 L4.3 9.5 L4.3 10.0 L4.9 10.4 L4.9 10.6 L4.6 10.9 L4.6 11.0 L4.6 11.4 L4.3 11.4 L4.1 11.0 L4.1 10.7 L3.9 10.1 L5.4 10.1 L5.4 10.1 L5.4 10.5 L4.9 10.4 L4.3 10.4 L4.4 10.1 L4.8 9.9 L4.8 10.1 L4.7 10.5 L4.3 10.6 L3.9 10.6 L4.1 10.3 L4.1 10.0 L3.9 10.4 L3.5 10.4 L3.9 10.3 L4.0 9.9 L4.1 9.8 L4.1 9.7 L4.1 9.1 L4.1 9.4 L4.3 9.3 L4.1 9.0 L4.3 8.6 L4.5 8.3 L4.9 8.1 L4.9 8.1 L4.9 8.1 L4.9 8.5 L5.0 8.3 L5.0 8.7 L4.7 8.9 L4.6 9.0 L4.6 9.1 L5.0 9.0 L4.6 8.3 L4.7 9.0 L5.0 9.3 L4.6 9.5 L4.6 8.9 L4.1 9.0 L4.1 8.6 L4.1 8.5 L4.1 8.8 C4.3 9.0 4.6 9.3 4.7 9.6 L6.0 9.6 L6.8 10.2 L6.8 10.6 L7.4 10.6 L6.5 11.7 L5.6 12.3 L5.6 12.8 L5.0 12.9 L4.8 12.1 L4.8 11.9 L4.5 11.7 L4.1 12.1 L4.1 12.1 L3.4 12.1 L3.3 11.7 L3.1 11.5 L3.1 11.2 L3.1 10.6 L3.6 10.5 L3.1 10.3 L3.1 10.1"/></svg>