<svg xmlns="http://www.w3.org/2000/svg" viewBox="0.0 0.0 24.0 24.0" height="200px" width="200px"><path fill="none" stroke="black" stroke-width="0.3" stroke-opacity="1.0" filling="0" d="M11.1 9.6 L11.1 9.6 C13.1 10.2 13.9 10.9 15.6 12.3 L16.0 12.3 C16.5 12.6 17.0 13.3 17.2 14.0 L17.2 17.2 C17.0 18.5 16.5 19.0 15.6 19.3 L12.3 19.3 C11.4 19.0 11.2 19.0 10.3 18.7 C9.3 18.1 8.4 17.6 7.6 17.3 L7.6 17.3 C7.0 17.0 6.7 16.6 6.3 16.2 L6.3 14.0 C6.7 13.3 7.2 12.6 7.8 12.3 L8.1 12.3 C8.9 10.9 9.7 10.2 11.1 9.6 L11.1 9.6"/> <path fill="none" stroke="black" stroke-width="0.3" stroke-opacity="1.0" filling="0" d="M11.1 13.6 L11.1 13.6 C11.2 13.7 11.3 13.8 11.4 13.9 L11.4 17.2 C11.2 17.5 10.9 17.8 10.6 17.8 L10.6 17.8 C10.3 17.8 10.0 17.5 9.8 17.2 L9.8 13.9 C10.2 13.8 10.6 13.7 11.1 13.6 L11.1 13.6"/></svg>