<svg xmlns="http://www.w3.org/2000/svg" viewBox="0.0 0.0 24.0 24.0" height="200px" width="200px"><path fill="none" stroke="black" stroke-width="0.3" stroke-opacity="1.0" filling="0" d="M10.0 6.6 L10.0 6.6 C10.0 6.6 10.1 6.7 10.2 6.7 L10.2 6.7 C10.2 6.7 10.1 6.8 10.1 6.9 L10.1 6.9 C10.0 7.0 9.7 7.0 9.6 6.9 L9.6 6.9 C9.7 6.9 9.8 7.0 9.9 6.9 L9.9 6.9 C9.8 7.2 9.5 7.1 9.3 6.9 L9.3 6.9 C9.3 7.0 9.3 7.0 9.3 6.9 L9.3 6.9 C9.6 6.7 9.8 6.6 10.0 6.6 L10.0 6.6"/> <path fill="none" stroke="black" stroke-width="0.3" stroke-opacity="1.0" filling="0" d="M17.6 6.6 L17.6 6.6 C17.7 6.6 17.8 6.7 17.8 6.7 L17.8 6.7 C17.8 6.8 17.7 6.9 17.6 7.0 L17.6 7.0 C17.7 7.0 17.7 6.9 17.7 6.9 L17.7 6.9 C17.7 6.8 17.6 6.7 17.6 6.6 L17.6 6.6"/> <path fill="none" stroke="black" stroke-width="0.3" stroke-opacity="1.0" filling="0" d="M16.9 7.4 L11.8 13.7 C11.7 13.8 11.7 13.9 11.6 14.0 L11.6 15.0 L12.1 15.0 L12.1 15.0 C12.7 15.3 13.4 15.5 14.0 15.7 L14.5 15.7 L15.0 15.7 C15.5 15.7 16.3 15.5 16.9 15.5 L17.2 15.5 C17.4 15.9 17.8 16.3 17.7 16.7 C17.7 18.4 15.4 17.3 14.8 17.4 L14.5 17.4 L13.9 17.4 L13.8 18.4 C13.4 18.7 12.7 19.0 12.1 19.2 L12.1 19.2 C11.7 19.0 11.2 18.7 10.9 18.4 L10.5 18.4 L10.5 19.2 L8.5 19.2 C7.4 19.0 6.7 18.4 6.2 17.4 L6.5 17.4 L6.8 17.4 C7.1 17.6 7.4 17.8 7.7 18.1 L8.9 18.1 C9.5 18.2 10.1 18.2 10.5 18.3 L10.5 17.5 L9.9 17.4 L11.0 17.4 L11.2 17.4 C11.6 17.4 12.2 17.3 12.6 17.2 L12.8 17.2 L13.0 17.3 C13.4 17.3 13.9 17.3 14.4 17.3 L14.4 17.7 L12.6 19.2 C12.4 19.0 12.2 18.7 11.9 18.4 L11.9 17.4 L11.1 17.4 L11.9 17.4 L11.6 17.4 C11.3 17.0 11.0 16.7 10.7 16.3 L10.7 16.3"/> <path fill="none" stroke="black" stroke-width="0.3" stroke-opacity="1.0" filling="0" d="M16.7 17.9 L16.7 17.9 C17.1 18.1 17.5 18.2 17.8 18.4 C18.9 19.2 18.8 20.6 17.7 21.4 C16.7 22.0 15.3 22.2 14.3 21.9 C12.8 21.6 11.6 21.0 11.6 19.8 C11.6 19.3 12.2 18.9 12.3 18.6 C13.1 18.0 14.5 18.6 15.2 18.7 C15.1 18.8 15.4 18.7 15.5 18.7 C15.7 18.7 16.2 18.8 16.2 18.7 C16.3 18.7 16.6 18.8 16.7 18.8 L16.7 18.8 C16.6 18.7 16.6 18.8 16.7 18.7 C16.7 18.6 16.7 18.4 16.7 18.2 L16.7 18.2 C16.7 18.1 16.7 18.0 16.7 17.9 L16.7 17.9"/></svg>