<svg xmlns="http://www.w3.org/2000/svg" viewBox="0.0 0.0 24.0 24.0" height="200px" width="200px"><path fill="none" stroke="black" stroke-width="0.3" stroke-opacity="1.0" filling="0" d="M13.3 3.7 L13.3 3.7 C15.2 3.9 17.0 4.8 17.8 6.8 C18.5 8.8 18.1 11.0 16.7 12.8 C15.5 14.6 13.2 15.7 11.1 15.7 C9.1 15.7 7.1 14.6 6.0 12.8 C4.8 11.0 4.5 8.8 5.1 6.8 C5.9 4.8 7.7 3.9 9.6 3.7 C10.9 3.7 12.1 3.8 13.3 3.7 L13.3 3.7"/> <path fill="none" stroke="black" stroke-width="0.3" stroke-opacity="1.0" filling="0" d="M13.3 4.1 L13.3 4.1 C15.4 4.4 16.9 5.0 17.7 7.0 C18.5 8.4 18.0 10.2 16.9 11.6 C15.9 12.9 14.4 13.8 12.8 14.3 C11.2 14.5 9.5 14.3 8.3 13.2 C6.7 12.1 6.0 10.6 5.9 9.0 C5.8 7.4 6.3 5.9 7.1 4.9 C8.0 4.1 9.3 3.8 10.4 4.0 C11.5 4.2 12.1 4.9 13.3 4.8 C13.6 4.8 13.9 4.3 14.2 4.1 L14.2 4.1"/> <path fill="none" stroke="black" stroke-width="0.3" stroke-opacity="1.0" filling="0" d="M14.6 6.9 L15.5 6.9 L15.5 13.0 L16.5 13.0 L16.5 9.1 L16.1 9.1 L16.1 15.9 L14.6 15.9 L14.6 10.4 L14.6 6.9"/></svg>