<svg xmlns="http://www.w3.org/2000/svg" viewBox="0.0 0.0 24.0 24.0" height="200px" width="200px"><path fill="none" stroke="black" stroke-width="0.3" stroke-opacity="1.0" filling="0" d="M11.1 7.4 L11.1 7.4 C11.3 7.7 11.7 7.9 11.7 8.3 C11.7 9.0 10.4 9.0 10.4 8.3 C10.4 7.9 10.8 7.7 11.1 7.4 L11.1 7.4"/> <path fill="none" stroke="black" stroke-width="0.3" stroke-opacity="1.0" filling="0" d="M8.9 8.4 L8.9 8.4 C9.8 8.5 10.6 8.6 11.4 8.7 L11.4 8.7 C11.2 9.2 11.1 10.0 10.6 10.2 C9.9 10.7 9.0 9.8 8.4 10.2 C7.2 11.1 7.9 11.4 8.5 12.3 C9.2 13.2 10.8 12.4 11.8 12.2 L11.8 12.2 C12.3 12.5 12.7 12.7 13.1 13.1 C13.5 13.5 13.8 13.9 14.1 14.4 L14.1 14.4 C14.0 14.7 14.0 15.0 14.0 15.3 L14.0 15.3 C13.7 15.9 13.7 16.5 13.4 17.1 C13.0 17.9 12.3 18.2 11.8 18.3 L11.8 18.3 C11.9 18.6 12.1 19.1 12.3 19.4 L12.3 19.4 C10.4 18.9 9.3 18.5 8.2 16.6 L8.2 16.6 C8.4 15.9 8.5 15.3 8.6 14.6 L8.6 14.6 C8.1 13.9 7.9 13.1 7.8 12.3 L7.8 12.3 C8.2 13.1 8.5 13.9 9.0 14.6 L9.0 14.6 C8.2 14.3 7.5 13.8 7.1 12.9 L7.1 12.9 C7.4 14.0 7.6 14.8 8.0 15.6 L8.0 15.6 C7.5 16.2 6.9 16.8 6.3 17.6 L6.3 17.6 C4.8 15.9 4.8 14.8 4.9 13.2 C5.0 11.7 5.8 10.1 7.4 8.9 L7.4 8.9 C8.1 8.7 8.8 8.5 8.9 8.4 L8.9 8.4"/> <path fill="none" stroke="black" stroke-width="0.3" stroke-opacity="1.0" filling="0" d="M8.9 9.4 L8.9 9.4 C9.0 9.4 9.2 9.6 9.3 9.6 L9.3 9.6 C9.3 10.0 9.3 10.4 9.3 10.7 L9.3 10.7 C10.5 11.6 10.2 12.7 9.5 14.3 L9.5 14.3 C8.9 14.6 8.1 14.8 7.5 15.0 L7.5 15.0 C8.2 14.8 8.8 14.5 9.3 14.0 L9.3 14.0 C8.7 14.2 8.0 14.7 7.5 14.5 C7.1 14.2 7.1 13.3 7.1 12.9 L7.1 12.9 C7.6 12.4 8.0 11.7 8.3 11.1 C8.4 10.6 8.5 10.0 8.5 9.6 L8.5 9.6 C8.7 9.6 8.8 9.5 8.9 9.4 L8.9 9.4"/> <path fill="none" stroke="black" stroke-width="0.3" stroke-opacity="1.0" filling="0" d="M13.6 10.3 L13.6 10.3 C14.0 11.7 14.2 12.1 13.8 13.4 C13.5 14.8 12.4 16.7 10.8 17.4 C9.3 18.0 7.6 18.0 6.3 16.7 C5.0 15.6 4.9 13.5 5.7 12.0 C6.2 10.8 7.2 9.9 8.5 9.9 C10.4 9.9 12.1 10.4 13.6 10.3 L13.6 10.3"/> <path fill="none" stroke="black" stroke-width="0.3" stroke-opacity="1.0" filling="0" d="M13.6 11.3 L13.6 11.3 C14.5 12.0 14.9 12.4 14.7 13.4 C14.5 14.7 12.6 16.2 11.2 15.8 C10.2 15.6 10.0 14.5 9.9 13.6 C9.8 12.7 9.9 11.4 10.6 10.9 C11.9 10.3 12.4 10.6 13.6 11.3 L13.6 11.3"/> <path fill="none" stroke="black" stroke-width="0.3" stroke-opacity="1.0" filling="0" d="M8.9 12.9 L8.9 12.9 C8.9 12.9 9.0 12.9 9.0 12.9 L9.0 13.3 C8.9 13.4 8.7 13.4 8.5 13.3 L8.5 12.9 C8.6 12.9 8.7 12.9 8.9 12.9 L8.9 12.9"/> <path fill="none" stroke="black" stroke-width="0.3" stroke-opacity="1.0" filling="0" d="M15.6 12.9 L15.6 12.9 C15.7 12.9 15.8 12.9 15.9 12.9 L15.9 13.3 C15.8 13.4 15.5 13.4 15.4 13.3 L15.4 12.9 C15.5 12.9 15.6 12.9 15.6 12.9 L15.6 12.9"/></svg>