<svg xmlns="http://www.w3.org/2000/svg" viewBox="0.0 0.0 24.0 24.0" height="200px" width="200px"><path fill="none" stroke="black" stroke-width="0.3" stroke-opacity="1.0" filling="0" d="M11.8 5.7 L11.8 5.7 C13.0 6.0 13.8 6.4 14.4 7.3 L14.4 7.3"/> <path fill="none" stroke="black" stroke-width="0.3" stroke-opacity="1.0" filling="0" d="M7.1 8.5 L7.1 8.5 C7.1 9.8 7.1 9.8 7.1 8.5 L7.1 8.5"/> <path fill="none" stroke="black" stroke-width="0.3" stroke-opacity="1.0" filling="0" d="M5.9 12.7 L5.9 12.7 C5.9 13.3 5.9 13.3 5.9 12.7 L5.9 12.7"/> <path fill="none" stroke="black" stroke-width="0.3" stroke-opacity="1.0" filling="0" d="M9.9 12.7 L9.9 12.7 C9.9 13.3 9.9 13.3 9.9 12.7 L9.9 12.7"/> <path fill="none" stroke="black" stroke-width="0.3" stroke-opacity="1.0" filling="0" d="M6.9 13.7 L6.9 13.7 C6.9 14.2 6.9 14.2 6.9 13.7 L6.9 13.7"/> <path fill="none" stroke="black" stroke-width="0.3" stroke-opacity="1.0" filling="0" d="M9.9 13.7 L9.9 13.7 C9.9 14.2 9.9 14.2 9.9 13.7 L9.9 13.7"/> <path fill="none" stroke="black" stroke-width="0.3" stroke-opacity="1.0" filling="0" d="M5.9 14.7 L5.9 14.7 C5.9 15.2 5.9 15.2 5.9 14.7 L5.9 14.7"/> <path fill="none" stroke="black" stroke-width="0.3" stroke-opacity="1.0" filling="0" d="M9.9 14.7 L9.9 14.7 C9.9 15.2 9.9 15.2 9.9 14.7 L9.9 14.7"/> <path fill="none" stroke="black" stroke-width="0.3" stroke-opacity="1.0" filling="0" d="M12.0 14.7 L12.0 14.7 C12.0 15.2 12.0 15.2 12.0 14.7 L12.0 14.7"/> <path fill="none" stroke="black" stroke-width="0.3" stroke-opacity="1.0" filling="0" d="M14.4 14.7 L14.4 14.7 C14.4 15.2 14.4 15.2 14.4 14.7 L14.4 14.7"/> <path fill="none" stroke="black" stroke-width="0.3" stroke-opacity="1.0" filling="0" d="M10.6 15.7 L10.6 15.7 C10.6 16.2 10.6 16.2 10.6 15.7 L10.6 15.7"/> <path fill="none" stroke="black" stroke-width="0.3" stroke-opacity="1.0" filling="0" d="M11.7 15.7 L11.7 15.7 C11.7 16.2 11.7 16.2 11.7 15.7 L11.7 15.7"/> <path fill="none" stroke="black" stroke-width="0.3" stroke-opacity="1.0" filling="0" d="M12.8 15.7 L12.8 15.7 C12.8 16.2 12.8 16.2 12.8 15.7 L12.8 15.7"/> <path fill="none" stroke="black" stroke-width="0.3" stroke-opacity="1.0" filling="0" d="M7.1 16.6 L7.1 16.6 C7.1 17.1 7.1 17.1 7.1 16.6 L7.1 16.6"/> <path fill="none" stroke="black" stroke-width="0.3" stroke-opacity="1.0" filling="0" d="M8.2 16.6 L8.2 16.6 C8.2 17.1 8.2 17.1 8.2 16.6 L8.2 16.6"/> <path fill="none" stroke="black" stroke-width="0.3" stroke-opacity="1.0" filling="0" d="M11.3 16.6 L11.3 16.6 C11.3 17.1 11.3 17.1 11.3 16.6 L11.3 16.6"/> <path fill="none" stroke="black" stroke-width="0.3" stroke-opacity="1.0" filling="0" d="M12.5 16.6 L12.5 16.6 C12.5 17.1 12.5 17.1 12.5 16.6 L12.5 16.6"/> <path fill="none" stroke="black" stroke-width="0.3" stroke-opacity="1.0" filling="0" d="M13.6 16.6 L13.6 16.6 C13.6 17.1 13.6 17.1 13.6 16.6 L13.6 16.6"/> <path fill="none" stroke="black" stroke-width="0.3" stroke-opacity="1.0" filling="0" d="M14.8 16.6 L14.8 16.6 C14.8 17.1 14.8 17.1 14.8 16.6 L14.8 16.6"/> <path fill="none" stroke="black" stroke-width="0.3" stroke-opacity="1.0" filling="0" d="M15.9 16.6 L15.9 16.6 C15.9 17.1 15.9 17.1 15.9 16.6 L15.9 16.6"/> <path fill="none" stroke="black" stroke-width="0.3" stroke-opacity="1.0" filling="0" d="M16.9 16.6 L16.9 16.6 C16.9 17.1 16.9 17.1 16.9 16.6 L16.9 16.6"/> <path fill="none" stroke="black" stroke-width="0.3" stroke-opacity="1.0" filling="0" d="M17.8 16.6 L17.8 16.6 C17.8 17.1 17.8 17.1 17.8 16.6 L17.8 16.6"/> <path fill="none" stroke="black" stroke-width="0.3" stroke-opacity="1.0" filling="0" d="M17.8 17.4 L17.8 17.4 C17.8 17.8 17.8 17.8 17.8 17.4 L17.8 17.4"/> <path fill="none" stroke="black" stroke-width="0.3" stroke-opacity="1.0" filling="0" d="M17.8 17.4 L17.8 17.4 C17.8 17.8 17.8 17.8 17.8 17.4 L17.8 17.4"/> <path fill="none" stroke="black" stroke-width="0.3" stroke-opacity="1.0" filling="0" d="M17.8 18.1 L17.8 18.1 C17.8 18.7 17.8 18.7 17.8 18.1 L17.8 18.1"/> <path fill="none" stroke="black" stroke-width="0.3" stroke-opacity="1.0" filling="0" d="M17.8 18.1 L17.8 18.1 C17.8 18.7 17.8 18.7 17.8 18.1 L17.8 18.1"/> <path fill="none" stroke="black" stroke-width="0.3" stroke-opacity="1.0" filling="0" d="M17.8 18.1 L17.8 18.1 C17.8 18.7 17.8 18.7 17.8 18.1 L17.8 18.1"/> <path fill="none" stroke="black" stroke-width="0.3" stroke-opacity="1.0" filling="0" d="M17.8 18.1 L17.8 18.1 C17.8 18.7 17.8 18.7 17.8 18.1 L17.8 18.1"/> <path fill="none" stroke="black" stroke-width="0.3" stroke-opacity="1.0" filling="0" d="M17.8 18.1 L17.8 18.1 C17.8 18.7 17.8 18.7 17.8 18.1 L17.8 18.1"/> <path fill="none" stroke="black" stroke-width="0.3" stroke-opacity="1.0" filling="0" d="M17.8 18.1 L17.8 18.1 C17.8 18.7 17.8 18.7 17.8 18.1 L17.8 18.1"/> <path fill="none" stroke="black" stroke-width="0.3" stroke-opacity="1.0" filling="0" d="M17.8 18.1 L17.8 18.1 C17.8 18.7 17.8 18.7 17.8 18.1 L17.8 18.1"/> <path fill="none" stroke="black" stroke-width="0.3" stroke-opacity="1.0" filling="0" d="M17.8 18.1 L17.8 18.1 C17.8 18.7 17.8 18.7 17.8 18.1 L17.8 18.1"/> <path fill="none" stroke="black" stroke-width="0.3" stroke-opacity="1.0" filling="0" d="M17.8 18.1 L17.8 18.1 C17.8 18.7 17.8 18.7 17.8 18.1 L17.8 18.1"/> <path fill="none" stroke="black" stroke-width="0.3" stroke-opacity="1.0" filling="0" d="M17.8 18.1 L17.8 18.1 C17.8 18.7 17.8 18.7 17.8 18.1 L17.8 18.1"/> <path fill="none" stroke="black" stroke-width="0.3" stroke-opacity="1.0" filling="0" d="M15.5 18.5 L15.5 18.5 C15.5 18.7 15.5 18.7 15.5 18.5 L15.5 18.5"/> <path fill="none" stroke="black" stroke-width="0.3" stroke-opacity="1.0" filling="0" d="M16.6 18.5 L16.6 18.5 C16.6 18.7 16.6 18.7 16.6 18.5 L16.6 18.5"/> <path fill="none" stroke="black" stroke-width="0.3" stroke-opacity="1.0" filling="0" d="M18.6 18.5 L18.6 18.5 C18.6 18.7 18.6 18.7 18.6 18.5 L18.6 18.5"/></svg>