<svg xmlns="http://www.w3.org/2000/svg" viewBox="0.0 0.0 24.0 24.0" height="200px" width="200px"><path fill="none" stroke="black" stroke-width="0.3" stroke-opacity="1.0" filling="0" d="M17.1 8.5 L17.1 8.5 C17.3 8.8 17.6 9.0 17.9 9.2 L17.9 12.3 L17.9 16.2 C17.6 16.5 17.3 16.8 17.1 17.1 L17.1 17.1 C16.6 17.1 16.2 17.3 15.9 17.3 L15.9 17.3 C15.3 16.8 14.8 16.5 14.4 16.2 L14.4 12.3 L14.4 9.2 C14.8 9.0 15.3 8.8 15.9 8.6 L15.9 8.6 C16.2 8.6 16.6 8.6 17.1 8.5 L17.1 8.5"/> <path fill="none" stroke="black" stroke-width="0.3" stroke-opacity="1.0" filling="0" d="M11.7 10.0 L11.7 10.0 C11.9 10.2 12.2 10.4 12.4 10.6 L12.4 12.3 C11.7 12.0 11.0 11.6 10.4 11.4 L10.4 9.6 C10.6 9.5 10.7 9.4 10.8 9.4 L10.8 9.4 C11.1 9.4 11.3 9.3 11.7 9.4 L11.7 9.4"/> <path fill="none" stroke="black" stroke-width="0.3" stroke-opacity="1.0" filling="0" d="M12.4 11.8 L12.4 11.8 C12.9 12.0 13.5 12.1 13.9 12.1 L13.9 12.1 C15.0 12.4 16.0 12.8 16.8 13.5 C17.4 14.2 17.5 15.0 17.9 16.0 L17.9 16.0 C16.2 16.8 14.4 17.2 12.7 17.1 C11.0 17.0 8.9 15.4 10.0 13.8 C10.4 12.7 11.4 12.3 12.4 11.8 L12.4 11.8"/></svg>