<svg xmlns="http://www.w3.org/2000/svg" viewBox="0 0 24 24"><circle cx="12" cy="12" r="10" fill="none" stroke="black"/><circle cx="9" cy="10" r="1.5" fill="black"/> <path fill="0" viewBox="0" d="M18.2 5.7 3.5 L18.4 5.7 C20.0 6.5 21.7 8.7 19.7 10.6 L19.7 10.6 C19.6 10.6 19.4 10.5 19.3 10.4 L19.2 10.4 C18.8 10.5 18.4 10.6 18.0 10.6 L18.0 10.6 C18.0 10.6 17.9 10.6 17.8 10.6 L17.8 10.6 C18.0 10.2 18.1 9.7 18.3 9.3 L18.3 9.3 C17.9 9.1 17.4 9.0 16.9 8.8 L16.9 8.8 C15.5 10.7 13.9 12.0 12.5 13.5 L11.8 14.3 L11.4 14.4 L11.4 17.7 C11.1 17.9 10.8 18.1 10.4 18.3 L8.4 17.2 C8.1 17.0 7.8 16.8 7.5 16.6 L6.5 15.8 C5.9 15.7 5.5 15.0 5.4 14.4 L5.4 14.4 C5.4 14.2 5.5 13.8 5.5 13.4 L5.5 13.4 C5.4 13.3 5.3 13.3 5.2 13.2 L5.2 13.2 C6.7 12.1 8.1 10.6 9.5 9.2 L9.5 9.2 C8.8 9.9 8.3 10.6 8.0 11.4 L8.0 11.4 C6.6 10.2 5.7 9.1 5.1 7.4 L5.1 7.4 C5.2 7.7 5.3 7.9 5.4 8.2 L5.4 8.2 C7.0 9.3 8.6 10.5 10.5 11.7 L10.5 11.7 C11.0 11.7 11.5 11.8 12.0 11.9 L12.0 11.9 C12.3 11.9 12.8 11.8 13.3 11.7 L13.3 11.7 C14.0 11.8 14.6 11.9 15.2 11.8 L15.2 11.8 C15.9 10.2 16.8 9.5 18.1 8.2 L18.1 8.2 C17.8 7.8 17.4 7.4 17.0 7.1 L17.0 7.1 C17.2 6.7 17.2 6.3 17.0 5.9 L17.0 5.9 C17.3 5.5 17.9 5.2 18.4 4.8 L18.4 4.8"/> <path fill="none" stroke="black" stroke-width="0.3" stroke-opacity="1.0" filling="0" d="M12.9 6.6 L12.9 6.6 C13.3 6.8 13.7 7.1 14.1 7.4 L14.1 7.4 C15.1 7.6 16.1 7.9 16.8 8.4 L16.8 8.4 C17.1 8.6 17.5 8.9 17.9 9.1 L17.9 9.1 C18.1 9.4 18.2 9.7 18.3 10.0 L18.3 10.0 C17.9 9.5 17.4 9.0 16.9 8.7 L16.9 8.7 C16.5 8.9 16.1 9.0 15.7 9.1 L15.7 9.1 C15.6 9.4 15.5 9.7 15.4 10.1 L15.4 10.1 C15.3 9.6 15.2 9.1 15.0 8.7 L15.0 8.7 C14.7 8.6 14.4 8.5 14.1 8.4 L14.1 8.4 C13.9 8.5 13.8 8.6 13.6 8.7 L13.6 8.7 C13.5 8.9 13.5 9.1 13.4 9.2 L13.4 9.2 C13.2 9.2 13.1 9.2 12.9 9.1 L12.9 9.1 C12.8 9.1 12.7 9.0 12.6 8.9 L12.6 8.9 C12.1 9.0 11.6 9.2 11.1 9.1 L11.1 9.1 C10.8 9.0 10.7 8.9 10.6 8.7 L10.6 8.7 C10.5 8.9 10.4 9.2 10.2 9.3 L10.2 9.3 C10.1 9.3 9.9 9.3 9.9 9.2 L9.9 9.2 C9.9 9.1 9.9 9.0 9.8 8.9 L9.8 8.9 C9.9 9.0 9.8 9.0 9.8 9.0 L9.8 9.0 C9.6 9.0 9.4 9.0 9.2 9.0 L9.2 9.0 C9.0 8.8 8.7 8.7 8.5 8.5 L8.5 8.5 C8.8 8.8 8.9 8.9 9.1 9.2 L9.1 9.2 C9.0 9.3 8.9 9.4 8.8 9.5 L8.8 9.5 C8.7 9.6 8.5 9.7 8.4 9.9 L8.4 9.9 C8.5 9.8 8.6 9.7 8.7 9.6 L8.7 9.6 C8.6 9.6 8.5 9.5 8.4 9.4 L8.4 9.4 C8.5 9.2 8.5 9.0 8.5 8.9 L8.5 8.9 C8.5 9.1 8.4 9.3 8.2 9.5 L8.2 9.5 C8.3 9.4 8.4 9.3 8.5 9.1 L8.5 9.1 C8.5 8.9 8.5 8.9 8.5 8.9 L8.5 8.9 C8.7 9.0 8.8 9.1 8.9 9.3 L8.9 9.3 C8.9 9.3 9.0 9.3 9.0 9.3 L9.0 9.3 C9.3 8.8 9.2 8.2 9.3 7.7 L9.3 7.7 C9.9 8.2 10.1 8.2 10.5 7.0 L10.5 7.0 C10.9 7.6 10.8 7.4 11.3 7.9 L11.3 7.9 C11.6 7.8 12.0 7.6 12.4 7.4 L12.4 7.4 C12.6 7.1 13.0 6.8 13.4 6.6 L13.4 6.6"/> <path fill="none" stroke="black" stroke-width="0.3" stroke-opacity="1.0" filling="0" d="M17.3 9.4 L17.3 9.4 C17.4 9.5 17.6 9.6 17.7 9.7 L17.7 9.7 C18.7 10.0 19.2 10.2 19.6 11.2 C20.4 12.9 19.2 15.1 17.7 15.1 C16.2 15.1 14.9 12.8 15.5 11.2 C15.9 10.1 16.8 9.8 17.3 9.4 L17.3 9.4"/> <path fill="none" stroke="black" stroke-width="0.3" stroke-opacity="1.0" filling="0" d="M9.0 12.3 L9.0 12.3 C9.0 13.5 9.0 13.5 9.0 12.3 L9.0 12.3"/> <path fill="none" stroke="black" stroke-width="0.3" stroke-opacity="1.0" filling="0" d="M15.6 12.3 L15.6 12.3 C15.6 13.5 15.6 13.5 15.6 12.3 L15.6 12.3"/></svg>