<svg xmlns="http://www.w3.org/2000/svg" viewBox="0 0 24 24"><circle cx="12" cy="12" r="10" fill="none" stroke="black"/><circle cx="9" cy="10" r="1.5" fill="black"/> <path fill="0" d="M11.6 4.8 5.8 L13.5 4.6 L12.2 6.4 L9.9 7.9 L10.1 6.4 L9.0 6.4 L9.0 5.2 L9.6 5.2"/> <path fill="none" stroke="black" stroke-width="0.3" stroke-opacity="1.0" filling="0" d="M12.3 6.1 L12.3 6.1 C13.8 6.5 15.2 6.8 16.0 8.2 C16.7 9.5 16.8 11.0 16.4 12.3 C15.9 13.5 15.1 14.9 13.7 15.4 C12.9 16.1 11.5 16.1 10.5 15.6 C9.4 15.1 8.5 14.2 7.9 12.9 C7.3 11.5 7.2 10.0 8.0 8.8 C8.7 7.5 9.8 6.4 11.0 6.2 L11.0 6.2 C11.4 6.5 11.8 6.8 12.3 6.8 C12.7 6.8 12.9 6.5 13.3 6.1 L12.3 6.1"/> <path fill="none" stroke="black" stroke-width="0.3" stroke-opacity="1.0" filling="0" d="M12.3 6.5 L12.3 6.5 C13.1 6.9 13.9 7.4 14.4 8.1 L14.4 9.0 C12.4 8.7 11.8 8.6 10.0 9.0 L10.0 8.1 C10.6 7.4 11.4 6.9 12.3 6.5 L12.3 6.5"/> <path fill="none" stroke="black" stroke-width="0.3" stroke-opacity="1.0" filling="0" d="M12.3 6.9 L12.3 6.9 C12.8 7.2 13.4 7.5 13.9 7.9 L13.9 7.9 C13.6 7.9 13.1 7.8 12.8 7.8 C12.4 7.8 12.2 7.9 11.8 7.9 C11.5 7.8 11.2 7.9 10.7 7.9 L10.7 7.9 C11.1 7.5 11.7 7.2 12.3 6.9 L12.3 6.9"/> <path fill="none" stroke="black" stroke-width="0.3" stroke-opacity="1.0" filling="0" d="M12.3 7.3 L12.3 7.3 C12.9 7.6 13.5 8.1 13.9 8.7 L13.9 9.0 C13.5 9.0 13.1 8.9 12.6 8.9 L12.3 8.9 L12.3 7.3"/> <path fill="none" stroke="black" stroke-width="0.3" stroke-opacity="1.0" filling="0" d="M12.7 7.9 L12.7 7.9 C13.2 8.3 13.8 8.7 14.2 9.2 L14.2 9.5 C13.8 9.5 13.5 9.6 13.1 9.6 L12.7 9.6 L12.7 7.9"/> <path fill="none" stroke="black" stroke-width="0.3" stroke-opacity="1.0" filling="0" d="M9.9 8.4 L9.9 9.6 L9.0 9.6 C8.8 9.4 8.4 9.1 8.1 8.8 L8.1 8.8 C8.6 8.7 9.2 8.5 9.9 8.4 L9.9 8.4"/> <path fill="none" stroke="black" stroke-width="0.3" stroke-opacity="1.0" filling="0" d="M9.5 8.5 L9.5 8.5 C9.9 8.8 10.4 9.0 10.9 9.4 L10.9 9.4 C10.8 9.5 10.7 9.9 10.5 10.1 C9.6 11.1 9.1 8.6 9.5 8.5 L9.5 8.5"/> <path fill="none" stroke="black" stroke-width="0.3" stroke-opacity="1.0" filling="0" d="M8.0 8.9 L8.0 8.9 C8.2 8.9 8.3 8.9 8.4 8.9 L8.4 8.9 C8.4 9.1 8.4 9.4 8.4 9.6 L8.4 9.6 C8.0 9.6 7.6 9.5 7.2 9.4 L7.2 9.4 C7.5 9.2 7.7 9.0 8.0 8.9 L8.0 8.9"/> <path fill="none" stroke="black" stroke-width="0.3" stroke-opacity="1.0" filling="0" d="M8.5 8.9 L8.5 8.9 C8.8 8.9 9.1 9.0 9.3 9.0 L9.3 9.0 C9.3 9.3 9.3 9.6 9.3 9.9 L9.3 9.9 C8.9 10.1 8.4 10.2 8.1 9.8 L8.1 9.8 C8.2 9.7 8.3 9.4 8.5 9.2 L8.5 9.2 C8.5 9.0 8.5 8.9 8.5 8.9 L8.5 8.9"/> <path fill="none" stroke="black" stroke-width="0.3" stroke-opacity="1.0" filling="0" d="M8.5 9.3 L8.5 9.3 C8.5 9.3 8.5 9.3 8.5 9.3 L8.5 9.3 C8.4 9.4 8.4 9.8 8.5 9.8 L8.5 9.8 C8.5 9.8 8.5 9.7 8.5 9.6 L8.5 9.6 C8.5 9.6 8.5 9.5 8.5 9.5 L8.5 9.5 C8.5 9.4 8.5 9.4 8.5 9.3 L8.5 9.3"/> <path fill="none" stroke="black" stroke-width="0.3" stroke-opacity="1.0" filling="0" d="M8.5 10.7 L8.5 10.7 C8.5 10.7 8.5 10.7 8.5 10.7 L8.5 10.7 C8.5 10.8 8.5 10.9 8.5 10.9 L8.5 10.9 C8.5 11.0 8.5 11.0 8.5 11.1 L8.5 11.1 C8.5 11.0 8.5 11.0 8.5 10.9 L8.5 10.9 C8.5 10.9 8.5 10.8 8.5 10.7 L8.5 10.7"/> <path fill="none" stroke="black" stroke-width="0.3" stroke-opacity="1.0" filling="0" d="M8.5 11.9 L8.5 11.9 C8.5 12.0 8.5 12.0 8.5 12.1 L8.5 12.1 C8.5 12.1 8.5 12.2 8.5 12.2 L8.5 12.2 C8.5 12.2 8.5 12.1 8.5 12.1 L8.5 12.1 C8.5 12.0 8.5 12.0 8.5 11.9 L8.5 11.9"/> <path fill="none" stroke="black" stroke-width="0.3" stroke-opacity="1.0" filling="0" d="M8.5 13.0 L8.5 13.0 C8.5 13.1 8.5 13.1 8.5 13.2 L8.5 13.2 C8.5 13.2 8.5 13.3 8.5 13.4 L8.5 13.4 C8.5 13.3 8.5 13.2 8.5 13.0 L8.5 13.0"/> <path fill="none" stroke="black" stroke-width="0.3" stroke-opacity="1.0" filling="0" d="M8.5 14.3 L8.5 14.3 C8.5 14.3 8.5 14.3 8.5 14.3 L8.5 14.3 C8.5 14.3 8.5 14.3 8.5 14.3 L8.5 14.3"/> <path fill="none" stroke="black" stroke-width="0.3" stroke-opacity="1.0" filling="0" d="M8.5 15.3 L8.5 15.3 C8.5 15.3 8.5 15.3 8.5 15.3 L8.5 15.3"/> <path fill="none" stroke="black" stroke-width="0.3" stroke-opacity="1.0" filling="0" d="M10.5 15.3 L10.5 15.3 C10.5 15.3 10.5 15.3 10.5 15.3 L10.5 15.3"/> <path fill="none" stroke="black" stroke-width="0.3" stroke-opacity="1.0" filling="0" d="M10.5 16.3 L10.5 16.3 C10.5 16.3 10.5 16.3 10.5 16.3 L10.5 16.3"/> <path fill="none" stroke="black" stroke-width="0.3" stroke-opacity="1.0" filling="0" d="M11.5 16.3 L11.5 16.3 C11.5 16.3 11.5 16.3 11.5 16.3 L11.5 16.3"/> <path fill="none" stroke="black" stroke-width="0.3" stroke-opacity="1.0" filling="0" d="M12.5 16.3 L12.5 16.3 C12.5 16.3 12.5 16.3 12.5 16.3 L12.5 16.3"/> <path fill="none" stroke="black" stroke-width="0.3" stroke-opacity="1.0" filling="0" d="M13.5 16.3 L13.5 16.3 C13.5 16.3 13.5 16.3 13.5 16.3 L13.5 16.3"/> <path fill="none" stroke="black" stroke-width="0.3" stroke-opacity="1.0" filling="0" d="M13.5 17.4 L13.5 17.4 C13.5 17.4 13.5 17.4 13.5 17.4 L13.5 17.4"/> <path fill="none" stroke="black" stroke-width="0.3" stroke-opacity="1.0" filling="0" d="M13.5 18.3 L13.5 18.3 C13.5 18.3 13.5 18.3 13.5 18.3 L13.5 18.3"/></svg>