<svg xmlns="http://www.w3.org/2000/svg" viewBox="0 0 24 24"><circle cx="12" cy="12" r="10" fill="none" stroke="black"/><circle cx="9" cy="10" r="1.5" fill="black"/> <path fill="0" d="M8 5.1 7.0 L8.3 7.5 C12.8 7.1 13.6 7.5 13.2 9.7 L13.2 9.7 C14.8 10.8 15.6 11.6 15.0 13.8 L15.0 13.8 C16.3 15.2 16.6 15.4 16.1 17.1 L15.0 17.1 C13.3 16.6 12.1 16.6 10.3 16.3 L10.3 16.3 C9.2 16.5 8.1 16.6 7.0 17.1 L6.0 17.1 C5.7 16.7 5.4 16.2 5.1 15.7 L5.1 15.7 C5.4 15.4 5.7 15.0 6.1 14.6 L6.1 14.6 C5.6 14.1 5.2 13.6 4.6 13.4 L4.6 13.4 C4.6 11.8 5.1 10.5 6.7 9.7 L6.7 9.7 C7.8 7.9 8.9 7.4 10.3 6.8 L10.3 6.8"/> <path fill="none" stroke="black" stroke-width="0.3" stroke-opacity="1.0" filling="0" d="M10.3 7.2 L10.3 7.2 C12.3 8.1 12.4 9.7 11.4 11.5 L11.4 11.5 C9.9 9.9 8.9 8.2 10.3 7.2 L10.3 7.2"/> <path fill="none" stroke="black" stroke-width="0.3" stroke-opacity="1.0" filling="0" d="M8.2 9.0 L8.2 9.0 C9.4 9.0 10.6 9.3 11.7 10.1 L11.7 10.1 C11.1 10.2 10.3 10.3 9.6 10.3 L9.6 10.3 C9.6 10.3 9.6 10.3 9.6 10.3 L9.6 10.3 C9.7 10.4 9.7 10.6 9.7 10.7 L9.7 10.7 C9.6 10.8 9.6 11.0 9.6 11.2 L9.6 11.2 C9.5 11.3 9.5 11.4 9.5 11.4 L9.5 11.4 C9.5 11.6 9.6 11.7 9.6 11.9 L9.6 11.9 C9.5 11.9 9.4 11.9 9.4 12.0 L9.4 12.0 C9.4 12.1 9.4 12.2 9.4 12.3 L9.4 12.3 C9.4 12.4 9.4 12.4 9.4 12.5 L9.4 12.5 C9.4 12.6 9.4 12.6 9.4 12.7 L9.4 12.7 C9.3 12.8 9.3 12.9 9.3 13.0 L9.3 13.0 C9.3 13.0 9.2 13.0 9.1 13.0 L9.1 13.0 C8.9 13.1 8.8 13.2 8.7 13.4 L8.7 13.4 C8.7 13.3 8.7 13.3 8.7 13.3 L8.7 13.3 C8.5 13.4 8.4 13.6 8.4 13.7 L8.4 13.7 C8.3 13.7 8.2 13.7 8.1 13.8 L8.1 13.8 C8.0 13.8 7.9 13.9 7.8 13.9 L7.8 13.9 C7.8 13.9 7.7 13.9 7.7 13.9 L7.7 13.9 C7.7 14.0 7.6 14.0 7.6 14.0 L7.6 14.0 C7.6 14.0 7.6 14.0 7.6 14.0 L7.6 14.0 C7.4 13.9 7.3 13.7 7.1 13.6 L7.1 13.6 C7.1 13.6 7.0 13.5 7.0 13.4 L7.0 13.4 C6.9 13.2 6.8 13.0 6.7 12.8 L6.7 12.8 C6.8 12.7 6.9 12.6 7.0 12.5 L7.0 12.5 C6.6 12.3 6.3 12.2 6.1 11.9 L6.1 11.9 C6.3 10.2 6.8 9.0 8.2 9.0 L8.2 9.0"/> <path fill="none" stroke="black" stroke-width="0.3" stroke-opacity="1.0" filling="0" d="M9.3 13.4 L9.3 13.4 C9.5 13.4 9.7 13.4 9.9 13.4 L9.9 13.4 C10.1 14.2 10.7 15.0 11.2 15.8 L11.2 15.8 C10.3 15.8 8.9 15.8 7.9 15.8 L7.9 15.8 C8.4 15.0 9.1 14.2 9.3 13.4 L9.3 13.4"/> <path fill="none" stroke="black" stroke-width="0.3" stroke-opacity="1.0" filling="0" d="M15.8 14.0 L15.8 14.0 C16.0 14.2 16.3 14.4 16.5 14.6 L16.5 14.6 C16.5 15.1 16.4 15.5 16.2 15.9 L16.2 15.9 C16.2 16.1 16.2 16.3 16.2 16.6 L16.2 16.6 C15.8 15.9 15.4 15.2 15.2 14.4 L15.2 14.4 C15.4 14.2 15.6 14.1 15.8 14.0 L15.8 14.0"/></svg>