<svg xmlns="http://www.w3.org/2000/svg" viewBox="0 0 24 24"><circle cx="12" cy="12" r="10" fill="none" stroke="black"/><circle cx="9" cy="10" r="1.5" fill="black"/> <path fill="0" d="M11.0 4.7 5.4 L12.1 5.4"/> <path fill="none" stroke="black" stroke-width="0.3" stroke-opacity="1.0" filling="0" d="M8.2 6.7 L8.2 6.7 C8.2 7.1 8.3 7.6 8.1 8.0 L8.1 8.0 C8.0 7.5 8.1 6.8 8.1 6.3 L8.1 6.3 C8.1 6.4 8.1 6.6 8.2 6.7 L8.2 6.7"/> <path fill="none" stroke="black" stroke-width="0.3" stroke-opacity="1.0" filling="0" d="M9.6 6.7 L9.6 6.7 C10.1 6.9 10.5 7.5 10.7 8.0 L10.7 8.0 C11.7 7.1 12.7 6.8 13.6 7.4 C15.2 8.1 15.7 9.8 15.5 11.4 C15.3 13.1 14.2 14.5 12.8 15.3 C11.3 16.0 9.6 16.1 8.3 15.3 C7.1 14.4 6.5 13.1 6.3 11.4 C6.0 9.7 6.3 8.1 8.0 7.4 C8.3 7.0 8.9 6.9 9.6 6.7 L9.6 6.7"/> <path fill="none" stroke="black" stroke-width="0.3" stroke-opacity="1.0" filling="0" d="M9.6 6.7 L9.6 6.7 C10.1 6.9 10.5 7.5 10.7 8.0 L10.7 8.0 C11.7 7.1 12.7 6.8 13.6 7.4 L13.6 7.4 C14.0 6.9 14.3 6.3 14.9 6.7 C15.5 7.0 15.8 7.6 16.0 8.2 C16.4 9.6 16.1 11.0 15.4 12.3 C14.8 13.5 13.8 14.5 12.6 15.3 L12.6 15.3 C11.7 14.6 10.5 13.7 9.9 12.8 C9.4 11.9 9.0 11.1 8.7 10.1 C8.4 9.0 8.3 8.0 8.7 7.3 C9.0 6.9 9.3 6.8 9.6 6.7 L9.6 6.7"/> <path fill="none" stroke="black" stroke-width="0.3" stroke-opacity="1.0" filling="0" d="M15.5 6.9 L15.5 6.9 C15.9 7.3 16.2 7.8 16.5 8.3 L16.5 8.3 C16.4 8.4 16.3 8.5 16.2 8.5 L16.2 8.5 C16.3 8.5 16.3 8.5 16.3 8.5 L16.3 8.5 C16.2 8.5 16.1 8.4 16.0 8.3 L16.0 8.3 C15.9 7.8 15.7 7.3 15.5 6.9 L15.5 6.9"/> <path fill="none" stroke="black" stroke-width="0.3" stroke-opacity="1.0" filling="0" d="M12.7 8.4 L12.7 8.4 C13.2 8.8 13.8 9.2 14.4 9.6 L14.4 9.6 C13.9 9.3 13.4 8.8 12.7 8.8 C12.3 8.8 12.0 9.3 11.6 9.6 L11.6 9.6 C11.8 9.2 12.2 8.8 12.7 8.4 L12.7 8.4"/> <path fill="none" stroke="black" stroke-width="0.3" stroke-opacity="1.0" filling="0" d="M10.7 9.6 L10.7 9.6 C11.2 10.0 11.8 10.4 12.3 10.8 L12.3 10.8 C12.1 10.8 11.9 10.8 11.7 10.9 L11.7 10.9 C11.6 11.3 11.5 11.7 11.4 12.1 L11.4 12.1 C10.9 11.8 10.5 11.3 10.2 10.8 L10.2 10.8 C10.0 10.4 9.8 9.9 10.1 9.6 L10.1 9.6 C10.3 9.6 10.5 9.6 10.7 9.6 L10.7 9.6"/> <path fill="none" stroke="black" stroke-width="0.3" stroke-opacity="1.0" filling="0" d="M11.2 10.3 L11.2 10.3 C11.2 10.3 11.2 10.3 11.2 10.3 L11.2 10.3"/> <path fill="none" stroke="black" stroke-width="0.3" stroke-opacity="1.0" filling="0" d="M11.7 10.6 L11.7 10.6 C11.7 10.6 11.7 10.6 11.7 10.6 L11.7 10.6"/> <path fill="none" stroke="black" stroke-width="0.3" stroke-opacity="1.0" filling="0" d="M12.1 11.2 L12.1 11.2 C12.1 11.2 12.2 11.2 12.2 11.2 L12.2 11.2"/> <path fill="none" stroke="black" stroke-width="0.3" stroke-opacity="1.0" filling="0" d="M12.7 11.6 L12.7 11.6 C12.7 11.6 12.7 11.6 12.8 11.6 L12.8 11.6"/> <path fill="none" stroke="black" stroke-width="0.3" stroke-opacity="1.0" filling="0" d="M13.2 12.1 L13.2 12.1 C13.2 12.1 13.2 12.2 13.2 12.2 L13.2 12.2"/> <path fill="none" stroke="black" stroke-width="0.3" stroke-opacity="1.0" filling="0" d="M14.6 12.7 L14.6 12.7 C14.8 12.7 14.9 12.7 15.0 12.8 L15.0 12.8"/> <path fill="none" stroke="black" stroke-width="0.3" stroke-opacity="1.0" filling="0" d="M15.7 13.1 L15.7 13.1 C15.9 13.2 15.9 13.3 15.9 13.4 L15.9 13.4"/> <path fill="none" stroke="black" stroke-width="0.3" stroke-opacity="1.0" filling="0" d="M16.2 13.9 L16.2 13.9 C16.2 14.5 16.2 14.5 16.2 13.9 L16.2 13.9"/> <path fill="none" stroke="black" stroke-width="0.3" stroke-opacity="1.0" filling="0" d="M16.7 14.6 L16.7 14.6 C16.7 15.0 16.7 15.0 16.7 14.6 L16.7 14.6"/></svg>