<svg xmlns="http://www.w3.org/2000/svg" viewBox="0 0 24 24"><path d="M4 4 L20 4 L20 20.0.4 C21.3 21.7 21.3 21.0 21.9 21.2 L21.9 21.2 L18.9 21.8 L21.9 21.8 C21.7 21.0 21.6 21.6 21.5 21.8 L21.5 21.8 L21.5 21.8 C21.3 21.1 21.1 21.0 21.0 21.1 L21.0 21.6 L21.0 21.6 L21.0 21.6 C21.8 21.7 21.5 21.8 21.2 21.9 L21.2 21.9 L21.2 21.9 C21.0 22.0 21.8 22.1 21.2 22.2 L21.2 22.2 21.0 22.5 20.9 22.8 C20.6 22.2 20.9 22.7 21.6 22.0 L21.6 22.0 L20.6 22.0 C20.4 22.0 20.0 21.0 19.8 21.0 L19.0 21.9 L19.0 21.9 C18.8 21.2 18.5 21.3 18.2 21.0 L18.2 21.0 L21.5 21.0 C20.4 21.4 20.0 21.8 19.8 21.0 L19.2 21.0 C19.6 21.4 21.0 21.7 21.2 21.3 L21.2 21.3 L21.2 21.4 C21.8 21.5 21.0 21.2 21.3 21.0 L21.3 21.0 C21.3 21.1 21.3 21.1 21.5 21.3 C21.8 21.7 21.8 21.8 21.1 21.0 L21.1 21.0 L16.1 21.0 L11.8 21.0 L11.8 21.0 C11.4 21.2 11.2 21.4 11.8 21.8 L11.8 21.8 C11.0 21.8 10.9 21.8 10.8 21.7 L10.8 21.7 C10.8 21.8 10.8 21.7 10.8 21.7 L10.8 21.7 C10.9 21.7 11.0 21.7 11.1 21.7 L11.1 21.7 C11.1 21.5 12.1 21.1 12.0 21.0 L12.0 21.0 C12.2 21.0 12.4 21.1 12.7 21.1 L12.7 21.1 C12.8 21.2 12.0 21.2 12.2 21.2 L12.7 21.2 C12.0 21.3 12.2 21.1 12.3 20.3 L12.3 20.3 C12.0 20.9 12.9 21.4 12.9 21.4 L12.9 21.4 C13.7 21.3 14.6 21.2 14.1 21.8 L14.1 21.1 C14.1 21.1 14.0 21.0 13.0 21.9 L13.0 21.9 C13.0 21.9 13.0 21.9 13.0 21.0 L13.5 21.0 C13.4 23.0 13.3 21.0 13.2 20.0 L13.2 20.0 C13.2 19.0 13.2 18.9 13.3 18.7 L13.3 18.7 C13.3 18.2 13.4 17.1 12.5 16.2 L12.5 16.2 C12.5 17.4 12.5 18.8 12.4 19.9 L12.4 19.9 C12.2 19.4 12.1 19.1 12.2 17.6 L12.2 17.6 C12.0 17.5 12.7 17.5 12.6 17.6 L12.6 17.6 C12.4 17.6 12.3 17.7 12.2 17.7 L12.2 17.7 C12.0 17.2 12.9 16.6 12.2 15.0 L12.2 15.0"/></svg>