<svg xmlns="http://www.w3.org/2000/svg" viewBox="0 0 24 24"><path d="M4 4 L20 4 L20 20.0.4 C21.0 20.1 21.1 20.3 21.4 20.4 L21.4 20.4 C20.1 20.8 20.1 20.1 20.1 19.0 L20.1 19.0 C20.9 19.1 20.9 19.3 21.8 19.5 L21.8 19.5 C21.8 19.6 21.9 19.7 22.0 19.8 C22.1 19.9 21.9 19.8 21.8 19.7 L21.8 19.7 C21.0 19.9 20.1 20.1 20.1 20.4 L20.1 20.4 C20.0 21.5 19.8 21.5 19.3 21.7 C19.2 21.9 19.6 21.8 19.2 21.0 L19.2 21.0 C20.3 21.6 21.5 22.2 21.1 22.5 C21.6 21.7 21.5 22.8 21.2 22.3 L21.2 22.3 C21.5 22.9 21.6 22.2 21.7 21.8 L21.7 21.8 C21.6 21.3 21.2 21.1 21.2 21.9 L21.2 21.9 C20.5 21.0 20.9 20.3 21.2 20.7 L21.2 20.7 L21.2 20.7 C20.6 20.0 20.7 19.7 21.2 19.1 L21.2 19.1 L21.3 19.1 C21.9 19.9 22.0 20.6 21.3 21.2 L21.0 21.2 C20.9 21.1 20.3 20.0 19.2 19.0 C19.1 18.0 19.7 17.1 20.3 16.6 L20.3 16.6 C20.1 16.7 20.8 17.0 21.1 17.1 L21.1 17.1 C21.2 17.8 21.9 18.4 22.8 18.0 L22.8 18.0 L22.8 18.5 C22.4 19.5 21.0 21.2 21.0 21.9 L21.0 21.9 C21.5 21.9 21.2 21.4 20.9 21.6 C20.8 21.9 20.1 22.3 19.9 22.4 C19.3 22.5 19.6 21.6 19.6 21.3 C19.6 20.0 21.6 18.9 21.0 17.1 L21.0 17.1"/> <path fill="none" stroke="black" stroke-width="0.3" stroke-opacity="1.0" filling="0" d="M22.8 17.1 L22.8 17.1 C22.1 18.0 21.8 18.0 21.2 17.6 C20.5 17.1 18.7 17.0 18.9 17.1 C20.1 17.0 21.3 16.4 22.8 15.8 L22.8 15.8 C22.3 16.2 21.1 17.8 21.9 17.1 C20.6 16.5 19.1 17.0 18.9 17.2 C18.3 17.4 16.8 17.0 16.4 17.1 C13.3 17.5 14.0 18.0 16.1 18.2 C16.3 18.3 17.0 18.6 18.4 18.9 C18.7 19.3 17.8 19.6 17.2 19.6 C15.0 19.6 16.1 19.0 17.6 18.7 C19.0 17.4 20.6 16.9 21.8 17.1 C22.0 18.1 21.4 17.7 21.8 17.1 L21.8 17.1"/> <path fill="none" stroke="black" stroke-width="0.3" stroke-opacity="1.0" filling="0" d="M21.2 17.4 L21.2 17.4 C21.9 18.6 22.4 19.2 22.8 20.0 L22.8 20.0 C22.2 20.5 21.2 20.5 21.1 20.0 L21.1 20.0 C21.9 19.3 20.7 18.7 21.2 17.1 L21.2 17.1"/> <path fill="none" stroke="black" stroke-width="0.3" stroke-opacity="1.0" filling="0" d="M21.1 18.4 L21.1 18.4 C20.9 18.4 20.6 18.8 20.3 19.9 L20.3 22.9 C20.9 22.5 20.4 21.5 19.1 20.9 L19.1 20.9 C19.8 20.8 20.5 20.4 21.4 20.6 L21.4 20.6 C21.3 20.9 21.1 20.3 21.9 20.7 L21.9 20.7 C21.6 20.4 21.4 20.9 21.2 20.5 L21.2 20.5 C21.8 19.0 22.5 18.8 21.0 18.4 L21.0 18.4"/> <path fill="none" stroke="black" stroke-width="0.3" stroke-opacity="1.0" filling="0" d="M19.0 19.3 L20.0 19.3 C20.2 19.4 20.4 19.4 20.5 19.5 L20.5 20.5 C20.3 21.5 20.2 21.5 20.0 21.5 L20.7 21.5 C20.2 21.5 19.8 21.5 19.0 21.5 L19.0 21.5 C18.8 21.4 18.4 21.4 18.2 21.4 L18.2 21.4 C18.2 21.4 18.2 21.4 18.2 21.3 L18.2 21.3 C18.3 21.3 18.2 21.3 18.2 21.3 L18.2 21.3 C18.5 21.3 19.7 21.3 19.0 21.3 L19.0 21.3"/> <path fill="none" stroke="black" stroke-width="0.3" stroke-opacity="1.0" filling="0" d="M2.8 20.3 L2.8 20.3 C3.8 20.7 4.9 21.4 6.0 21.4 C6.0 21.4 5.5 21.7 5.5 22.0 C5.5 22.3 5.3 22.4 4.9 22.4 C4.5 22.4 3.5 22.9 2.4 22.5 C2.1 22.0 1.2 21.7 1.2 21.3 C1.2 21.9 1.3 21.4 1.6 21.3 C1.8 21.3 2.2 21.7 2.2 21.3 L2.2 21.3 C2.2 21.3 1.5 21.3 1.8 21.3 C1.2 21.3 1.2 21.4 1.2 21.4 C1.2 21.4 1.3 21.4 1.3 21.4 C1.3 21.4 1.3 21.3 1.4 21.3 C1.5 21.3 1.6 21.3 1.8 21.3 C1.2 21.3 1.3 21.3 1.5 21.3 C2.0 21.3 2.3 21.3 2.3 21.3 L2.3 21.3 C2.6 21.6 2.0 21.0 2.5 20.9 C2.2 19.8 2.4 20.7 2.3 21.3 C2.1 21.3 1.5 21.9 1.4 22.3 L1.4 22.3 C1.4 21.4 1.3 21.3 1.3 20.3 C1.2 19.3 1.9 20.4 1.3 21.3 L1.3 21.3"/> <path fill="none" stroke="black" stroke-width="0.3" stroke-opacity="1.0" filling="0" d="M3.6 8.2 L9.0 8.2 L14.4 8.2 L19.8 8.2 L19.8 12.5 L19.8 17.9 L14.4 17.9 L9.0 17.9 L3.6 17.9 L3.6 12.0 L3.6 8.2"/> <path fill="none" stroke="black" stroke-width="0.3" stroke-opacity="1.0" filling="0" d="M3.5 8.8 L9.0 8.8 L14.6 8.8 L20.2 8.8 L20.2 12.8 L20.2 17.8 L20.6 17.8 L13.0 17.8 L13.6 14.8 L9.0 14.8 L3.5 14.8"/> <path fill="none" stroke="black" stroke-width="0.3" stroke-opacity="1.0" filling="0" d="M5.6 8.3 L5.6 8.3 C5.9 7.4 6.1 7.7 6.0 8.9 L5.0 14.1"/> <path fill="none" stroke="black" stroke-width="0.3" stroke-opacity="1.0" filling="0" d="M18.6 8.3 L18.6 8.3 C18.8 8.7 19.0 9.4 19.2 10.8 C19.6 12.9 18.5 14.1 17.3 8.6 C14.1 7.6 16.5 7.5 18.6 8.3 L18.6 8.3"/> <path fill="none" stroke="black" stroke-width="0.3" stroke-opacity="1.0" filling="0" d="M11.6 8.8 L11.6 8.8 C12.0 9.8 12.5 9.9 14.9 10.1 L14.9 16.1 C14.7 17.3 14.3 18.3 13.1 19.2 L10.6 19.2 L8.1 18.2 C7.8 17.2 7.5 16.3 7.3 15.1 L7.3 10.1 C9.0 9.9 10.5 9.8 11.6 9.8 L11.6 9.8"/> <path fill="none" stroke="black" stroke-width="0.3" stroke-opacity="1.0" filling="0" d="M7.3 9.8 L10.0 9.8 C9.8 9.1 9.6 8.9 9.2 8.8 L8.1 8.8 L7.7 9.9 C7.2 10.9 7.6 11.9 7.6 12.9 L7.0 12.8 C6.9 12.4 6.7 11.9 6.7 11.9 L6.9 11.9 C7.0 11.6 7.2 11.4 7.3 11.1 L7.3 11.0 C7.8 10.8 8.2 10.5 8.3 10.3 L7.5 10.3 C7.3 10.0 7.2 9.7 7.9 9.4 L7.3 9.4 C7.2 9.1 7.0 9.0 7.9 9.8 L7.3 9.8"/> <path fill="none" stroke="black" stroke-width="0.3" stroke-opacity="1.0" filling="0" d="M11.3 10.8 L11.3 10.8 C11.7 10.8 12.8 10.8 11.0 10.8 C9.4 10.9 10.7 10.1 11.3 10.8 L11.3 10.8"/> <path fill="none" stroke="black" stroke-width="0.3" stroke-opacity="1.0" filling="0" d="M12.9 12.8 L12.9 12.8 C13.0 13.8 13.0 13.9 12.9 14.9 L12.9 16.9"/> <path fill="none" stroke="black" stroke-width="0.3" stroke-opacity="1.0" filling="0" d="M16.6 12.8 L16.6 13.8 C16.9 13.8 17.9 13.0 17.6 13.5 C16.4 15.7 15.8 16.4 15.8 17.4 C15.7 17.4 15.5 17.9 15.5 17.5 C15.3 17.3 15.9 16.1 16.9 15.8 L16.9 15.8 C16.6 15.6 16.6 15.4 16.6 15.4 L16.6 15.4 C16.5 15.8 16.5 15.1 16.4 14.5 C16.3 14.0 16.7 13.8 16.6 13.8 L16.6 13.8"/> <path fill="none" stroke="black" stroke-width="0.3" stroke-opacity="1.0" filling="0" d="M15.2 13.3 L15.2 13.3 C15.4 13.3 15.8 13.3 16.0 13.3 C18.3 13.3 14.3 13.3 15.2 13.3 L15.2 13.3"/> <path fill="none" stroke="black" stroke-width="0.3" stroke-opacity="1.0" filling="0" d="M15.3 13.1 L15.3 13.1 C16.2 13.5 16.7 13.3 15.1 13.3 L15.1 13.3 C15.7 13.4 17.3 13.2 17.7 13.6 C18.2 14.8 16.4 15.4 15.5 15.2 C15.7 15.9 16.4 16.6 16.7 16.0 C16.7 15.4 17.4 13.9 15.2 13.9 C13.9 13.8 12.4 15.7 10.9 16.9 C9.7 18.1 8.4 18.0 7.0 16.0 C5.2 13.6 5.8 15.3 7.5 16.5 C8.9 18.6 10.7 20.1 12.8 18.3 C14.0 17.7 15.7 16.1 16.3 15.6 C17.9 15.3 15.8 14.2 15.3 13.8 L15.3 13.8 C15.6 13.7 15.6 13.7 15.3 13.6 L15.3 13.1"/> <path fill="none" stroke="black" stroke-width="0.3" stroke-opacity="1.0" filling="0" d="M15.3 13.1 L15.3 13.1 C15.7 13.5 16.6 13.9 15.3 13.7 C14.9 13.4 14.1 13.9 14.7 13.5 C15.5 13.3 16.8 13.6 17.3 13.7 L17.3 13.7 C17.5 12.8 17.0 12.3 15.3 12.7 L15.3 13.7 C15.6 13.3 15.1 13.7 15.0 13.1 L15.0 13.1"/></svg>