<svg xmlns="http://www.w3.org/2000/svg" viewBox="0 0 24 24"><path d="M4 4 L20 4 L20 20.0.4 C21.2 11.7 21.3 11.7 21.9 11.7 L21.9 12.7 C21.2 13.7 20.6 13.8 20.9 14.8 L20.9 15.8 C20.8 15.4 21.7 14.8 21.0 14.8 L21.0 14.4 C21.6 13.0 21.2 12.7 20.6 12.5 L20.6 11.5 C21.8 11.6 21.0 11.1 20.5 11.5 L20.5 12.5 C20.1 12.6 20.9 12.2 20.2 11.7 L20.2 11.7 C21.3 11.0 21.4 10.3 20.7 10.6 L20.7 11.6 C20.3 11.7 20.7 11.0 20.2 10.4 L20.2 10.4 C20.6 10.0 21.9 9.6 22.1 9.2 L22.1 9.2 C21.7 9.6 21.2 9.0 20.8 9.4 L20.8 9.4 C20.3 8.0 20.0 7.8 19.4 7.3 L19.4 7.3 C19.6 7.8 19.9 8.0 19.0 9.5 L18.0 9.5 C17.0 9.7 16.0 10.0 14.0 10.4 L14.0 10.4 C12.4 9.0 10.1 8.9 13.5 7.3 C11.3 6.6 11.6 7.0 12.4 8.4 L12.4 8.4 C11.8 8.1 10.9 7.5 10.4 6.3 C9.4 5.3 8.2 5.5 9.3 6.5 L9.3 6.5 C9.7 6.0 10.2 5.8 10.8 5.3 L10.8 5.3"/> <path fill="none" stroke="black" stroke-width="0.3" stroke-opacity="1.0" filling="0" d="M10.3 5.9 L10.3 5.9 C10.5 6.1 10.7 6.3 11.0 6.6 L11.0 7.9 C10.5 9.8 10.9 9.8 9.3 11.8 L9.3 11.8 C9.1 11.8 9.8 12.7 9.6 13.7 L9.6 13.7 C9.7 13.9 9.7 13.2 9.5 12.4 L9.5 12.4 C9.7 12.3 10.0 11.2 10.0 11.0 L10.0 11.0 C9.9 10.9 9.1 10.8 8.3 10.7 L8.3 10.7 C6.3 11.9 8.1 13.0 8.4 14.4 L8.4 14.4 C8.4 15.5 8.3 16.9 8.4 17.1 L8.4 17.1 C6.0 15.4 4.0 12.3 6.7 10.7 C7.3 10.6 7.3 10.0 8.2 9.3 L8.2 9.0 C8.0 8.8 7.8 8.6 7.2 8.4 L7.2 8.2 C7.6 8.1 8.3 8.9 8.1 9.9 L8.1 9.6 C7.8 9.8 7.7 10.0 7.4 10.3 L7.4 10.3 C7.9 9.7 9.5 9.1 10.9 9.8 C12.3 10.6 13.9 11.0 14.6 11.4 C15.3 11.0 16.1 10.4 16.4 10.3 C16.4 10.0 16.3 9.9 16.3 10.6 L16.3 10.4 C16.4 10.2 16.7 9.1 16.0 9.0 L16.0 9.5 C15.5 9.9 15.8 10.2 16.3 10.5 L16.3 10.5 C17.3 10.0 19.3 10.8 17.3 12.0 L17.3 12.3 C17.3 12.9 16.1 13.4 15.9 14.6 C15.7 15.8 15.4 17.8 15.3 18.4 C14.2 19.8 13.2 19.5 12.8 18.3 L12.8 18.3 C12.5 18.2 12.0 18.7 10.7 18.3 L10.7 18.3 C10.4 18.7 9.2 18.0 9.7 17.0 L9.7 17.0 C9.6 16.9 9.6 16.7 9.5 16.4 C9.5 15.3 9.7 14.7 9.7 14.3 C9.7 14.9 11.9 15.5 12.1 16.3 C12.6 18.2 13.4 18.3 13.8 18.5 C14.8 19.1 15.4 17.1 16.0 16.0 C16.5 15.2 16.6 14.3 16.3 14.3 L16.3 14.3 C15.4 14.4 15.7 14.6 16.9 14.1 L16.9 14.0 C16.3 14.8 15.3 15.2 15.5 16.6 C15.3 17.4 14.2 17.6 13.0 18.5 C12.2 18.6 10.0 17.1 10.6 15.8 C10.1 13.5 10.4 10.9 10.4 10.5 C10.4 10.5 10.3 10.8 10.1 10.5 C10.9 9.2 11.5 9.8 12.1 10.0 L12.1 10.0"/> <path fill="none" stroke="black" stroke-width="0.3" stroke-opacity="1.0" filling="0" d="M12.3 10.1 L12.3 10.1 C14.8 10.5 16.2 10.9 17.0 11.8 C18.9 12.9 17.9 14.1 17.2 15.2 C16.6 16.4 15.1 16.9 13.7 17.8 L11.0 17.8 C9.5 17.0 11.9 15.5 11.3 13.8 C10.9 12.0 10.5 10.0 12.0 10.1 L12.0 10.1"/> <path fill="none" stroke="black" stroke-width="0.3" stroke-opacity="1.0" filling="0" d="M8.0 11.3 L8.0 11.3 C9.0 9.1 9.7 7.1 11.8 6.0 C13.8 4.8 15.9 5.6 17.0 7.7 C18.7 8.9 20.9 11.2 22.1 13.3 C21.3 15.1 21.8 17.8 20.0 19.1 C18.9 20.6 16.5 21.1 15.5 21.3 L14.5 21.3 C14.1 21.3 14.6 21.4 14.4 21.5 L14.4 21.5 L13.4 21.5 C12.6 21.4 11.9 21.4 11.1 21.3 L11.1 21.3 L11.1 21.6 L11.1 21.6 L11.1 21.2 C9.0 20.5 8.9 19.9 8.1 18.3 L8.1 15.8 L8.1 15.9 L7.4 15.9 L7.4 15.9 L7.4 13.8 C7.6 12.9 8.5 11.9 8.0 11.3 C7.5 10.7 7.6 11.0 8.2 11.3 L8.2 11.3"/> <path fill="none" stroke="black" stroke-width="0.3" stroke-opacity="1.0" filling="0" d="M5.0 14.5 L5.0 14.5 C5.6 14.9 6.2 15.3 6.7 15.6 C7.3 17.0 7.6 20.7 7.0 21.4 C7.5 21.1 9.8 21.7 10.1 21.1 C10.5 20.5 10.9 19.8 11.5 19.0 L11.5 19.0 C11.8 18.0 12.9 17.0 13.8 16.1 C14.5 15.0 15.9 13.1 14.4 15.9 L14.4 15.9 C14.2 16.1 14.7 17.3 15.1 18.5 C15.4 19.7 15.4 20.2 15.5 21.5 L15.5 21.5 C15.2 21.0 15.0 20.7 14.7 21.0 L14.7 21.0 C14.6 21.8 14.5 21.6 14.2 21.4 L7.9 21.4 C6.8 21.8 5.3 21.2 5.9 21.0 L5.9 21.0 C5.3 20.9 4.3 20.3 4.1 19.1 C4.0 17.7 5.0 17.0 5.0 16.5 L5.0 16.5"/></svg>