<svg xmlns="http://www.w3.org/2000/svg" viewBox="0 0 24 24"><path d="M4 4 L20 4 L20 20.0.4 C20.1 7.5 20.6 7.6 20.7 7.7 L20.7 7.7 L20.7 8.8 C20.6 8.0 20.5 7.2 20.4 7.2 C20.3 7.2 20.1 8.0 20.0 8.9 L20.0 12.9 L20.0 17.0 C20.1 17.9 20.3 18.8 20.0 19.6 L16.0 19.6 L10.1 19.6 C9.8 19.8 9.5 19.9 9.2 20.0 L9.2 20.7 C9.1 20.6 9.0 20.5 9.9 20.4 L9.9 20.4 L9.9 20.2 C9.9 19.2 9.9 19.2 10.9 19.2 L10.9 19.2 C11.0 18.2 11.0 18.2 10.0 18.2 L10.0 18.2 C9.8 18.2 9.5 18.3 9.5 18.3 L13.7 18.3 L13.7 19.7 C13.8 19.9 13.9 19.1 14.0 19.2 L14.0 19.2 C13.0 19.2 12.1 19.1 11.2 19.0 C10.3 19.9 9.4 20.7 9.5 20.2 L9.5 20.4 L9.5 20.4 C9.0 20.3 8.7 20.2 8.7 20.0 L8.7 20.0 C9.0 19.0 9.0 18.1 9.1 17.1 L9.1 17.2 C9.1 16.1 9.0 16.0 9.9 15.0 L9.9 9.9 C9.1 9.9 9.0 9.9 8.0 9.0 L7.6 9.0 C7.5 8.8 7.5 8.5 7.6 8.4 L7.6 7.4 C7.5 7.3 7.9 7.2 8.7 7.2 L8.7 7.2"/> <path fill="none" stroke="black" stroke-width="0.3" stroke-opacity="1.0" filling="0" d="M13.7 8.9 L13.7 8.2 L9.4 8.9"/> <path fill="none" stroke="black" stroke-width="0.3" stroke-opacity="1.0" filling="0" d="M12.8 9.3 L12.8 9.3 C14.4 9.3 14.3 9.1 12.3 9.0 C11.2 8.7 11.2 8.6 12.3 8.4 L12.3 8.3 C14.3 7.6 15.5 8.4 16.2 10.6 C17.0 11.5 16.6 12.4 16.7 13.8 C16.7 15.0 16.0 16.1 13.0 17.5 L13.0 17.5 C11.3 17.1 10.9 16.0 10.6 13.0 L10.6 13.7 C10.5 13.5 10.4 13.3 10.4 13.2 L10.4 13.2 C10.7 12.5 10.0 11.8 9.8 11.2 C9.5 10.1 9.9 9.9 11.5 9.6 C11.4 9.4 11.1 9.6 12.0 9.3 L12.0 9.3 C12.6 9.1 13.3 9.5 13.8 9.3 L13.8 9.3"/> <path fill="none" stroke="black" stroke-width="0.3" stroke-opacity="1.0" filling="0" d="M12.8 10.4 L14.8 10.4 C14.4 10.7 14.0 11.9 13.6 12.8 C13.3 12.3 11.7 11.9 11.4 10.0 C11.0 9.0 10.5 9.4 11.0 10.6 L11.0 10.6 C11.5 10.3 12.1 10.0 12.8 10.4 L12.8 10.4"/> <path fill="none" stroke="black" stroke-width="0.3" stroke-opacity="1.0" filling="0" d="M6.6 11.7 L12.4 11.7 L18.3 11.7 C18.5 12.9 18.6 13.1 18.8 13.0 C18.0 12.9 17.8 12.9 17.0 11.0 L17.0 11.7 C16.2 12.8 15.0 12.9 14.8 13.0 C14.5 13.1 14.2 12.9 15.0 14.5 L15.0 14.5 L15.0 15.5 C14.8 16.4 14.5 17.4 14.3 18.3 L11.4 18.3 L11.4 19.7 C10.1 19.0 9.7 18.2 9.4 16.7 C9.1 15.0 9.5 14.5 9.1 13.1 C8.5 11.7 8.2 10.6 7.6 9.3 C7.9 8.0 8.0 7.0 8.0 6.0 L7.0 6.0 C6.5 5.1 6.3 5.5 7.8 5.7 L7.8 5.7 C7.9 5.7 8.1 5.7 8.1 5.7 L8.1 5.7 L8.1 5.7 C8.5 5.6 8.9 5.3 9.2 5.3 L9.2 5.7 C9.3 5.5 9.4 5.4 9.5 5.2 C9.6 5.1 10.6 5.2 11.7 5.2 C13.0 5.2 14.0 5.3 15.4 5.0 C16.0 4.8 15.1 5.0 15.6 5.1 L15.6 5.1 C16.0 5.2 16.5 5.3 17.4 5.2 C19.1 5.0 19.3 5.3 21.9 5.3 L21.9 5.3"/> <path fill="none" stroke="black" stroke-width="0.3" stroke-opacity="1.0" filling="0" d="M7.3 6.1 L7.3 6.6"/> <path fill="none" stroke="black" stroke-width="0.3" stroke-opacity="1.0" filling="0" d="M14.2 6.1 L14.2 6.1"/> <path fill="none" stroke="black" stroke-width="0.3" stroke-opacity="1.0" filling="0" d="M9.7 7.9 L9.7 7.9 C10.6 8.4 11.4 9.0 9.8 10.6 L9.8 10.6 C8.3 10.9 7.7 11.8 6.1 11.2 L6.1 11.2 C7.6 11.5 8.4 12.1 9.1 12.5 L9.1 12.5 C10.2 11.0 10.7 10.2 12.1 9.3 L12.4 9.3 C12.2 9.7 12.7 10.3 13.2 10.9 L13.2 10.9 C12.7 11.7 11.2 11.2 12.6 11.0 L12.6 11.0 L10.4 11.5 L10.4 11.0 C10.9 10.6 11.7 10.0 12.4 9.5 L12.4 9.5 C11.1 9.7 10.5 10.2 9.0 10.1 L9.0 10.1 C9.1 9.7 9.0 9.3 9.1 9.1 L9.1 9.1 L9.0 10.0 C9.0 10.5 9.0 11.1 9.0 11.6 L9.0 11.6 C9.5 11.9 10.9 12.5 10.4 13.0 L10.4 13.0 L10.4 12.0 C10.4 10.6 10.4 10.1 10.5 9.7 L10.5 9.7 C10.1 10.4 9.5 10.1 9.4 10.8 L9.4 10.8 C9.0 9.5 8.6 8.1 9.6 7.9 L9.6 7.9"/> <path fill="none" stroke="black" stroke-width="0.3" stroke-opacity="1.0" filling="0" d="M6.4 8.4 L6.4 8.4 C6.4 8.4 6.5 8.5 6.5 8.6 L6.5 8.6 C6.5 8.5 6.5 8.4 6.5 8.4 L6.5 8.4"/> <path fill="none" stroke="black" stroke-width="0.3" stroke-opacity="1.0" filling="0" d="M15.9 9.4 L15.9 9.4 C16.0 9.4 16.0 9.5 16.1 9.6 L16.1 9.6 C16.1 9.5 16.0 9.4 16.9 9.4 L16.9 9.4 C16.9 9.4 16.9 9.5 16.9 9.6 L16.9 9.6 C16.5 9.5 16.2 9.4 15.8 9.4 L15.8 9.4"/> <path fill="none" stroke="black" stroke-width="0.3" stroke-opacity="1.0" filling="0" d="M14.0 10.0 L14.0 10.0 C14.4 10.1 14.9 10.2 15.2 10.2 L15.2 10.2 C14.9 10.8 14.6 11.4 14.3 12.0 L14.3 12.0 C14.5 11.6 14.8 11.3 15.0 11.3 L15.0 11.3 C14.4 11.3 14.5 11.8 14.9 12.1 C15.3 12.4 16.1 12.9 17.0 13.3 C18.3 14.6 17.6 16.0 18.0 17.3 L18.0 17.3 C17.6 17.6 17.5 17.0 16.3 16.2 C15.4 15.5 14.0 14.8 12.8 14.2 L12.8 11.2 C13.2 11.2 13.5 11.1 14.0 11.0 L14.0 10.0"/> <path fill="none" stroke="black" stroke-width="0.3" stroke-opacity="1.0" filling="0" d="M17.2 11.0 L17.2 11.0 C17.8 11.3 18.7 11.3 17.2 11.2 C17.4 11.2 17.1 11.1 17.3 11.0 L17.3 11.0 C17.3 11.1 17.2 11.1 17.2 11.0 L17.2 11.0"/> <path fill="none" stroke="black" stroke-width="0.3" stroke-opacity="1.0" filling="0" d="M13.0 12.5 L13.0 12.5 C13.0 12.9 13.0 13.9 13.0 13.9 C12.0 13.9 11.9 12.9 11.9 12.5 C12.9 12.8 13.0 12.7 13.0 12.5 L13.0 12.5"/> <path fill="none" stroke="black" stroke-width="0.3" stroke-opacity="1.0" filling="0" d="M13.6 12.2 L13.6 12.2 C13.6 12.2 13.6 12.2 13.6 12.2 L13.6 12.2 C13.7 12.3 13.8 12.3 13.8 12.3 L13.8 12.3 C13.6 12.3 13.6 12.3 13.6 12.3 L13.6 12.3"/> <path fill="none" stroke="black" stroke-width="0.3" stroke-opacity="1.0" filling="0" d="M15.5 12.5 L15.5 12.5 C15.5 12.8 15.4 13.8 15.4 13.5 C15.4 13.2 15.4 12.9 15.4 12.5 L15.4 12.5"/> <path fill="none" stroke="black" stroke-width="0.3" stroke-opacity="1.0" filling="0" d="M17.0 13.5 L17.0 13.5 C17.0 13.6 17.0 13.6 17.0 13.7 L17.0 13.7 C17.0 13.8 17.9 13.8 17.9 13.9 C17.9 13.0 17.4 13.8 17.0 13.5 C16.8 13.4 16.8 13.5 17.0 13.5 L17.0 13.5"/> <path fill="none" stroke="black" stroke-width="0.3" stroke-opacity="1.0" filling="0" d="M17.2 13.5 L17.2 13.5 C17.2 13.9 17.2 13.3 16.2 12.9 L16.2 12.9"/> <path fill="none" stroke="black" stroke-width="0.3" stroke-opacity="1.0" filling="0" d="M13.4 14.3 L14.1 14.3 L14.1 16.7 L13.4 16.7 L13.4 14.3"/> <path fill="none" stroke="black" stroke-width="0.3" stroke-opacity="1.0" filling="0" d="M15.9 14.3 L18.2 14.3 L18.2 14.7 L15.9 14.7"/> <path fill="none" stroke="black" stroke-width="0.3" stroke-opacity="1.0" filling="0" d="M12.9 15.6 L13.7 15.6 L13.7 16.0 L13.9 16.0 L13.9 15.6 L13.3 15.6 L12.9 15.6 L12.9 15.6"/> <path fill="none" stroke="black" stroke-width="0.3" stroke-opacity="1.0" filling="0" d="M12.8 15.9 L13.3 15.9 L13.3 17.0 L13.8 17.0 L13.8 17.1 L13.4 17.1 L13.4 17.4 L13.4 15.4 L13.4 15.4 L13.5 15.9 L13.9 16.5 L13.9 17.5 L12.9 17.5 L12.3 15.5 L12.3 15.5 L12.8 15.9"/></svg>