<svg xmlns="http://www.w3.org/2000/svg" viewBox="0 0 24 24"><path d="M4 4 L20 4 L20 20.0.4 L20.0 22.2 L20.0 22.2 L14.0 22.2 L7.0 22.2 L7.0 22.2 L7.0 22.8 L7.0 22.8 L7.0 22.8 L7.0 22.2 L7.0 22.2 L3.2 22.2 L3.8 22.2"/> <path fill="none" stroke="black" stroke-width="0.3" stroke-opacity="1.0" filling="0" d="M15.2 2.8 L15.2 2.8 C15.6 3.2 16.0 3.4 16.4 3.8 L16.4 3.0 L16.4 3.0 C16.3 3.3 16.2 3.7 16.0 3.8 L15.2 3.8"/> <path fill="none" stroke="black" stroke-width="0.3" stroke-opacity="1.0" filling="0" d="M16.6 3.8 L16.6 3.8 C17.0 3.3 17.5 2.9 17.6 2.5 C18.3 2.2 14.0 2.1 15.6 2.0 C15.0 2.9 16.6 3.3 16.1 3.8 C15.7 4.7 15.5 5.5 15.4 5.7 C15.1 5.5 15.6 5.9 15.2 6.5 C13.3 6.9 11.1 7.5 10.5 6.4 C10.0 5.9 10.9 5.6 10.8 5.0 L10.8 3.0 C11.0 3.0 11.2 2.9 11.3 2.9 C11.7 2.9 14.4 3.3 15.6 3.2 C15.9 3.1 16.0 3.0 16.6 3.8 L16.6 3.8"/> <path fill="none" stroke="black" stroke-width="0.3" stroke-opacity="1.0" filling="0" d="M19.0 3.8 L19.0 3.8 C18.1 3.9 16.1 3.9 15.3 3.8 C14.2 3.7 13.4 3.7 12.3 3.8 C11.2 3.9 10.4 4.9 9.7 5.9 C8.8 5.9 7.2 5.7 6.3 5.8 C5.5 5.3 5.9 5.2 5.0 5.0 C4.9 4.9 5.4 4.4 5.8 3.1 C6.2 2.9 8.7 3.8 9.8 5.4 C10.9 5.2 12.1 5.6 13.2 5.8 C14.2 5.9 15.7 5.5 17.2 5.4 L17.2 5.8 C17.3 6.1 16.8 6.5 16.2 6.5 C15.6 6.5 15.2 5.1 14.5 4.8 C13.4 3.5 12.4 3.8 11.7 3.7 C11.2 3.7 10.5 3.3 10.0 3.3 C9.7 3.5 9.3 3.6 9.7 3.3 C10.7 3.9 10.0 4.0 9.7 4.2 C9.4 4.2 10.7 4.5 11.3 4.5 L11.3 4.5 C11.8 4.2 12.8 4.6 13.8 5.0 C14.9 5.5 16.3 5.6 17.4 5.1 C18.9 4.8 20.8 4.8 18.0 5.5 C18.3 5.2 17.9 5.1 17.8 5.0 C16.6 3.9 15.0 4.6 13.8 4.6 C14.1 4.2 15.3 4.7 15.7 5.3 C16.2 5.9 16.0 4.6 17.0 5.1 C16.5 4.8 15.9 5.3 15.6 5.8 C15.2 5.3 13.9 5.8 13.9 5.5 C13.5 5.1 13.7 4.8 13.4 4.4 C13.6 3.3 14.6 3.2 15.1 3.8 L15.0 3.8 C15.4 3.7 16.5 3.2 15.0 3.3 C14.5 3.1 14.7 3.8 14.0 3.4 L14.0 3.4"/> <path fill="none" stroke="black" stroke-width="0.3" stroke-opacity="1.0" filling="0" d="M10.5 9.6 L10.5 9.6 C10.7 9.9 10.0 10.1 9.3 10.6 C8.3 11.1 8.5 10.9 8.2 9.6 L8.2 9.6 C8.8 9.6 9.0 9.6 9.3 9.6 L9.3 9.6 C9.6 9.8 9.9 9.1 10.2 9.6 L10.2 9.6"/> <path fill="none" stroke="black" stroke-width="0.3" stroke-opacity="1.0" filling="0" d="M10.0 10.5 L10.0 10.5 C10.1 10.6 10.3 10.6 10.7 10.6 L10.7 10.6 C12.0 10.4 13.0 10.6 13.4 11.5 C13.8 11.1 12.9 11.3 12.9 11.6 C12.6 12.9 10.5 13.0 9.9 11.6 C9.5 11.3 9.6 11.1 9.8 11.5 C9.5 11.6 9.3 11.8 9.9 11.6 L9.9 11.6 C10.0 11.3 10.3 10.8 10.6 10.5 C11.0 10.3 11.8 10.1 11.0 10.7 C10.7 11.2 10.5 11.1 10.0 11.5 L10.0 11.5 C9.9 11.3 9.7 11.1 9.3 11.8 L9.3 11.8 C9.1 11.6 9.9 11.3 10.5 11.0 L10.5 11.0 C10.8 11.0 11.0 10.3 11.0 10.5 L11.2 10.5 C11.3 10.3 11.6 10.2 11.7 10.0 C12.7 9.8 13.8 10.9 16.5 11.5 C18.6 12.1 19.1 13.9 21.4 16.0 C21.3 18.1 21.4 20.1 21.3 21.1 C21.4 21.1 21.9 21.9 22.6 21.4 C22.4 21.2 21.8 21.9 21.4 21.0 C21.1 20.3 20.6 20.4 19.6 20.6 C18.4 20.3 18.0 20.4 17.9 20.1 L17.9 20.3 C17.4 21.5 17.1 21.7 15.2 20.5 C13.1 19.4 12.1 19.2 11.5 17.1 C11.0 15.0 10.0 13.0 10.5 11.1 C10.1 8.0 10.6 11.8 11.0 11.7 C11.0 11.7 10.9 11.9 10.2 11.0 C9.9 10.1 10.0 10.3 10.0 10.5 C10.1 10.5 10.5 10.3 10.0 10.5 C9.6 10.5 10.4 10.5 10.2 10.5 L10.2 10.5"/> <path fill="none" stroke="black" stroke-width="0.3" stroke-opacity="1.0" filling="0" d="M11.4 10.5 L11.4 10.5 C12.4 10.7 14.2 10.3 14.9 10.3 C15.7 10.3 16.4 10.5 17.2 10.0 C18.1 9.5 19.7 9.9 20.3 10.5 C22.8 12.3 22.4 14.1 21.8 16.0 C21.1 18.9 21.1 21.5 18.8 21.9 C16.4 21.2 14.8 20.8 12.4 20.0 C10.1 19.4 8.9 18.0 9.4 16.0 C10.0 14.0 11.8 11.3 11.4 10.5 L11.4 10.5"/> <path fill="none" stroke="black" stroke-width="0.3" stroke-opacity="1.0" filling="0" d="M10.9 12.9 L10.9 12.9 C10.1 14.6 9.4 16.2 8.5 17.8 C7.8 19.0 6.6 18.9 5.6 16.1 C4.5 13.2 5.8 11.0 6.3 9.9 C7.9 9.3 9.9 8.4 10.0 8.4 C11.2 8.4 13.8 9.8 15.9 10.0 C16.9 10.1 17.7 10.0 17.6 10.0 C17.6 11.0 18.0 12.3 18.0 12.9 C17.9 14.9 18.1 15.9 17.7 17.9 C17.3 19.0 16.2 20.5 14.6 20.4 C13.0 20.4 11.8 18.5 10.1 17.9 C9.3 17.4 9.7 17.1 9.4 17.9 C9.0 18.8 9.6 19.4 9.4 19.0 C9.0 18.7 9.5 18.1 9.2 18.9 C9.1 19.4 8.0 19.6 8.0 19.9 C7.8 19.9 7.0 19.3 6.5 19.0 C5.0 17.7 4.3 16.1 4.1 15.8 C4.9 14.4 6.4 13.0 7.8 12.8 C8.1 12.7 9.0 12.7 10.9 12.9 L10.9 12.9"/> <path fill="none" stroke="black" stroke-width="0.3" stroke-opacity="1.0" filling="0" d="M12.9 12.0 L12.9 12.0 C14.2 12.1 15.0 12.2 15.1 12.1 L15.1 12.7 C15.8 13.5 14.5 15.3 13.1 16.8 C11.5 17.8 9.5 14.5 8.7 13.7 C8.6 12.1 8.5 12.4 9.6 12.2 C10.7 12.0 11.9 12.7 12.9 12.0 L12.9 12.0"/> <path fill="none" stroke="black" stroke-width="0.3" stroke-opacity="1.0" filling="0" d="M12.9 12.6 L12.9 12.6 C13.5 12.7 14.9 12.9 15.1 13.0 C15.5 13.9 15.8 14.2 16.1 15.8 C16.5 17.9 15.3 19.6 13.2 19.8 C11.1 19.7 10.6 17.0 12.0 15.2 C12.3 14.9 12.9 15.5 12.9 14.1 C12.9 13.7 12.5 13.3 12.9 13.2 C12.7 14.3 12.9 14.3 12.9 14.1 C12.1 14.8 11.5 15.6 12.6 15.4 C12.5 15.3 12.5 15.9 12.6 16.0 C12.5 16.2 12.5 17.4 12.5 16.5 C12.4 15.5 12.9 15.7 12.8 16.4 C12.1 16.2 11.7 15.7 11.0 15.5 C10.1 14.0 10.3 14.5 11.3 15.8 C11.3 16.5 11.7 18.4 11.4 18.6 C11.0 19.9 10.4 17.0 9.9 16.0 C9.3 15.8 8.0 14.5 8.2 13.0 C8.3 12.1 8.9 10.6 9.9 10.8 C10.0 10.0 10.9 9.1 11.2 9.4 C11.6 9.2 11.1 11.2 11.1 11.9 C11.1 12.6 10.2 13.1 10.5 13.4 C11.0 14.5 11.1 13.0 11.3 12.0 C11.5 11.2 12.0 11.2 12.9 11.6 L12.9 12.6"/></svg>