<svg xmlns="http://www.w3.org/2000/svg" viewBox="0.0 0.0 24.0 24.0" height="200px" width="200px"><path fill="none" stroke="black" stroke-width="0.3" stroke-opacity="1.0" filling="0" d="M12.4 5.8 L12.4 5.8 C12.4 6.7 12.4 6.7 12.4 5.8 L12.4 5.8"/> <path fill="none" stroke="black" stroke-width="0.3" stroke-opacity="1.0" filling="0" d="M12.4 6.7 L12.4 6.7 C12.4 7.6 12.4 7.6 12.4 6.7 L12.4 6.7"/> <path fill="none" stroke="black" stroke-width="0.3" stroke-opacity="1.0" filling="0" d="M12.4 7.7 L12.4 7.7 C12.4 8.6 12.4 8.6 12.4 7.7 L12.4 7.7"/> <path fill="none" stroke="black" stroke-width="0.3" stroke-opacity="1.0" filling="0" d="M12.4 8.5 L12.4 8.5 C12.4 9.4 12.4 9.4 12.4 8.5 L12.4 8.5"/> <path fill="none" stroke="black" stroke-width="0.3" stroke-opacity="1.0" filling="0" d="M12.4 9.4 L12.4 9.4 C12.4 10.3 12.4 10.3 12.4 9.4 L12.4 9.4"/> <path fill="none" stroke="black" stroke-width="0.3" stroke-opacity="1.0" filling="0" d="M12.4 10.3 L12.4 10.3 C12.4 11.2 12.4 11.2 12.4 10.3 L12.4 10.3"/> <path fill="none" stroke="black" stroke-width="0.3" stroke-opacity="1.0" filling="0" d="M12.4 11.2 L12.4 11.2 C12.4 12.1 12.4 12.1 12.4 11.2 L12.4 11.2"/> <path fill="none" stroke="black" stroke-width="0.3" stroke-opacity="1.0" filling="0" d="M12.4 12.2 L12.4 12.2 C12.4 13.1 12.4 13.1 12.4 12.2 L12.4 12.2"/> <path fill="none" stroke="black" stroke-width="0.3" stroke-opacity="1.0" filling="0" d="M12.4 13.0 L12.4 13.0 C12.4 14.0 12.4 14.0 12.4 13.0 L12.4 13.0"/> <path fill="none" stroke="black" stroke-width="0.3" stroke-opacity="1.0" filling="0" d="M12.4 14.0 L12.4 14.0 C12.4 15.0 12.4 15.0 12.4 14.0 L12.4 14.0"/> <path fill="none" stroke="black" stroke-width="0.3" stroke-opacity="1.0" filling="0" d="M12.4 15.0 L12.4 15.0 C12.4 15.9 12.4 15.9 12.4 15.0 L12.4 15.0"/> <path fill="none" stroke="black" stroke-width="0.3" stroke-opacity="1.0" filling="0" d="M12.4 16.0 L12.4 16.0 C12.4 17.0 12.4 17.0 12.4 16.0 L12.4 16.0"/></svg>