<svg xmlns="http://www.w3.org/2000/svg" viewBox="0.0 0.0 24.0 24.0" height="200px" width="200px"><path fill="none" stroke="black" stroke-width="0.3" stroke-opacity="1.0" filling="0" d="M13.8 5.3 L13.8 5.3 C15.6 6.9 15.7 8.3 15.4 10.1 C15.0 11.9 13.9 13.6 11.8 14.1 C10.1 14.6 8.8 13.9 8.3 12.1 C7.9 10.4 8.0 8.8 8.6 6.9 C9.1 5.1 10.7 5.3 12.4 5.2 L12.4 5.2 C12.5 5.2 12.7 5.1 12.8 5.1 L12.8 5.1 C12.8 5.1 12.8 5.0 13.8 5.3 L13.8 5.3"/> <path fill="none" stroke="black" stroke-width="0.3" stroke-opacity="1.0" filling="0" d="M16.3 6.7 L16.3 6.7 C16.5 8.2 16.0 8.9 15.5 10.4 L15.5 10.4"/> <path fill="none" stroke="black" stroke-width="0.3" stroke-opacity="1.0" filling="0" d="M16.3 7.7 L16.3 7.7 C16.5 8.9 16.7 10.1 16.6 11.3 L16.1 11.9 L16.8 12.6 C16.3 13.0 16.0 13.6 15.6 13.6 C15.2 13.7 15.0 13.1 14.8 12.5 L15.5 11.8 L15.9 10.3 C15.8 10.1 16.0 9.9 16.1 9.7 C16.3 9.4 16.6 9.3 16.9 9.1 L16.9 9.1 C17.4 9.5 17.9 10.1 18.3 10.7 L18.6 11.5 C18.7 11.8 18.7 12.3 18.6 12.5 L18.0 13.2 L18.6 13.8 C19.2 14.2 19.9 14.8 19.8 15.5 C19.7 16.2 18.4 16.5 17.9 16.5 C17.3 16.5 16.9 16.2 16.5 15.6 L16.5 15.6 C16.5 15.7 16.4 16.0 16.4 16.0 L16.4 16.0 C16.4 16.3 16.4 16.6 16.4 16.9 L16.2 17.2 C15.6 17.5 14.9 17.2 14.3 16.8 L14.3 16.1 L14.0 16.0 C13.6 16.0 13.2 15.8 12.7 15.7 L11.3 15.7 L11.9 15.4 C12.4 15.0 12.8 14.7 13.2 14.4 L14.6 14.0 L15.4 13.8 C15.9 13.2 16.3 12.7 16.6 12.2 L16.3 12.3 C15.9 12.1 15.5 11.9 15.3 11.5 L14.5 10.7 L13.8 11.3 L14.5 11.1 C15.7 10.4 16.0 9.9 16.3 8.7 L16.3 8.7"/> <path fill="none" stroke="black" stroke-width="0.3" stroke-opacity="1.0" filling="0" d="M16.3 9.4 L16.3 9.4 C16.5 10.0 16.9 10.6 17.3 11.1 L17.3 11.7 C17.0 13.1 16.5 15.5 16.0 16.7 C15.7 17.7 15.2 19.4 14.2 20.2 L14.1 20.2 C13.1 19.6 12.5 19.0 11.9 17.8 C11.4 16.6 11.3 15.5 11.7 14.4 C12.1 13.4 13.2 12.2 13.8 11.5 L13.8 11.5 C14.0 11.4 14.3 11.3 14.5 11.2 L14.5 11.2 C15.0 10.4 15.4 10.0 16.3 9.4 L16.3 9.4"/> <path fill="none" stroke="black" stroke-width="0.3" stroke-opacity="1.0" filling="0" d="M16.1 9.4 L16.1 9.4 C16.7 10.4 16.7 11.2 16.7 12.2 L16.7 12.6 L16.1 12.8 L16.1 12.2 L15.5 11.4 L15.5 11.4 L15.5 13.0 L14.7 13.0 L14.7 12.4 L14.6 12.4 L14.1 12.4 L14.1 12.6 L14.1 12.2 L14.3 12.6 L14.7 12.6 L14.7 11.2 L14.2 11.2 L14.2 11.3 L14.2 10.5 L14.7 11.2 L14.7 11.2 L14.9 11.7 L14.9 11.2 C15.2 10.5 15.5 10.0 16.1 9.4 L16.1 9.4"/> <path fill="none" stroke="black" stroke-width="0.3" stroke-opacity="1.0" filling="0" d="M16.6 9.6 L16.6 9.6 C16.7 10.3 16.8 10.9 16.6 12.5 L16.3 12.5 L16.3 12.8 L16.6 13.1 L16.2 13.1 L16.2 11.4 L15.7 11.7 L15.7 12.5 L15.2 12.9 L15.2 13.2 L15.5 12.4 L15.3 12.4 L15.6 12.3 L15.6 11.3 C15.8 10.4 16.0 10.2 16.3 9.6 L16.3 9.6"/> <path fill="none" stroke="black" stroke-width="0.3" stroke-opacity="1.0" filling="0" d="M15.3 12.2 L15.3 12.2 C15.6 12.5 15.9 12.7 16.2 12.9 L16.2 12.9 C16.5 13.9 17.1 15.3 15.7 16.3 C13.8 17.2 11.6 16.7 13.3 14.9 C13.6 14.5 14.1 14.1 14.4 13.9 L14.4 13.9 C15.0 14.3 15.5 14.6 15.9 15.1 L15.9 15.1 C16.4 15.2 17.0 15.1 16.7 15.9 C15.0 18.3 12.3 15.5 13.0 13.8 C13.3 13.2 14.2 13.0 14.6 12.9 L14.6 12.9 C15.0 12.7 15.1 12.4 15.3 12.2 L15.3 12.2"/> <path fill="none" stroke="black" stroke-width="0.3" stroke-opacity="1.0" filling="0" d="M15.3 13.1 L15.3 13.1 C15.6 13.3 15.8 13.5 16.0 13.7 L16.0 13.7 C16.3 14.0 16.5 14.4 16.8 14.6 L16.8 14.6 C17.6 15.1 18.4 15.4 19.1 15.7 L19.1 15.7 C18.2 16.4 16.5 17.3 15.0 16.9 C14.7 16.7 14.7 16.1 14.5 15.8 L14.5 15.8 C14.4 16.1 14.4 16.4 14.3 16.7 L14.3 16.7 C14.8 16.4 15.1 16.1 15.3 15.8 L15.3 15.6 C15.0 15.3 14.6 15.0 14.4 14.7 C14.2 14.4 14.0 14.0 13.8 13.7 L13.8 13.7 C14.1 13.5 14.4 13.3 14.8 13.1 L15.3 13.1"/></svg>