<svg xmlns="http://www.w3.org/2000/svg" viewBox="0.0 0.0 24.0 24.0" height="200px" width="200px"><path fill="none" stroke="black" stroke-width="0.3" stroke-opacity="1.0" filling="0" d="M7.5 6.7 L8.7 6.7 C8.8 6.8 8.8 6.9 8.9 7.0 L8.9 7.2 L7.5 7.2 L7.5 6.7"/> <path fill="none" stroke="black" stroke-width="0.3" stroke-opacity="1.0" filling="0" d="M9.0 8.3 L9.0 8.3 C9.2 8.4 9.4 8.4 9.6 8.5 L9.6 9.0 C9.4 9.2 9.3 9.3 9.0 9.3 L9.0 8.3"/> <path fill="none" stroke="black" stroke-width="0.3" stroke-opacity="1.0" filling="0" d="M11.3 8.3 L11.3 8.3 C11.4 8.4 11.5 8.5 11.6 8.6 L11.6 8.9 C11.5 8.9 11.4 8.9 11.3 8.9 L11.3 8.6 C11.3 8.5 11.3 8.4 11.3 8.3 L11.3 8.3"/> <path fill="none" stroke="black" stroke-width="0.3" stroke-opacity="1.0" filling="0" d="M12.9 8.3 L12.9 8.3 C13.0 8.4 13.1 8.5 13.2 8.6 L13.2 8.9 C13.1 8.9 13.0 8.9 12.9 8.9 L12.9 8.6 C12.9 8.5 12.9 8.4 12.9 8.3 L12.9 8.3"/> <path fill="none" stroke="black" stroke-width="0.3" stroke-opacity="1.0" filling="0" d="M14.0 8.3 L14.0 8.3 C14.1 8.4 14.2 8.5 14.3 8.6 L14.3 8.9 C14.2 8.9 14.1 8.9 14.0 8.9 L14.0 8.6 C14.0 8.5 14.0 8.4 14.0 8.3 L14.0 8.3"/> <path fill="none" stroke="black" stroke-width="0.3" stroke-opacity="1.0" filling="0" d="M15.1 8.3 L15.1 8.3 C15.2 8.4 15.3 8.5 15.3 8.6 L15.3 8.9 C15.2 8.9 15.2 8.9 15.1 8.9 L15.1 8.6 C15.1 8.5 15.1 8.4 15.1 8.3 L15.1 8.3"/> <path fill="none" stroke="black" stroke-width="0.3" stroke-opacity="1.0" filling="0" d="M16.6 8.3 L16.6 8.3 C16.6 8.4 16.7 8.5 16.7 8.6 L16.7 8.9 C16.6 8.9 16.5 8.9 16.4 8.9 L16.4 8.6 C16.5 8.5 16.6 8.4 16.6 8.3 L16.6 8.3"/> <path fill="none" stroke="black" stroke-width="0.3" stroke-opacity="1.0" filling="0" d="M10.4 10.3 L10.4 10.3 C10.5 11.0 11.0 11.9 10.8 12.8 C10.6 13.6 10.2 14.2 10.0 15.0 C9.9 15.3 10.5 15.5 10.6 15.7 C10.8 16.0 11.4 16.0 11.4 16.2 C11.5 16.5 10.8 16.8 10.2 16.6 C9.6 16.4 9.3 16.2 8.9 15.8 C8.3 14.6 8.2 13.4 8.7 12.2 C9.0 11.0 9.8 10.6 10.4 10.3 L10.4 10.3"/> <path fill="none" stroke="black" stroke-width="0.3" stroke-opacity="1.0" filling="0" d="M14.7 10.3 L14.7 10.3 C14.7 10.6 14.7 10.8 14.7 11.0 L14.7 11.0 C14.6 11.0 14.4 11.0 14.3 11.0 L14.3 11.0 C14.4 10.8 14.4 10.6 14.5 10.3 L14.5 10.3 C14.6 10.3 14.6 10.3 14.7 10.3 L14.7 10.3"/> <path fill="none" stroke="black" stroke-width="0.3" stroke-opacity="1.0" filling="0" d="M8.7 11.2 L15.0 11.2 L15.0 11.7 L8.7 11.7"/> <path fill="none" stroke="black" stroke-width="0.3" stroke-opacity="1.0" filling="0" d="M8.7 11.3 L15.7 11.3 L15.7 11.7 L8.7 11.7"/> <path fill="none" stroke="black" stroke-width="0.3" stroke-opacity="1.0" filling="0" d="M8.7 11.5 L15.8 11.5 L15.8 11.9 L8.7 11.9"/> <path fill="none" stroke="black" stroke-width="0.3" stroke-opacity="1.0" filling="0" d="M8.9 11.7 L15.0 11.7 L15.0 12.7 L8.9 12.7 L8.9 11.7"/> <path fill="none" stroke="black" stroke-width="0.3" stroke-opacity="1.0" filling="0" d="M7.7 11.9 L14.2 11.9 L14.2 12.8 L7.7 12.8 L7.7 11.9"/> <path fill="none" stroke="black" stroke-width="0.3" stroke-opacity="1.0" filling="0" d="M8.7 11.9 L15.5 11.9 L15.5 12.4 L8.7 12.4"/> <path fill="none" stroke="black" stroke-width="0.3" stroke-opacity="1.0" filling="0" d="M11.2 12.1 L11.2 12.1 C11.2 12.8 11.2 12.8 11.2 12.1 L11.2 12.1"/> <path fill="none" stroke="black" stroke-width="0.3" stroke-opacity="1.0" filling="0" d="M11.2 12.4 L11.2 12.4 C11.2 12.9 11.2 12.9 11.2 12.4 L11.2 12.4"/> <path fill="none" stroke="black" stroke-width="0.3" stroke-opacity="1.0" filling="0" d="M12.7 12.4 L15.7 12.4 L15.7 12.9 L12.7 12.9"/> <path fill="none" stroke="black" stroke-width="0.3" stroke-opacity="1.0" filling="0" d="M10.2 12.4 L15.7 12.4 L15.7 12.9 L10.2 12.9"/> <path fill="none" stroke="black" stroke-width="0.3" stroke-opacity="1.0" filling="0" d="M9.7 13.6 L9.7 13.6 C10.1 13.8 10.8 14.4 10.1 14.9 C9.6 15.2 8.9 14.9 8.5 15.0 C8.2 15.0 8.3 14.6 8.3 14.4 C8.3 14.2 9.0 14.1 9.2 14.0 C9.4 13.8 9.5 13.6 9.7 13.6 C9.8 13.5 9.4 13.4 9.7 13.6 L9.7 13.6"/> <path fill="none" stroke="black" stroke-width="0.3" stroke-opacity="1.0" filling="0" d="M12.5 17.2 L15.0 17.2 L15.0 19.6 C14.9 20.3 14.5 21.2 13.7 20.8 C13.3 20.6 12.8 20.2 12.5 19.7 L12.5 17.2"/></svg>