<svg xmlns="http://www.w3.org/2000/svg" viewBox="0.0 0.0 24.0 24.0" height="200px" width="200px"><path fill="none" stroke="black" stroke-width="0.3" stroke-opacity="1.0" filling="0" d="M18.5 7.0 L18.5 7.0 C19.8 8.0 20.4 8.6 19.5 10.6 C19.2 10.9 18.7 10.8 18.4 10.6 L16.8 7.5 C16.7 7.4 16.6 7.4 16.4 7.4 L16.4 7.4 C16.6 7.1 16.8 7.0 16.9 6.9 L18.5 7.0"/> <path fill="none" stroke="black" stroke-width="0.3" stroke-opacity="1.0" filling="0" d="M18.5 7.4 L18.5 7.4 C19.6 8.3 19.6 9.5 18.4 10.5 L15.1 10.5 L15.1 8.7 L18.5 7.4"/> <path fill="none" stroke="black" stroke-width="0.3" stroke-opacity="1.0" filling="0" d="M17.5 8.0 L17.5 8.0 C18.3 8.9 19.2 10.3 18.0 11.4 C17.1 12.7 15.9 13.3 15.0 14.2 C14.1 15.0 12.8 16.0 11.0 16.4 C9.4 16.8 7.7 16.9 6.4 16.6 L6.4 16.6 C9.6 16.7 10.0 16.6 11.3 15.0 C12.6 13.5 14.3 12.2 15.6 9.8 C16.3 8.7 16.3 8.1 17.5 8.0 L17.5 8.0"/> <path fill="none" stroke="black" stroke-width="0.3" stroke-opacity="1.0" filling="0" d="M17.5 8.5 L17.5 8.5 C17.5 8.5 17.5 8.5 17.6 8.5 L17.6 8.5 C17.5 8.6 17.5 8.7 17.5 8.8 L17.5 8.8 C17.5 8.9 17.5 9.0 17.4 9.1 L15.3 9.1 C15.3 9.0 15.3 8.9 15.3 8.8 L17.4 8.5"/> <path fill="none" stroke="black" stroke-width="0.3" stroke-opacity="1.0" filling="0" d="M18.5 9.1 L18.5 9.1 C19.4 10.9 19.4 13.2 19.0 15.4 C18.7 16.9 17.4 18.0 15.7 18.4 C14.2 19.0 12.5 19.4 10.9 19.4 C8.4 19.5 6.6 18.1 6.4 16.4 C6.1 14.7 6.1 13.2 6.8 11.5 C7.5 9.7 8.4 8.3 11.1 7.9 C13.5 7.4 15.5 7.7 18.5 8.1 L18.5 8.1"/></svg>