<svg xmlns="http://www.w3.org/2000/svg" viewBox="0.0 0.0 24.0 24.0" height="200px" width="200px"><path fill="none" stroke="black" stroke-width="0.3" stroke-opacity="1.0" filling="0" d="M12.8 5.5 L12.8 5.5 C13.4 5.6 13.9 5.8 14.4 6.1 C15.7 7.8 14.9 9.1 14.8 10.7 C14.7 12.3 14.5 15.3 13.6 16.8 C13.3 17.0 12.8 17.1 12.5 17.2 C11.4 17.4 10.9 17.6 10.4 16.7 C10.1 16.3 9.7 16.3 9.4 15.9 C7.6 14.9 6.2 16.6 8.6 15.1 L8.6 15.1 C8.7 15.1 8.8 15.0 8.9 15.0 L8.9 15.0 C9.1 14.6 9.3 14.2 9.4 13.9 L9.4 13.9 C9.6 13.9 10.0 14.1 10.1 14.3 C10.3 14.3 10.6 14.5 10.7 14.5 C10.9 14.7 11.3 14.8 12.1 14.9 C12.6 15.1 13.0 15.1 13.3 15.1 L13.3 15.1 C14.6 14.5 14.2 13.7 13.3 12.8 C13.1 12.7 13.0 12.3 12.9 12.2 L11.9 9.5 C11.9 9.1 11.9 8.8 11.9 8.4 L12.0 8.4 C12.1 8.9 12.3 9.5 12.4 10.0 C12.7 11.5 14.1 10.4 12.9 10.8 C12.5 10.9 10.6 11.1 10.9 11.2 C10.9 11.3 11.3 11.4 11.5 11.5 C12.1 11.7 13.4 12.0 13.4 12.7 C13.8 13.5 13.0 14.4 12.5 14.5 C11.0 14.9 9.8 13.6 9.0 12.2 L10.4 10.2 C10.5 9.9 10.9 9.5 10.9 9.0 C11.1 8.5 11.2 8.0 11.3 7.8 C11.5 7.5 11.9 7.6 12.2 7.5 L12.2 7.5 C12.4 7.5 12.5 7.7 12.7 7.9 C14.3 9.7 14.5 11.4 14.4 12.7 C14.4 13.7 13.8 14.7 13.5 15.5 C13.0 16.6 12.6 17.7 11.8 18.6 C10.6 20.1 8.9 20.9 6.9 21.6 C5.5 21.5 4.2 21.1 3.5 19.8 C3.1 19.5 3.3 19.4 3.6 19.1 C3.9 18.6 4.2 18.1 4.4 17.7 C4.4 17.1 3.9 16.0 3.7 14.7 C3.5 14.3 3.6 13.9 3.5 13.5 C3.3 12.1 3.7 11.5 4.0 10.9 C4.2 9.7 4.3 8.2 5.4 6.9 C6.4 5.5 7.1 5.2 8.8 4.8 C10.4 4.4 12.1 4.3 12.8 5.5 L12.8 5.5"/></svg>