<svg xmlns="http://www.w3.org/2000/svg" viewBox="0.0 0.0 24.0 24.0" height="200px" width="200px"><path fill="none" stroke="black" stroke-width="0.3" stroke-opacity="1.0" filling="0" d="M11.3 6.5 L11.3 6.5 C12.0 7.0 12.7 7.4 13.5 7.9 L13.5 8.8 C12.9 10.6 12.7 12.3 12.0 14.0 C11.7 14.6 11.0 14.9 10.5 15.1 L10.5 15.1 C10.4 15.0 10.3 14.9 10.2 14.9 L10.2 14.9 C10.5 14.7 10.8 14.5 10.9 14.4 L10.9 14.4 C10.0 13.6 9.4 13.0 9.0 12.3 L9.0 11.8 C8.9 11.5 8.8 11.2 8.8 10.8 L8.8 10.8 C7.7 10.3 5.3 10.2 6.0 7.6 C6.4 7.0 7.1 7.0 7.7 6.9 L9.2 5.5 L11.3 6.5"/> <path fill="none" stroke="black" stroke-width="0.3" stroke-opacity="1.0" filling="0" d="M11.3 8.6 L11.3 8.6 C13.7 8.6 14.5 11.5 12.7 13.3 L12.7 13.3 C12.8 13.3 12.9 13.4 13.0 13.4 L13.0 13.4 C12.9 13.5 12.9 13.6 12.8 13.7 L12.8 13.7 C12.8 13.7 12.8 13.7 12.8 13.8 L12.8 14.3 C13.4 16.1 14.1 17.2 15.0 17.8 L14.9 17.8 C14.6 17.8 14.5 17.8 14.4 17.8 L14.4 17.8 C14.5 17.8 14.5 17.8 14.4 17.8 L14.4 17.8 C14.5 17.9 14.6 18.0 14.6 18.1 L14.6 18.1 C13.7 18.5 12.8 19.0 11.7 19.3 C9.7 19.8 8.2 18.5 7.3 17.1 C6.6 16.1 6.3 14.9 6.7 13.6 L6.7 13.6 C6.7 13.3 6.7 13.0 6.7 12.8 L6.7 12.8 C6.8 12.7 6.8 12.6 6.8 12.5 L6.8 12.5 C6.9 11.4 6.9 10.4 7.7 9.5 C8.5 8.4 10.8 8.6 11.3 8.6 L11.3 8.6"/> <path fill="none" stroke="black" stroke-width="0.3" stroke-opacity="1.0" filling="0" d="M11.1 11.2 L11.1 11.2 C12.3 11.6 12.4 12.1 12.8 13.3 L8.6 13.3 C9.0 12.0 9.5 11.6 11.1 11.2 L11.1 11.2"/> <path fill="none" stroke="black" stroke-width="0.3" stroke-opacity="1.0" filling="0" d="M11.1 13.2 L11.1 13.2 C11.5 13.3 11.8 13.4 12.2 13.5 L12.2 13.5 C12.0 14.7 11.3 15.6 9.6 15.6 C8.0 15.6 6.4 14.7 5.5 13.5 L5.5 13.5 C6.7 14.8 6.9 15.9 8.1 16.5 C10.1 17.2 11.4 15.8 9.4 14.7 C8.9 14.7 8.2 14.5 7.6 14.5 L7.6 14.5 C8.1 13.9 8.6 13.5 9.1 13.2 C9.6 12.8 10.1 12.5 11.1 13.2 L11.1 13.2"/> <path fill="none" stroke="black" stroke-width="0.3" stroke-opacity="1.0" filling="0" d="M13.7 18.9 L13.7 18.9 C14.3 19.9 14.2 20.1 14.4 20.8 C14.6 21.6 14.1 22.6 13.7 22.6 C13.3 22.6 12.8 21.6 13.0 20.8 C13.1 20.1 13.5 19.9 13.7 18.9 L13.7 18.9"/></svg>