<svg xmlns="http://www.w3.org/2000/svg" viewBox="0 0 24 24"><path d="M4 4 L20 4 L20 20.0 L15.1 15.1 L10.1 10.1 L4.0 5.2 L4.0 3.2"/> <path fill="none" stroke="black" stroke-width="0.3" stroke-opacity="1.0" filling="0" d="M5.3 3.8 L11.7 3.8 L18.1 3.8 L18.1 7.8 L18.1 11.7 L18.1 16.6 L11.7 16.6 L5.3 16.6 L5.3 10.6 L5.3 3.8"/> <path fill="none" stroke="black" stroke-width="0.3" stroke-opacity="1.0" filling="0" d="M5.3 3.8 L11.7 3.8 L18.1 3.8 L18.1 5.2 L11.7 5.2 L5.3 5.2 L5.3 3.8"/> <path fill="none" stroke="black" stroke-width="0.3" stroke-opacity="1.0" filling="0" d="M5.3 4.0 L11.7 4.0 L18.1 4.0 L18.1 6.3 L11.7 6.3 L5.3 6.3"/> <path fill="none" stroke="black" stroke-width="0.3" stroke-opacity="1.0" filling="0" d="M18.0 4.2 L18.0 6.1 L11.7 6.1 L5.4 6.1 L5.4 4.2 L11.7 4.2 L18.0 4.2"/> <path fill="none" stroke="black" stroke-width="0.3" stroke-opacity="1.0" filling="0" d="M5.4 4.7 L11.7 4.7 L18.1 4.7 L18.1 9.6 L18.1 14.5 L11.7 14.5 L5.4 14.5"/> <path fill="none" stroke="black" stroke-width="0.3" stroke-opacity="1.0" filling="0" d="M18.1 4.7 L18.1 6.9 L11.7 6.9 L5.4 6.9 L5.4 4.7 L11.7 4.7 L18.1 4.7"/></svg>