<svg xmlns="http://www.w3.org/2000/svg" viewBox="0 0 24 24"><path d="M4 4 L20 4 L20 20.3 L15.0 15.0 L10.6 9.8 L4.5 4.6 L4.5 9.8 L4.5 15.0 L4.5 20.4 L10.1 20.4 L15.7 20.4 L20.4 20.4 L20.4 11.2 L20.4 4.1 L15.0 8.9 L9.6 13.9 L4.5 18.7 L4.5 15.0 L4.5 9.8 L4.5 4.6 L11.8 4.6 L19.3 4.6 L19.3 9.8 L19.3 15.0 L19.3 19.2 L14.6 19.2 L10.1 14.8 L4.5 9.6 L4.5 4.4"/> <path fill="none" stroke="black" stroke-width="0.3" stroke-opacity="1.0" filling="0" d="M5.2 8.6 L9.6 8.6 L14.1 8.6 L20.4 8.6 L20.4 9.5 L14.1 9.5 L9.6 9.5 L5.2 9.5 L5.2 8.6"/> <path fill="none" stroke="black" stroke-width="0.3" stroke-opacity="1.0" filling="0" d="M5.2 12.6 L9.6 12.6 L13.9 12.6 L20.4 12.6 L20.4 13.5 L13.9 13.5 L9.6 13.5 L5.2 13.5 L5.2 12.6"/></svg>