<svg xmlns="http://www.w3.org/2000/svg" viewBox="0 0 24 24"><path d="M4 4 L20 4 L20 20.4 L13.7 20.4 L7.0 20.4 L7.0 14.2 L7.0 9.0 L7.0 4.8 L4.9 4.8 L4.9 4.4 C5.4 4.2 5.9 3.7 6.4 3.4 L6.4 3.4"/> <path fill="none" stroke="black" stroke-width="0.3" stroke-opacity="1.0" filling="0" d="M17.0 4.8 L18.1 5.7 L18.7 6.6 L19.5 6.9 L20.4 7.4 L20.4 8.0 L19.5 8.9 L19.5 9.6 L18.7 9.9 L18.1 10.5 L17.0 9.9 L15.4 10.5 L15.4 9.9 L14.6 9.6 L14.6 9.0 L13.8 8.9 L13.8 8.0 L13.2 7.4 L13.8 6.9 L14.6 6.6 L14.6 5.7 L15.4 5.7 L15.4 4.8 L16.1 4.8"/> <path fill="none" stroke="black" stroke-width="0.3" stroke-opacity="1.0" filling="0" d="M17.0 6.4 L18.1 7.4 L18.5 8.0 L18.5 8.4 L19.5 9.0 L19.5 9.6 L18.5 10.2 L18.5 10.6 L17.0 10.6 L17.0 11.0 L16.6 10.6 L15.4 10.6 L15.4 10.2 L14.4 9.6 L14.4 9.0 L15.4 8.4 L15.4 7.4 L16.6 7.4 L16.6 6.4 L17.0 6.4"/> <path fill="none" stroke="black" stroke-width="0.3" stroke-opacity="1.0" filling="0" d="M17.1 6.8 L17.9 7.4 L18.2 7.7 L18.2 8.0 L19.2 8.4 L19.2 8.9 L18.2 9.5 L18.2 10.1 L17.1 9.0 L16.1 9.5 L16.1 8.9 L15.1 8.9 L15.1 8.4 L16.1 7.7 L16.1 7.4 L16.5 6.8 L17.1 6.8"/> <path fill="none" stroke="black" stroke-width="0.3" stroke-opacity="1.0" filling="0" d="M16.6 8.3 L18.7 9.0 L18.7 9.6 L16.6 10.1 L16.6 8.3"/> <path fill="none" stroke="black" stroke-width="0.3" stroke-opacity="1.0" filling="0" d="M9.0 11.6 L10.1 12.5 L9.0 13.5 L9.0 12.3 L7.8 12.6 L7.8 11.7 L9.0 11.6"/> <path fill="none" stroke="black" stroke-width="0.3" stroke-opacity="1.0" filling="0" d="M14.4 12.4 L14.4 12.4 C14.9 12.8 15.3 13.3 15.7 13.7 L15.0 13.9 C14.8 13.5 14.7 13.1 14.4 12.7 L14.4 12.4"/> <path fill="none" stroke="black" stroke-width="0.3" stroke-opacity="1.0" filling="0" d="M15.0 14.2 L15.0 14.2 C15.3 14.6 15.7 15.1 15.9 15.6 C16.2 16.0 16.8 16.2 17.1 16.6 L16.0 16.6 C15.7 16.2 15.4 15.7 15.0 15.4 L15.0 15.4 C14.6 15.7 14.3 16.2 13.9 16.6 L13.0 16.6 C13.4 16.2 13.8 15.7 14.0 15.2 L14.0 15.2 C14.4 14.9 14.8 14.5 15.0 14.2 L15.0 14.2"/> <path fill="none" stroke="black" stroke-width="0.3" stroke-opacity="1.0" filling="0" d="M15.0 14.5 L15.0 14.5 C15.1 14.8 15.3 15.2 15.5 15.4 L15.5 15.4 C15.3 15.1 15.0 14.8 15.0 14.5 L15.0 14.5"/></svg>