<svg xmlns="http://www.w3.org/2000/svg" viewBox="0 0 24 24"><path d="M4 4 L20 4 L20 20.3 L11.9 20.3 L4.5 20.3 L4.5 14.6 L4.5 9.9 L4.5 4.2 C4.9 4.0 5.2 3.7 5.5 3.4 L5.5 3.4"/> <path fill="none" stroke="black" stroke-width="0.3" stroke-opacity="1.0" filling="0" d="M5.5 3.4 L11.9 3.4 L20.3 3.4 C20.6 3.7 20.8 4.0 21.1 4.2 L21.1 9.9 L21.1 15.6 L21.1 20.3 C20.8 20.6 20.6 20.8 20.3 21.1 L11.9 21.1 L4.5 21.1 C4.2 20.8 3.9 20.6 3.6 20.3 L3.6 15.6 L3.6 9.9 L3.6 4.2 C3.9 4.0 4.2 3.7 4.5 3.4 L4.5 3.4"/> <path fill="none" stroke="black" stroke-width="0.3" stroke-opacity="1.0" filling="0" d="M5.5 4.2 L11.9 4.2 L20.3 4.2 L20.3 10.7 L20.3 17.1 L11.9 17.1 L5.5 17.1 L5.5 10.7 L5.5 4.2"/> <path fill="none" stroke="black" stroke-width="0.3" stroke-opacity="1.0" filling="0" d="M7.6 4.7 L12.3 4.7 L12.3 7.1 L7.6 7.1 L7.6 4.7"/> <path fill="none" stroke="black" stroke-width="0.3" stroke-opacity="1.0" filling="0" d="M14.5 4.7 L16.0 4.7 L16.0 7.1 L14.5 7.1 L14.5 4.7"/> <path fill="none" stroke="black" stroke-width="0.3" stroke-opacity="1.0" filling="0" d="M8.0 9.6 L8.0 9.6 C8.3 9.8 9.0 9.9 9.2 10.3 C11.2 12.8 4.6 12.9 5.9 10.3 C6.2 9.9 7.0 9.8 7.3 9.6 L8.0 9.6"/> <path fill="none" stroke="black" stroke-width="0.3" stroke-opacity="1.0" filling="0" d="M18.2 9.6 L19.0 9.6 L19.0 10.3 L18.2 10.3 L18.2 9.6"/> <path fill="none" stroke="black" stroke-width="0.3" stroke-opacity="1.0" filling="0" d="M9.2 10.3 L12.6 10.3 L12.6 11.9 L9.2 11.9 L9.2 10.3"/> <path fill="none" stroke="black" stroke-width="0.3" stroke-opacity="1.0" filling="0" d="M10.6 10.3 L12.6 10.3 L12.6 11.9 L10.6 11.9 L10.6 10.3"/> <path fill="none" stroke="black" stroke-width="0.3" stroke-opacity="1.0" filling="0" d="M11.9 10.3 L12.6 10.3 L12.6 11.9 L11.9 11.9 L11.9 10.3"/> <path fill="none" stroke="black" stroke-width="0.3" stroke-opacity="1.0" filling="0" d="M13.0 10.3 L14.5 10.3 L14.5 11.9 L13.0 11.9 L13.0 10.3"/> <path fill="none" stroke="black" stroke-width="0.3" stroke-opacity="1.0" filling="0" d="M12.1 10.8 L12.1 10.8 C12.4 11.0 12.8 11.2 13.1 11.4 L13.1 13.3 L12.1 13.3 L12.1 10.8"/> <path fill="none" stroke="black" stroke-width="0.3" stroke-opacity="1.0" filling="0" d="M10.0 11.9 L12.0 11.9 L12.0 13.3 L10.0 13.3 L10.0 11.9"/> <path fill="none" stroke="black" stroke-width="0.3" stroke-opacity="1.0" filling="0" d="M10.6 11.9 L12.0 11.9 L12.0 13.3 L10.6 13.3 L10.6 11.9"/> <path fill="none" stroke="black" stroke-width="0.3" stroke-opacity="1.0" filling="0" d="M9.2 13.3 L12.6 13.3 L12.6 13.8 L9.2 13.8 L9.2 13.3"/> <path fill="none" stroke="black" stroke-width="0.3" stroke-opacity="1.0" filling="0" d="M9.2 13.3 L12.6 13.3 L12.6 13.8 L9.2 13.8 L9.2 13.3"/> <path fill="none" stroke="black" stroke-width="0.3" stroke-opacity="1.0" filling="0" d="M12.6 13.3 L12.6 13.8 L9.2 13.8 L9.2 13.3 L12.6 13.3"/> <path fill="none" stroke="black" stroke-width="0.3" stroke-opacity="1.0" filling="0" d="M9.2 13.8 L12.6 13.8 L12.6 14.4 L9.2 14.4 L9.2 13.8"/> <path fill="none" stroke="black" stroke-width="0.3" stroke-opacity="1.0" filling="0" d="M9.2 15.0 L12.6 15.0 L12.6 15.6 L9.2 15.6 L9.2 15.0"/> <path fill="none" stroke="black" stroke-width="0.3" stroke-opacity="1.0" filling="0" d="M9.2 15.0 L12.6 15.0 L12.6 15.6 L9.2 15.6 L9.2 15.0"/> <path fill="none" stroke="black" stroke-width="0.3" stroke-opacity="1.0" filling="0" d="M12.6 15.0 L12.6 15.6 L9.2 15.6 L9.2 15.0 L12.6 15.0"/> <path fill="none" stroke="black" stroke-width="0.3" stroke-opacity="1.0" filling="0" d="M10.1 16.1 L12.6 16.1 L12.6 16.6 L10.1 16.6 L10.1 16.1"/> <path fill="none" stroke="black" stroke-width="0.3" stroke-opacity="1.0" filling="0" d="M13.5 16.1 L15.9 16.1 L15.9 16.6 L13.5 16.6 L13.5 16.1"/> <path fill="none" stroke="black" stroke-width="0.3" stroke-opacity="1.0" filling="0" d="M13.5 16.1 L13.5 16.6 L9.2 16.6 L9.2 16.1 L13.5 16.1"/> <path fill="none" stroke="black" stroke-width="0.3" stroke-opacity="1.0" filling="0" d="M9.2 16.6 L9.7 16.6 L9.7 17.0 L9.2 17.0 L9.2 16.6"/> <path fill="none" stroke="black" stroke-width="0.3" stroke-opacity="1.0" filling="0" d="M10.1 16.6 L12.6 16.6 L12.6 17.1 L10.1 17.1 L10.1 16.6"/> <path fill="none" stroke="black" stroke-width="0.3" stroke-opacity="1.0" filling="0" d="M13.5 16.6 L15.9 16.6 L15.9 17.1 L13.5 17.1 L13.5 16.6"/> <path fill="none" stroke="black" stroke-width="0.3" stroke-opacity="1.0" filling="0" d="M9.2 16.6 L9.7 16.6 L9.7 17.1 L9.2 17.1 L9.2 16.6"/> <path fill="none" stroke="black" stroke-width="0.3" stroke-opacity="1.0" filling="0" d="M10.1 16.6 L12.6 16.6 L12.6 17.1 L10.1 17.1 L10.1 16.6"/> <path fill="none" stroke="black" stroke-width="0.3" stroke-opacity="1.0" filling="0" d="M12.6 16.6 L12.6 17.1 L10.1 17.1 L10.1 16.6 L12.6 16.6"/> <path fill="none" stroke="black" stroke-width="0.3" stroke-opacity="1.0" filling="0" d="M9.2 18.1 L12.6 18.1 L12.6 18.6 L9.2 18.6 L9.2 18.1"/> <path fill="none" stroke="black" stroke-width="0.3" stroke-opacity="1.0" filling="0" d="M9.2 18.1 L9.7 18.1 L9.7 18.6 L9.2 18.6 L9.2 18.1"/> <path fill="none" stroke="black" stroke-width="0.3" stroke-opacity="1.0" filling="0" d="M10.1 18.1 L12.6 18.1 L12.6 18.6 L10.1 18.6 L10.1 18.1"/> <path fill="none" stroke="black" stroke-width="0.3" stroke-opacity="1.0" filling="0" d="M12.6 18.1 L12.6 18.6 L10.1 18.6 L10.1 18.1 L12.6 18.1"/> <path fill="none" stroke="black" stroke-width="0.3" stroke-opacity="1.0" filling="0" d="M9.2 18.6 L12.6 18.6 L12.6 18.9 L9.2 18.9 L9.2 18.6"/> <path fill="none" stroke="black" stroke-width="0.3" stroke-opacity="1.0" filling="0" d="M12.6 18.6 L12.6 18.9 L10.1 18.9 L10.1 18.6 L12.6 18.6"/></svg>