<svg xmlns="http://www.w3.org/2000/svg" viewBox="0.0 0.0 24.0 24.0" height="200px" width="200px"><path fill="none" stroke="black" stroke-width="0.3" stroke-opacity="1.0" filling="0" d="M17.4 4.7 L17.4 4.7 C17.4 4.7 17.4 4.7 17.5 4.7 L17.5 4.7 C19.5 5.3 20.2 6.7 20.5 8.3 C20.7 9.9 20.5 11.6 20.4 13.4 L20.4 13.4 C19.5 13.7 18.4 14.0 17.2 14.2 L16.6 14.2 L16.6 8.7 L12.4 8.7 L8.2 8.7 L8.2 14.2 L8.2 19.7 C7.2 18.4 6.5 16.7 6.5 15.0 C6.5 13.2 6.7 10.9 7.2 8.9 L8.2 8.9 C9.1 6.9 10.3 6.3 12.2 5.9 L12.2 5.9 C12.9 5.9 14.0 5.7 15.0 5.9 L15.0 5.9 C15.9 5.3 16.7 4.9 17.4 4.7 L17.4 4.7"/> <path fill="none" stroke="black" stroke-width="0.3" stroke-opacity="1.0" filling="0" d="M15.5 6.2 L15.5 6.2 C15.5 6.3 15.5 6.3 15.6 6.3 L15.6 6.3 C15.8 6.5 15.9 6.7 16.0 6.8 L16.0 6.8 C16.1 6.6 16.3 6.3 16.5 6.2 L16.5 6.2 C17.0 7.4 17.1 8.2 16.7 9.5 C16.4 10.0 15.9 12.1 15.0 12.0 C14.6 11.9 13.9 11.9 13.9 12.5 C13.9 13.2 14.9 13.6 15.0 13.9 L15.0 13.9 C15.1 13.8 15.0 13.7 15.0 13.6 L14.4 13.6 C14.4 13.8 14.3 14.0 14.2 14.2 L14.0 14.2 C13.8 14.4 13.7 14.6 13.4 14.8 L13.4 14.8 C13.4 14.8 13.4 14.8 13.4 14.8 L13.4 14.8 C13.4 14.8 13.3 14.8 13.3 14.8 L13.3 14.8 C13.2 14.8 13.2 14.8 13.2 14.8 L12.7 14.8 C12.6 14.8 12.6 14.8 12.5 14.8 L12.5 14.8 C12.4 14.6 12.3 14.4 12.2 14.2 L11.7 14.2 C11.6 14.0 11.5 13.8 11.4 13.6 L11.2 13.6 C10.9 13.8 10.6 13.9 10.3 14.1 L10.3 14.1 C10.3 14.1 10.3 14.1 10.3 14.1 L10.3 14.1 C10.3 14.1 10.3 14.1 10.2 14.0 L10.2 14.0 C10.1 13.7 9.7 13.4 9.9 13.1 C10.3 12.7 11.4 13.0 11.8 12.6 C12.4 11.7 13.3 11.1 13.5 9.9 C14.0 8.2 14.1 7.4 14.4 6.3 L14.4 6.3 C14.5 6.3 14.6 6.3 14.7 6.3 L14.7 6.3 C15.2 6.5 15.9 6.3 16.5 6.2 L16.5 6.2"/> <path fill="none" stroke="black" stroke-width="0.3" stroke-opacity="1.0" filling="0" d="M16.6 6.2 L16.6 6.2 C17.4 8.0 16.9 8.5 15.9 10.1 L12.3 10.1 C12.2 10.0 12.0 9.9 12.0 9.8 L12.0 9.8 C12.0 9.7 11.9 9.6 11.9 9.5 L11.9 9.5 C11.7 9.9 11.4 10.1 11.2 10.4 L11.2 10.4 C10.8 10.6 10.5 10.7 10.1 11.0 L10.1 11.0 C10.0 10.9 9.9 10.9 9.8 10.8 L9.8 10.8 C9.8 10.8 9.9 10.8 9.9 10.8 L10.3 10.8 C10.8 10.2 10.6 9.7 11.2 9.1 C11.5 8.9 11.7 9.6 12.0 9.9 L11.5 9.9 C11.5 9.9 11.5 9.8 11.5 9.8 L11.6 9.8 C11.9 9.5 11.6 8.7 11.8 8.4 C12.1 7.9 12.4 8.9 12.8 9.2 L12.8 9.2 C12.9 9.2 12.9 9.1 12.9 9.0 L12.9 9.0 C13.0 9.6 13.4 9.9 13.6 10.6 C13.6 10.7 13.6 11.0 13.4 11.0 C13.2 10.8 12.9 10.5 12.8 10.1 L12.8 10.1 C12.5 10.5 12.3 10.6 11.9 10.8 L11.9 10.8 C12.2 11.6 12.4 12.0 12.0 12.8 L12.0 12.8 C12.2 13.0 12.3 13.4 12.1 13.6 L12.1 13.6 C11.8 13.6 11.5 13.5 11.2 13.5 L11.2 13.5 C11.1 13.6 11.1 13.6 11.0 13.6 L11.0 13.6 C10.7 13.5 10.3 13.5 10.2 13.2 C10.0 12.8 10.2 12.5 10.3 12.2 L10.3 12.2 C10.4 12.2 10.5 12.1 10.6 12.1 L10.6 12.1 C10.2 11.8 9.9 11.4 9.6 11.0 L9.6 11.0 C10.1 11.1 10.5 11.2 10.8 11.5 L11.0 11.5 L11.0 11.0 C11.5 11.1 11.9 11.4 12.4 11.7 L12.4 11.7 C12.2 11.4 12.0 11.1 11.7 10.9 L11.7 10.9 C11.6 10.3 11.3 9.6 11.6 9.1 C11.9 8.7 12.4 8.7 12.9 8.5 L13.1 8.5 C14.1 7.4 15.1 6.5 16.6 6.2 L16.6 6.2"/> <path fill="none" stroke="black" stroke-width="0.3" stroke-opacity="1.0" filling="0" d="M16.5 6.4 L16.5 6.4 C17.4 7.9 17.7 8.2 16.5 10.0 L16.5 10.0 C16.2 10.2 15.8 10.5 15.6 10.8 L15.6 10.8 C15.2 10.7 14.8 10.5 14.4 10.3 L14.4 10.3 C14.6 9.6 14.8 8.8 15.1 8.4 L15.1 8.4 C15.4 7.5 15.8 6.7 16.5 6.4 L16.5 6.4"/> <path fill="none" stroke="black" stroke-width="0.3" stroke-opacity="1.0" filling="0" d="M11.2 7.1 L11.2 7.1 C11.7 8.1 11.8 8.4 12.5 9.1 L12.5 9.1 C12.2 8.8 11.9 8.5 11.7 8.2 L11.7 8.2 C11.5 7.8 11.2 7.3 11.2 6.8 C11.2 6.5 11.2 6.4 11.2 6.4 L11.2 6.4"/> <path fill="none" stroke="black" stroke-width="0.3" stroke-opacity="1.0" filling="0" d="M15.7 7.4 L15.7 7.4 C15.8 7.8 15.9 8.4 16.0 8.8 L15.7 8.8 C15.7 8.7 15.7 8.6 15.7 8.5 L15.7 8.5 C15.5 8.8 15.2 8.6 15.0 8.4 L15.0 8.4 C14.9 8.7 14.6 8.8 14.4 9.1 C14.2 9.4 14.4 9.8 14.3 10.1 L14.3 10.1 C14.1 9.7 13.8 9.4 13.6 9.0 L13.6 9.0 C13.6 9.3 13.5 9.6 13.5 10.1 L13.5 10.1 C13.4 9.8 13.1 9.5 13.0 9.1 C12.9 8.9 13.1 9.3 13.1 9.0 C13.1 8.5 13.1 7.9 13.0 7.5 L13.0 7.5 C13.1 7.8 13.1 7.9 13.2 8.1 L13.2 8.1 C13.2 7.8 13.0 7.4 13.0 7.0 L13.0 7.0 C13.2 7.3 13.4 7.8 13.3 8.2 L13.3 8.2 C13.3 8.3 13.3 8.3 13.4 8.3 L13.4 8.3 C13.4 8.2 13.4 8.1 13.4 8.0 L13.4 8.0 C13.4 7.8 13.3 7.6 13.3 7.4 L13.3 7.4 C13.4 7.4 13.4 7.4 13.4 7.4 L13.4 7.4 C13.5 7.5 13.5 7.7 13.5 7.8 L13.5 7.8 C13.4 8.3 13.2 8.8 12.9 9.2 L12.9 9.2 C13.0 8.7 13.0 8.3 13.0 7.8 L13.0 7.8 C13.1 7.8 13.1 7.8 13.1 7.9 L13.1 7.9 C13.4 7.5 13.5 6.9 13.6 6.6 L13.6 6.6 C14.3 7.4 14.5 8.6 14.5 9.8 C14.5 10.1 14.1 10.4 13.9 10.5 L13.9 10.5 C13.6 9.3 13.4 8.1 13.5 6.8 L13.5 6.8 C14.3 7.6 14.6 7.3 15.7 7.4 L15.7 7.4"/> <path fill="none" stroke="black" stroke-width="0.3" stroke-opacity="1.0" filling="0" d="M15.7 7.4 L15.7 7.4 C15.8 7.8 15.9 8.3 15.9 8.7 L15.9 8.7 C15.9 8.5 15.9 8.3 15.9 8.1 L15.9 8.1 C15.9 8.3 16.0 8.5 16.0 8.7 L16.0 8.7 C16.0 8.7 16.0 8.7 16.0 8.7 L16.0 8.7 C16.0 8.5 16.0 8.3 16.0 8.1 L16.0 8.1 C16.1 8.3 16.2 8.5 16.2 8.7 L16.2 8.7 C16.0 8.4 16.0 8.1 15.9 7.8 L15.9 7.8 C15.9 7.7 15.8 7.5 15.7 7.4 L15.7 7.4"/> <path fill="none" stroke="black" stroke-width="0.3" stroke-opacity="1.0" filling="0" d="M13.7 8.0 L13.7 8.0 C14.0 9.0 14.2 10.3 14.3 11.7 L14.3 11.7 C13.5 11.1 12.8 10.5 12.5 9.6 L12.5 9.6 C12.5 10.0 12.5 10.4 12.5 10.8 L12.5 10.8 C12.8 10.3 13.1 9.8 13.2 9.2 L13.2 9.2 C13.2 8.8 13.4 8.4 13.4 8.0 L13.7 8.0"/> <path fill="none" stroke="black" stroke-width="0.3" stroke-opacity="1.0" filling="0" d="M11.8 8.6 L11.8 8.6 C11.9 9.1 12.2 9.6 12.3 10.1 L12.3 10.1 C12.2 10.4 12.1 10.7 12.0 11.0 L12.0 11.0 C12.0 10.4 12.1 9.9 12.1 9.4 L12.1 9.4 C12.0 9.3 11.8 9.3 11.8 8.9 C11.7 8.7 11.8 8.8 11.8 8.6 L11.8 8.6"/> <path fill="none" stroke="black" stroke-width="0.3" stroke-opacity="1.0" filling="0" d="M14.9 9.4 L14.9 9.4 C14.9 9.4 15.0 9.5 15.0 9.5 L15.0 9.5 C15.0 9.4 14.9 9.4 14.9 9.4 L14.9 9.4"/> <path fill="none" stroke="black" stroke-width="0.3" stroke-opacity="1.0" filling="0" d="M13.6 10.7 L13.6 10.7 C15.7 10.5 16.7 11.3 18.1 12.8 L18.1 12.8 C17.4 12.8 16.6 12.7 15.8 12.6 L15.8 12.6 C15.6 12.5 15.4 12.5 15.1 12.5 L15.1 12.5 C13.6 14.6 9.9 13.0 12.3 10.9 L12.3 10.9 C12.6 10.8 12.9 10.8 13.2 10.8 L13.2 10.8 C13.3 10.8 13.4 10.8 13.6 10.7 L13.6 10.7"/></svg>