<svg xmlns="http://www.w3.org/2000/svg" viewBox="0.0 0.0 24.0 24.0" height="200px" width="200px"><path fill="none" stroke="black" stroke-width="0.3" stroke-opacity="1.0" filling="0" d="M11.0 8.2 L11.0 8.2 C12.6 8.5 13.2 10.4 13.3 11.8 C13.3 13.2 12.6 14.6 11.0 15.2 L11.0 15.2 C10.3 15.4 9.7 15.7 9.1 15.9 L6.7 15.9 C5.6 15.2 3.9 13.8 4.8 12.5 C5.6 11.1 8.1 11.2 9.5 11.2 L10.5 10.1 L9.5 11.8 L10.6 11.8 L10.6 11.1 L9.5 11.1 C8.8 10.9 8.2 10.9 7.4 10.9 L7.4 10.9 C8.1 10.0 8.6 9.3 9.5 9.0 L10.5 9.0 L10.5 8.3 C10.6 8.3 10.8 8.2 11.0 8.2 L11.0 8.2"/> <path fill="none" stroke="black" stroke-width="0.3" stroke-opacity="1.0" filling="0" d="M16.4 11.8 L16.4 11.8 C15.2 12.9 13.9 13.6 12.7 14.6 L12.7 14.6 C12.1 14.3 11.4 14.3 10.7 14.5 L10.7 14.5 C10.2 14.3 9.7 14.2 9.1 13.8 L9.1 13.8"/> <path fill="none" stroke="black" stroke-width="0.3" stroke-opacity="1.0" filling="0" d="M18.4 15.7 L18.4 15.7 C18.1 16.1 17.4 16.1 16.7 16.0 L16.7 16.0 C15.6 15.6 14.5 15.7 13.3 16.1 L13.3 16.1 C14.1 15.2 14.7 14.4 15.4 13.9 L15.4 13.9"/></svg>