<svg xmlns="http://www.w3.org/2000/svg" viewBox="0.0 0.0 24.0 24.0" height="200px" width="200px"><path fill="none" stroke="black" stroke-width="0.3" stroke-opacity="1.0" filling="0" d="M10.4 6.1 L10.4 8.9"/> <path fill="none" stroke="black" stroke-width="0.3" stroke-opacity="1.0" filling="0" d="M15.5 6.1 L15.5 8.9"/> <path fill="none" stroke="black" stroke-width="0.3" stroke-opacity="1.0" filling="0" d="M10.4 6.8 L15.5 6.8"/> <path fill="none" stroke="black" stroke-width="0.3" stroke-opacity="1.0" filling="0" d="M18.9 6.8 L19.8 7.7 L18.0 12.8 L19.9 18.1 L12.4 18.1 L12.4 17.1 L12.9 14.2 C14.3 13.9 15.4 13.7 16.6 13.0 C17.6 12.4 16.6 11.8 16.6 10.4 C16.6 9.0 17.8 8.0 18.9 6.8 L18.9 6.8"/> <path fill="none" stroke="black" stroke-width="0.3" stroke-opacity="1.0" filling="0" d="M17.5 12.8 L18.0 13.1 L16.2 16.0 L14.9 15.7 L16.8 13.4 C17.1 13.2 17.3 12.9 17.5 12.8 L17.5 12.8"/></svg>