<svg xmlns="http://www.w3.org/2000/svg" viewBox="0.0 0.0 24.0 24.0" height="200px" width="200px"><path fill="none" stroke="black" stroke-width="0.3" stroke-opacity="1.0" filling="0" d="M6.1 3.6 L11.8 3.6 L17.5 3.6 L17.5 9.2 L17.5 14.7 L11.8 14.7 L6.1 14.7"/> <path fill="none" stroke="black" stroke-width="0.3" stroke-opacity="1.0" filling="0" d="M6.1 5.5 L11.9 5.5 L17.5 5.5 L17.5 6.5 L11.9 6.5 L6.4 6.5 L6.4 12.6 L6.4 18.7 L13.5 18.7 L19.7 18.7 L19.7 12.6 L19.7 6.5 L12.5 6.5 L6.4 6.5 L6.4 11.4 L6.4 16.3 L11.9 16.3 L17.4 16.3 L17.4 17.2 L11.9 17.2 L6.4 17.2 L6.4 12.6 L6.4 6.0 L6.1 6.0 L6.1 5.5"/> <path fill="none" stroke="black" stroke-width="0.3" stroke-opacity="1.0" filling="0" d="M9.6 9.1 L10.6 9.1 L10.6 11.4 L9.6 11.4"/> <path fill="none" stroke="black" stroke-width="0.3" stroke-opacity="1.0" filling="0" d="M12.5 9.1 L14.1 9.1 L14.1 11.4 L12.5 11.4"/> <path fill="none" stroke="black" stroke-width="0.3" stroke-opacity="1.0" filling="0" d="M15.9 9.1 L17.5 9.1 L17.5 11.4 L15.9 11.4"/> <path fill="none" stroke="black" stroke-width="0.3" stroke-opacity="1.0" filling="0" d="M8.5 10.9 L8.5 10.9 C8.8 11.0 9.3 11.1 9.5 11.4 C9.7 11.8 9.5 12.4 9.3 12.8 L8.5 12.8 C8.4 12.7 8.3 12.5 8.2 12.3 L8.2 10.9 C8.3 10.9 8.4 10.9 8.5 10.9 L8.5 10.9"/> <path fill="none" stroke="black" stroke-width="0.3" stroke-opacity="1.0" filling="0" d="M11.6 10.9 L14.7 10.9 L14.7 11.8 L11.6 11.8"/> <path fill="none" stroke="black" stroke-width="0.3" stroke-opacity="1.0" filling="0" d="M8.5 13.3 L9.6 13.3 L9.6 14.5 L8.5 14.5"/> <path fill="none" stroke="black" stroke-width="0.3" stroke-opacity="1.0" filling="0" d="M11.6 13.3 L14.7 13.3 L14.7 14.5 L11.6 14.5"/> <path fill="none" stroke="black" stroke-width="0.3" stroke-opacity="1.0" filling="0" d="M8.5 16.3 L11.9 16.3 L11.9 17.2 L8.5 17.2"/></svg>