<svg xmlns="http://www.w3.org/2000/svg" viewBox="0.0 0.0 24.0 24.0" height="200px" width="200px"><path fill="none" stroke="black" stroke-width="0.3" stroke-opacity="1.0" filling="0" d="M15.6 4.5 L15.6 4.5 C16.6 4.6 17.5 4.6 18.6 5.3 C19.7 5.9 20.4 7.2 20.7 8.4 C21.1 9.8 21.0 11.3 20.7 12.9 L17.6 16.9 L14.4 20.9 C12.5 21.6 12.1 21.9 10.4 20.3 L7.2 17.2 C6.9 15.5 6.4 14.1 6.1 12.7 C5.7 11.3 5.6 9.8 5.9 8.4 C6.1 7.2 6.8 5.9 8.0 5.3 C9.6 4.1 12.5 4.1 14.4 4.5 L14.4 4.5 C14.9 4.5 15.2 4.5 15.6 4.5 L15.6 4.5"/> <path fill="none" stroke="black" stroke-width="0.3" stroke-opacity="1.0" filling="0" d="M15.6 4.7 L15.6 4.7 C15.9 4.8 16.2 4.8 16.6 4.9 L20.4 8.0 C20.5 9.5 20.7 11.0 20.4 12.4 C20.0 13.8 19.2 15.3 17.4 15.5 L15.0 13.2 L11.6 10.8 L10.8 10.3 L10.0 9.8 L10.3 9.2 C10.3 9.2 10.3 9.2 10.3 9.2 L10.6 9.7 L10.4 9.4 C10.4 9.4 10.3 9.4 10.3 9.4 L10.7 9.7 C10.7 9.7 10.6 9.7 10.5 9.6 L10.5 9.6 C10.6 9.6 10.6 9.5 10.6 9.4 L10.7 9.0 C10.9 8.8 11.1 8.5 11.3 8.4 L11.3 8.4 C11.5 7.3 12.2 6.7 12.8 6.4 L12.8 6.4 C13.3 6.0 13.8 5.7 14.4 5.4 L14.4 5.4 C14.9 5.3 15.3 5.0 15.6 4.7 L15.6 4.7"/> <path fill="none" stroke="black" stroke-width="0.3" stroke-opacity="1.0" filling="0" d="M15.6 4.7 L15.6 4.7 C15.9 4.8 16.2 4.9 16.5 5.1 L16.5 5.1 C15.5 5.9 14.9 5.3 15.6 4.7 L15.6 4.7"/> <path fill="none" stroke="black" stroke-width="0.3" stroke-opacity="1.0" filling="0" d="M9.4 4.8 L9.4 4.8 C10.1 5.2 10.7 5.8 11.2 6.4 L11.4 6.4 C13.6 7.5 14.1 8.0 13.4 10.8 L13.4 10.9 C12.9 11.5 12.6 12.3 12.1 12.8 L11.6 13.0 C11.3 13.1 10.7 13.4 10.7 13.8 C10.7 14.2 11.3 14.4 11.6 14.7 L11.1 15.2 L10.7 15.4 C10.2 15.4 9.6 15.4 9.4 14.9 C9.0 14.5 9.4 14.0 9.3 13.4 C9.3 13.0 9.0 12.6 8.9 12.2 L8.4 10.3 L7.9 9.5 C7.8 9.3 7.8 9.2 7.7 9.0 L7.7 9.0 C7.4 7.5 6.9 6.2 7.2 5.0 L7.2 5.0 C7.5 5.1 7.8 5.1 8.0 5.0 L9.0 4.9 C9.1 4.8 9.2 4.8 9.4 4.8 L9.4 4.8"/> <path fill="none" stroke="black" stroke-width="0.3" stroke-opacity="1.0" filling="0" d="M9.4 5.1 L9.4 5.1 C10.0 5.4 10.6 6.0 11.0 6.7 L11.2 6.9 L11.6 6.9 C11.6 7.1 11.6 7.4 11.6 7.6 L10.4 8.7 C10.2 8.7 9.9 8.7 9.6 8.7 L8.4 7.6 C8.4 7.4 8.2 7.1 8.2 6.8 C8.2 6.3 8.7 5.7 9.0 5.2 L9.0 5.2 C9.1 5.2 9.3 5.1 9.4 5.1 L9.4 5.1"/> <path fill="none" stroke="black" stroke-width="0.3" stroke-opacity="1.0" filling="0" d="M9.5 5.1 L9.5 5.1 C9.9 6.1 10.6 7.1 11.0 8.1 L11.2 8.3 C11.4 8.3 11.6 8.3 11.8 8.4 L13.6 9.7 L12.8 10.4 L12.3 9.7 C12.1 9.7 11.8 9.7 11.6 9.7 L11.2 10.1 L10.6 9.7 C10.3 9.7 10.1 9.7 9.8 9.7 L9.5 10.1 L9.0 9.7 C8.8 9.7 8.5 9.7 8.4 9.7 L8.0 10.1 L7.4 9.7 C7.2 9.7 7.0 9.7 6.8 9.7 L6.1 10.4 L5.4 9.7 L6.1 8.4 C6.4 8.3 6.7 8.3 6.9 8.4 L7.2 8.4 L6.7 8.0 C6.7 7.8 6.8 7.7 6.8 7.5 L6.8 7.5 C6.8 7.4 6.9 7.2 7.0 7.0 L7.3 6.7 L7.4 6.7 C7.9 6.0 8.7 5.4 9.5 5.1 L9.5 5.1"/> <path fill="none" stroke="black" stroke-width="0.3" stroke-opacity="1.0" filling="0" d="M8.4 6.1 L9.4 6.3 C9.6 6.4 9.7 6.4 9.9 6.5 L10.2 6.8 C10.3 7.2 10.4 7.4 10.5 7.8 L11.1 8.0 L11.7 7.7 C11.9 7.7 12.1 7.7 12.3 7.7 L12.7 8.0 L13.1 7.8 C13.3 7.7 13.4 7.7 13.5 7.7 L14.2 8.0 L13.6 9.0 L12.7 8.5 C12.6 8.5 12.4 8.5 12.3 8.5 L11.7 8.8 L11.1 9.4 C10.7 9.5 10.3 9.5 9.9 9.6 L9.4 9.0 L8.8 9.6 C8.3 9.5 7.9 9.5 7.4 9.4 L6.8 8.8 L6.2 8.5 C6.1 8.5 6.0 8.5 5.9 8.5 L5.3 8.9 L4.7 8.0 L5.2 7.7 C5.3 7.7 5.3 7.7 5.4 7.7 L6.1 8.0 L6.7 7.8 C6.9 7.7 7.1 7.7 7.4 7.8 L7.7 8.0 L8.1 7.8 C8.4 7.6 8.5 7.4 8.8 7.2 L9.0 6.8 L8.5 6.5 C8.5 6.4 8.4 6.3 8.4 6.1 L8.4 6.1"/> <path fill="none" stroke="black" stroke-width="0.3" stroke-opacity="1.0" filling="0" d="M8.6 6.3 L9.1 6.6 L9.2 7.2 C9.3 7.3 9.4 7.4 9.5 7.5 L10.1 7.9 L10.6 7.5 C10.7 7.5 10.8 7.5 10.9 7.5 L11.2 7.9 L11.8 7.5 C11.9 7.5 12.1 7.5 12.3 7.5 L12.7 7.9 L13.1 7.5 C13.3 7.5 13.5 7.5 13.6 7.5 L13.9 7.9 L14.4 7.5 C14.5 7.5 14.6 7.5 14.7 7.5 L15.3 7.9 L14.6 8.4 L13.9 8.0 L13.6 7.9 L13.1 7.5 C13.0 7.4 12.9 7.3 12.8 7.2 L12.3 6.9 L11.7 7.2 C11.6 7.3 11.4 7.4 11.2 7.4 L10.6 6.9 L10.1 7.2 C10.0 7.3 9.8 7.4 9.7 7.5 L9.1 6.9 L8.6 7.4 C8.5 7.4 8.4 7.3 8.3 7.2 L7.6 6.9 L6.9 7.2 C6.8 7.3 6.7 7.4 6.5 7.5 L6.1 7.9 L5.6 8.4 L5.1 7.9 L5.6 7.5 C5.7 7.5 5.8 7.5 5.9 7.5 L6.4 8.0 L6.9 7.5 C7.1 7.4 7.2 7.4 7.4 7.5 L7.9 7.9 L8.3 7.5 C8.4 7.4 8.5 7.3 8.6 7.2 L8.6 6.3"/> <path fill="none" stroke="black" stroke-width="0.3" stroke-opacity="1.0" filling="0" d="M8.8 9.6 L9.4 9.6 L9.4 10.1 C9.8 10.2 10.1 10.4 10.5 10.4 L10.7 10.7 L11.2 10.7 C11.5 10.7 11.9 10.9 12.3 10.8 C13.0 10.9 13.5 10.6 14.0 10.6 C14.5 10.6 14.9 10.3 15.4 10.4 C15.9 10.4 16.2 11.0 16.6 11.2 L15.7 15.1 C15.7 15.4 15.5 15.6 15.4 15.8 L14.0 18.0 L11.5 18.0 L9.5 16.5 L9.5 15.9 C9.3 15.6 9.0 15.4 8.8 15.1 L7.3 11.2 C7.5 11.0 7.7 10.7 8.0 10.6 L8.8 10.6 L8.8 9.6"/> <path fill="none" stroke="black" stroke-width="0.3" stroke-opacity="1.0" filling="0" d="M9.5 10.9 L10.0 10.9 L10.0 11.4 L9.5 11.4"/> <path fill="none" stroke="black" stroke-width="0.3" stroke-opacity="1.0" filling="0" d="M10.5 10.9 L11.2 10.9 L11.2 11.4 L10.5 11.4"/> <path fill="none" stroke="black" stroke-width="0.3" stroke-opacity="1.0" filling="0" d="M12.0 10.9 L12.0 10.9 C12.6 11.3 13.3 11.7 13.7 12.2 L14.3 12.8 L13.7 13.4 L14.2 14.2 L13.7 14.8 L13.1 15.5 L12.3 14.6 L11.7 14.6 L11.0 13.8 L10.5 13.4 L10.0 12.8 L10.5 12.2 C10.9 11.7 11.5 11.3 12.0 10.9 L12.0 10.9"/> <path fill="none" stroke="black" stroke-width="0.3" stroke-opacity="1.0" filling="0" d="M11.7 11.4 L12.3 11.4 L12.3 11.8 L11.7 11.8"/> <path fill="none" stroke="black" stroke-width="0.3" stroke-opacity="1.0" filling="0" d="M11.0 12.2 L11.4 12.2 L11.4 12.6 L11.0 12.6"/> <path fill="none" stroke="black" stroke-width="0.3" stroke-opacity="1.0" filling="0" d="M10.5 12.6 L11.7 12.6 L11.7 12.9 L10.5 12.9"/> <path fill="none" stroke="black" stroke-width="0.3" stroke-opacity="1.0" filling="0" d="M10.5 13.1 L11.7 13.1 L11.7 13.5 L10.5 13.5"/> <path fill="none" stroke="black" stroke-width="0.3" stroke-opacity="1.0" filling="0" d="M11.7 13.5 L11.7 13.5 C12.3 13.9 11.6 13.9 11.7 13.5 L11.7 13.5"/> <path fill="none" stroke="black" stroke-width="0.3" stroke-opacity="1.0" filling="0" d="M10.9 14.1 L11.7 14.1 L11.7 14.5 L10.9 14.5"/> <path fill="none" stroke="black" stroke-width="0.3" stroke-opacity="1.0" filling="0" d="M11.7 14.5 L11.7 14.5 C12.1 14.8 12.7 14.8 13.0 15.2 C14.8 17.1 11.6 19.1 9.4 17.9 L9.4 17.9 C9.3 17.8 9.2 17.6 9.1 17.4 L9.1 17.1 C9.5 16.5 9.7 15.9 10.1 15.3 L10.1 15.3 C10.8 14.9 11.2 14.8 11.7 14.5 L11.7 14.5"/></svg>