<svg xmlns="http://www.w3.org/2000/svg" viewBox="0.0 0.0 24.0 24.0" height="200px" width="200px"><path fill="none" stroke="black" stroke-width="0.3" stroke-opacity="1.0" filling="0" d="M10.9 8.0 L10.9 8.0 C11.5 9.8 12.7 10.3 14.2 10.3 C14.8 10.4 15.3 10.0 15.9 9.5 L15.9 9.5 C16.4 9.5 17.1 9.4 17.6 9.5 L17.6 9.5 C16.5 11.2 15.4 12.0 13.8 12.2 C12.1 12.3 10.4 11.7 9.0 9.5 L9.0 9.5 C9.3 9.4 9.7 9.4 9.9 9.6 C10.4 9.9 10.9 10.4 11.5 10.3 C12.1 10.3 12.6 9.7 12.9 9.3 C13.4 8.9 12.8 9.4 12.9 9.0 C12.8 8.6 12.3 8.3 11.9 8.0 L11.9 8.0 C10.8 8.4 9.8 8.8 9.0 9.6 C8.6 9.8 8.5 10.5 8.0 10.3 C7.4 10.1 8.4 9.2 8.8 9.0 C9.7 8.3 10.2 8.3 10.9 8.0 L10.9 8.0"/> <path fill="none" stroke="black" stroke-width="0.3" stroke-opacity="1.0" filling="0" d="M8.0 9.3 L8.0 9.3 C8.8 9.4 9.4 10.6 10.3 11.4 C10.8 11.9 11.5 12.4 11.9 12.9 C12.4 13.5 11.5 15.1 10.9 15.6 C9.6 16.5 7.3 16.9 6.1 15.6 C4.0 13.4 4.7 11.1 6.6 9.6 L6.6 9.6 C7.1 9.5 7.5 9.4 8.0 9.3 L8.0 9.3"/> <path fill="none" stroke="black" stroke-width="0.3" stroke-opacity="1.0" filling="0" d="M10.1 9.3 L10.1 9.3 C11.1 9.4 11.6 9.6 12.5 10.1 L12.5 10.1 C12.1 11.2 11.3 12.3 10.4 13.1 C9.5 13.9 8.5 14.5 8.5 15.7 C8.6 17.1 9.1 18.8 10.5 18.9 C11.1 18.9 12.0 17.4 12.6 16.7 L12.6 16.7 C13.2 16.6 15.0 16.6 15.5 16.8 L15.5 16.8 C15.1 16.7 15.1 16.5 15.0 16.1 L15.0 16.1 C16.0 15.8 16.9 15.3 17.8 14.6 L17.8 14.6 C17.9 14.5 17.9 14.2 18.0 14.1 L18.0 14.1 C17.9 14.4 17.9 14.6 17.9 14.9 L17.9 16.4 C17.9 16.5 17.8 16.7 17.7 16.7 L14.2 16.7 C13.6 16.9 12.9 17.1 12.4 17.3 L12.2 18.1 L11.9 17.3 C11.7 16.8 11.3 16.5 11.0 16.0 L11.0 16.0 C10.1 16.1 9.2 15.9 8.4 15.3 L8.4 15.3 C8.7 15.5 9.0 15.7 9.4 15.9 L9.4 15.9 C9.4 15.8 9.5 15.7 9.6 15.5 L9.6 15.5 C9.2 15.1 9.0 14.3 8.8 13.7 L8.8 13.7 C7.3 13.7 6.6 12.1 7.3 10.3 L7.3 10.3 C8.3 9.9 9.2 9.6 10.1 9.3 L10.1 9.3"/> <path fill="none" stroke="black" stroke-width="0.3" stroke-opacity="1.0" filling="0" d="M17.8 14.3 L19.4 14.3 C19.7 14.5 19.6 15.1 19.7 15.4 L19.4 15.5 C19.2 15.5 18.9 15.5 18.7 15.5 L17.1 15.4 C16.9 15.2 17.0 14.8 17.1 14.6 L17.1 14.6 C17.3 14.5 17.5 14.4 17.8 14.3 L17.8 14.3"/> <path fill="none" stroke="black" stroke-width="0.3" stroke-opacity="1.0" filling="0" d="M10.1 14.6 L10.1 14.6 C10.8 15.0 11.5 15.4 12.2 15.9 L12.2 15.9 C12.6 16.1 13.2 16.5 13.6 16.9 L13.6 16.9 C13.6 17.5 13.6 18.1 13.6 18.8 L13.6 18.8 C12.9 18.6 12.3 18.3 11.7 17.9 L11.5 17.9 C10.9 18.3 10.2 18.6 9.4 18.8 L9.4 18.8 C9.4 18.1 9.4 17.4 9.3 16.7 L9.3 16.7 C9.5 16.5 9.8 16.1 10.1 15.9 L10.1 15.9 C9.8 15.8 9.5 15.4 9.3 15.1 L9.3 15.1 C9.6 15.0 9.9 14.8 10.1 14.6 L10.1 14.6"/> <path fill="none" stroke="black" stroke-width="0.3" stroke-opacity="1.0" filling="0" d="M10.1 15.0 L10.1 15.0 C10.9 15.2 11.5 15.6 12.1 16.1 L12.1 16.1 C11.8 16.4 11.6 16.7 11.2 17.0 L11.2 17.0 C10.6 16.6 10.0 16.1 9.5 15.5 L9.5 15.5 C9.7 15.3 9.9 15.1 10.1 15.0 L10.1 15.0"/> <path fill="none" stroke="black" stroke-width="0.3" stroke-opacity="1.0" filling="0" d="M12.2 15.3 L12.2 15.3 C12.4 15.6 12.7 15.8 12.9 16.0 L12.9 16.1 C13.1 16.3 13.3 16.6 13.6 16.7 L13.6 16.7 C12.9 16.6 12.3 16.3 11.7 15.8 L11.7 15.8 C11.9 15.6 12.1 15.5 12.2 15.3 L12.2 15.3"/></svg>