<svg xmlns="http://www.w3.org/2000/svg" viewBox="0.0 0.0 24.0 24.0" height="200px" width="200px"><path fill="none" stroke="black" stroke-width="0.3" stroke-opacity="1.0" filling="0" d="M16.9 5.0 L16.9 5.0 C16.7 5.2 16.5 5.4 16.3 5.7 L14.6 5.7 C14.4 6.2 13.9 6.6 13.4 6.8 L13.4 6.8 C13.3 7.0 13.0 7.0 12.8 6.9 L12.8 6.9 C12.2 7.5 12.3 7.7 12.6 8.4 L12.6 8.4 C12.6 7.7 12.8 7.1 12.8 6.5 L12.8 6.5 C13.5 6.3 14.2 6.0 14.8 5.5 L14.8 5.5 C15.3 5.3 15.7 5.1 16.1 4.9 L16.1 4.9 C16.4 5.1 16.7 5.1 16.9 5.0 L16.9 5.0"/> <path fill="none" stroke="black" stroke-width="0.3" stroke-opacity="1.0" filling="0" d="M11.9 8.4 L11.9 8.4 C13.0 8.7 13.3 8.8 13.8 9.8 L13.8 9.8 C15.4 10.7 15.3 11.6 14.8 13.1 L14.8 15.4 C14.4 15.9 14.1 16.2 13.7 16.6 L7.7 16.6 C7.3 16.2 6.9 15.9 6.5 15.4 L6.5 13.1 C6.2 11.8 6.1 10.5 7.7 10.2 L7.7 10.2 C7.9 10.0 8.2 9.8 8.5 9.5 L8.5 9.5 C9.4 8.7 9.7 8.6 10.9 8.4 L10.9 8.4 C11.2 8.4 11.6 8.3 11.9 8.4 L11.9 8.4"/> <path fill="none" stroke="black" stroke-width="0.3" stroke-opacity="1.0" filling="0" d="M13.4 8.5 L14.0 8.5 C14.2 8.7 14.5 8.7 14.5 9.0 C14.5 9.2 14.2 9.3 14.0 9.5 L13.4 9.5 C13.1 9.4 12.7 9.3 12.7 9.0 C12.7 8.6 13.1 8.7 13.4 8.5 L13.4 8.5"/> <path fill="none" stroke="black" stroke-width="0.3" stroke-opacity="1.0" filling="0" d="M8.5 12.3 L8.5 12.3 C8.5 12.9 8.5 12.9 8.5 12.3 L8.5 12.3"/> <path fill="none" stroke="black" stroke-width="0.3" stroke-opacity="1.0" filling="0" d="M13.4 12.4 L13.4 12.4 C13.4 12.9 13.4 12.9 13.4 12.4 L13.4 12.4"/> <path fill="none" stroke="black" stroke-width="0.3" stroke-opacity="1.0" filling="0" d="M8.5 13.4 L8.5 13.4 C8.5 13.9 8.5 13.9 8.5 13.4 L8.5 13.4"/> <path fill="none" stroke="black" stroke-width="0.3" stroke-opacity="1.0" filling="0" d="M10.9 13.4 L10.9 13.4 C10.9 13.9 10.9 13.9 10.9 13.4 L10.9 13.4"/> <path fill="none" stroke="black" stroke-width="0.3" stroke-opacity="1.0" filling="0" d="M8.5 14.4 L8.5 14.4 C8.5 14.9 8.5 14.9 8.5 14.4 L8.5 14.4"/> <path fill="none" stroke="black" stroke-width="0.3" stroke-opacity="1.0" filling="0" d="M14.0 14.4 L14.0 14.4 C14.0 14.9 14.0 14.9 14.0 14.4 L14.0 14.4"/> <path fill="none" stroke="black" stroke-width="0.3" stroke-opacity="1.0" filling="0" d="M10.9 14.5 L10.9 14.5 C10.9 15.0 10.9 15.0 10.9 14.5 L10.9 14.5"/></svg>