<svg xmlns="http://www.w3.org/2000/svg" viewBox="0.0 0.0 24.0 24.0" height="200px" width="200px"><path fill="none" stroke="black" stroke-width="0.3" stroke-opacity="1.0" filling="0" d="M16.3 7.0 L16.3 7.0 C16.4 7.0 16.4 7.0 16.5 7.0 L16.9 7.5 C16.9 7.7 16.9 7.8 16.9 8.0 L16.9 8.0 C16.9 8.0 16.9 8.0 16.9 8.0 L16.4 7.5 C16.4 7.5 16.3 7.4 16.3 7.4 L16.3 7.0 C16.3 7.0 16.3 7.0 16.3 7.0 L16.3 7.0"/> <path fill="none" stroke="black" stroke-width="0.3" stroke-opacity="1.0" filling="0" d="M16.2 7.9 L16.2 7.9 C16.3 7.9 16.3 8.0 16.4 8.0 L16.8 8.4 C16.8 8.5 16.8 8.6 16.8 8.8 L16.8 8.8 C16.8 8.9 16.8 9.0 16.8 9.0 L16.2 9.3 C16.2 9.3 16.2 9.3 16.2 9.3 L15.6 9.0 C15.6 9.0 15.6 8.9 15.6 8.9 L15.6 8.9 C15.6 8.9 15.6 8.9 15.6 8.9 L15.6 8.9 C15.6 8.8 15.6 8.8 15.6 8.7 L15.6 8.7 C15.6 8.7 15.6 8.6 15.6 8.5 L15.6 8.4 C15.6 8.2 15.6 8.1 15.6 8.0 L15.6 8.0 C15.6 8.0 15.6 8.0 15.6 8.0 L15.6 8.0 C15.6 8.0 15.6 7.9 15.6 7.9 L15.6 7.9 C15.6 7.9 15.6 7.9 15.6 7.9 L15.6 7.9 C15.6 7.9 15.6 7.9 15.6 7.9 L15.6 7.9 C15.6 7.9 15.6 7.9 15.6 7.9 L16.2 7.9"/> <path fill="none" stroke="black" stroke-width="0.3" stroke-opacity="1.0" filling="0" d="M9.5 9.0 L12.1 9.0 C12.2 9.1 12.3 9.2 12.4 9.2 L13.1 9.6 C13.1 9.8 13.1 9.9 13.1 10.1 L12.6 10.3 C12.6 10.3 12.6 10.3 12.6 10.3 L12.1 10.6 C12.1 10.6 12.1 10.6 12.1 10.6 L9.5 10.6 L9.0 10.1 C9.0 9.9 9.0 9.8 9.0 9.6 L9.5 9.2 C9.5 9.2 9.5 9.1 9.5 9.0 L9.5 9.0"/> <path fill="none" stroke="black" stroke-width="0.3" stroke-opacity="1.0" filling="0" d="M13.1 9.4 L13.6 9.4 C13.7 9.5 13.8 9.6 13.8 9.7 L13.8 10.1 L13.1 10.1 L13.1 9.7 C13.0 9.6 13.0 9.5 13.1 9.4 L13.1 9.4"/> <path fill="none" stroke="black" stroke-width="0.3" stroke-opacity="1.0" filling="0" d="M10.7 10.1 L11.7 10.1 C11.8 10.3 11.9 10.4 12.0 10.6 L12.0 11.0 C11.9 11.1 11.8 11.2 11.7 11.3 L10.7 11.3 C10.6 11.2 10.5 11.1 10.4 11.0 L10.4 10.6 C10.5 10.4 10.6 10.3 10.7 10.1 L10.7 10.1"/> <path fill="none" stroke="black" stroke-width="0.3" stroke-opacity="1.0" filling="0" d="M10.7 10.1 L11.2 10.1 C11.4 10.3 11.4 10.4 11.5 10.6 L11.5 11.0 C11.4 11.1 11.4 11.2 11.4 11.3 L10.7 11.3 C10.6 11.2 10.5 11.1 10.4 11.0 L10.4 10.6 C10.5 10.4 10.6 10.3 10.7 10.1 L10.7 10.1"/> <path fill="none" stroke="black" stroke-width="0.3" stroke-opacity="1.0" filling="0" d="M9.6 10.6 L11.0 10.6 C11.0 10.7 11.0 10.7 11.1 10.8 L11.1 11.3 C11.0 11.4 11.0 11.4 11.0 11.5 L9.6 11.5 C9.5 11.5 9.5 11.5 9.4 11.5 L9.4 11.5 C9.4 11.4 9.4 11.4 9.4 11.3 L9.4 10.8 C9.4 10.7 9.4 10.7 9.4 10.6 L9.4 10.6 C9.5 10.7 9.5 10.7 9.6 10.6 L9.6 10.6"/> <path fill="none" stroke="black" stroke-width="0.3" stroke-opacity="1.0" filling="0" d="M9.6 10.6 L11.0 10.6 C11.0 10.7 11.0 10.7 11.1 10.7 L11.1 11.2 C11.0 11.2 11.0 11.2 11.0 11.3 L9.6 11.3 C9.5 11.3 9.5 11.3 9.4 11.2 L9.4 10.7 C9.5 10.7 9.5 10.7 9.6 10.6 L9.6 10.6"/> <path fill="none" stroke="black" stroke-width="0.3" stroke-opacity="1.0" filling="0" d="M11.9 10.6 L12.8 10.6 C12.8 10.7 12.8 10.7 12.9 10.8 L12.9 11.2 C12.8 11.2 12.8 11.2 12.8 11.3 L11.9 11.3 C11.9 11.2 11.9 11.2 11.9 11.2 L11.9 10.8 C11.9 10.7 11.9 10.7 11.9 10.6 L11.9 10.6"/> <path fill="none" stroke="black" stroke-width="0.3" stroke-opacity="1.0" filling="0" d="M8.4 11.1 L8.4 11.1 C8.8 11.2 9.4 11.2 9.7 11.6 C10.1 12.2 9.5 13.0 8.7 13.1 C8.4 13.2 7.6 12.8 7.4 12.5 C7.1 12.0 7.3 11.2 8.4 11.1 L8.4 11.1"/> <path fill="none" stroke="black" stroke-width="0.3" stroke-opacity="1.0" filling="0" d="M8.4 11.1 L8.4 11.1 C8.9 11.2 9.6 11.2 10.0 11.6 C10.4 12.1 10.3 13.0 9.6 13.1 C9.4 13.1 7.6 11.3 8.4 11.1 L8.4 11.1"/> <path fill="none" stroke="black" stroke-width="0.3" stroke-opacity="1.0" filling="0" d="M8.4 11.2 L8.4 11.2 C8.7 11.5 9.2 11.8 9.5 12.1 L9.5 12.1 C9.1 12.3 8.8 12.8 8.7 13.3 L9.6 13.6 C9.2 14.2 9.1 15.2 9.6 15.8 C10.3 16.9 11.1 15.7 11.9 15.3 L12.3 14.7 C13.4 12.4 14.4 13.6 15.1 15.3 C15.9 16.4 15.6 17.5 14.6 18.4 C13.8 19.4 13.1 19.4 12.1 18.8 C10.4 18.1 9.3 15.4 9.0 13.3 C8.8 12.8 8.7 12.3 8.4 12.1 L8.4 11.2"/> <path fill="none" stroke="black" stroke-width="0.3" stroke-opacity="1.0" filling="0" d="M9.4 11.2 L11.0 11.2 L11.0 13.9 L9.4 13.9"/> <path fill="none" stroke="black" stroke-width="0.3" stroke-opacity="1.0" filling="0" d="M10.3 11.2 L11.0 11.2 L11.0 11.7 L10.3 11.7"/> <path fill="none" stroke="black" stroke-width="0.3" stroke-opacity="1.0" filling="0" d="M10.6 11.2 L11.3 11.2 L11.3 11.7 L10.6 11.7"/> <path fill="none" stroke="black" stroke-width="0.3" stroke-opacity="1.0" filling="0" d="M11.8 11.2 L12.5 11.2 L12.5 11.7 L11.8 11.7"/> <path fill="none" stroke="black" stroke-width="0.3" stroke-opacity="1.0" filling="0" d="M10.0 12.7 L12.1 12.7 L12.1 14.0 L10.0 14.0"/> <path fill="none" stroke="black" stroke-width="0.3" stroke-opacity="1.0" filling="0" d="M9.4 15.5 L10.0 15.5 C10.0 15.5 10.1 15.6 10.1 15.6 L10.1 16.1 C10.1 16.2 10.0 16.3 10.0 16.3 L9.4 16.3 C9.4 16.3 9.3 16.2 9.3 16.1 L9.3 15.6 C9.3 15.6 9.4 15.5 9.4 15.5 L9.4 15.5"/> <path fill="none" stroke="black" stroke-width="0.3" stroke-opacity="1.0" filling="0" d="M11.7 15.5 L12.3 15.5 C12.4 15.5 12.4 15.6 12.5 15.6 L12.5 16.1 C12.4 16.2 12.4 16.3 12.3 16.3 L11.7 16.3 C11.6 16.3 11.6 16.2 11.6 16.1 L11.6 15.6 C11.6 15.6 11.6 15.5 11.7 15.5 L11.7 15.5"/> <path fill="none" stroke="black" stroke-width="0.3" stroke-opacity="1.0" filling="0" d="M11.2 15.7 L10.0 16.7 C10.0 16.8 9.9 16.9 9.9 17.0 L9.9 17.0"/></svg>