<svg xmlns="http://www.w3.org/2000/svg" viewBox="0.0 0.0 24.0 24.0" height="200px" width="200px"><path fill="none" stroke="black" stroke-width="0.3" stroke-opacity="1.0" filling="0" d="M7.5 5.8 L7.5 5.8 C7.7 6.1 8.1 6.3 8.1 6.7 C8.1 7.2 7.8 8.0 7.5 8.0 C6.9 8.0 6.5 7.2 6.5 6.7 C6.5 6.3 6.9 6.1 7.2 5.8 L7.2 5.8"/> <path fill="none" stroke="black" stroke-width="0.3" stroke-opacity="1.0" filling="0" d="M17.6 5.8 L17.6 5.8 C17.9 6.1 18.3 6.3 18.3 6.7 C18.3 7.2 18.1 8.0 17.6 8.0 C17.2 8.0 17.0 7.2 17.0 6.7 C17.0 6.3 17.4 6.1 17.6 5.8 L17.6 5.8"/> <path fill="none" stroke="black" stroke-width="0.3" stroke-opacity="1.0" filling="0" d="M8.4 6.7 L8.4 6.7 C8.6 7.1 9.1 7.3 9.1 7.8 C9.1 8.0 8.7 8.4 8.4 8.4 C8.0 8.4 7.7 8.0 7.7 7.8 C7.7 7.3 8.2 7.1 8.4 6.7 L8.4 6.7"/> <path fill="none" stroke="black" stroke-width="0.3" stroke-opacity="1.0" filling="0" d="M13.5 6.7 L13.5 6.7 C13.8 7.1 14.4 7.3 14.4 7.8 C14.4 8.1 14.0 8.4 13.5 8.4 C13.1 8.4 12.7 8.1 12.7 7.8 C12.7 7.3 13.2 7.1 13.5 6.7 L13.5 6.7"/> <path fill="none" stroke="black" stroke-width="0.3" stroke-opacity="1.0" filling="0" d="M15.4 6.7 L15.4 6.7 C15.8 7.1 16.4 7.3 16.5 7.8 C16.6 8.1 16.2 8.4 15.9 8.4 C15.5 8.4 15.2 8.1 15.2 7.8 C15.2 7.3 15.9 7.1 15.9 6.7 L15.9 6.7"/> <path fill="none" stroke="black" stroke-width="0.3" stroke-opacity="1.0" filling="0" d="M16.8 6.7 L16.8 6.7 C17.1 7.1 17.7 7.3 17.7 7.8 C17.7 8.9 16.1 9.1 16.1 7.8 C16.1 7.3 16.6 7.1 16.8 6.7 L16.8 6.7"/> <path fill="none" stroke="black" stroke-width="0.3" stroke-opacity="1.0" filling="0" d="M11.8 8.4 L11.8 8.4 C14.1 8.7 15.0 10.4 15.4 12.1 C15.8 13.8 15.4 15.6 13.4 16.4 L13.4 16.4 C12.7 16.5 12.0 16.5 11.3 16.4 L11.3 16.4 C9.5 15.5 9.0 13.8 9.4 12.1 C9.7 10.4 10.5 8.7 11.8 8.4 L11.8 8.4"/> <path fill="none" stroke="black" stroke-width="0.3" stroke-opacity="1.0" filling="0" d="M11.8 8.4 L11.8 8.4 C13.4 8.7 14.4 10.4 14.7 12.1 C15.1 13.8 14.7 15.5 13.4 16.4 L13.4 16.4 C13.3 17.4 12.4 16.4 11.9 16.4 L11.9 16.4 C10.6 15.5 10.1 13.8 10.5 12.1 C10.9 10.4 11.8 8.7 11.8 8.4 L11.8 8.4"/> <path fill="none" stroke="black" stroke-width="0.3" stroke-opacity="1.0" filling="0" d="M11.8 9.1 L11.8 9.1 C12.2 9.3 12.6 9.5 12.8 9.9 C13.1 10.6 12.5 11.5 11.8 11.5 C11.3 11.5 10.7 10.5 11.1 9.9 C11.3 9.5 11.5 9.3 11.8 9.1 L11.8 9.1"/> <path fill="none" stroke="black" stroke-width="0.3" stroke-opacity="1.0" filling="0" d="M9.4 9.9 L9.4 9.9 C10.1 10.3 10.8 10.8 11.2 11.5 L11.2 11.5 C11.2 11.4 11.2 11.4 11.2 11.2 L11.2 11.2 C10.4 10.8 9.8 10.4 9.0 10.2 L9.0 10.2 C9.1 10.4 9.2 10.7 9.2 10.9 L9.2 10.9 C9.0 11.1 8.9 11.7 8.6 11.9 C7.3 12.8 8.5 10.3 8.5 10.2 L8.5 10.2 C8.8 10.1 9.1 10.0 9.4 9.9 L9.4 9.9"/> <path fill="none" stroke="black" stroke-width="0.3" stroke-opacity="1.0" filling="0" d="M17.3 10.5 L17.3 10.5 C17.7 11.2 18.5 12.9 17.3 13.4 C15.9 14.1 14.2 12.5 14.6 11.5 C15.2 10.5 15.9 10.8 17.3 10.5 L17.3 10.5"/> <path fill="none" stroke="black" stroke-width="0.3" stroke-opacity="1.0" filling="0" d="M17.3 10.5 L17.3 10.5 C17.6 11.2 18.5 12.9 17.3 13.2 L17.3 10.5"/> <path fill="none" stroke="black" stroke-width="0.3" stroke-opacity="1.0" filling="0" d="M16.7 12.4 L16.7 12.4 C17.4 12.7 17.8 13.5 18.2 14.2 L18.2 14.2 C17.7 13.8 16.7 13.3 16.7 12.4 L16.7 12.4"/> <path fill="none" stroke="black" stroke-width="0.3" stroke-opacity="1.0" filling="0" d="M10.8 12.5 L10.8 12.5 C11.3 13.1 12.0 14.0 12.4 14.6 C12.8 15.2 14.0 16.2 13.4 16.6 L13.4 16.6 C11.4 15.8 11.0 15.3 10.8 12.5 L10.8 12.5"/> <path fill="none" stroke="black" stroke-width="0.3" stroke-opacity="1.0" filling="0" d="M16.4 13.9 L16.4 13.9 C16.6 13.8 17.0 13.8 17.1 13.9 L17.1 13.9"/> <path fill="none" stroke="black" stroke-width="0.3" stroke-opacity="1.0" filling="0" d="M13.9 15.5 L13.9 15.5 C14.0 15.7 14.1 15.8 14.2 15.9 L13.3 15.9 C13.4 15.8 13.7 15.7 13.9 15.5 L13.9 15.5"/></svg>