<svg xmlns="http://www.w3.org/2000/svg" viewBox="0 0 24 24"><path d="M4 4 L20 4 L20 20.2 6.5 L20.8 7.5 L20.8 9.8 L20.8 10.7 L21.1 11.4 L21.1 11.4 L21.1 10.5 L21.1 10.8 L21.1 11.2 L21.1 11.2 L20.8 10.8 L20.8 9.5 L21.4 9.5 L21.4 9.8 L21.4 9.5 L22.0 9.5 L22.0 9.8 L22.5 10.1 L22.5 10.5 L21.8 10.5 L21.8 11.6 L21.8 11.9 L21.8 12.1 L22.3 12.1 L22.3 12.5 L22.3 13.6 L22.8 13.6 L22.8 14.0 L22.8 14.4 L22.8 15.1 C22.8 15.3 22.8 15.5 22.7 15.7 L22.7 15.9 L22.9 20.0 L22.4 20.4 L22.4 21.6 L21.8 21.6 L21.8 21.9 L21.8 22.1 L22.4 21.9 L22.4 22.0 L22.4 21.1 L22.9 21.9 L22.9 22.2 L22.9 22.8 L22.6 22.9 L22.1 22.9 L22.1 22.6 L22.1 21.1 L22.1 21.9 L21.8 21.6 L21.8 22.0 L21.2 21.9 L21.9 21.6 L21.9 21.6 L22.6 21.6 L22.6 22.2 L22.0 21.9 L22.6 22.1 L22.0 21.9 L21.4 21.9 L21.4 22.1 L22.1 22.5 L22.1 22.9 L21.8 22.8 L22.0 21.6 L22.4 21.4 L22.1 22.1 L22.1 21.9 L21.6 22.3 L22.0 21.9 L22.0 22.4 L21.6 21.7 L21.6 22.4 L22.2 21.9 L22.8 21.8 L22.8 22.4 L22.8 22.5 L22.4 22.9 L21.9 22.9 L21.6 22.4 C21.1 22.6 20.6 22.9 20.1 22.2 L20.6 21.9 L21.1 21.9 L22.1 21.2 L22.4 21.9 L22.4 22.6 L21.9 22.6 L21.9 21.9 L22.1 22.3 L22.8 22.1 L22.9 21.8 L22.9 21.8 L22.6 22.5 L21.8 22.1 L22.6 21.9 L22.1 22.5 L21.7 21.6 L21.8 21.9 L22.8 21.3 L22.4 22.4 L22.9 22.1 L21.2 22.4 L21.8 21.8 L22.1 22.4 L22.6 22.8 L22.5 22.4 L21.8 22.4 L21.3 22.4 L21.3 22.1 L20.7 22.1 L21.3 21.3 L21.6 22.1 C22.0 22.2 22.3 21.6 22.9 21.8 L22.9 22.2 C22.6 22.9 22.4 22.5 22.1 22.8 L21.4 22.8 L21.7 21.9 L21.7 22.0 C22.1 21.5 21.4 21.0 21.9 20.5 L22.6 20.3 L22.7 22.0 C22.3 22.2 22.0 22.7 21.9 22.9 L21.7 22.1 C22.0 22.2 22.3 21.7 22.6 22.2 C22.0 22.6 21.8 22.8 21.7 22.0 L21.3 21.0 C21.6 20.8 22.2 21.3 22.0 21.0 L22.6 21.0 C22.8 21.1 22.9 21.7 22.0 22.0 C22.3 22.2 22.6 21.9 22.7 21.8 L22.9 21.8 L22.9 22.3 L22.6 21.5 L22.9 22.5 C22.6 22.4 22.5 22.5 22.3 22.6 L22.1 22.9 L22.7 22.9 L22.1 22.9 C22.0 22.1 21.9 22.5 21.6 22.4 C21.4 22.4 21.3 22.3 21.0 22.6 L20.9 22.6 L15.9 22.6 L15.8 22.1 L15.8 21.9 L15.1 22.2 C15.0 22.3 14.7 22.6 14.5 22.7 L14.1 22.7 C14.0 23.1 13.9 22.4 13.6 22.6 C13.5 22.8 13.5 22.8 13.2 22.9 L12.9 22.5 C12.3 22.4 12.1 22.6 11.9 22.6 C11.6 22.5 11.3 22.6 11.0 22.4 C10.9 22.1 10.7 21.9 10.6 21.5 L10.6 21.5 C10.0 22.0 9.7 22.3 9.3 22.7 L9.3 22.7 C8.9 22.8 8.3 22.6 8.5 22.2 C8.2 22.0 8.5 22.3 8.3 22.0 C7.9 21.8 8.4 20.3 8.2 19.9 C8.1 19.4 5.8 19.1 6.7 18.4 C6.9 17.9 7.4 17.4 8.3 17.1 C8.5 16.7 8.7 15.6 8.9 15.5 C9.0 15.2 9.6 14.9 9.7 14.6 C10.2 14.5 11.6 19.7 12.2 19.3 L12.5 19.3 C12.6 19.6 12.6 20.0 12.7 20.3 C12.8 20.4 13.0 20.2 13.2 20.1 C13.7 19.9 15.2 19.9 15.0 19.4 C15.3 18.9 15.0 18.6 14.8 18.6 C14.5 18.6 14.1 17.7 13.7 17.4 C13.4 17.3 12.9 17.0 12.6 16.9 L12.6 16.9 C13.9 18.1 14.1 19.3 15.4 20.9 L15.4 20.9 C15.7 22.5 11.8 22.5 10.1 21.9 C8.5 21.3 9.2 20.2 9.0 19.7 C8.6 19.4 7.3 18.6 6.9 18.4 C6.3 18.1 6.1 18.5 5.9 18.2 C5.2 17.9 5.0 18.0 4.7 17.4 C4.3 16.8 4.0 16.2 3.8 15.6 C3.9 15.4 1.0 15.6 1.9 15.2 C1.9 14.9 2.4 14.6 2.6 14.3 C2.8 13.7 3.3 13.2 3.7 12.9 C3.3 11.6 2.2 9.6 2.6 8.6 C2.9 8.3 3.4 8.0 3.7 7.6 C3.9 7.3 4.1 6.7 4.6 6.4 C4.8 6.3 3.8 6.1 3.4 6.1 C2.5 5.3 1.8 5.1 1.7 4.8 C1.6 3.5 2.6 2.9 3.2 2.7 L3.2 2.7"/></svg>