<svg xmlns="http://www.w3.org/2000/svg" viewBox="0 0 24 24"><path d="M4 4 L20 4 L20 20.1 4.0 L20.3 4.0 L20.3 6.3 L20.7 7.3 L20.7 8.7 L20.3 9.7 L21.1 9.7 L21.1 11.0 L22.8 11.0 L22.8 12.3 L22.8 13.7 L21.1 13.7 L21.1 14.9 L21.1 16.2 L20.3 16.2 L20.3 17.4 L20.8 18.4 L20.8 19.7 L21.0 20.7 L19.0 20.7 C18.8 21.1 18.6 21.5 18.4 21.9 L19.0 21.9 C19.1 21.9 19.2 22.0 19.3 22.1 L19.3 22.5 C19.2 22.7 19.1 22.8 19.0 22.9 L18.2 22.9 C18.2 22.6 18.1 22.3 18.0 22.0 L19.0 21.4 C19.1 21.2 19.2 20.9 19.3 20.6 L19.3 20.2 C19.5 19.8 19.6 19.3 19.7 19.0 L19.7 18.8 L21.0 18.8 L21.0 19.9 L19.7 19.9 L19.7 18.8 C19.9 18.3 20.0 17.7 20.2 17.2 L20.2 16.0 L19.3 16.0 L19.3 15.7 C19.3 15.2 19.3 14.8 19.3 14.4 L19.3 14.4 C19.2 14.8 19.0 15.2 19.0 15.6 L19.0 16.0 C19.1 16.3 19.2 16.7 19.3 16.9 L19.3 18.6 L20.4 18.6 L20.4 19.2 C20.4 19.6 20.4 19.9 20.4 20.3 L20.4 21.5 C20.7 21.7 20.9 21.9 21.2 22.1 L21.2 22.7 L19.6 22.7 L19.6 21.4 C19.6 21.0 19.5 20.7 19.5 20.5 L19.5 19.5 C19.4 19.1 19.3 18.8 19.2 18.4 L19.2 16.0 C19.2 15.7 19.1 15.3 19.1 14.9 L19.1 14.9 C19.0 14.9 18.9 15.3 18.9 15.5 L18.9 16.5 L19.8 16.5 C19.9 16.8 19.9 17.2 19.8 17.4 L19.8 19.7 L20.4 19.7 L20.4 19.1 C20.1 19.5 19.8 19.5 19.6 19.8 L15.8 19.8 L16.8 18.4 C16.9 18.2 16.9 17.8 16.8 17.5 L16.8 17.5 C16.9 17.1 16.9 16.7 16.9 16.4 L16.9 16.4 C17.0 16.7 17.0 17.0 16.9 17.3 L16.7 17.3 C16.6 17.4 16.6 17.6 16.7 17.7 L16.6 17.7 C16.4 17.6 16.2 17.5 16.0 17.4 L16.0 17.4 C16.1 17.7 16.2 18.0 16.2 18.3 L16.2 19.5 L16.9 19.5 L16.9 18.1 C16.6 16.9 15.6 14.7 16.7 14.2 L17.0 14.2 C16.9 14.5 16.8 15.3 16.8 15.5 L16.3 15.1 C16.2 15.2 16.1 15.4 16.0 15.6 L16.0 17.1 C16.0 17.3 16.0 17.5 16.0 17.7 L16.0 18.0 L15.2 18.0 C14.9 17.5 14.7 16.9 14.3 16.4 L14.3 15.8 C14.3 15.2 14.3 14.7 14.2 14.3 L14.2 14.3 C14.2 14.0 14.2 13.7 14.2 13.4 L14.2 13.4"/></svg>