<svg xmlns="http://www.w3.org/2000/svg" viewBox="0 0 24 24"><path d="M4 4 L20 4 L20 20.1 4.0 L19.4 9.9 L16.4 15.8 L13.0 20.7 L8.0 20.7 L3.8 16.8 L3.0 16.8 L3.0 15.0 L6.7 9.9 L9.6 4.9 L12.7 4.9 L19.8 4.9 L19.8 3.1"/> <path fill="none" stroke="black" stroke-width="0.3" stroke-opacity="1.0" filling="0" d="M11.7 10.4 L11.7 10.4 C13.1 12.4 11.9 12.5 10.2 12.6 L10.2 13.6 L12.9 13.6 C12.9 13.7 12.9 13.8 12.9 13.9 L10.2 13.9 L10.2 14.9 L12.9 14.9 L12.9 14.9 L10.2 14.9 L10.2 14.7 C10.2 14.6 10.2 14.6 10.2 14.5 L12.2 12.6 L10.3 12.6 C10.3 12.4 10.3 12.2 10.3 12.0 L12.2 10.9 C12.2 10.8 12.2 10.8 12.2 10.7 L12.2 11.2 C12.2 11.3 12.2 11.3 12.2 11.4 L10.3 11.4 C10.3 11.3 10.3 11.2 10.3 11.2 L12.2 10.8 C12.2 10.8 12.2 10.8 12.2 10.8 L10.3 12.2 C10.2 12.2 10.2 12.3 10.2 12.3 L12.8 10.4 C12.8 10.4 12.8 10.4 12.8 10.4 L11.9 10.4 C11.9 10.4 11.9 10.4 11.9 10.4 L11.7 10.4 C11.7 10.4 11.7 10.4 11.7 10.4 L11.7 10.4"/> <path fill="none" stroke="black" stroke-width="0.3" stroke-opacity="1.0" filling="0" d="M11.7 11.0 L11.7 11.0 C13.1 11.7 11.2 11.7 11.7 11.0 L11.7 11.0"/> <path fill="none" stroke="black" stroke-width="0.3" stroke-opacity="1.0" filling="0" d="M11.7 11.0 L11.7 11.0 C12.9 11.7 11.1 11.7 11.7 11.0 L11.7 11.0"/> <path fill="none" stroke="black" stroke-width="0.3" stroke-opacity="1.0" filling="0" d="M10.2 12.9 L12.7 12.9 C12.7 12.9 12.7 12.9 12.7 12.9 L12.7 12.9 C12.8 12.9 12.8 12.9 12.7 12.9 L10.2 12.9 C10.2 12.9 10.2 12.9 10.2 12.9 L10.2 12.9"/> <path fill="none" stroke="black" stroke-width="0.3" stroke-opacity="1.0" filling="0" d="M14.6 12.9 L14.6 12.9 C14.7 12.9 14.7 12.9 14.7 12.9 L14.7 12.9 C14.7 12.9 14.7 12.9 14.6 12.9 L14.6 12.9 C14.6 12.9 14.6 12.9 14.6 12.9 L14.6 12.9"/> <path fill="none" stroke="black" stroke-width="0.3" stroke-opacity="1.0" filling="0" d="M3.9 14.8 L4.4 14.8 C3.3 17.2 6.2 17.5 8.8 17.7 L13.9 17.7 L18.9 17.7 L18.9 19.9 L18.9 19.4 L13.3 19.4 L8.8 19.4 C6.2 19.7 3.4 19.2 3.3 17.5 L3.3 17.5 C3.4 17.3 4.0 17.0 4.1 16.8 L3.9 16.8 C3.8 16.8 3.6 16.8 3.5 16.7 L3.5 16.7 C3.5 16.7 3.4 16.6 3.4 16.5 L3.4 16.5 C3.4 16.5 3.3 16.5 3.3 16.5 L3.3 16.5 C3.3 16.5 3.3 16.4 3.3 16.3 L3.3 16.3"/> <path fill="none" stroke="black" stroke-width="0.3" stroke-opacity="1.0" filling="0" d="M18.1 14.7 L18.1 14.7 C18.1 14.7 18.1 14.7 18.1 14.7 L18.1 14.7"/> <path fill="none" stroke="black" stroke-width="0.3" stroke-opacity="1.0" filling="0" d="M19.0 14.7 L19.0 14.7 C19.1 14.8 19.1 14.8 19.2 14.9 L19.2 14.9 C19.2 14.9 19.1 14.9 19.0 14.9 L19.0 14.9 C19.0 14.9 19.0 15.0 19.0 15.0 L19.0 15.0 C19.0 15.0 19.0 15.1 19.0 15.1 L19.0 15.1 C19.0 15.2 19.0 15.2 19.0 15.2 L19.0 15.2 C19.0 15.2 19.0 15.2 19.0 15.2 L19.0 15.2 C19.0 15.1 19.0 15.0 19.0 15.0 L19.0 15.0 C19.0 15.0 19.0 15.0 19.0 15.0 L19.0 15.0 C19.0 14.9 19.0 14.9 19.0 14.9 L19.0 14.9"/> <path fill="none" stroke="black" stroke-width="0.3" stroke-opacity="1.0" filling="0" d="M18.3 15.5 L18.3 15.5 C18.3 15.6 18.3 15.6 18.3 15.6 L18.3 15.6 C18.3 15.6 18.3 15.6 18.3 15.7 L18.3 15.7 C18.3 15.7 18.3 15.7 18.3 15.6 L18.3 15.6"/> <path fill="none" stroke="black" stroke-width="0.3" stroke-opacity="1.0" filling="0" d="M7.7 15.6 L9.9 15.6 L9.9 18.3 L7.7 18.3 L7.7 15.6"/> <path fill="none" stroke="black" stroke-width="0.3" stroke-opacity="1.0" filling="0" d="M16.6 15.6 L17.7 15.6 C17.7 15.6 17.8 15.6 17.9 15.6 L17.9 16.3 C17.8 16.3 17.7 16.4 17.7 16.4 L17.7 15.6 C17.7 15.6 17.8 15.6 17.8 15.6 L17.8 15.6 C17.8 15.6 17.7 15.6 17.7 15.6 L17.7 15.6 C17.7 15.6 17.8 15.6 17.9 15.6 L17.9 15.6 C17.8 15.6 17.7 15.6 17.7 15.6 L17.7 15.6 C17.7 15.7 17.8 15.7 17.8 15.7 L17.8 15.7 C17.9 15.7 18.0 15.7 18.0 15.7 L18.0 15.7 C17.9 15.7 17.8 15.7 17.7 15.7 L17.7 15.7 C17.7 15.7 17.8 15.7 17.9 15.7 L17.9 15.7 C17.9 15.6 17.9 15.6 17.9 15.6 L17.9 15.6 C17.8 15.6 17.7 15.6 17.7 15.6 L17.7 15.6 C17.7 15.6 17.7 15.6 17.7 15.6 L17.7 15.6 C17.7 15.6 17.6 15.6 17.6 15.6 L17.6 15.6"/> <path fill="none" stroke="black" stroke-width="0.3" stroke-opacity="1.0" filling="0" d="M8.1 15.8 L9.1 15.8"/> <path fill="none" stroke="black" stroke-width="0.3" stroke-opacity="1.0" filling="0" d="M8.9 15.8 L10.1 15.8 C10.1 15.9 10.1 16.0 10.1 16.1 L8.9 16.1 C8.9 16.0 8.9 15.9 8.9 15.8 L8.9 15.8"/></svg>