<svg xmlns="http://www.w3.org/2000/svg" viewBox="0.0 0.0 24.0 24.0" height="200px" width="200px"><path fill="none" stroke="black" stroke-width="0.3" stroke-opacity="1.0" filling="0" d="M14.0 5.3 L16.0 6.5 L13.5 6.5 L14.0 5.3"/> <path fill="none" stroke="black" stroke-width="0.3" stroke-opacity="1.0" filling="0" d="M14.6 7.2 L16.3 8.6 L14.9 9.5"/> <path fill="none" stroke="black" stroke-width="0.3" stroke-opacity="1.0" filling="0" d="M14.0 8.1 L16.3 9.3 L14.9 10.5"/> <path fill="none" stroke="black" stroke-width="0.3" stroke-opacity="1.0" filling="0" d="M12.3 9.3 L15.6 9.3 L15.6 15.4 L15.6 20.4 L10.1 20.4 L10.1 15.4 L10.1 10.5 L12.3 9.3"/> <path fill="none" stroke="black" stroke-width="0.3" stroke-opacity="1.0" filling="0" d="M12.3 9.9 L15.0 9.9 L15.0 15.1 L15.0 20.3 L12.3 20.3 L12.3 15.1 L12.3 9.9"/> <path fill="none" stroke="black" stroke-width="0.3" stroke-opacity="1.0" filling="0" d="M8.3 14.2 L12.3 14.2 L12.3 19.4 L8.3 19.4 L8.3 14.2"/> <path fill="none" stroke="black" stroke-width="0.3" stroke-opacity="1.0" filling="0" d="M8.9 15.0 L8.9 15.0 C9.4 15.3 10.1 15.6 10.5 16.1 C10.9 16.6 10.8 17.2 11.1 17.8 L11.1 18.2 C10.6 18.2 9.9 18.2 9.3 18.2 L9.3 18.2 C8.8 18.2 8.2 18.2 7.7 18.2 L7.7 17.8 C8.0 17.2 8.0 16.6 8.3 16.1 C8.6 15.6 9.3 15.3 8.9 15.0 L8.9 15.0"/> <path fill="none" stroke="black" stroke-width="0.3" stroke-opacity="1.0" filling="0" d="M12.3 15.0 L12.3 15.0 C12.8 15.3 13.5 15.6 13.8 16.1 C14.2 16.6 14.2 17.2 14.4 17.8 L14.4 18.2 C13.8 18.2 13.1 18.2 12.5 18.2 L12.5 18.2 C12.0 18.2 11.5 18.2 10.9 18.2 L10.9 17.8 C11.2 17.2 11.2 16.6 11.4 16.1 C11.7 15.6 12.0 15.3 12.3 15.0 L12.3 15.0"/> <path fill="none" stroke="black" stroke-width="0.3" stroke-opacity="1.0" filling="0" d="M12.3 15.5 L12.3 15.5 C12.8 15.7 13.4 15.9 13.8 16.3 C14.1 16.7 14.1 17.2 14.2 17.8 L14.2 18.2 C13.8 18.2 13.4 18.2 12.9 18.2 L12.9 18.2 C12.6 18.2 12.2 18.2 11.8 18.2 L11.8 18.2 C11.2 18.2 10.6 18.2 10.2 18.2 L10.2 17.8 C10.3 17.2 10.3 16.7 10.5 16.3 C10.9 15.9 11.7 15.7 12.3 15.5 L12.3 15.5"/> <path fill="none" stroke="black" stroke-width="0.3" stroke-opacity="1.0" filling="0" d="M12.3 16.0 L12.3 16.0 C12.8 16.2 13.2 16.5 13.7 16.7 L13.7 16.7 C13.3 16.7 12.8 16.7 12.4 16.7 L12.4 16.7 C12.2 16.7 11.8 16.7 11.5 16.7 L11.5 16.7 C11.8 16.5 12.1 16.2 12.3 16.0 L12.3 16.0"/></svg>