<svg xmlns="http://www.w3.org/2000/svg" viewBox="0.0 0.0 24.0 24.0" height="200px" width="200px"><path fill="none" stroke="black" stroke-width="0.3" stroke-opacity="1.0" filling="0" d="M12.4 7.0 L12.4 7.0 C12.6 7.3 13.3 7.4 13.4 7.8 C14.0 9.3 12.6 10.6 11.5 10.6 C10.4 10.6 9.9 9.3 10.6 7.8 C10.8 7.4 11.7 7.3 12.4 7.0 L12.4 7.0"/> <path fill="none" stroke="black" stroke-width="0.3" stroke-opacity="1.0" filling="0" d="M8.5 10.6 L8.5 10.6 C8.7 10.8 9.2 11.0 9.2 11.4 C9.2 11.8 8.7 12.2 8.5 12.4 L6.3 13.4 L6.3 10.6"/> <path fill="none" stroke="black" stroke-width="0.3" stroke-opacity="1.0" filling="0" d="M17.6 10.6 L17.6 13.4 L15.2 12.4 C15.0 12.2 14.5 11.8 14.5 11.4 C14.5 11.0 15.0 10.8 15.2 10.6 L17.6 10.6"/> <path fill="none" stroke="black" stroke-width="0.3" stroke-opacity="1.0" filling="0" d="M7.2 11.0 L7.2 11.0 C7.4 11.2 7.9 11.4 7.9 11.8 C7.9 12.4 7.5 13.1 7.2 13.1 C6.8 13.1 6.5 12.4 6.5 11.8 C6.5 11.4 6.9 11.2 7.2 11.0 L7.2 11.0"/> <path fill="none" stroke="black" stroke-width="0.3" stroke-opacity="1.0" filling="0" d="M15.2 11.0 L15.2 11.0 C15.5 11.2 15.9 11.4 15.9 11.8 C15.9 12.4 15.6 13.1 15.2 13.1 C14.8 13.1 14.4 12.4 14.4 11.8 C14.4 11.4 14.9 11.2 15.2 11.0 L15.2 11.0"/> <path fill="none" stroke="black" stroke-width="0.3" stroke-opacity="1.0" filling="0" d="M7.2 11.2 L7.2 11.2 C7.3 11.3 7.6 11.4 7.6 11.7 C7.6 12.1 7.5 12.9 7.2 12.9 C6.8 12.9 6.7 12.1 6.7 11.7 C6.7 11.4 7.0 11.3 7.2 11.2 L7.2 11.2"/> <path fill="none" stroke="black" stroke-width="0.3" stroke-opacity="1.0" filling="0" d="M15.2 11.2 L15.2 11.2 C15.4 11.3 15.7 11.4 15.7 11.7 C15.7 12.1 15.6 12.9 15.2 12.9 C14.8 12.9 14.7 12.1 14.7 11.7 C14.7 11.4 15.0 11.3 15.2 11.2 L15.2 11.2"/> <path fill="none" stroke="black" stroke-width="0.3" stroke-opacity="1.0" filling="0" d="M7.2 11.4 L7.2 11.4 C7.2 12.4 7.2 12.4 7.2 11.4 L7.2 11.4"/> <path fill="none" stroke="black" stroke-width="0.3" stroke-opacity="1.0" filling="0" d="M15.2 11.4 L15.2 11.4 C15.2 12.4 15.2 12.4 15.2 11.4 L15.2 11.4"/> <path fill="none" stroke="black" stroke-width="0.3" stroke-opacity="1.0" filling="0" d="M7.2 12.7 L7.2 12.7 C7.6 13.1 8.2 13.4 8.2 13.9 C8.2 15.3 6.1 14.4 6.1 13.9 C6.1 13.4 6.7 13.1 7.2 12.7 L7.2 12.7"/> <path fill="none" stroke="black" stroke-width="0.3" stroke-opacity="1.0" filling="0" d="M15.2 12.7 L15.2 12.7 C15.7 13.1 16.3 13.4 16.3 13.9 C16.3 15.7 14.3 14.8 14.3 13.9 C14.3 13.4 14.9 13.1 15.2 12.7 L15.2 12.7"/> <path fill="none" stroke="black" stroke-width="0.3" stroke-opacity="1.0" filling="0" d="M7.2 13.1 L7.2 13.1 C7.2 14.1 7.2 14.1 7.2 13.1 L7.2 13.1"/> <path fill="none" stroke="black" stroke-width="0.3" stroke-opacity="1.0" filling="0" d="M16.6 13.1 L16.6 13.1 C16.6 14.1 16.6 14.1 16.6 13.1 L16.6 13.1"/> <path fill="none" stroke="black" stroke-width="0.3" stroke-opacity="1.0" filling="0" d="M7.2 13.7 L7.2 13.7 C7.2 14.8 7.2 14.8 7.2 13.7 L7.2 13.7"/> <path fill="none" stroke="black" stroke-width="0.3" stroke-opacity="1.0" filling="0" d="M16.6 13.7 L16.6 13.7 C16.6 14.8 16.6 14.8 16.6 13.7 L16.6 13.7"/> <path fill="none" stroke="black" stroke-width="0.3" stroke-opacity="1.0" filling="0" d="M7.2 14.4 L7.2 14.4 C7.2 15.4 7.2 15.4 7.2 14.4 L7.2 14.4"/> <path fill="none" stroke="black" stroke-width="0.3" stroke-opacity="1.0" filling="0" d="M16.6 14.4 L16.6 14.4 C16.6 15.4 16.6 15.4 16.6 14.4 L16.6 14.4"/> <path fill="none" stroke="black" stroke-width="0.3" stroke-opacity="1.0" filling="0" d="M9.6 15.0 L9.6 15.0 C9.6 15.9 9.6 15.9 9.6 15.0 L9.6 15.0"/> <path fill="none" stroke="black" stroke-width="0.3" stroke-opacity="1.0" filling="0" d="M14.2 15.0 L14.2 15.0 C14.2 15.9 14.2 15.9 14.2 15.0 L14.2 15.0"/> <path fill="none" stroke="black" stroke-width="0.3" stroke-opacity="1.0" filling="0" d="M9.6 15.7 L9.6 15.7 C9.6 16.7 9.6 16.7 9.6 15.7 L9.6 15.7"/> <path fill="none" stroke="black" stroke-width="0.3" stroke-opacity="1.0" filling="0" d="M13.9 15.7 L13.9 15.7 C13.9 16.7 13.9 16.7 13.9 15.7 L13.9 15.7"/> <path fill="none" stroke="black" stroke-width="0.3" stroke-opacity="1.0" filling="0" d="M13.9 16.6 L13.9 16.6 C14.0 17.4 14.0 17.4 13.9 16.6 L13.9 16.6"/> <path fill="none" stroke="black" stroke-width="0.3" stroke-opacity="1.0" filling="0" d="M10.1 17.1 L10.1 17.1 C10.1 17.9 10.1 17.9 10.1 17.1 L10.1 17.1"/> <path fill="none" stroke="black" stroke-width="0.3" stroke-opacity="1.0" filling="0" d="M10.1 18.0 L10.1 18.0 C10.1 19.0 10.1 19.0 10.1 18.0 L10.1 18.0"/></svg>