<svg xmlns="http://www.w3.org/2000/svg" viewBox="0.0 0.0 24.0 24.0" height="200px" width="200px"><path fill="none" stroke="black" stroke-width="0.3" stroke-opacity="1.0" filling="0" d="M10.0 3.2 L10.0 3.2 C12.5 3.5 13.7 4.6 14.4 6.7 C15.0 8.5 15.2 10.3 15.3 12.6 L14.5 13.4 C13.9 13.2 13.3 13.2 12.8 12.9 C10.6 11.4 10.2 9.7 10.0 7.2 L10.0 7.2 C10.8 7.8 11.6 9.0 12.1 10.2 C12.5 11.3 12.4 12.5 12.8 13.7 L12.8 13.7 C11.7 13.3 10.5 12.8 9.8 11.8 C9.0 10.7 8.6 9.5 8.4 8.0 L8.4 8.0 C8.9 9.5 9.6 10.8 9.8 12.1 C9.9 13.3 9.6 14.6 10.4 15.5 C10.8 16.1 11.4 16.4 11.9 16.6 L11.9 16.6 C10.5 15.4 9.6 14.1 9.3 12.8 C8.9 11.4 8.8 10.2 8.5 9.0 L8.5 9.0 C8.7 9.7 8.8 10.4 9.2 11.1 L9.2 11.1 C7.8 9.3 7.3 7.8 7.2 6.1 C7.1 4.4 7.6 3.3 10.0 3.2 L10.0 3.2"/> <path fill="none" stroke="black" stroke-width="0.3" stroke-opacity="1.0" filling="0" d="M14.4 12.6 L14.4 12.6 C15.3 13.6 15.8 14.5 16.5 15.9 L16.5 15.9 C15.3 14.7 14.3 13.8 14.4 12.6 L14.4 12.6"/></svg>