<svg xmlns="http://www.w3.org/2000/svg" viewBox="0.0 0.0 24.0 24.0" height="200px" width="200px"><path fill="none" stroke="black" stroke-width="0.3" stroke-opacity="1.0" filling="0" d="M9.5 6.5 L13.6 6.5 L17.7 6.5 C17.9 6.8 18.1 7.0 18.3 7.2 L18.3 11.4 L18.3 15.5 C18.1 15.7 17.9 15.9 17.7 16.1 L13.6 16.1 L9.5 16.1 C9.2 15.9 9.0 15.7 8.8 15.5 L8.8 11.4 L8.8 7.2 C9.0 7.0 9.2 6.8 9.5 6.5 L9.5 6.5"/> <path fill="none" stroke="black" stroke-width="0.3" stroke-opacity="1.0" filling="0" d="M9.5 6.9 L13.6 6.9 L17.7 6.9 C17.8 7.1 18.0 7.2 18.1 7.4 L18.1 11.4 L18.1 15.5 C18.0 15.6 17.8 15.7 17.7 15.9 L13.6 15.9 L9.5 15.9 C9.4 15.7 9.2 15.6 9.0 15.5 L9.0 11.4 L9.0 7.4 C9.2 7.2 9.4 7.1 9.5 6.9 L9.5 6.9"/> <path fill="none" stroke="black" stroke-width="0.3" stroke-opacity="1.0" filling="0" d="M17.7 7.4 L17.7 7.4 C17.8 7.6 17.9 7.8 18.1 8.0 L18.1 10.6 C17.9 10.8 17.8 11.2 17.7 11.4 L14.8 11.4 L12.0 9.6 L12.0 7.4 L14.8 7.4 L17.7 7.4"/> <path fill="none" stroke="black" stroke-width="0.3" stroke-opacity="1.0" filling="0" d="M10.9 9.2 L14.8 9.2 L18.6 9.2 L18.6 15.5 L14.8 15.5 L10.9 15.5 L10.9 9.2"/> <path fill="none" stroke="black" stroke-width="0.3" stroke-opacity="1.0" filling="0" d="M14.8 9.6 L17.7 9.6 C18.1 9.8 18.4 10.2 18.6 10.6 L18.6 12.5 C18.4 12.7 18.1 12.9 17.7 13.2 L15.7 13.2 C15.5 12.9 15.3 12.7 15.1 12.5 L15.1 10.6 C15.3 10.4 15.5 10.1 15.7 9.9 L15.7 9.9 C15.9 9.8 15.9 9.7 16.0 9.6 L16.0 9.6 C15.9 9.7 15.8 9.8 15.7 9.9 L15.7 9.9 C15.5 10.1 15.4 10.3 15.2 10.6 L15.2 11.4 L16.3 11.4 C16.6 11.6 16.9 11.8 17.1 12.0 L17.1 14.0 C16.9 14.2 16.6 14.4 16.3 14.6 L14.8 14.6 C14.5 14.4 14.3 14.2 14.1 14.0 L14.1 10.6 C14.3 10.2 14.5 9.8 14.8 9.6 L14.8 9.6"/> <path fill="none" stroke="black" stroke-width="0.3" stroke-opacity="1.0" filling="0" d="M10.9 13.2 L10.9 13.2 C11.2 13.4 11.5 13.7 11.7 14.0 L11.7 15.5 C11.5 15.7 11.2 15.9 11.0 16.1 L10.9 16.1 C10.7 15.9 10.5 15.7 10.3 15.5 L10.3 14.0 C10.5 13.7 10.7 13.4 10.9 13.2 L10.9 13.2"/> <path fill="none" stroke="black" stroke-width="0.3" stroke-opacity="1.0" filling="0" d="M17.7 13.2 L17.7 13.2 C17.9 13.4 18.2 13.7 18.4 14.0 L18.4 15.5 C18.2 15.7 18.0 15.9 17.7 16.1 L17.7 16.1 C17.4 15.9 17.2 15.7 17.0 15.5 L17.0 14.0 C17.2 13.7 17.4 13.4 17.7 13.2 L17.7 13.2"/> <path fill="none" stroke="black" stroke-width="0.3" stroke-opacity="1.0" filling="0" d="M10.9 13.4 L10.9 13.4 C11.1 13.6 11.2 13.7 11.4 14.0 L11.4 15.5 C11.2 15.5 11.0 15.5 10.9 15.5 L10.9 14.0 C10.9 13.7 10.9 13.6 10.9 13.4 L10.9 13.4"/> <path fill="none" stroke="black" stroke-width="0.3" stroke-opacity="1.0" filling="0" d="M17.7 13.4 L17.7 13.4 C17.7 13.6 17.8 13.7 17.8 14.0 L17.8 15.5 C17.7 15.5 17.5 15.5 17.4 15.5 L17.4 14.0 C17.5 13.7 17.6 13.6 17.7 13.4 L17.7 13.4"/> <path fill="none" stroke="black" stroke-width="0.3" stroke-opacity="1.0" filling="0" d="M10.9 15.1 L10.9 15.1 C10.9 15.3 10.9 15.3 10.9 15.4 L10.9 16.1 C10.8 16.1 10.6 16.1 10.5 16.1 L10.5 15.4 C10.6 15.3 10.7 15.3 10.9 15.1 L10.9 15.1"/> <path fill="none" stroke="black" stroke-width="0.3" stroke-opacity="1.0" filling="0" d="M17.7 15.1 L17.7 15.1 C17.7 15.3 17.8 15.3 17.8 15.4 L17.8 16.1 C17.7 16.1 17.5 16.1 17.4 16.1 L17.4 15.4 C17.5 15.3 17.6 15.3 17.7 15.1 L17.7 15.1"/> <path fill="none" stroke="black" stroke-width="0.3" stroke-opacity="1.0" filling="0" d="M10.9 16.7 L10.9 16.7 C10.9 17.3 10.9 17.3 10.9 16.7 L10.9 16.7"/> <path fill="none" stroke="black" stroke-width="0.3" stroke-opacity="1.0" filling="0" d="M16.4 16.7 L16.4 16.7 C16.4 17.3 16.4 17.3 16.4 16.7 L16.4 16.7"/> <path fill="none" stroke="black" stroke-width="0.3" stroke-opacity="1.0" filling="0" d="M10.9 17.6 L10.9 17.6 C10.9 18.1 10.9 18.1 10.9 17.6 L10.9 17.6"/> <path fill="none" stroke="black" stroke-width="0.3" stroke-opacity="1.0" filling="0" d="M10.9 18.5 L10.9 18.5 C10.9 19.0 10.9 19.0 10.9 18.5 L10.9 18.5"/> <path fill="none" stroke="black" stroke-width="0.3" stroke-opacity="1.0" filling="0" d="M10.9 19.3 L10.9 19.3 C10.9 19.8 10.9 19.8 10.9 19.3 L10.9 19.3"/> <path fill="none" stroke="black" stroke-width="0.3" stroke-opacity="1.0" filling="0" d="M10.9 20.0 L10.9 20.0 C10.9 20.6 10.9 20.6 10.9 20.0 L10.9 20.0"/> <path fill="none" stroke="black" stroke-width="0.3" stroke-opacity="1.0" filling="0" d="M10.9 20.8 L10.9 20.8 C10.9 21.3 10.9 21.3 10.9 20.8 L10.9 20.8"/> <path fill="none" stroke="black" stroke-width="0.3" stroke-opacity="1.0" filling="0" d="M10.9 21.6 L10.9 21.6 C10.9 22.1 10.9 22.1 10.9 21.6 L10.9 21.6"/> <path fill="none" stroke="black" stroke-width="0.3" stroke-opacity="1.0" filling="0" d="M10.9 22.4 L10.9 22.4 C10.9 22.9 10.9 22.9 10.9 22.4 L10.9 22.4"/> <path fill="none" stroke="black" stroke-width="0.3" stroke-opacity="1.0" filling="0" d="M10.9 23.2 L10.9 22.5 C10.6 22.4 10.3 22.2 10.1 22.0 L10.1 22.0"/> <path fill="none" stroke="black" stroke-width="0.3" stroke-opacity="1.0" filling="0" d="M10.9 22.6 L10.9 22.6 C10.9 22.8 10.9 22.8 10.9 22.6 L10.9 22.6"/></svg>