<svg xmlns="http://www.w3.org/2000/svg" viewBox="0.0 0.0 24.0 24.0" height="200px" width="200px"><path fill="none" stroke="black" stroke-width="0.3" stroke-opacity="1.0" filling="0" d="M13.7 3.2 L13.7 3.2 C15.9 3.5 17.8 4.3 18.8 6.5 C19.8 8.5 19.8 10.5 18.8 12.0 C17.8 13.5 15.8 14.7 13.7 14.7 C11.5 14.7 9.5 13.5 8.5 12.0 C7.5 10.5 7.4 8.5 8.4 6.5 C9.4 4.3 11.3 3.5 13.7 3.2 L13.7 3.2"/> <path fill="none" stroke="black" stroke-width="0.3" stroke-opacity="1.0" filling="0" d="M13.7 3.4 L13.7 3.4 C14.1 3.6 14.7 3.7 15.0 4.1 C16.2 5.2 16.7 7.0 16.7 8.7 C16.7 10.4 16.0 11.8 14.9 13.0 L14.9 13.0 C13.3 13.2 11.6 13.1 10.6 12.0 C9.5 10.8 9.2 9.0 9.7 7.9 C10.3 6.0 11.2 4.1 13.7 3.4 L13.7 3.4"/> <path fill="none" stroke="black" stroke-width="0.3" stroke-opacity="1.0" filling="0" d="M13.7 3.6 L13.7 3.6 C15.3 3.9 16.5 4.4 17.1 5.9 C17.9 7.4 17.7 9.1 17.0 10.3 C16.3 11.5 15.1 12.5 13.7 12.5 C12.2 12.5 11.0 11.5 10.3 10.3 C9.6 9.1 9.4 7.4 10.1 5.9 C10.8 4.4 12.1 3.9 13.7 3.6 L13.7 3.6"/> <path fill="none" stroke="black" stroke-width="0.3" stroke-opacity="1.0" filling="0" d="M13.7 3.9 L13.7 3.9 C15.5 4.1 16.3 4.6 17.0 6.1 C17.5 7.3 17.4 8.8 16.7 10.1 C16.1 11.4 14.9 12.4 13.7 12.4 C12.5 12.4 11.3 11.4 10.6 10.1 C10.0 8.8 9.8 7.3 10.4 6.1 C11.0 4.6 12.0 4.1 13.7 3.9 L13.7 3.9"/> <path fill="none" stroke="black" stroke-width="0.3" stroke-opacity="1.0" filling="0" d="M11.2 7.5 L13.1 7.5 L13.1 11.4 L13.1 15.3 L11.2 15.3 L11.2 11.4 L11.2 7.5"/> <path fill="none" stroke="black" stroke-width="0.3" stroke-opacity="1.0" filling="0" d="M11.4 7.7 L13.0 7.7 L13.0 11.4 L13.0 15.0 L11.4 15.0"/> <path fill="none" stroke="black" stroke-width="0.3" stroke-opacity="1.0" filling="0" d="M12.8 7.9 L12.8 11.4 L12.8 15.0 L11.7 15.0 L11.7 11.4 L11.7 7.9 L12.8 7.9"/> <path fill="none" stroke="black" stroke-width="0.3" stroke-opacity="1.0" filling="0" d="M10.9 10.0 L15.4 10.0 L15.4 11.4 L10.9 11.4"/> <path fill="none" stroke="black" stroke-width="0.3" stroke-opacity="1.0" filling="0" d="M10.9 11.4 L14.9 11.4 L14.9 12.8 L10.9 12.8"/> <path fill="none" stroke="black" stroke-width="0.3" stroke-opacity="1.0" filling="0" d="M10.9 11.4 L14.9 11.4 L14.9 12.8 L10.9 12.8"/> <path fill="none" stroke="black" stroke-width="0.3" stroke-opacity="1.0" filling="0" d="M10.9 11.4 L14.9 11.4 L14.9 12.8 L10.9 12.8"/></svg>