<svg xmlns="http://www.w3.org/2000/svg" viewBox="0.0 0.0 24.0 24.0" height="200px" width="200px"><path fill="none" stroke="black" stroke-width="0.3" stroke-opacity="1.0" filling="0" d="M15.7 6.1 L15.7 6.1 C15.6 6.5 15.4 7.0 15.1 7.4 L14.5 7.4 L14.5 10.1 L14.9 10.1 C14.9 10.5 15.1 10.8 15.2 11.2 L15.2 11.2 C15.6 12.1 15.9 12.7 16.0 13.6 L15.8 14.0 L15.5 14.0 L15.5 14.0 C14.7 14.2 14.0 14.6 13.3 15.0 L13.2 15.0 C12.3 13.8 13.2 12.9 13.5 11.4 L13.5 7.4 L13.0 7.4 C12.7 7.1 12.3 6.7 12.3 6.4 C12.4 6.1 12.9 6.0 13.2 5.8 L14.5 6.9 C14.9 6.5 15.3 6.2 15.7 6.1 L15.7 6.1"/> <path fill="none" stroke="black" stroke-width="0.3" stroke-opacity="1.0" filling="0" d="M10.4 8.0 L10.4 8.0 C10.7 7.9 11.1 7.9 11.4 7.9 L11.4 7.9"/> <path fill="none" stroke="black" stroke-width="0.3" stroke-opacity="1.0" filling="0" d="M9.6 10.8 L9.6 10.8 C8.5 10.2 7.8 9.1 7.3 7.7 L7.3 7.7"/> <path fill="none" stroke="black" stroke-width="0.3" stroke-opacity="1.0" filling="0" d="M15.5 8.0 L15.5 8.0 C15.2 9.1 14.4 10.2 13.5 10.8 L13.5 10.8"/> <path fill="none" stroke="black" stroke-width="0.3" stroke-opacity="1.0" filling="0" d="M7.6 9.3 L7.6 9.3 C7.1 10.2 6.5 11.1 6.0 12.0 L6.0 12.0"/> <path fill="none" stroke="black" stroke-width="0.3" stroke-opacity="1.0" filling="0" d="M10.6 9.8 L10.6 9.8 C11.4 10.0 12.1 10.1 12.7 10.6 C13.3 11.2 13.4 12.1 13.7 12.8 L13.7 12.8"/> <path fill="none" stroke="black" stroke-width="0.3" stroke-opacity="1.0" filling="0" d="M14.2 10.6 L14.2 10.6 C14.3 11.1 14.3 11.5 14.4 11.8 L14.4 11.8"/> <path fill="none" stroke="black" stroke-width="0.3" stroke-opacity="1.0" filling="0" d="M9.1 10.9 L9.1 10.9 C9.6 11.2 10.3 11.3 10.6 11.8 C11.7 13.0 10.9 14.5 10.2 15.5 L10.2 15.5 C9.8 15.4 9.4 15.4 9.0 15.4 L9.0 15.4 C8.6 14.9 8.3 14.3 8.0 13.7 L8.0 13.7 C8.1 13.3 8.2 12.7 8.2 12.3 L8.2 12.3 C8.3 11.8 8.7 11.3 9.1 10.9 L9.1 10.9"/> <path fill="none" stroke="black" stroke-width="0.3" stroke-opacity="1.0" filling="0" d="M15.4 11.2 L15.4 11.2 C16.1 12.1 16.6 12.9 16.6 13.9 L16.6 13.9"/> <path fill="none" stroke="black" stroke-width="0.3" stroke-opacity="1.0" filling="0" d="M12.4 12.7 L12.4 12.7 C12.5 12.9 12.6 13.2 12.8 13.4 L12.8 13.4 C13.1 13.7 13.3 14.0 13.5 14.3 L13.5 14.3 C12.1 14.5 11.3 14.5 9.9 13.4 L9.9 13.4 C10.1 13.2 10.4 13.0 10.6 12.8 L10.6 12.8 C11.4 12.7 12.4 12.7 12.4 12.7 L12.4 12.7"/> <path fill="none" stroke="black" stroke-width="0.3" stroke-opacity="1.0" filling="0" d="M9.6 12.9 L9.6 12.9 C10.3 13.3 11.1 14.0 11.6 14.7 L11.6 14.7 C10.2 15.1 9.7 15.3 8.3 13.9 L8.3 13.9 C8.8 13.6 9.2 13.3 9.6 12.9 L9.6 12.9"/></svg>