<svg xmlns="http://www.w3.org/2000/svg" viewBox="0.0 0.0 24.0 24.0" height="200px" width="200px"><path fill="none" stroke="black" stroke-width="0.3" stroke-opacity="1.0" filling="0" d="M10.6 4.6 L10.6 4.6 C12.9 4.9 14.8 5.8 15.9 7.7 C17.0 9.6 17.1 12.0 16.3 14.0 C15.6 16.0 14.0 17.4 11.9 17.2 C9.8 17.0 7.7 15.7 6.6 14.0 C5.5 12.2 5.4 9.5 6.5 7.7 C7.4 6.2 8.8 4.9 10.6 4.6 L10.6 4.6"/> <path fill="none" stroke="black" stroke-width="0.3" stroke-opacity="1.0" filling="0" d="M9.6 9.5 L9.6 9.5 C10.2 9.6 10.8 9.6 11.2 10.1 C12.8 11.6 11.5 13.9 10.0 15.3 C9.1 15.8 7.3 16.2 6.8 14.9 C6.4 14.4 6.5 13.7 6.3 13.1 L6.3 13.1 C6.8 12.1 7.5 11.0 8.3 10.1 C8.7 9.7 9.1 9.6 9.6 9.5 L9.6 9.5"/> <path fill="none" stroke="black" stroke-width="0.3" stroke-opacity="1.0" filling="0" d="M7.1 14.4 L7.1 14.4 C7.4 12.4 7.9 10.5 9.5 9.4 C11.1 8.3 13.0 8.2 14.5 9.1 C16.1 10.0 17.0 11.7 17.0 14.4 C17.0 16.9 15.4 18.8 13.7 19.8 C12.0 20.7 10.1 21.0 8.6 19.8 C7.2 18.9 6.4 17.6 6.2 15.8 L6.2 15.8"/> <path fill="none" stroke="black" stroke-width="0.3" stroke-opacity="1.0" filling="0" d="M9.6 18.9 L14.5 18.9 L14.5 19.3 L9.6 19.3"/></svg>