<svg xmlns="http://www.w3.org/2000/svg" viewBox="0.0 0.0 24.0 24.0" height="200px" width="200px"><path fill="none" stroke="black" stroke-width="0.3" stroke-opacity="1.0" filling="0" d="M12.6 8.5 L12.6 8.5 C13.7 8.8 14.1 9.3 14.4 10.4 L18.6 10.4 L21.7 10.4 L21.7 15.4 L21.7 20.4 L14.5 20.4 L8.3 20.4 L8.3 15.4 L8.3 10.4 L10.5 10.4 C10.9 9.3 11.3 8.8 12.6 8.5 L12.6 8.5"/> <path fill="none" stroke="black" stroke-width="0.3" stroke-opacity="1.0" filling="0" d="M13.1 8.8 L13.1 8.8 C14.3 9.1 14.7 9.6 15.1 10.6 L15.3 17.1 L20.0 17.1 L20.0 20.9 L14.4 20.9 L9.7 20.9 L9.7 17.1 L13.1 17.1 L13.4 10.6 C13.2 10.3 13.1 9.8 12.8 9.6 L12.8 9.6 C12.6 9.3 12.4 9.0 12.2 8.8 L12.2 8.8 C12.5 8.8 12.8 8.8 13.1 8.8 L13.1 8.8"/> <path fill="none" stroke="black" stroke-width="0.3" stroke-opacity="1.0" filling="0" d="M16.1 9.6 L16.1 9.6 C16.3 9.9 16.6 10.1 16.8 10.4 L16.8 17.7 C16.6 18.1 16.2 18.4 15.7 18.8 L10.8 18.8 L6.9 18.8 L6.9 12.4 L10.8 12.4 L14.6 9.9 L14.6 10.8 C14.9 10.6 15.2 10.4 15.5 10.2 L15.5 10.2 C15.5 10.0 15.8 9.8 16.1 9.6 L16.1 9.6"/> <path fill="none" stroke="black" stroke-width="0.3" stroke-opacity="1.0" filling="0" d="M16.1 9.9 L16.1 9.9 C16.2 10.0 16.3 10.1 16.3 10.3 L16.3 17.7 L10.8 17.7 L6.2 17.7 L6.2 13.8 L10.8 13.8 L16.1 9.9"/></svg>