<svg xmlns="http://www.w3.org/2000/svg" viewBox="0.0 0.0 24.0 24.0" height="200px" width="200px"><path fill="none" stroke="black" stroke-width="0.3" stroke-opacity="1.0" filling="0" d="M13.8 7.8 L13.8 7.8 C14.1 8.0 14.5 8.2 14.7 8.6 C15.0 9.7 13.0 10.6 13.0 8.6 C13.0 8.2 13.5 8.0 13.8 7.8 L13.8 7.8"/> <path fill="none" stroke="black" stroke-width="0.3" stroke-opacity="1.0" filling="0" d="M14.1 8.0 L14.1 8.0 C14.5 8.2 15.2 8.3 15.3 8.7 C15.4 9.3 14.9 10.3 14.5 10.1 C14.1 10.0 13.7 9.5 13.5 9.1 C13.3 8.6 13.7 8.3 14.1 8.0 L14.1 8.0"/> <path fill="none" stroke="black" stroke-width="0.3" stroke-opacity="1.0" filling="0" d="M14.1 9.7 L14.1 9.7 C15.1 10.8 15.6 11.6 15.2 13.4 C14.7 15.0 13.8 16.2 13.1 17.3 C12.4 18.2 11.5 19.0 10.5 19.6 L10.1 19.2 C11.7 18.7 13.1 17.9 14.2 16.9 C15.2 15.9 15.8 14.4 15.5 12.8 C15.2 11.2 14.2 10.3 12.8 9.8 L12.8 9.8 C13.2 9.8 13.6 9.8 14.1 9.7 L14.1 9.7"/> <path fill="none" stroke="black" stroke-width="0.3" stroke-opacity="1.0" filling="0" d="M12.8 12.8 L12.8 12.8 C14.0 13.1 15.4 13.5 16.1 14.8 C16.6 15.7 16.5 16.6 16.2 17.6 C16.1 17.9 15.7 18.5 15.5 18.7 C14.8 19.2 12.4 19.5 12.1 18.4 C11.5 16.8 11.8 15.1 11.9 13.6 L11.9 13.6 C12.2 13.3 12.5 13.1 12.8 12.8 L12.8 12.8"/> <path fill="none" stroke="black" stroke-width="0.3" stroke-opacity="1.0" filling="0" d="M12.8 13.2 L12.8 13.2 C13.2 13.5 13.9 13.7 14.0 14.2 C14.0 15.4 12.0 15.4 12.0 14.2 C12.0 13.7 12.5 13.5 12.8 13.2 L12.8 13.2"/> <path fill="none" stroke="black" stroke-width="0.3" stroke-opacity="1.0" filling="0" d="M12.8 13.6 L12.8 13.6 C13.0 13.7 13.5 14.0 13.5 14.4 C13.5 15.0 12.0 15.0 12.0 14.4 C12.0 14.0 12.5 13.7 12.8 13.6 L12.8 13.6"/></svg>