<svg xmlns="http://www.w3.org/2000/svg" viewBox="0.0 0.0 24.0 24.0" height="200px" width="200px"><path fill="none" stroke="black" stroke-width="0.3" stroke-opacity="1.0" filling="0" d="M4.3 4.7 L7.3 5.1 L10.9 5.1 L16.3 5.1 L16.3 11.4 L16.3 17.6 L10.9 17.6 L6.5 17.6 L3.1 20.3 L3.1 15.1 L3.1 9.9 L4.3 4.7"/> <path fill="none" stroke="black" stroke-width="0.3" stroke-opacity="1.0" filling="0" d="M4.4 4.7 L7.3 5.2 L10.9 5.2 L16.2 5.2 L16.2 11.4 L16.2 17.6 L10.9 17.6 L6.5 17.6 L4.4 20.3 L4.4 15.1 L4.4 9.9 L4.4 4.7"/> <path fill="none" stroke="black" stroke-width="0.3" stroke-opacity="1.0" filling="0" d="M7.3 5.8 L10.9 5.8 L10.9 10.3 L10.9 15.8 L7.3 15.8 L7.3 10.3 L7.3 5.8"/> <path fill="none" stroke="black" stroke-width="0.3" stroke-opacity="1.0" filling="0" d="M7.5 6.0 L10.7 6.0 L10.7 9.9 L10.7 13.8 L7.5 13.8"/> <path fill="none" stroke="black" stroke-width="0.3" stroke-opacity="1.0" filling="0" d="M7.6 6.3 L10.3 6.3 L10.3 9.9 L10.3 13.5 L7.6 13.5"/> <path fill="none" stroke="black" stroke-width="0.3" stroke-opacity="1.0" filling="0" d="M10.1 6.4 L10.1 9.9 L10.1 13.4 L7.8 13.4 L7.8 9.9 L7.8 6.4 L10.1 6.4"/> <path fill="none" stroke="black" stroke-width="0.3" stroke-opacity="1.0" filling="0" d="M5.7 7.1 L10.1 7.1 L10.1 9.9 L5.7 9.9 L5.7 7.1"/> <path fill="none" stroke="black" stroke-width="0.3" stroke-opacity="1.0" filling="0" d="M7.0 7.4 L10.6 7.4 L10.6 8.8 L7.0 8.8 L7.0 7.4"/> <path fill="none" stroke="black" stroke-width="0.3" stroke-opacity="1.0" filling="0" d="M5.7 8.8 L10.1 8.8 L10.1 9.9 L5.7 9.9 L5.7 8.8"/> <path fill="none" stroke="black" stroke-width="0.3" stroke-opacity="1.0" filling="0" d="M11.1 8.8 L11.1 8.8 C11.3 9.0 11.5 9.2 11.7 9.4 L11.7 12.0 C11.4 13.2 10.4 13.1 10.1 12.0 L10.1 9.4 C10.3 9.2 10.7 9.0 11.1 8.8 L11.1 8.8"/> <path fill="none" stroke="black" stroke-width="0.3" stroke-opacity="1.0" filling="0" d="M5.7 9.1 L10.1 9.1 L10.1 9.7 L5.7 9.7"/> <path fill="none" stroke="black" stroke-width="0.3" stroke-opacity="1.0" filling="0" d="M11.2 9.3 L11.2 9.3 C11.2 10.8 11.2 10.8 11.2 9.3 L11.2 9.3"/> <path fill="none" stroke="black" stroke-width="0.3" stroke-opacity="1.0" filling="0" d="M5.7 10.5 L10.1 10.5 L10.1 11.8 L5.7 11.8 L5.7 10.5"/> <path fill="none" stroke="black" stroke-width="0.3" stroke-opacity="1.0" filling="0" d="M11.1 11.3 L11.1 11.3 C11.1 13.7 8.7 11.4 11.1 11.3 L11.1 11.3"/> <path fill="none" stroke="black" stroke-width="0.3" stroke-opacity="1.0" filling="0" d="M11.1 11.6 L11.1 11.6 C11.1 12.7 11.1 12.7 11.1 11.6 L11.1 11.6"/> <path fill="none" stroke="black" stroke-width="0.3" stroke-opacity="1.0" filling="0" d="M6.1 11.7 L6.1 11.7 C6.1 12.7 6.1 12.7 6.1 11.7 L6.1 11.7"/> <path fill="none" stroke="black" stroke-width="0.3" stroke-opacity="1.0" filling="0" d="M10.1 11.7 L10.1 11.7 C10.1 12.7 10.1 12.7 10.1 11.7 L10.1 11.7"/> <path fill="none" stroke="black" stroke-width="0.3" stroke-opacity="1.0" filling="0" d="M6.1 12.1 L6.1 12.1 C6.1 13.3 6.1 13.3 6.1 12.1 L6.1 12.1"/> <path fill="none" stroke="black" stroke-width="0.3" stroke-opacity="1.0" filling="0" d="M10.1 12.1 L10.1 12.1 C10.1 13.3 10.1 13.3 10.1 12.1 L10.1 12.1"/> <path fill="none" stroke="black" stroke-width="0.3" stroke-opacity="1.0" filling="0" d="M12.1 14.2 L12.1 14.2 C10.9 14.9 9.5 15.1 8.1 15.3 L8.1 15.3"/> <path fill="none" stroke="black" stroke-width="0.3" stroke-opacity="1.0" filling="0" d="M15.7 16.7 L15.7 16.7 C17.4 15.8 18.6 16.7 20.0 17.8 L20.0 17.8 C21.0 18.3 21.9 19.2 21.0 20.0 L21.0 20.0 C19.3 19.9 18.2 18.7 16.7 17.9 C15.3 17.2 14.1 17.7 12.4 16.9 C11.9 16.7 11.7 16.2 11.4 15.8 L11.4 15.8"/> <path fill="none" stroke="black" stroke-width="0.3" stroke-opacity="1.0" filling="0" d="M12.4 15.8 L12.4 15.8 C12.1 15.3 11.5 14.9 11.2 14.4 C9.6 13.3 8.6 14.3 8.0 12.4 L8.0 12.4"/> <path fill="none" stroke="black" stroke-width="0.3" stroke-opacity="1.0" filling="0" d="M15.7 12.3 L15.7 12.3 C15.4 13.5 14.1 14.3 13.0 15.2 L13.0 15.2"/></svg>