<svg xmlns="http://www.w3.org/2000/svg" viewBox="0.0 0.0 24.0 24.0" height="200px" width="200px"><path fill="none" stroke="black" stroke-width="0.3" stroke-opacity="1.0" filling="0" d="M12.5 3.3 L12.5 3.3 C13.9 3.6 14.4 3.5 15.4 4.8 C16.9 6.8 16.8 9.1 15.7 11.0 C14.6 12.9 12.8 14.3 11.0 14.4 C9.2 14.6 7.6 13.8 6.8 12.2 C5.9 10.6 5.9 8.4 6.9 6.6 C8.1 4.4 10.3 3.7 12.5 3.3 L12.5 3.3"/> <path fill="none" stroke="black" stroke-width="0.3" stroke-opacity="1.0" filling="0" d="M12.5 4.2 L12.5 4.2 C13.9 4.4 14.4 4.5 15.4 5.4 C16.0 5.8 16.5 6.5 16.6 7.2 C16.8 8.1 16.4 8.8 15.8 9.4 C14.5 10.7 12.9 11.5 11.5 11.5 C10.0 11.5 8.5 10.7 7.2 9.4 C6.6 8.8 6.2 8.1 6.4 7.2 C6.6 6.5 7.1 5.8 7.7 5.4 C8.6 4.5 9.9 4.4 11.3 4.2 L11.3 4.2 C11.8 4.6 12.2 4.9 12.5 4.2 L12.5 4.2"/></svg>