<svg xmlns="http://www.w3.org/2000/svg" viewBox="0.0 0.0 24.0 24.0" height="200px" width="200px"><path fill="none" stroke="black" stroke-width="0.3" stroke-opacity="1.0" filling="0" d="M9.6 4.7 L9.6 5.2 L10.2 5.2 L10.2 5.8 L10.7 5.8 L10.2 5.8 L10.2 6.2 L10.7 6.7 L10.2 6.7 L10.2 7.2 L10.2 6.7 L9.6 6.7 L9.6 7.2 L9.6 6.7 L8.9 6.7 L8.9 7.2 L8.5 6.7 L8.1 6.7 L8.1 6.2 L8.5 6.2 L8.1 6.2 L8.1 5.8 L8.5 5.8 L8.5 5.2 L9.1 5.2 L9.6 4.7"/> <path fill="none" stroke="black" stroke-width="0.3" stroke-opacity="1.0" filling="0" d="M12.5 4.7 L12.5 5.2 L12.5 4.7"/> <path fill="none" stroke="black" stroke-width="0.3" stroke-opacity="1.0" filling="0" d="M13.3 4.7 L13.3 5.2 L13.3 4.7"/> <path fill="none" stroke="black" stroke-width="0.3" stroke-opacity="1.0" filling="0" d="M13.9 4.7 L13.9 5.2 L13.9 4.7"/> <path fill="none" stroke="black" stroke-width="0.3" stroke-opacity="1.0" filling="0" d="M14.5 4.7 L14.5 5.2 L14.5 4.7"/> <path fill="none" stroke="black" stroke-width="0.3" stroke-opacity="1.0" filling="0" d="M15.3 4.7 L15.3 4.7 C15.8 4.9 16.3 5.3 16.6 5.8 L16.6 6.7 L14.5 6.7 L13.0 5.4 L13.0 4.7 L13.0 4.7 L13.0 4.2 L13.0 4.7 L13.0 4.2 L13.9 4.2 L13.9 4.7 L14.5 4.7 L15.3 4.7"/> <path fill="none" stroke="black" stroke-width="0.3" stroke-opacity="1.0" filling="0" d="M10.3 5.6 L11.1 6.2 L10.3 6.2 L10.3 5.6"/> <path fill="none" stroke="black" stroke-width="0.3" stroke-opacity="1.0" filling="0" d="M12.5 5.6 L13.3 6.2 L12.5 6.2 L12.5 5.6"/> <path fill="none" stroke="black" stroke-width="0.3" stroke-opacity="1.0" filling="0" d="M15.7 5.6 L15.7 6.2 L14.9 6.2 L14.9 5.6"/> <path fill="none" stroke="black" stroke-width="0.3" stroke-opacity="1.0" filling="0" d="M6.0 7.2 L6.6 7.2 L6.6 7.8 L6.0 7.8"/> <path fill="none" stroke="black" stroke-width="0.3" stroke-opacity="1.0" filling="0" d="M6.6 7.2 L6.6 8.4 L6.3 7.2 L6.6 7.2"/> <path fill="none" stroke="black" stroke-width="0.3" stroke-opacity="1.0" filling="0" d="M6.9 7.2 L6.9 7.8 L6.6 7.8 L6.6 7.2"/> <path fill="none" stroke="black" stroke-width="0.3" stroke-opacity="1.0" filling="0" d="M7.5 7.2 L7.5 7.8 L7.1 7.8 L7.1 7.2"/> <path fill="none" stroke="black" stroke-width="0.3" stroke-opacity="1.0" filling="0" d="M8.1 7.2 L8.1 7.8 L7.7 7.8 L7.7 7.2"/> <path fill="none" stroke="black" stroke-width="0.3" stroke-opacity="1.0" filling="0" d="M8.7 7.2 L8.7 7.8 L8.3 7.8 L8.3 7.2"/> <path fill="none" stroke="black" stroke-width="0.3" stroke-opacity="1.0" filling="0" d="M9.3 7.2 L9.3 7.8 L9.0 7.8 L9.0 7.2"/> <path fill="none" stroke="black" stroke-width="0.3" stroke-opacity="1.0" filling="0" d="M14.2 8.5 L14.2 8.5 C15.3 8.6 16.7 8.4 17.6 8.9 C18.3 9.3 18.9 10.0 19.3 10.8 L15.3 10.8 L10.3 10.8 C10.8 10.0 11.4 9.3 12.2 8.9 L12.2 8.9 C12.9 8.8 13.5 8.6 14.2 8.5 L14.2 8.5"/> <path fill="none" stroke="black" stroke-width="0.3" stroke-opacity="1.0" filling="0" d="M9.3 8.9 L9.3 8.9 C10.3 9.2 11.4 9.6 12.5 9.6 C13.2 9.6 14.2 9.2 14.7 8.9 L14.7 8.9 C16.0 9.2 16.8 10.5 17.2 11.8 C17.7 13.1 17.8 14.6 18.1 16.0 L13.7 16.0 L9.3 16.0 C9.5 14.7 9.7 13.5 9.9 12.3 L9.9 12.3 C9.1 13.5 9.5 15.1 9.9 16.0 L5.6 16.0 C5.8 14.6 5.8 13.1 6.3 11.8 C6.6 10.5 7.5 9.2 9.3 8.9 L9.3 8.9"/> <path fill="none" stroke="black" stroke-width="0.3" stroke-opacity="1.0" filling="0" d="M6.3 16.0 L9.3 16.0 L9.3 16.7 L6.3 16.7"/></svg>