<svg xmlns="http://www.w3.org/2000/svg" viewBox="0.0 0.0 24.0 24.0" height="200px" width="200px"><path fill="none" stroke="black" stroke-width="0.3" stroke-opacity="1.0" filling="0" d="M10.6 4.2 L10.6 4.2 C11.1 4.4 11.5 4.6 12.0 4.9 L12.0 4.9 C13.3 3.5 15.6 3.5 15.6 5.8 C15.6 7.3 13.3 7.4 12.0 7.4 L12.0 7.4 C11.4 7.1 10.8 6.6 10.4 6.0 L10.4 6.0 C10.0 6.6 9.4 7.1 9.0 7.4 L9.0 7.4 C7.7 7.4 4.4 7.6 5.8 5.2 C6.0 4.7 6.5 4.6 6.9 4.3 L6.9 4.3 C8.5 3.5 9.1 3.5 10.6 4.2 L10.6 4.2"/> <path fill="none" stroke="black" stroke-width="0.3" stroke-opacity="1.0" filling="0" d="M10.6 4.2 L10.6 4.2 C10.9 4.4 11.3 4.6 11.7 4.9 L11.7 4.9 C13.3 3.5 15.6 3.5 15.6 5.8 C15.6 7.3 13.3 7.4 12.0 7.4 L12.0 7.4 C11.4 7.1 10.8 6.6 10.4 6.0 L10.4 6.0 C10.0 6.6 9.4 7.1 8.9 7.4 L8.9 7.4 C7.7 7.4 4.4 7.6 6.0 5.2 C6.2 4.7 6.5 4.6 6.9 4.4 L6.9 4.4 C8.5 3.5 9.1 3.5 10.6 4.2 L10.6 4.2"/> <path fill="none" stroke="black" stroke-width="0.3" stroke-opacity="1.0" filling="0" d="M10.6 4.2 L10.6 4.2 C11.2 4.4 11.8 4.4 12.3 4.7 C13.8 5.6 13.8 7.0 13.1 8.3 C12.6 9.5 11.5 10.8 10.4 10.8 C9.3 10.8 8.2 9.4 7.6 8.3 C6.9 7.0 6.9 5.6 8.4 4.7 C8.9 4.4 9.6 4.4 10.1 4.2 L10.1 4.2"/> <path fill="none" stroke="black" stroke-width="0.3" stroke-opacity="1.0" filling="0" d="M10.6 4.2 L10.6 4.2 C11.0 4.4 11.5 4.4 11.8 4.7 C12.3 5.1 12.3 5.7 12.7 6.1 L12.7 6.1 C13.2 6.5 13.6 6.8 14.1 7.1 L14.1 7.1 C11.5 6.1 10.0 6.0 7.4 7.1 L7.4 7.1 C7.8 6.8 8.2 6.5 8.6 6.1 L8.6 6.1 C9.0 5.7 9.4 5.1 9.9 4.7 L9.9 4.7 C10.1 4.4 10.3 4.4 10.6 4.2 L10.6 4.2"/> <path fill="none" stroke="black" stroke-width="0.3" stroke-opacity="1.0" filling="0" d="M10.6 4.2 L10.6 4.2 C11.0 4.4 11.4 4.4 11.8 4.7 C13.3 5.6 13.4 7.0 13.0 8.3 C12.7 9.5 11.5 10.8 10.4 10.8 C9.1 10.8 7.8 9.5 7.4 8.3 C6.9 7.0 6.9 5.6 8.5 4.7 C8.9 4.4 9.3 4.4 9.7 4.2 L10.6 4.2"/> <path fill="none" stroke="black" stroke-width="0.3" stroke-opacity="1.0" filling="0" d="M10.6 4.2 L10.6 4.2 C11.1 4.4 11.5 4.4 11.9 4.7 C13.3 5.6 13.3 7.1 12.8 8.3 C12.3 9.5 11.1 10.8 10.4 10.8 C9.7 10.8 8.6 9.5 8.2 8.3 C7.7 7.0 7.8 5.6 9.3 4.7 C9.7 4.4 10.2 4.4 10.6 4.2 L10.6 4.2"/> <path fill="none" stroke="black" stroke-width="0.3" stroke-opacity="1.0" filling="0" d="M10.6 4.2 L10.6 4.2 C10.9 4.4 11.4 4.4 11.7 4.7 C13.4 5.6 13.4 7.1 12.8 8.3 C12.3 9.5 11.2 10.8 10.4 10.8 C9.7 10.8 8.6 9.5 8.2 8.3 C7.7 7.1 7.8 5.6 9.4 4.7 C9.7 4.4 10.2 4.4 10.6 4.2 L10.6 4.2"/> <path fill="none" stroke="black" stroke-width="0.3" stroke-opacity="1.0" filling="0" d="M10.6 4.2 L10.6 4.2 C11.1 4.4 11.5 4.4 11.9 4.7 C13.3 5.6 13.4 7.1 12.9 8.3 C12.3 9.5 11.1 10.8 10.4 10.8 C9.7 10.8 8.6 9.6 8.2 8.3 C7.7 7.1 7.8 5.6 9.3 4.7 C9.7 4.4 10.1 4.4 10.6 4.2 L10.6 4.2"/> <path fill="none" stroke="black" stroke-width="0.3" stroke-opacity="1.0" filling="0" d="M9.2 7.6 L9.2 7.6 C9.6 7.9 10.2 7.9 10.5 8.3 C11.2 9.2 10.9 10.5 9.2 10.5 C7.6 10.5 7.3 9.2 8.0 8.3 C8.3 7.9 8.8 7.9 9.2 7.6 L9.2 7.6"/> <path fill="none" stroke="black" stroke-width="0.3" stroke-opacity="1.0" filling="0" d="M13.9 7.6 L13.9 7.6 C14.4 7.9 14.8 8.3 15.1 8.8 L14.0 9.9 C12.4 10.0 13.8 8.3 13.9 7.6 L13.9 7.6"/> <path fill="none" stroke="black" stroke-width="0.3" stroke-opacity="1.0" filling="0" d="M16.6 8.0 L16.6 8.0 C16.6 9.0 16.6 9.0 16.6 8.0 L16.6 8.0"/> <path fill="none" stroke="black" stroke-width="0.3" stroke-opacity="1.0" filling="0" d="M11.4 8.0 L11.4 8.0 C11.6 8.3 11.9 8.6 12.1 8.9 L12.1 9.3 C12.1 9.4 12.2 9.4 12.1 9.5 L12.1 9.5 C11.7 9.4 11.3 9.4 10.9 9.4 L10.9 9.4 C10.8 9.8 10.3 10.0 10.4 9.6 C10.5 9.1 11.1 9.1 11.5 9.0 L11.5 8.9 C11.4 8.7 11.3 8.6 11.2 8.5 L11.2 8.5 C11.3 8.4 11.4 8.2 11.4 8.0 L11.4 8.0"/> <path fill="none" stroke="black" stroke-width="0.3" stroke-opacity="1.0" filling="0" d="M16.6 8.0 L16.6 8.0 C16.6 9.0 16.6 9.0 16.6 8.0 L16.6 8.0"/> <path fill="none" stroke="black" stroke-width="0.3" stroke-opacity="1.0" filling="0" d="M12.1 9.5 L12.1 9.5 C12.1 10.5 12.1 10.5 12.1 9.5 L12.1 9.5"/> <path fill="none" stroke="black" stroke-width="0.3" stroke-opacity="1.0" filling="0" d="M16.6 10.0 L16.6 10.0 C16.6 10.9 16.6 10.9 16.6 10.0 L16.6 10.0"/> <path fill="none" stroke="black" stroke-width="0.3" stroke-opacity="1.0" filling="0" d="M10.1 10.4 L10.1 10.4 C10.1 11.4 10.1 11.4 10.1 10.4 L10.1 10.4"/> <path fill="none" stroke="black" stroke-width="0.3" stroke-opacity="1.0" filling="0" d="M13.9 10.4 L13.9 10.4 C13.9 11.4 13.9 11.4 13.9 10.4 L13.9 10.4"/> <path fill="none" stroke="black" stroke-width="0.3" stroke-opacity="1.0" filling="0" d="M16.6 11.7 L16.6 11.7 C16.6 12.8 16.6 12.8 16.6 11.7 L16.6 11.7"/> <path fill="none" stroke="black" stroke-width="0.3" stroke-opacity="1.0" filling="0" d="M10.1 11.7 L10.1 11.7 C10.1 12.7 10.1 12.7 10.1 11.7 L10.1 11.7"/> <path fill="none" stroke="black" stroke-width="0.3" stroke-opacity="1.0" filling="0" d="M12.3 12.4 L12.3 12.4 C12.3 13.4 12.3 13.4 12.3 12.4 L12.3 12.4"/> <path fill="none" stroke="black" stroke-width="0.3" stroke-opacity="1.0" filling="0" d="M16.6 13.0 L16.6 13.0 C16.6 14.0 16.6 14.0 16.6 13.0 L16.6 13.0"/> <path fill="none" stroke="black" stroke-width="0.3" stroke-opacity="1.0" filling="0" d="M11.9 14.5 L11.9 14.5 C11.9 15.5 11.9 15.5 11.9 14.5 L11.9 14.5"/> <path fill="none" stroke="black" stroke-width="0.3" stroke-opacity="1.0" filling="0" d="M14.0 15.0 L14.0 15.0 C14.0 15.9 14.0 15.9 14.0 15.0 L14.0 15.0"/> <path fill="none" stroke="black" stroke-width="0.3" stroke-opacity="1.0" filling="0" d="M16.1 15.5 L16.1 15.5 C16.1 16.4 16.1 16.4 16.1 15.5 L16.1 15.5"/> <path fill="none" stroke="black" stroke-width="0.3" stroke-opacity="1.0" filling="0" d="M13.6 15.7 L13.6 15.7 C13.6 16.6 13.6 16.6 13.6 15.7 L13.6 15.7"/> <path fill="none" stroke="black" stroke-width="0.3" stroke-opacity="1.0" filling="0" d="M15.8 16.1 L15.8 16.1 C15.8 16.9 15.8 16.9 15.8 16.1 L15.8 16.1"/> <path fill="none" stroke="black" stroke-width="0.3" stroke-opacity="1.0" filling="0" d="M12.3 16.4 L12.3 16.4 C12.3 17.3 12.3 17.3 12.3 16.4 L12.3 16.4"/> <path fill="none" stroke="black" stroke-width="0.3" stroke-opacity="1.0" filling="0" d="M15.1 16.8 L15.1 16.8 C15.1 17.7 15.1 17.7 15.1 16.8 L15.1 16.8"/> <path fill="none" stroke="black" stroke-width="0.3" stroke-opacity="1.0" filling="0" d="M13.1 17.2 L13.1 17.2 C13.1 18.1 13.1 18.1 13.1 17.2 L13.1 17.2"/> <path fill="none" stroke="black" stroke-width="0.3" stroke-opacity="1.0" filling="0" d="M15.8 17.6 L15.8 17.6 C15.8 18.5 15.8 18.5 15.8 17.6 L15.8 17.6"/></svg>