<svg xmlns="http://www.w3.org/2000/svg" viewBox="0.0 0.0 24.0 24.0" height="200px" width="200px"><path fill="none" stroke="black" stroke-width="0.3" stroke-opacity="1.0" filling="0" d="M10.5 3.5 L10.5 3.5 C11.9 3.9 13.3 4.5 14.3 5.4 C15.2 6.3 16.1 7.4 16.7 9.0 C17.4 10.6 17.5 12.3 17.9 13.6 L13.7 13.6 L9.5 8.8 L4.3 3.1 C5.8 2.5 7.6 2.5 9.0 3.5 L10.5 3.5"/> <path fill="none" stroke="black" stroke-width="0.3" stroke-opacity="1.0" filling="0" d="M10.5 4.9 L11.2 4.9 L11.2 11.3 L12.5 13.6 L9.7 13.6 L9.7 17.5 L10.5 17.5 L10.5 18.1 L9.1 18.1 L9.1 17.5 L10.5 15.6 L10.5 11.8 L10.5 6.1 L9.2 6.1 L9.2 11.5 L10.5 11.5 L10.5 15.6 L9.1 15.6 L9.1 9.9 L9.1 5.2 L10.5 5.2 L10.5 4.9"/></svg>