<svg xmlns="http://www.w3.org/2000/svg" viewBox="0.0 0.0 24.0 24.0" height="200px" width="200px"><path fill="none" stroke="black" stroke-width="0.3" stroke-opacity="1.0" filling="0" d="M11.3 5.2 L11.3 5.2 C13.4 5.6 15.1 6.2 16.3 7.4 C17.5 8.5 18.3 10.1 18.5 12.0 L18.5 12.0 C17.5 12.0 16.5 12.0 15.5 12.0 L15.5 12.0 C15.5 11.7 15.3 11.5 15.0 11.2 L15.0 11.2 C15.0 11.0 14.9 10.7 14.8 10.5 L14.8 10.5 C14.1 10.5 13.8 9.1 13.2 9.2 C12.7 9.3 13.1 10.4 12.7 10.8 C11.0 12.6 9.8 11.1 8.7 12.8 C8.4 13.5 8.5 14.3 8.4 15.1 L8.4 15.1 C8.4 17.8 8.4 19.2 9.3 21.9 L9.3 21.9 C7.0 20.9 6.5 19.8 5.7 18.0 L5.7 18.0 C5.6 16.1 5.6 13.8 5.7 11.7 C5.8 9.6 6.3 7.6 7.7 6.4 C8.9 5.5 10.3 5.3 11.3 5.2 L11.3 5.2"/> <path fill="none" stroke="black" stroke-width="0.3" stroke-opacity="1.0" filling="0" d="M11.3 5.2 L11.3 5.2 C13.4 5.5 15.1 6.2 16.3 8.0 C17.5 9.7 18.2 11.7 18.5 13.8 L18.5 13.8 C17.6 13.8 16.6 13.8 15.5 13.8 L15.5 13.8 C15.5 13.5 15.5 13.0 15.0 12.8 C14.1 12.6 13.7 13.1 13.2 13.4 L13.2 13.4 C12.9 13.6 12.9 14.3 12.7 14.4 C11.4 15.2 9.8 14.1 9.0 13.4 L9.0 13.4 C8.7 13.1 8.6 12.6 8.5 12.8 C8.0 13.1 7.7 13.6 7.4 14.0 L7.4 14.0 C6.3 14.0 5.5 14.0 4.6 14.1 L4.6 14.1 C4.8 11.7 5.5 9.7 6.9 8.0 C8.0 6.2 9.7 5.5 11.3 5.2 L11.3 5.2"/> <path fill="none" stroke="black" stroke-width="0.3" stroke-opacity="1.0" filling="0" d="M11.3 6.1 L11.3 6.1 C13.3 6.6 14.4 7.3 15.5 9.1 L15.5 9.1 C14.9 9.3 14.3 9.3 13.6 9.5 L13.5 9.5 C13.3 9.6 13.2 9.8 13.0 9.9 L13.0 9.9 C12.3 9.5 13.0 8.0 12.6 7.6 C12.1 7.3 11.7 8.2 11.2 8.5 C10.8 8.7 10.1 7.3 9.5 7.6 C9.3 7.7 9.2 8.3 9.0 8.5 C8.7 8.7 8.4 8.8 8.1 9.0 L8.0 9.0 C6.4 9.7 6.0 9.2 5.5 8.1 L5.5 8.1 C6.6 6.9 8.1 6.4 9.5 5.9 L9.5 5.9 C10.3 5.5 11.3 5.3 11.3 6.1 L11.3 6.1"/> <path fill="none" stroke="black" stroke-width="0.3" stroke-opacity="1.0" filling="0" d="M11.3 6.2 L11.3 6.2 C13.4 6.6 14.5 7.4 15.5 9.1 L15.5 9.1 C13.9 10.5 13.1 11.1 12.6 13.0 L12.6 13.0 C11.7 11.9 12.0 11.6 12.5 10.1 C13.3 8.5 12.6 7.6 11.1 6.9 L11.1 6.9 C9.8 7.3 9.3 8.0 8.9 9.4 L8.9 9.5 C8.4 9.5 8.0 9.9 7.6 10.3 L7.6 10.3 C6.4 10.8 5.7 11.7 5.2 12.8 L5.2 12.8 C5.1 11.4 5.1 10.1 4.9 8.7 L4.9 8.7 C5.8 7.4 7.0 6.8 8.5 6.4 L8.5 6.4 C9.5 6.1 10.4 6.1 11.3 6.2 L11.3 6.2"/> <path fill="none" stroke="black" stroke-width="0.3" stroke-opacity="1.0" filling="0" d="M8.0 6.9 L8.0 6.9 C8.8 6.6 9.6 6.6 10.4 6.6 L10.4 6.6 C10.5 6.6 10.6 6.6 10.7 6.6 L10.7 6.6 C12.5 8.5 8.8 12.0 7.3 13.4 L7.3 13.4 C5.8 12.1 3.1 8.7 5.0 6.9 C5.6 6.5 6.4 6.8 6.9 6.9 L6.9 6.9 C7.3 6.9 7.6 6.9 8.0 6.9 L8.0 6.9"/> <path fill="none" stroke="black" stroke-width="0.3" stroke-opacity="1.0" filling="0" d="M8.0 7.1 L8.0 7.1 C8.7 7.1 9.4 7.1 10.0 7.1 L10.0 7.1 C11.9 8.3 8.8 11.7 7.4 12.4 L7.4 12.4 C6.3 11.4 3.4 9.3 5.2 7.5 L5.2 7.5 C5.9 7.5 6.6 7.3 8.0 7.1 L8.0 7.1"/> <path fill="none" stroke="black" stroke-width="0.3" stroke-opacity="1.0" filling="0" d="M8.0 7.2 L8.0 7.2 C8.7 7.4 9.5 7.4 10.0 7.2 L10.0 7.2 C11.6 8.0 8.7 11.6 7.5 12.3 L7.5 12.3 C6.5 11.5 3.3 8.0 5.3 7.5 L5.3 7.5 C5.9 7.6 6.6 7.8 7.2 7.2 L7.2 7.2 C7.5 7.2 7.8 7.2 8.0 7.2 L8.0 7.2"/> <path fill="none" stroke="black" stroke-width="0.3" stroke-opacity="1.0" filling="0" d="M8.0 7.4 L8.0 7.4 C8.6 7.6 9.4 7.7 9.9 7.4 L10.0 7.4 C11.3 8.2 8.1 11.7 7.5 12.1 L7.5 12.1 C6.5 11.2 5.6 10.3 4.6 9.0 L4.7 8.7 C5.4 8.4 6.0 8.1 6.4 7.4 L6.5 7.4 C6.9 7.6 7.4 7.6 8.0 7.4 L8.0 7.4"/> <path fill="none" stroke="black" stroke-width="0.3" stroke-opacity="1.0" filling="0" d="M9.6 7.4 L9.6 7.4 C9.9 7.6 10.4 7.7 10.7 7.4 L11.1 7.4 C11.6 7.6 12.2 7.8 12.7 7.4 L12.7 7.4 C13.2 7.8 13.8 8.3 14.4 8.7 L14.4 8.7 C15.2 8.5 15.2 8.2 15.3 7.4 L15.3 7.4 C16.6 8.1 17.5 9.3 17.8 10.6 C18.1 12.0 17.7 13.8 16.0 14.6 C14.5 15.5 12.8 15.2 11.1 14.6 L10.7 14.6 C9.2 14.4 7.7 14.4 6.4 13.8 C4.9 12.9 4.2 11.2 4.4 9.8 C4.6 8.3 5.9 7.8 7.2 7.4 L7.2 7.4 C7.7 7.8 8.3 7.6 9.0 7.4 L9.6 7.4"/> <path fill="none" stroke="black" stroke-width="0.3" stroke-opacity="1.0" filling="0" d="M9.6 7.8 L9.6 7.8 C9.8 7.9 10.1 7.8 10.3 7.8 L10.6 7.8 C11.0 8.1 11.5 8.4 11.8 8.9 C12.9 11.9 11.1 8.4 10.6 8.1 L9.6 8.1 C9.2 8.3 8.6 8.3 8.2 8.5 L7.2 8.5 C7.7 7.7 9.1 7.8 9.6 7.8 L9.6 7.8"/> <path fill="none" stroke="black" stroke-width="0.3" stroke-opacity="1.0" filling="0" d="M7.4 11.3 L7.4 11.3 C8.3 12.0 8.4 13.3 8.8 14.3 C9.4 15.3 10.3 16.7 11.2 15.4 C11.5 15.0 11.8 14.5 12.2 14.1 L12.2 14.1 C11.9 14.8 11.2 15.8 10.8 16.6 L10.8 16.6 C9.1 16.6 7.9 15.6 7.4 14.0 C7.1 12.8 7.6 11.8 7.4 11.3 L7.4 11.3"/> <path fill="none" stroke="black" stroke-width="0.3" stroke-opacity="1.0" filling="0" d="M7.6 15.0 L7.6 15.0 C8.3 15.1 8.9 15.3 9.7 15.4 L9.7 15.4 C10.1 15.6 10.7 15.8 11.1 16.0 L11.1 16.0 C11.7 15.8 12.4 15.5 13.0 15.2 L13.0 15.2 C13.6 15.5 14.2 15.7 14.8 15.5 L14.8 15.5 C15.1 15.8 15.6 15.9 16.0 16.0 L16.0 16.0 C16.5 16.5 17.4 16.6 17.6 17.7 C18.0 18.9 17.1 19.5 16.0 19.6 C14.8 19.6 13.7 18.8 13.0 18.1 L13.0 18.1 C12.4 18.8 11.4 19.6 10.3 19.6 C9.2 19.6 8.0 18.8 7.3 18.1 L7.3 18.1 C6.0 18.1 3.5 18.4 4.3 17.1 C4.4 16.5 5.4 16.0 5.8 15.7 L5.8 15.7 C6.4 15.4 6.9 15.2 7.6 15.0 L7.6 15.0"/> <path fill="none" stroke="black" stroke-width="0.3" stroke-opacity="1.0" filling="0" d="M13.4 15.6 L13.4 15.6 C13.3 15.7 13.3 15.7 13.3 15.8 L12.2 15.8 C12.3 15.8 12.3 15.8 12.3 15.7 L13.3 15.7 L13.3 15.0 C13.3 15.0 13.3 15.0 13.4 15.0 L13.4 15.0"/></svg>