<svg xmlns="http://www.w3.org/2000/svg" viewBox="0 0 24 24"><path d="M4 4 L20 4 L20 20.1 9.5 L18.2 9.5 L18.2 13.3 C17.2 14.8 16.2 15.5 15.1 16.3 C13.8 16.8 12.5 17.3 11.0 17.6 L11.0 17.6"/> <path fill="none" stroke="black" stroke-width="0.3" stroke-opacity="1.0" filling="0" d="M8.1 11.3 L9.2 11.3 L9.2 12.8 L8.1 12.8"/> <path fill="none" stroke="black" stroke-width="0.3" stroke-opacity="1.0" filling="0" d="M10.0 11.3 L10.0 11.3 C10.4 11.6 10.9 11.9 10.9 12.3 C10.9 12.7 10.4 12.5 10.0 12.3 C9.7 11.9 10.0 11.6 10.0 11.3 L10.0 11.3"/> <path fill="none" stroke="black" stroke-width="0.3" stroke-opacity="1.0" filling="0" d="M13.8 11.3 L13.8 11.3 C14.1 11.2 14.9 11.2 14.9 11.6 C14.9 12.5 14.1 12.7 13.8 12.3 C13.5 12.0 13.8 11.5 13.8 11.3 L13.8 11.3"/> <path fill="none" stroke="black" stroke-width="0.3" stroke-opacity="1.0" filling="0" d="M16.1 11.3 L16.1 11.3 C16.5 11.6 17.1 11.9 16.8 12.3 C16.5 12.7 15.9 12.9 15.5 12.7 C15.1 12.1 15.8 11.4 16.1 11.3 L16.1 11.3"/> <path fill="none" stroke="black" stroke-width="0.3" stroke-opacity="1.0" filling="0" d="M15.7 12.7 L15.7 12.7 C16.2 13.1 16.7 13.5 16.4 14.4 C16.1 14.8 15.6 14.7 15.2 14.4 C14.9 14.0 15.4 13.2 15.7 12.7 L15.7 12.7"/> <path fill="none" stroke="black" stroke-width="0.3" stroke-opacity="1.0" filling="0" d="M19.2 16.0 L19.2 14.4 C19.2 14.2 19.1 14.0 19.2 13.8 L19.2 12.8 C19.1 12.6 18.9 12.4 18.9 12.3 C18.9 12.3 19.0 12.6 18.9 12.8 L18.9 14.0 L19.3 12.3 C19.4 12.2 19.5 12.0 19.7 11.8 L19.7 11.8 C19.6 11.7 19.4 11.6 19.2 11.6 L19.2 10.1 C19.3 10.0 19.4 10.0 19.5 10.0 L18.8 10.3 C18.6 10.0 18.5 9.9 18.3 9.9 L18.3 9.9 C18.1 10.0 17.9 10.0 18.1 10.1 L16.7 11.6 C16.7 11.5 16.7 11.3 16.7 11.2 L17.6 10.9 L19.2 10.9 C19.2 11.1 19.3 11.3 19.4 11.4 L19.4 11.4 C19.3 11.6 19.2 11.7 19.2 11.8 L18.9 12.3 C18.7 12.3 18.6 12.6 18.5 12.8 L18.2 14.7 L19.2 15.0"/> <path fill="none" stroke="black" stroke-width="0.3" stroke-opacity="1.0" filling="0" d="M16.1 16.4 L16.1 16.4 C16.7 16.6 17.3 16.9 17.6 17.4 L17.6 18.2 L13.8 18.2 L13.8 17.4 C14.3 16.9 14.9 16.6 16.1 16.4 L16.1 16.4"/> <path fill="none" stroke="black" stroke-width="0.3" stroke-opacity="1.0" filling="0" d="M16.1 17.1 L16.1 17.1 C16.2 17.2 16.4 17.4 16.6 17.6 L16.6 18.5 L11.1 18.5 L5.9 18.5 L5.9 17.6 C6.1 17.4 6.4 17.2 6.5 17.1 L13.1 17.1 L16.1 17.1"/></svg>