<svg xmlns="http://www.w3.org/2000/svg" viewBox="0 0 24 24"><path d="M4 4 L20 4 L20 20.1 4.8 C20.7 5.0 21.2 5.3 21.5 5.7 L21.5 8.9 L17.8 14.0 L11.3 14.0 L4.6 14.0 L4.6 8.9 L4.6 5.7 C5.0 5.3 4.6 4.9 4.9 4.8 L4.9 7.7"/> <path fill="none" stroke="black" stroke-width="0.3" stroke-opacity="1.0" filling="0" d="M6.8 9.0 L11.9 9.0 L16.8 9.0 L16.8 16.0 L11.9 17.2 L7.8 18.8 L5.2 16.0 L5.2 12.5 L5.2 9.0 C5.6 8.5 5.9 8.0 6.8 7.6 L6.8 7.6"/> <path fill="none" stroke="black" stroke-width="0.3" stroke-opacity="1.0" filling="0" d="M6.8 10.6 L11.9 10.6 L17.8 10.6 L17.8 13.0 L11.9 13.0 L6.8 13.0 L6.8 10.6"/> <path fill="none" stroke="black" stroke-width="0.3" stroke-opacity="1.0" filling="0" d="M6.1 11.9 L11.9 11.9 L17.6 11.9 L17.6 13.4 L11.9 13.4 L6.1 13.4"/> <path fill="none" stroke="black" stroke-width="0.3" stroke-opacity="1.0" filling="0" d="M6.8 14.4 L11.9 14.4 L16.8 14.4 L16.8 16.0 L11.9 16.0 L6.8 16.0 L6.8 14.4"/> <path fill="none" stroke="black" stroke-width="0.3" stroke-opacity="1.0" filling="0" d="M6.8 14.6 L11.9 14.6 L16.8 14.6 L16.8 16.0 L11.9 16.0 L6.8 16.0"/> <path fill="none" stroke="black" stroke-width="0.3" stroke-opacity="1.0" filling="0" d="M6.8 15.6 L11.9 15.6 L16.8 15.6 L16.8 16.6 L11.9 16.6 L6.8 16.6"/> <path fill="none" stroke="black" stroke-width="0.3" stroke-opacity="1.0" filling="0" d="M11.9 16.0 L11.9 16.0 C11.9 16.2 11.9 16.3 11.9 16.5 L11.9 16.5 C11.9 16.3 11.9 16.1 11.9 16.0 L11.9 16.0"/> <path fill="none" stroke="black" stroke-width="0.3" stroke-opacity="1.0" filling="0" d="M11.9 17.7 L11.9 17.7 C11.9 18.1 11.9 18.1 11.9 17.7 L11.9 17.7"/> <path fill="none" stroke="black" stroke-width="0.3" stroke-opacity="1.0" filling="0" d="M12.7 18.1 L12.7 18.1 C12.8 18.6 12.8 18.6 12.7 18.1 L12.7 18.1"/> <path fill="none" stroke="black" stroke-width="0.3" stroke-opacity="1.0" filling="0" d="M12.7 18.3 L12.7 18.3 C12.7 18.7 12.7 18.7 12.7 18.3 L12.7 18.3"/> <path fill="none" stroke="black" stroke-width="0.3" stroke-opacity="1.0" filling="0" d="M13.5 18.3 L13.5 18.3 C13.5 18.7 13.5 18.7 13.5 18.3 L13.5 18.3"/> <path fill="none" stroke="black" stroke-width="0.3" stroke-opacity="1.0" filling="0" d="M14.4 18.3 L14.4 18.3 C14.4 18.7 14.4 18.7 14.4 18.3 L14.4 18.3"/> <path fill="none" stroke="black" stroke-width="0.3" stroke-opacity="1.0" filling="0" d="M15.3 18.3 L15.3 18.3 C15.3 18.7 15.3 18.7 15.3 18.3 L15.3 18.3"/> <path fill="none" stroke="black" stroke-width="0.3" stroke-opacity="1.0" filling="0" d="M16.1 18.3 L16.1 18.3 C16.1 18.7 16.1 18.7 16.1 18.3 L16.1 18.3"/> <path fill="none" stroke="black" stroke-width="0.3" stroke-opacity="1.0" filling="0" d="M17.0 18.3 L17.0 18.3 C17.0 18.7 17.0 18.7 17.0 18.3 L17.0 18.3"/> <path fill="none" stroke="black" stroke-width="0.3" stroke-opacity="1.0" filling="0" d="M17.9 18.3 L17.9 18.3 C17.9 18.7 17.9 18.7 17.9 18.3 L17.9 18.3"/> <path fill="none" stroke="black" stroke-width="0.3" stroke-opacity="1.0" filling="0" d="M18.7 18.3 L18.7 18.3 C18.7 18.7 18.7 18.7 18.7 18.3 L18.7 18.3"/> <path fill="none" stroke="black" stroke-width="0.3" stroke-opacity="1.0" filling="0" d="M9.2 18.9 L9.2 18.9 C9.2 19.3 9.2 19.3 9.2 18.9 L9.2 18.9"/> <path fill="none" stroke="black" stroke-width="0.3" stroke-opacity="1.0" filling="0" d="M10.0 18.9 L10.0 18.9 C10.0 19.3 10.0 19.3 10.0 18.9 L10.0 18.9"/> <path fill="none" stroke="black" stroke-width="0.3" stroke-opacity="1.0" filling="0" d="M11.2 18.9 L11.2 18.9 C11.2 19.3 11.2 19.3 11.2 18.9 L11.2 18.9"/> <path fill="none" stroke="black" stroke-width="0.3" stroke-opacity="1.0" filling="0" d="M12.3 18.9 L12.3 18.9 C12.3 19.3 12.3 19.3 12.3 18.9 L12.3 18.9"/> <path fill="none" stroke="black" stroke-width="0.3" stroke-opacity="1.0" filling="0" d="M13.5 18.9 L13.5 18.9 C13.5 19.3 13.5 19.3 13.5 18.9 L13.5 18.9"/> <path fill="none" stroke="black" stroke-width="0.3" stroke-opacity="1.0" filling="0" d="M14.7 18.9 L14.7 18.9 C14.7 19.3 14.7 19.3 14.7 18.9 L14.7 18.9"/> <path fill="none" stroke="black" stroke-width="0.3" stroke-opacity="1.0" filling="0" d="M16.4 18.9 L16.4 18.9 C16.4 19.3 16.4 19.3 16.4 18.9 L16.4 18.9"/> <path fill="none" stroke="black" stroke-width="0.3" stroke-opacity="1.0" filling="0" d="M17.9 18.9 L17.9 18.9 C17.9 19.3 17.9 19.3 17.9 18.9 L17.9 18.9"/></svg>