<svg xmlns="http://www.w3.org/2000/svg" viewBox="0 0 24 24"><path d="M4 4 L20 4 L20 20.7 8.0"/> <path fill="none" stroke="black" stroke-width="0.3" stroke-opacity="1.0" filling="0" d="M20.2 5.7 L20.2 5.7 C20.1 5.9 20.0 6.0 19.9 6.1 L17.1 9.1 L16.0 8.8 L15.7 7.4 C16.0 6.4 16.3 5.8 16.8 5.3 L17.5 5.3 L18.2 6.0 C18.6 6.6 18.8 7.2 19.2 7.7 L19.9 9.1 L16.3 5.8 C16.7 5.4 17.0 5.1 17.5 4.7 L18.1 4.5 C18.3 4.8 18.5 5.1 18.7 5.3 L18.5 6.1 L17.2 7.4 C17.0 7.7 16.8 8.0 16.6 8.3 L15.5 9.0 C15.9 8.9 16.2 8.5 16.5 8.2 L16.0 7.7 C16.2 7.2 16.4 6.6 16.6 6.0 L17.2 5.7 C17.8 5.6 18.5 5.4 19.2 5.3 L19.2 5.7"/> <path fill="none" stroke="black" stroke-width="0.3" stroke-opacity="1.0" filling="0" d="M6.0 5.8 L6.0 5.8 C7.4 6.0 8.2 6.6 9.0 7.4 L9.0 8.1 L6.0 6.9 C5.7 6.4 5.9 5.9 6.0 5.8 L6.0 5.8"/> <path fill="none" stroke="black" stroke-width="0.3" stroke-opacity="1.0" filling="0" d="M2.2 6.4 L2.2 6.4 C2.5 6.1 2.7 5.7 3.0 5.4 L10.2 5.4 L16.1 5.4 C16.6 5.6 17.1 6.1 17.5 6.4 L16.7 7.6 C16.5 7.8 16.4 8.0 16.2 8.1 L14.2 8.1 L14.2 9.0 L14.8 9.0 C15.0 9.4 15.3 9.7 15.6 9.9 L15.6 9.9 C15.6 10.2 15.6 10.5 15.6 10.9 L15.6 11.9 C15.4 12.1 15.3 12.3 15.2 12.5 L14.7 11.5 C14.6 11.4 14.4 11.3 14.2 11.2 L14.8 12.5 L14.4 12.5 C14.1 12.4 13.9 12.3 13.7 12.2 L13.7 12.5 L13.7 12.5 C14.0 12.6 14.3 12.8 14.7 12.9 L14.7 14.3 C14.6 14.5 14.3 14.7 14.2 14.8 L14.2 14.8 C14.1 14.6 14.2 14.3 14.3 14.1 L14.1 14.1 C13.7 14.3 13.3 14.4 13.2 14.5 L13.2 14.5 C13.1 16.0 14.3 16.2 14.7 16.8 C15.2 17.5 15.6 18.4 15.9 19.0 L10.2 19.0 L4.0 19.0 C3.7 18.4 3.4 18.0 3.0 17.6 L3.0 17.6 C3.1 17.4 3.4 17.2 3.6 17.0 L2.7 16.4 C2.4 16.0 2.3 15.7 2.0 15.3 L2.0 15.3 C2.0 15.0 2.1 14.5 2.3 14.4 L2.3 13.3 C1.5 12.8 1.3 12.2 1.7 11.5 L1.3 11.5 C1.2 11.2 1.3 10.0 1.3 9.5 L2.5 9.5 C2.8 9.4 2.9 8.9 3.3 8.5 L1.7 7.4 C1.5 7.0 1.5 6.5 2.2 6.4 L2.2 6.4"/> <path fill="none" stroke="black" stroke-width="0.3" stroke-opacity="1.0" filling="0" d="M15.8 6.4 L16.0 6.4 C16.1 6.7 16.1 6.9 16.2 7.2 L13.7 11.4 L17.4 13.5 C17.4 13.6 17.3 13.7 17.3 13.9 L16.7 13.9 C16.6 14.2 16.5 14.6 16.3 14.9 L16.3 14.9 C17.8 15.7 18.5 15.7 19.3 17.0 C20.1 18.2 20.6 19.4 21.1 20.7 L21.1 20.7 C20.5 19.4 19.9 18.4 19.4 17.6 L17.2 14.4 C16.4 14.6 15.6 14.8 14.7 14.9 L13.0 14.9 C12.6 14.6 12.3 14.2 11.9 13.9 L8.6 16.6 C8.4 16.9 7.9 18.2 7.4 18.4 C7.1 18.4 6.9 18.1 6.8 17.7 C6.4 16.2 7.2 15.8 8.0 14.4 L10.3 12.2 C12.1 10.8 13.7 10.2 15.8 10.4 L15.8 6.4"/> <path fill="none" stroke="black" stroke-width="0.3" stroke-opacity="1.0" filling="0" d="M17.3 6.4 L17.3 6.4 C18.5 6.7 19.2 6.8 20.1 7.5 L21.9 10.1 C21.9 10.4 21.9 10.6 22.1 10.8 L22.1 11.9 C20.9 13.6 20.3 14.0 19.2 15.5 L13.0 18.6 C12.6 18.5 12.2 18.5 11.7 18.5 L6.1 18.5 C7.6 17.4 8.3 16.7 9.1 15.8 C10.0 14.2 11.3 13.0 13.3 12.0 C14.3 11.0 15.5 12.0 16.6 12.1 L16.6 12.1 C16.6 12.1 16.6 12.1 16.6 12.1 L16.6 12.1 C17.3 12.0 17.3 12.0 17.3 12.1 L17.3 12.1 C17.6 12.3 17.6 12.5 17.7 12.8 L17.7 12.8 C17.3 14.1 16.8 15.7 16.6 16.6 L16.6 16.6 C15.2 17.1 14.5 17.9 13.1 17.5 C11.8 17.2 11.2 16.6 10.6 15.9 L10.6 15.9 C9.3 16.0 8.5 15.4 8.1 13.5 L8.1 13.5 C6.5 14.1 5.9 13.6 3.8 13.0 L3.8 13.0 C4.1 12.8 4.3 12.7 4.5 12.6 L6.5 10.8 C7.8 12.2 8.8 14.1 9.8 15.7 C11.0 17.2 12.7 17.8 14.4 18.4 C15.1 18.9 16.8 19.0 18.2 18.7 C19.3 18.1 20.3 17.2 21.3 16.6 L22.1 15.4 C21.9 13.7 20.4 14.2 19.3 15.0 L19.3 15.0 C18.5 14.6 17.7 14.2 17.0 13.8 L17.0 13.8 C15.9 13.3 14.6 12.1 14.0 11.3 C13.3 10.6 12.7 10.4 12.9 9.6 C14.1 8.4 15.7 8.1 17.3 8.8 L18.3 8.8 C19.4 10.2 21.7 11.5 21.8 14.1 C22.2 15.4 22.1 17.4 21.7 19.2 C20.5 21.0 19.5 21.3 18.3 21.8 C16.7 21.9 15.2 21.2 14.4 20.4 C13.6 19.7 13.3 19.2 13.1 18.6 L13.1 18.6 C10.7 18.0 9.7 17.4 8.9 16.6 C8.2 15.8 7.4 14.6 8.8 13.2 C9.7 11.7 12.0 11.2 13.5 12.2 C14.1 12.1 15.7 14.0 17.0 14.2 C17.5 14.2 18.2 13.4 18.6 13.6 C19.2 13.8 19.9 14.3 20.4 14.5 L21.8 16.6 C22.1 17.6 22.5 18.4 22.1 19.9 C21.6 20.5 21.1 21.3 20.4 21.1 C19.9 20.8 18.8 20.7 17.8 20.1 C17.3 19.6 16.4 19.8 16.1 19.6 C15.8 19.2 15.7 19.5 15.6 19.5 C14.8 19.7 14.7 22.3 14.0 22.1 C13.9 22.6 12.9 22.7 13.0 22.3 C13.2 21.1 13.5 20.6 13.8 20.1 C13.7 19.3 12.7 17.8 12.1 17.6 L12.1 17.6 C11.6 16.5 10.0 15.7 10.2 14.5 C10.3 12.1 12.9 11.4 14.4 11.2 L14.4 11.2"/> <path fill="none" stroke="black" stroke-width="0.3" stroke-opacity="1.0" filling="0" d="M17.3 14.3 L17.3 14.3 C17.6 14.4 17.8 14.6 17.9 14.8 L17.9 14.8 C17.8 14.9 18.6 15.6 18.5 15.5 C18.9 14.5 19.8 13.9 19.5 13.8 L19.5 13.8 C19.5 15.0 19.7 16.2 19.4 17.6 C19.0 19.8 17.6 20.8 16.3 21.2 C14.8 21.6 12.7 21.1 11.0 19.0 L11.0 19.0 C12.7 20.1 13.7 20.5 14.5 21.4 L14.5 21.4 C15.4 20.8 16.7 20.1 17.6 19.3 L17.6 19.3 C16.9 19.6 16.2 20.2 15.6 20.5 C14.9 20.8 14.1 21.5 13.9 21.4 C13.5 21.2 13.4 20.7 13.3 20.7 C13.2 20.7 13.3 21.0 13.1 20.7 C13.1 20.3 12.9 20.2 12.9 19.9 C12.9 19.4 12.7 18.8 12.9 18.6 C12.8 18.2 13.1 18.0 13.3 17.7 C13.4 17.5 13.6 17.1 13.9 16.6 C14.1 16.2 14.5 15.8 14.9 15.4 L14.9 15.4 C15.3 15.3 16.0 15.0 16.3 14.8 L16.3 14.8 C17.0 15.3 16.8 15.6 17.0 16.0 C18.7 17.9 19.3 19.1 17.5 20.5 C15.2 21.2 13.7 20.0 14.5 17.6 L14.4 17.6 C14.7 17.8 15.2 18.1 15.7 18.4 L15.7 18.4 C16.7 19.1 17.4 19.7 17.4 20.2 C17.4 20.6 17.1 21.2 16.5 21.5 C15.9 21.7 15.5 21.2 15.3 20.7 C14.9 20.1 15.7 20.0 16.0 19.7 C16.5 19.3 17.0 18.7 17.5 17.8 C17.7 17.1 17.7 16.5 17.7 15.9 C17.6 15.5 17.7 16.1 17.7 16.0 C17.7 15.5 17.8 14.9 18.6 14.5 C19.3 14.4 19.5 14.7 20.0 14.9 L20.0 14.9 C20.0 15.0 20.1 15.2 19.7 15.3 L19.6 15.3 C19.5 16.1 19.1 17.0 18.9 18.0 C18.8 18.3 18.7 18.2 18.7 18.1 C17.8 17.3 18.4 16.1 18.1 15.5 C18.0 13.9 18.2 13.3 18.2 12.2 C18.5 11.3 18.1 10.8 18.3 9.5 C18.7 8.6 19.3 7.9 19.9 7.8 L19.9 7.8"/></svg>