<svg xmlns="http://www.w3.org/2000/svg" viewBox="0 0 24 24"><g><rect x="3" y="3" width="18" height="18" fill="none" stroke="black"/> <path fill="none" stroke-width="1.3" stroke-opacity="1.0" filling="0" d="M9.8 6.9 L13.4 6.9 C13.7 7.4 14.0 7.9 14.4 8.4 L14.4 8.4 C14.4 8.6 14.4 8.7 14.4 8.8 L14.4 9.9 C14.3 10.1 14.3 10.3 14.3 10.5 L14.3 10.5 C14.5 10.6 14.7 10.5 14.9 10.5 L15.1 10.5 C15.1 10.7 15.0 10.9 15.0 11.1 L15.0 11.1 C14.9 11.4 14.9 11.6 15.0 11.8 L15.0 11.8 C15.0 11.9 15.0 12.2 15.0 12.3 L15.0 12.3 C15.0 12.4 15.0 12.6 15.0 12.7 L15.0 12.7 C15.0 12.9 15.0 13.1 15.0 13.3 L14.7 13.3 C14.6 13.4 14.6 13.6 14.6 13.7 L14.6 13.7 C14.6 13.9 14.5 14.1 14.4 14.3 L14.4 14.3 C14.4 14.3 14.4 14.4 14.4 14.5 L14.4 14.5 C14.4 14.5 14.5 14.6 14.5 14.6 L14.5 14.6 C14.4 14.6 14.4 14.7 14.4 14.7 L14.4 14.7 C14.4 14.7 14.4 14.8 14.4 14.9 L14.4 14.9 C14.4 14.9 14.4 14.8 14.4 14.8 L14.4 14.8 C14.3 14.9 14.2 15.1 14.1 15.2 L14.1 15.2 C14.2 15.2 14.3 15.3 14.4 15.4 L14.4 15.4 C14.4 15.5 14.4 15.6 14.4 15.6 L14.4 15.6 C14.5 15.6 14.6 15.7 14.7 15.7 L14.7 15.7 C14.7 15.6 14.6 15.5 14.6 15.4 L14.6 15.4 C14.5 15.5 14.4 15.6 14.4 15.7 L14.4 15.7 C14.4 15.9 14.4 16.1 14.4 16.3 L14.4 16.3 C14.4 16.2 14.4 16.2 14.4 16.1 L14.4 16.1 C14.4 16.1 14.4 16.2 14.4 16.3 L14.4 16.3 C14.4 16.2 14.4 16.2 14.4 16.2 L14.4 16.2 C14.4 16.1 14.4 16.0 14.4 16.0 L14.4 16.0 C14.4 16.1 14.4 16.2 14.5 16.3 L14.5 16.3 C14.5 15.9 14.4 15.6 14.4 15.3 L14.4 15.3 C14.4 15.3 14.4 15.2 14.4 15.2 L14.4 15.2 C14.4 15.2 14.4 15.2 14.4 15.1 L14.4 15.1 C14.4 15.2 14.4 15.2 14.4 15.3 L14.4 15.3 C14.4 15.3 14.4 15.4 14.4 15.5 L14.4 15.5 C14.4 15.5 14.4 15.6 14.4 15.6 L14.4 15.6 C14.4 15.6 14.4 15.6 14.4 15.5 L14.4 15.5 C14.4 15.5 14.4 15.5 14.4 15.5 L14.4 15.5 C14.3 15.5 14.3 15.6 14.2 15.6 L14.2 15.6 C14.2 15.6 14.3 15.6 14.4 15.6 L14.4 15.6 C14.4 15.6 14.4 15.5 14.4 15.5 L14.4 15.5 C14.4 15.5 14.4 15.5 14.4 15.5 L14.4 15.5 C14.4 15.5 14.4 15.6 14.4 15.6 L14.4 15.6 C14.4 15.6 14.4 15.5 14.4 15.5 L14.4 15.5 C14.4 15.3 14.4 15.1 14.4 15.0 L14.4 15.0 C14.4 15.0 14.4 15.0 14.4 15.0 L14.3 15.0 C14.3 15.3 14.4 15.5 14.4 15.6 L14.4 15.6 C14.4 15.6 14.4 15.6 14.4 15.7 L14.4 15.7 C14.4 15.6 14.4 15.5 14.4 15.4 L14.3 15.4 C14.3 15.4 14.33 15.3 14.3 15.3 14.3 15.3 L14.3 15.3 C14.3 15.3 14.3 15.3 14.4 15.3 L14.4 15.3 C14.4 15.3 14.4 15.3 14.4 15.3 L14.4 15.3 C14.5 15.3 14.5 14.9 14.6 14.9 L14.6 14.9 C14.5 14.8 14.5 14.7 14.4 14.7 L14.4 14.7 C14.4 14.7 14.4 14.7 14.4 14.7 L14.4 14.7 C14.4 14.7 14.4 14.7 14.4 14.7 L14.4 14.7 C14.4 14.7 14.4 14.7 14.4 14.7 L14.4 14.7 C14.4 14.6 14.4 14.6 14.4 14.5 L14.4 14.5 C14.4 14.5 14.4 14.5 14.4 14.5 L14.4 14.5 C14.4 14.5 14.4 14.5 14.4 14.5 L14.4 14.5 C14.4 14.5 14.4 14.5 14.4 14.5 L14.4 14.5 C14.4 14.5 14.4 14.5 14.4 14.5 L14.4 14.5 C14.4 14.5 14.4 14.4 14.4 14.4 L14.4 14.4 C14.4 14.4 14.4 14.4 14.4 14.4 L14.4 14.4 C14.4 14.4 14.4 14.4 14.4 14.4 L14.4 14.4 C14.4 14.3 14.4 14.3 14.4 14.2 L14.4 14.2 C14.4 14.2 14.4 14.1 14.4 14.1 L14.4 14.1 C14.4 14.2 14.4 14.2 14.4 14.2 L14.4 14.2 C14.4 14.3 14.5 14.3 14.6 14.3 L14.6 14.3 C14.5 14.3 14.5 14.3 14.5 14.3 L14.5 14.3 C14.5 14.3 14.4 14.3 14.4 14.4 L14.4 14.4"/> <path fill="none" stroke="black" stroke-width="0.3" stroke-opacity="1.0" filling="0" d="M14.2 14.7 L14.2 14.7 C14.2 14.7 14.3 14.7 14.3 14.7 L14.3 14.7 C14.3 14.7 14.3 14.8 14.4 14.8 L14.4 14.8 C14.4 14.8 14.4 14.9 14.3 14.9 L14.3 14.9 C14.4 14.9 14.4 15.0 14.4 15.0 L14.4 15.0 C14.4 15.0 14.5 14.9 14.5 14.9 L14.5 14.9 C14.5 14.9 14.5 14.9 14.5 14.9 L14.5 14.9 C14.5 14.9 14.4 14.9 14.4 14.7 L14.4 14.7 C14.4 14.7 14.4 14.7 14.4 14.7 L14.4 14.7"/> <path fill="none" stroke="black" stroke-width="0.3" stroke-opacity="1.0" filling="0" d="M10.7 15.0 L10.7 15.0 C10.8 15.2 10.9 15.5 10.9 15.7 L10.9 15.7 C10.9 15.7 10.9 15.7 10.9 15.6 L10.9 15.6 C10.9 15.5 10.9 15.3 10.9 15.0 L10.9 15.0 C10.9 15.0 10.9 15.0 10.9 15.0 L10.9 15.0"/> <path fill="none" stroke="black" stroke-width="0.3" stroke-opacity="1.0" filling="0" d="M14.0 15.0 L14.0 15.0 C14.1 15.1 14.1 15.2 14.2 15.2 L14.2 15.2 C14.1 15.1 14.1 15.1 14.0 15.1 L14.0 15.1 C14.0 15.1 14.0 15.1 14.1 15.0 L14.1 15.0 C14.1 15.0 14.1 15.0 14.1 15.0 L14.1 15.0 C14.1 15.0 14.1 15.0 14.0 15.2 L14.0 15.2 C14.1 15.2 14.1 15.1 14.0 15.0 L14.0 15.0"/> <path fill="none" stroke="black" stroke-width="0.3" stroke-opacity="1.0" filling="0" d="M14.7 18.3 L14.7 18.3 C15.2 20.5 15.1 21.3 13.0 21.7 C11.1 21.9 9.2 21.4 7.6 20.4 C6.1 19.4 6.3 17.5 7.4 16.2 C9.0 14.9 12.5 15.1 14.2 15.3 C15.9 15.6 17.2 16.5 18.2 17.7 C18.2 18.1 18.0 18.6 17.7 18.9 L17.7 18.9 C17.7 18.9 17.3 18.9 17.1 18.9 L17.1 18.9 C16.7 19.3 16.3 19.9 15.8 20.4 C14.6 21.8 12.7 21.9 11.0 20.9 C9.2 20.0 7.9 18.9 7.3 16.8 C6.9 14.5 8.1 12.6 10.0 11.3 C11.7 10.0 13.3 9.0 15.1 9.1 C17.1 9.2 19.4 10.9 19.6 12.3 C20.7 14.1 21.2 15.8 21.4 17.5 C22.3 19.1 21.4 21.8 20.1 22.6 C18.2 22.9 16.6 21.9 16.0 20.9 C15.6 20.8 14.9 21.2 14.4 21.2 C13.2 21.2 12.6 21.7 11.4 21.4 C8.1 21.6 6.7 21.4 6.5 19.4 L6.5 19.4 C6.7 19.5 6.8 19.4 7.0 19.3 C7.2 18.9 8.0 18.7 8.3 18.6 C8.5 18.5 8.6 18.2 8.7 18.1 C8.9 18.1 8.9 18.2 9.2 18.2 L9.2 18.2 C9.6 17.7 10.2 17.1 10.8 16.6 C11.8 16.0 13.6 15.6 14.7 15.2 L14.7 15.2"/> <path fill="none" stroke="black" stroke-width="0.3" stroke-opacity="1.0" filling="0" d="M15.8 15.5 L15.8 15.5 C16.9 17.5 20.4 18.4 18.6 21.3 C18.0 21.6 17.4 21.6 17.0 21.6 C16.5 21.6 16.1 21.6 15.7 21.5 L15.7 21.5 C15.8 20.6 15.7 20.6 15.6 20.4 L15.6 20.4 C14.4 18.9 14.0 17.7 13.0 16.4 L13.0 16.4 C14.4 16.6 15.8 16.7 16.9 15.5 L16.9 15.5 C17.1 15.4 17.7 15.0 18.4 14.6 L18.4 14.6 C19.3 15.3 19.2 15.9 18.6 16.2 L18.6 16.2"/></svg>