<svg xmlns="http://www.w3.org/2000/svg" viewBox="0 0 24 24"><g><rect x="3" y="3" width="18" height="18" fill="none" stroke="black"/> <path fill="none" stroke-width="1.3" stroke-opacity="1.0" filling="0" d="M7.5 4.2 L12.9 4.2 L18.3 4.2 L18.3 9.8 L18.3 15.4 L12.9 15.4 L7.5 15.4 L7.5 9.8 L7.5 4.2"/> <path fill="none" stroke="black" stroke-width="0.3" stroke-opacity="1.0" filling="0" d="M10.4 6.3 L13.0 6.3 L13.0 8.8 C12.5 8.8 12.1 8.8 11.7 8.8 L11.7 6.3 C12.1 6.3 12.5 6.2 13.0 6.3 L13.0 6.3"/> <path fill="none" stroke="black" stroke-width="0.3" stroke-opacity="1.0" filling="0" d="M6.1 9.0 L6.1 9.0 C6.4 9.0 7.0 9.0 7.3 9.0 L7.3 9.0 C7.4 9.0 7.6 9.0 7.7 9.0 L7.7 9.0 C7.6 9.0 7.4 9.0 7.3 9.0 L7.3 9.0 C7.1 9.0 6.8 9.0 6.8 9.0 L6.8 9.0 C6.8 9.0 6.9 9.0 6.9 9.0 L6.9 9.0 C8.2 9.6 9.8 11.6 7.9 11.6 C5.8 11.6 7.0 8.6 6.1 9.0 C4.7 10.0 5.4 13.5 6.4 14.3 C7.0 14.7 8.7 14.5 9.2 14.8 C10.6 15.1 10.3 15.3 11.9 15.3 L11.9 15.3 C12.7 15.5 13.4 15.9 14.6 15.8 C15.2 15.8 15.6 15.7 16.1 15.7 C16.9 15.7 17.7 15.6 18.4 15.6 C19.2 15.7 19.3 15.6 20.0 15.5 L20.0 15.5 C19.8 15.6 19.7 15.6 19.4 15.7 L19.4 15.7 C19.3 15.9 19.2 16.0 19.0 16.1 L11.9 16.1 L5.9 16.1 C5.6 16.0 5.4 15.9 5.2 15.7 L5.2 15.7 C4.9 15.6 4.5 15.6 4.5 15.4 C4.5 15.1 5.3 14.9 5.3 14.7 L5.3 14.7 C5.2 14.6 4.9 14.6 4.8 14.5 C3.6 13.9 5.2 12.6 5.3 12.4 C5.4 11.3 5.8 10.4 6.1 9.2 L6.1 9.2"/> <path fill="none" stroke="black" stroke-width="0.3" stroke-opacity="1.0" filling="0" d="M13.9 9.6 L13.9 9.6 C14.0 9.6 14.1 9.6 14.3 9.7 L14.3 10.7 C13.9 10.8 13.6 11.0 13.3 11.1 L13.3 11.1 C13.2 11.0 13.1 10.9 13.0 10.8 L13.0 10.8 C13.0 10.8 12.9 10.8 12.9 10.9 L12.9 10.9 C13.0 10.8 13.0 10.8 13.0 10.7 L13.0 9.7 C13.1 9.6 13.2 9.6 13.3 9.6 L13.3 9.6 C13.4 9.6 13.6 9.6 13.7 9.6 L13.7 9.6"/> <path fill="none" stroke="black" stroke-width="0.3" stroke-opacity="1.0" filling="0" d="M14.5 9.9 L14.5 9.9 C15.0 10.2 15.6 10.3 16.0 10.6 C16.5 11.0 17.0 11.5 17.4 12.1 L17.4 12.6 C17.4 13.7 16.5 14.7 15.5 14.9 C14.4 15.1 13.1 14.8 12.2 14.2 L12.2 14.2 C11.4 14.7 10.6 15.3 10.0 15.5 C8.9 15.9 7.3 15.3 6.5 14.8 C5.6 14.4 4.8 13.7 4.8 12.6 C4.9 11.5 6.7 11.0 7.3 10.6 L7.3 10.6 C8.1 10.8 9.0 10.9 9.8 10.8 L9.8 10.8 C11.4 11.2 11.7 11.3 12.5 12.6 L12.5 12.6 C12.6 11.4 12.7 10.3 13.6 10.2 C14.0 10.1 14.3 9.9 14.5 9.9 L14.5 9.9"/> <path fill="none" stroke="black" stroke-width="0.3" stroke-opacity="1.0" filling="0" d="M14.5 10.3 L14.5 10.3 C15.6 10.7 17.2 12.4 17.9 13.7 C18.5 14.9 18.7 16.0 17.8 16.9 C16.8 17.7 15.1 18.3 13.6 18.2 C12.0 18.1 11.4 16.4 10.6 15.8 C10.1 15.6 9.3 14.7 8.8 14.0 C8.4 13.4 8.5 12.7 8.9 12.1 C9.6 10.4 11.3 10.2 12.9 10.2 C13.7 10.1 14.3 10.1 14.5 10.3 L14.5 10.3"/> <path fill="none" stroke="black" stroke-width="0.3" stroke-opacity="1.0" filling="0" d="M7.4 11.4 L7.4 11.4 C7.8 11.7 7.9 12.7 8.2 13.0 C8.6 13.3 9.0 13.3 9.4 13.6 L9.4 13.6 C8.2 14.4 6.7 15.2 5.8 15.7 C5.0 15.9 4.1 15.6 3.3 15.0 C2.6 13.9 3.6 13.0 4.2 12.5 L4.2 12.5 C4.6 11.9 5.2 11.3 5.6 10.9 L5.6 10.9 C5.9 11.1 6.2 11.3 6.6 11.4 L6.9 11.4"/> <path fill="none" stroke="black" stroke-width="0.3" stroke-opacity="1.0" filling="0" d="M5.0 11.6 L5.0 11.6 C5.8 11.9 6.8 12.3 7.4 12.7 C8.0 13.0 8.3 13.1 9.0 13.1 L9.0 13.1 C7.7 14.5 6.4 15.3 4.8 15.7 L4.8 15.7 C3.4 14.6 3.3 13.1 3.9 12.1 C4.5 11.5 5.0 11.6 5.7 11.6 L5.7 11.6 C5.8 11.8 5.9 11.9 6.0 12.1 L6.0 12.1 C6.4 10.8 6.3 9.1 7.1 8.7 C7.5 8.3 8.1 8.3 9.0 8.2 C9.9 7.9 11.2 7.8 12.7 8.0 C14.5 8.1 15.8 9.3 16.3 11.1 C16.8 12.2 16.5 13.6 15.9 15.0 C15.9 15.3 16.5 14.4 16.5 14.6 C16.6 14.9 16.3 15.2 16.0 15.4 C15.6 15.5 15.1 15.3 14.8 15.2 C13.8 14.8 12.5 14.6 11.3 14.3 C10.0 13.9 8.9 13.4 8.0 12.7 C7.1 12.0 6.4 11.3 5.0 11.3 L5.0 11.6 C5.1 11.9 5.2 12.1 5.3 12.3 L5.3 12.3 C5.1 12.5 4.8 12.8 4.6 13.1 C4.3 13.5 3.7 13.5 3.5 13.4 L3.5 13.4 C3.7 13.0 3.8 12.4 3.8 11.9 C3.8 11.5 3.7 11.1 3.7 10.7 L3.7 10.7 C3.8 10.4 4.1 10.0 4.3 9.6 C4.6 9.3 4.8 9.0 5.0 8.7 L5.0 8.7 C5.1 8.9 5.1 9.2 5.2 9.6 L5.2 9.6"/> <path fill="none" stroke="black" stroke-width="0.3" stroke-opacity="1.0" filling="0" d="M14.5 13.0 L14.5 13.0 C14.7 13.2 14.9 13.3 15.0 13.4 C15.3 13.6 15.1 13.9 15.0 14.2 C15.0 14.3 14.6 14.0 14.5 13.9 C14.5 13.6 14.5 13.2 14.5 13.0 L14.5 13.0"/></svg>