<svg xmlns="http://www.w3.org/2000/svg" viewBox="0 0 24 24"><g><rect x="3" y="3" width="18" height="18" fill="none" stroke="black"/> <path fill="none" stroke-width="1.3" stroke-opacity="1.0" filling="0" d="M7.1 6.5 L7.6 6.5 C8.0 6.6 8.4 6.8 8.7 7.0 L9.3 8.2 C9.5 8.3 9.7 8.4 10.0 8.6 L10.6 9.8 C10.7 9.9 10.8 10.0 10.9 10.1 L11.6 10.2 C12.1 10.4 12.7 10.6 13.2 10.7 L14.0 11.2 C14.2 11.2 14.3 11.3 14.4 11.3 L15.1 11.5 C15.2 11.5 15.2 11.6 15.2 11.7 L15.2 11.7 C15.2 11.7 15.2 11.7 15.1 11.7 L14.0 11.9 C14.0 11.9 14.0 12.0 14.0 12.0 L14.5 12.2 C14.7 12.3 15.0 12.3 15.1 12.2 L16.0 12.7 C16.1 12.8 16.2 12.8 16.3 12.8 L16.3 12.8 C16.4 13.0 16.4 13.2 16.5 13.4 L16.5 13.4 C16.4 13.4 16.4 13.4 16.4 13.4 L16.4 13.4 C16.5 13.4 16.6 13.4 16.7 13.5 L16.9 14.0 C17.0 14.0 17.0 14.0 17.1 14.0 L17.1 13.6 C17.3 13.7 17.4 13.8 17.5 13.9 L17.5 15.2 C17.4 15.3 17.3 15.4 17.1 15.5 L16.5 15.9 C16.4 16.0 16.3 16.0 16.2 16.0 L15.5 16.2 C15.4 16.2 15.3 16.3 15.2 16.3 L15.1 16.3 C15.1 16.3 15.1 16.2 15.1 16.2 L14.7 16.0 C14.6 16.0 14.6 16.0 14.5 16.0 L14.5 16.0 C14.4 16.0 14.3 16.0 14.2 16.0 L13.9 16.2 C13.8 16.2 13.6 16.2 13.5 16.2 L13.5 16.0 C13.4 16.0 13.3 16.0 13.2 16.0 L12.8 16.2 C12.7 16.2 12.6 16.2 12.5 16.2 L12.5 16.0 C12.2 16.0 12.8 16.0 12.9 16.0 L13.2 16.2 C13.2 16.3 12.9 16.3 12.7 16.2 L12.7 16.0 C12.6 16.0 12.5 16.0 12.3 16.0 L11.7 16.2 C11.9 16.2 12.2 16.1 12.3 16.0 L11.7 16.2 C11.6 16.2 11.5 16.3 11.5 16.3 L11.5 16.0 C11.7 16.0 11.7 16.0 11.7 16.0 L10.8 16.1 C10.7 16.0 10.7 16.0 10.6 16.0 L10.6 16.2 C10.6 16.3 10.6 16.3 10.6 16.4 L11.3 16.8 C11.3 16.9 11.3 17.0 11.2 17.0 L10.3 17.3 C10.2 17.3 10.1 17.3 10.0 17.2 L10.0 17.0 C9.9 16.8 9.9 16.6 9.9 16.5 L9.9 16.5 C9.8 16.7 9.6 16.7 9.5 16.8 L9.5 16.9 C9.5 16.9 9.6 16.9 9.6 16.9 L9.6 16.9 C9.6 16.9 9.5 16.8 9.5 16.8 L9.5 16.9 C9.6 16.9 9.6 16.9 9.6 16.9 L9.6 16.9 C9.5 16.9 9.4 16.9 9.3 16.9 L9.3 16.8 C9.2 16.8 9.2 16.8 9.2 16.8 L9.2 16.8 C9.2 16.8 9.1 16.8 9.0 16.8 L9.0 16.9 C9.1 16.9 9.2 16.9 9.2 16.9 L8.7 16.9 C8.7 16.8 8.8 16.8 8.9 16.8 L9.1 16.5 L9.1 16.2 C9.0 16.2 8.9 16.2 8.9 16.2 L8.9 16.0 C8.9 16.0 8.8 16.0 8.7 16.0 L7.4 16.0 C7.3 16.0 7.1 16.0 6.9 16.0 L6.9 16.0 C6.8 16.0 6.7 16.0 6.7 16.0 L5.7 16.2 C5.7 16.2 5.6 16.2 5.5 16.2 L5.5 16.2 C5.6 16.3 5.5 16.3 5.5 16.3 L5.5 16.3 C5.6 16.3 5.6 16.3 5.5 16.2 L5.5 16.2 C5.6 16.1 5.6 16.0 5.7 15.9 L5.7 15.8 C5.7 15.7 5.7 15.7 5.7 15.7 L5.7 15.8 C5.8 15.8 5.8 15.8 5.8 15.8 L6.2 16.3 C6.2 16.4 6.1 16.4 6.0 16.5 L5.9 16.5 C5.9 16.5 5.8 16.5 5.8 16.5 L5.8 16.5 C5.8 16.5 5.9 16.5 5.9 16.5 L5.9 16.5 C5.9 16.6 5.8 16.6 5.8 16.6 L5.8 16.6 C5.8 16.6 5.7 16.5 5.7 16.5 L5.7 16.5 C5.8 16.5 5.8 16.4 5.9 16.4 L4.9 16.4 C4.9 16.4 4.9 16.5 4.9 16.6 L4.9 16.6 C4.9 16.5 4.9 16.5 4.9 16.5 L5.0 16.5 C5.1 16.5 5.2 16.4 5.2 16.4 L5.2 16.4 C5.2 16.3 5.1 16.3 5.0 16.3 L5.0 16.3 C5.1 16.3 5.2 16.3 5.2 16.3 L5.2 16.3 C5.2 16.3 5.1 16.3 5.1 16.2 L5.1 16.2 C5.1 16.3 5.1 16.3 5.0 16.4 L5.1 16.4 C5.1 16.4 5.2 16.4 5.2 16.5 L5.2 16.5 C5.2 16.6 5.1 16.6 5.1 16.7 L4.9 16.7 C4.9 16.6 4.9 16.6 4.9 16.5 L4.9 16.5 C4.9 16.5 5.0 16.6 5.0 16.6 L5.0 16.6 C5.1 16.6 5.2 16.6 5.2 16.6 L5.2 16.6 C5.2 16.6 5.2 16.6 5.2 16.6 L5.2 16.6 C5.2 16.6 5.2 16.5 5.2 16.5 L5.2 16.5 C5.2 16.5 5.2 16.5 5.2 16.5 L5.2 16.5 C5.2 16.4 5.2 16.4 5.2 16.4 L5.2 16.4 C5.2 16.4 5.2 16.4 5.2 16.4 L5.2 16.4 C5.2 16.3 5.2 16.3 5.2 16.3 L5.2 16.3 C5.2 16.3 5.2 16.3 5.2 16.3 L5.2 16.3 C5.2 16.3 5.2 16.3 5.2 16.3 L5.2 16.3 C5.2 16.3 5.2 16.3 5.2 16.3 L5.2 16.3 C5.2 16.3 5.2 16.3 5.2 16.3 L5.2 16.3 C5.2 16.3 5.2 16.3 5.2 16.3 L5.2 16.3 C5.2 16.3 5.2 16.3 5.2 16.3 L5.2 16.3 C5.2 16.3 5.2 16.3 5.2 16.3 L5.2 16.3 C5.2 16.3 5.2 16.3 5.2 16.3 L5.2 16.3 C5.2 16.3 5.2 16.3 5.2 16.3 L5.2 16.3 C5.2 16.3 5.2 16.3 5.2 16.3 L5.2 16.3 C5.2 16.3 5.2 16.3 5.2 16.3 L5.2 16.3 C5.2 16.3 5.2 16.3 5.2 16.3 L5.2 16.3 C5.2 16.3 5.2 16.3 5.2 16.3 L5.2 16.3 C5.2 16.3 5.2 16.3 5.2 16.3 L5.2 16.3 C5.2 16.3 5.2 16.3 5.2 16.3 L5.2 16.3 C5.2 16.3 5.2 16.3 5.2 16.3 L5.2 16.3 C5.2 16.3 5.2 16.3 5.2 16.3 L5.2 16.3 C5.2 16.3 5.2 16.3 5.2 16.3 L5.2 16.3 C5.2 16.3 5.2 16.3 5.2 16.3 L5.2 16.3 C5.3 16.3 5.3 16.3 5.3 16.3 L5.3 16.3 C5.3 16.3 5.3 16.3 5.2 16.3 L5.2 16.3 C5.2 16.3 5.2 16.3 5.2 16.3 L5.2 16.3 C5.2 16.3 5.2 16.3 5.2 16.3 L5.2 16.3 C5.2 16.3 5.2 16.3 5.2 16.3 L5.2 16.3 C5.2 16.3 5.2 16.3 5.2 16.3 L5.2 16.3 C5.2 16.3 5.2 16.3 5.2 16.3 L5.2 16.3 C5.2 16.3 5.2 16.3 5.2 16.3 L5.2 16.3"/> <path fill="none" stroke="black" stroke-width="0.3" stroke-opacity="1.0" filling="0" d="M14.2 15.7 L14.2 15.7 C12.4 17.2 10.2 16.7 8.5 15.7 L8.5 15.7 C8.5 15.7 8.5 15.8 8.5 15.8 L8.5 15.8 C8.5 15.8 8.5 15.7 8.5 15.7 L8.5 15.7 C8.4 15.7 8.4 15.7 8.4 15.7 L8.4 15.7 C8.4 15.7 8.4 15.7 8.3 15.7 L8.3 15.7 C8.4 15.7 8.4 15.7 8.4 15.7 L8.4 15.7"/> <path fill="none" stroke="black" stroke-width="0.3" stroke-opacity="1.0" filling="0" d="M9.3 15.8 L9.3 15.8 C9.3 15.8 9.3 15.8 9.3 15.8 L9.3 15.8"/> <path fill="none" stroke="black" stroke-width="0.3" stroke-opacity="1.0" filling="0" d="M18.0 16.9 L18.0 16.9 C16.3 17.4 15.6 16.9 14.2 16.9 L14.2 16.9 C14.1 16.9 14.1 16.9 14.1 16.9 L14.1 16.9"/></svg>