<svg xmlns="http://www.w3.org/2000/svg" viewBox="0 0 24 24"><g><rect x="3" y="3" width="18" height="18" fill="none" stroke="black"/> <path fill="none" stroke-width="1.3" stroke-opacity="1.0" filling="0" d="M8.3 7.6 L8.3 7.6 C8.8 8.3 9.7 8.5 10.5 9.0 L10.5 9.7 L13.2 9.7 C14.1 9.5 15.0 9.3 15.8 9.2 L15.8 9.2 C16.7 9.3 17.5 9.5 18.3 10.2 L18.3 10.2 C19.9 10.9 20.2 11.6 20.2 13.2 L20.2 13.2 C19.7 14.4 19.3 15.5 18.8 16.6 L18.8 16.6 C19.7 16.9 20.6 17.0 21.5 17.4 L21.5 18.4 L19.9 18.4 C19.7 18.3 19.6 18.2 19.4 18.1 L19.4 18.1 C18.8 18.7 18.1 19.3 17.4 19.8 L11.4 19.8 L5.3 19.8 C4.6 19.3 4.0 18.7 3.6 18.1 L3.6 18.1 C3.3 18.2 3.0 18.3 2.6 18.4 L2.6 18.4 C2.4 18.3 2.2 18.3 2.0 18.4 L2.0 18.4 C2.7 17.1 3.5 16.0 3.9 15.6 L3.9 15.6 C3.8 13.5 3.8 11.5 3.9 9.5 L3.9 9.5 C4.7 9.4 5.5 9.1 6.4 9.1 L6.4 9.1 C6.8 8.0 7.1 7.8 8.3 7.6 L8.3 7.6"/> <path fill="none" stroke="black" stroke-width="0.3" stroke-opacity="1.0" filling="0" d="M18.4 8.1 L18.4 8.1 C18.8 8.5 19.2 9.0 19.7 9.4 L20.2 9.6 C20.4 10.1 20.6 10.6 20.9 11.1 L21.1 11.5 C20.4 12.0 20.1 12.4 19.3 12.8 L19.1 12.8 C18.6 12.8 18.2 13.0 17.8 13.3 L18.0 13.3 C17.9 14.1 17.8 15.2 18.1 16.1 L18.3 16.1 C17.9 16.1 17.6 16.1 17.4 16.1 L16.8 16.1 L16.8 17.0 C15.9 18.1 15.0 18.8 14.0 19.4 L9.0 19.4 C8.0 19.1 7.3 18.9 6.6 18.3 L6.7 18.3 C6.4 18.0 7.1 17.8 7.3 17.5 L7.3 17.5 C7.3 17.7 7.3 17.8 7.3 18.0 L6.6 18.0 L6.6 17.3 C6.5 17.1 6.4 17.1 6.2 17.1 L6.5 17.1 C3.8 16.5 6.6 13.7 5.6 13.3 L5.6 13.3 C6.3 11.4 6.3 9.9 6.9 8.5 L7.3 8.3 C8.1 8.2 8.7 8.1 9.5 8.0 L10.3 8.6 C10.8 8.9 11.4 9.1 12.0 9.3 L12.6 9.1 C13.1 8.7 14.5 8.7 15.0 8.4 L16.0 8.4 C16.7 8.3 17.4 8.2 17.9 8.1 L18.2 8.1"/> <path fill="none" stroke="black" stroke-width="0.3" stroke-opacity="1.0" filling="0" d="M18.4 8.8 L18.4 8.8 C18.9 9.6 19.1 10.3 19.2 11.0 L19.5 11.2 C19.3 11.4 19.1 11.7 18.9 11.9 L17.9 11.5 C17.0 12.0 16.6 12.2 15.8 12.5 L12.9 12.5 C12.7 12.6 12.4 12.7 12.2 12.8 L12.8 12.8 C13.2 12.5 13.6 12.3 13.9 12.1 L14.1 11.8 C14.4 11.2 14.7 10.7 15.2 10.5 C15.7 10.3 16.3 10.5 17.0 10.6 L17.3 10.7 C17.5 10.8 17.8 10.8 18.0 10.9 L18.3 10.6 C18.8 10.4 19.3 10.3 19.7 10.1 L20.0 10.1 C20.4 10.3 20.8 10.6 21.2 11.1 C21.4 11.5 21.2 12.1 20.9 12.5 L20.4 12.7 C19.7 12.8 19.2 12.9 18.4 13.1 L17.0 12.8 C16.0 12.1 15.9 11.5 16.4 10.8 C16.8 10.2 17.3 10.0 18.0 9.7 L18.4 9.7 C18.8 9.6 19.1 9.1 19.4 8.8 L19.4 8.8"/> <path fill="none" stroke="black" stroke-width="0.3" stroke-opacity="1.0" filling="0" d="M19.3 8.8 L19.3 8.8 C19.5 9.0 19.8 9.1 20.0 9.3 C20.2 9.7 20.9 9.6 20.9 9.9 C20.9 10.2 20.5 10.3 20.3 10.5 C19.9 10.8 19.6 10.8 19.2 10.8 C18.1 10.5 17.8 9.9 18.3 9.1 C18.5 8.8 18.8 8.8 19.3 8.8 L19.3 8.8"/> <path fill="none" stroke="black" stroke-width="0.3" stroke-opacity="1.0" filling="0" d="M20.3 8.8 L20.3 8.8 C20.6 9.1 20.9 9.2 21.2 9.4 L21.6 11.6 C20.1 10.7 19.8 11.1 19.3 9.5 L20.3 8.8"/> <path fill="none" stroke="black" stroke-width="0.3" stroke-opacity="1.0" filling="0" d="M12.6 9.1 L12.6 9.1 C13.5 9.5 14.3 10.0 14.8 10.7 L14.2 11.1 C13.8 10.8 13.4 10.4 12.9 10.1 C12.1 9.8 11.6 9.3 12.6 9.1 L12.6 9.1"/> <path fill="none" stroke="black" stroke-width="0.3" stroke-opacity="1.0" filling="0" d="M12.6 9.3 L12.6 9.3 C12.8 9.5 13.0 9.6 13.2 9.8 L13.6 10.1 C13.4 10.2 13.2 10.4 13.1 10.5 L12.3 9.8 C12.4 9.8 12.5 9.7 12.6 9.6 L12.6 9.6 C12.5 9.6 12.5 9.6 12.4 9.6 L12.6 9.6 C12.7 9.5 12.8 9.4 12.9 9.3 L12.4 9.3 C12.5 9.3 12.5 9.3 12.6 9.3 L12.6 9.3"/> <path fill="none" stroke="black" stroke-width="0.3" stroke-opacity="1.0" filling="0" d="M12.6 9.4 L12.6 9.4 C12.7 9.5 12.8 9.6 12.9 9.6 L12.9 10.7 C12.8 10.8 12.5 10.9 12.4 10.9 L12.4 9.5 C12.5 9.4 12.5 9.4 12.6 9.4 L12.6 9.4"/> <path fill="none" stroke="black" stroke-width="0.3" stroke-opacity="1.0" filling="0" d="M17.2 10.3 L16.7 10.5 C16.6 10.5 16.4 10.3 16.3 10.3 L16.3 9.8 C16.4 9.8 16.5 9.8 16.6 9.8 L16.6 10.3 C16.5 10.3 16.4 10.3 16.4 10.3 L16.4 10.3 C16.5 10.3 16.5 10.3 16.6 10.3 L16.6 10.3 C16.7 10.3 16.8 10.3 16.9 10.3 L16.9 10.3"/> <path fill="none" stroke="black" stroke-width="0.3" stroke-opacity="1.0" filling="0" d="M18.8 10.5 L18.8 10.5 C18.8 10.5 18.9 10.5 18.9 10.5 L18.9 10.5 C18.9 10.5 18.8 10.5 18.8 10.5 L18.8 10.5"/> <path fill="none" stroke="black" stroke-width="0.3" stroke-opacity="1.0" filling="0" d="M12.7 11.8 L12.7 11.8 C13.0 12.0 13.3 12.2 13.6 12.4 L13.6 11.9 C13.2 11.8 12.9 11.8 12.5 11.8 L12.5 11.8"/> <path fill="none" stroke="black" stroke-width="0.3" stroke-opacity="1.0" filling="0" d="M14.3 11.8 L14.3 11.8 C14.6 11.9 14.9 11.8 15.2 11.8 L15.2 11.8 C15.3 11.8 15.3 11.9 15.4 11.9 L15.4 11.9 C15.9 11.6 16.4 11.4 16.9 11.4 L16.9 11.6 C17.3 11.9 17.7 12.2 18.1 12.6 L18.1 12.6 C17.7 12.0 17.3 11.9 17.0 11.2 L17.0 11.2 C17.2 11.3 17.6 11.4 17.9 11.5 L17.9 11.5 C18.8 11.9 18.6 12.7 18.1 13.4 L18.1 13.4 C17.7 13.6 17.3 13.9 17.0 14.2 L17.0 14.2 C16.6 14.5 16.2 14.7 15.7 15.0 L15.7 15.0 C15.4 14.7 15.1 14.5 14.7 14.3 L14.7 14.3 C14.3 14.5 14.0 14.6 13.7 14.9 L13.6 14.9 C12.9 14.4 12.4 13.9 11.9 13.3 L11.9 13.3 C12.7 11.8 12.9 11.1 14.7 11.8 L14.7 11.8"/> <path fill="none" stroke="black" stroke-width="0.3" stroke-opacity="1.0" filling="0" d="M14.0 12.0 L14.0 12.0 C15.6 12.6 16.1 14.0 15.5 15.7 C14.7 17.3 12.8 18.0 11.4 16.9 C8.7 15.8 10.3 13.2 11.8 12.0 L11.8 12.0 C12.3 11.6 12.7 11.4 13.3 11.3 L13.3 11.3 C12.0 10.6 10.4 10.9 9.2 12.3 L9.2 12.3 C9.1 12.4 9.0 12.6 9.0 12.8 L9.0 12.8 C10.3 11.5 11.2 11.3 13.4 11.2 L13.4 11.2 C14.0 11.1 14.6 11.0 14.9 10.9 L14.9 10.9 C16.9 10.3 17.7 11.5 17.1 12.8 L17.1 12.8 C17.5 13.9 16.8 14.9 16.2 15.8 C15.6 16.8 14.5 17.2 13.0 16.5 C12.8 16.3 12.8 15.9 12.7 15.8 C12.5 15.7 11.9 15.3 11.7 15.0 C11.2 14.5 10.9 13.9 11.4 13.3 L11.4 13.3 C11.7 12.6 12.1 12.0 12.5 11.5 L12.5 11.5 C12.8 11.4 13.1 11.2 13.4 11.0 L13.4 11.0 C13.8 11.0 14.2 11.0 14.5 11.0 L14.5 11.0"/> <path fill="none" stroke="black" stroke-width="0.3" stroke-opacity="1.0" filling="0" d="M8.7 12.0 L8.7 12.0 C8.4 12.1 8.0 12.3 7.6 12.6 L7.6 12.6 C7.9 12.4 8.2 12.2 8.6 12.0 L8.7 12.0"/> <path fill="none" stroke="black" stroke-width="0.3" stroke-opacity="1.0" filling="0" d="M9.1 16.1 L9.1 16.1 C11.5 18.1 12.7 14.6 16.0 15.2 L16.0 15.2 C14.6 17.1 13.0 17.5 11.5 15.8 L11.5 15.8 C10.3 16.0 9.0 16.0 6.6 15.2 L6.6 15.2 C7.1 14.2 9.1 14.5 9.1 16.1 L9.1 16.1"/></svg>