<svg xmlns="http://www.w3.org/2000/svg" viewBox="0 0 24 24"><path d="M4 4 L20 4 L20 20.1"/> <path fill="none" stroke="black" stroke-width="0.3" stroke-opacity="1.0" filling="0" d="M18.5 6.8 L18.5 13.4 L12.1 13.4 L11.7 9.2"/> <path fill="none" stroke="black" stroke-width="0.3" stroke-opacity="1.0" filling="0" d="M15.0 10.2 L16.4 10.2 C16.5 10.2 16.6 10.3 16.7 10.3 L16.6 14.0 C16.6 14.2 16.3 14.4 16.1 14.6 L11.4 14.6 L11.4 10.3 C11.5 10.3 11.5 10.2 11.6 10.1 L14.0 10.1 C14.2 10.1 14.3 10.0 14.4 10.0 L14.4 10.0 C14.5 10.0 14.6 10.0 14.6 10.0 L11.7 10.0 L11.7 14.4 C11.6 14.4 11.5 14.4 11.4 14.4 L11.4 10.3 C12.2 10.3 12.9 10.3 13.4 10.2 L15.0 10.2"/> <path fill="none" stroke="black" stroke-width="0.3" stroke-opacity="1.0" filling="0" d="M18.4 10.2 L18.4 10.2 C18.5 10.3 18.6 10.3 18.7 10.3 L18.7 14.0 C18.6 14.2 18.5 14.4 18.4 14.5 L11.6 14.5 L11.6 10.3 C12.0 10.2 12.3 10.0 12.6 10.0 L11.8 10.2 L11.8 10.0 C12.9 10.0 13.9 10.0 15.9 10.2 L18.4 10.2"/> <path fill="none" stroke="black" stroke-width="0.3" stroke-opacity="1.0" filling="0" d="M15.4 10.4 L15.4 10.4 C15.5 10.5 15.5 10.6 15.6 10.7 L18.1 11.9 C18.2 12.3 18.3 12.7 18.6 13.1 L15.2 13.1 C14.9 12.7 14.4 12.3 14.0 12.0 L18.1 11.4 L15.5 10.7 C15.5 10.6 15.5 10.5 15.4 10.4 L15.4 10.4"/></svg>