<svg xmlns="http://www.w3.org/2000/svg" viewBox="0 0 24 24"><path d="M4 4 L20 4 L20 20.2 C4 21.3 13.2 21.3 15.5 19.9 L15.5 19.9 L10.0 14.1 L5.7 14.1 L5.7 9.8 L5.7 8.1 C6.3 7.7 6.8 7.2 7.4 7.0 L10.0 7.0 L10.0 11.4 L6.8 11.4 L10.0 9.2 L8.1 7.1 C8.5 7.0 8.9 6.9 9.2 6.8 L12.1 5.8"/> <path fill="none" stroke="black" stroke-width="0.3" stroke-opacity="1.0" filling="0" d="M12.1 10.2 L12.1 10.2 C12.3 10.5 12.5 10.7 12.8 10.9 L13.1 11.4 C13.1 11.5 13.1 11.6 13.1 11.6 L12.1 11.6 C12.1 11.6 12.0 11.5 12.0 11.4 L12.0 11.1 C11.9 11.1 11.9 11.1 12.1 11.1 L12.1 10.9 C12.3 10.7 12.4 10.5 12.5 10.2 L12.1 10.2"/> <path fill="none" stroke="black" stroke-width="0.3" stroke-opacity="1.0" filling="0" d="M5.7 13.0 L5.7 13.0 C5.8 13.3 6.0 13.5 6.1 13.8 L6.1 13.8 C6.0 13.8 5.9 13.7 5.7 13.6 L5.7 13.6 C5.6 13.5 5.6 13.3 5.5 13.3 L5.5 13.3 C5.6 13.4 5.7 13.3 5.7 13.3 L5.7 13.3 C5.7 13.3 5.7 13.2 5.7 13.0 L5.7 13.0"/> <path fill="none" stroke="black" stroke-width="0.3" stroke-opacity="1.0" filling="0" d="M8.0 13.0 L8.0 13.0 C7.9 13.3 7.9 13.6 8.0 13.8 L8.0 13.8 C8.0 13.9 8.0 14.0 8.0 14.0 L8.0 14.0 C8.0 14.1 8.0 14.0 8.0 13.9 L8.0 13.9 C8.0 13.7 8.0 13.4 8.0 13.3 L8.0 13.3 C8.0 13.2 8.0 13.1 8.0 13.0 L8.0 13.0"/> <path fill="none" stroke="black" stroke-width="0.3" stroke-opacity="1.0" filling="0" d="M9.8 13.0 L9.8 13.0 C10.0 13.2 10.1 13.7 10.3 13.8 L10.3 16.8 L10.3 16.8 C10.1 16.8 10.0 16.8 9.8 16.8 L9.8 16.8 C9.7 16.8 9.5 16.7 9.4 16.7 L9.4 13.8 C9.5 13.7 9.7 13.2 9.8 13.0 L9.8 13.0"/> <path fill="none" stroke="black" stroke-width="0.3" stroke-opacity="1.0" filling="0" d="M12.1 13.0 L12.1 13.0 C12.3 13.2 11.6 13.5 12.0 13.8 L12.0 13.8 C11.9 13.7 11.9 13.3 11.8 13.1 L11.9 13.1 C12.1 13.0 12.2 13.0 12.1 13.0 L12.1 13.0"/> <path fill="none" stroke="black" stroke-width="0.3" stroke-opacity="1.0" filling="0" d="M11.0 13.0 L11.0 13.0 C11.2 13.3 11.5 13.5 11.6 13.8 L11.6 14.1 C11.3 14.4 11.0 14.4 10.8 14.1 L10.8 13.8 C10.9 13.5 11.1 13.3 11.0 13.0 L11.0 13.0"/> <path fill="none" stroke="black" stroke-width="0.3" stroke-opacity="1.0" filling="0" d="M13.7 13.0 L13.7 13.0 C14.0 13.3 14.3 13.5 14.5 13.8 L14.5 14.1 C14.1 14.4 13.7 14.7 13.4 15.0 L13.4 15.0 C13.0 14.7 12.9 14.4 12.5 14.1 L12.5 13.8 C12.7 13.5 13.0 13.3 13.7 13.0 L13.7 13.0"/> <path fill="none" stroke="black" stroke-width="0.3" stroke-opacity="1.0" filling="0" d="M4.8 13.2 L4.8 13.2 C5.0 13.7 5.1 13.8 5.4 14.4 L5.4 14.4 C4.6 14.6 4.2 14.6 4.0 14.4 L4.0 14.4 C4.1 14.2 4.2 14.1 4.3 13.9 L4.3 13.9 C4.4 13.8 4.4 13.7 4.4 13.6 L4.4 13.6 C4.5 13.4 4.6 13.3 4.8 13.2 L4.8 13.2"/> <path fill="none" stroke="black" stroke-width="0.3" stroke-opacity="1.0" filling="0" d="M4.8 13.2 L4.8 13.2 C4.9 13.5 5.0 13.8 5.2 14.0 L5.2 14.4 C5.0 14.4 4.8 14.5 4.7 14.4 L4.7 14.0 C4.8 13.8 4.8 13.5 4.8 13.4 L4.8 13.2"/> <path fill="none" stroke="black" stroke-width="0.3" stroke-opacity="1.0" filling="0" d="M5.5 13.2 L5.5 13.2 C5.6 13.3 5.7 13.3 5.8 13.4 L5.8 13.9 C5.7 14.0 5.6 14.0 5.5 13.9 L5.5 13.4 C5.6 13.3 5.6 13.3 5.5 13.2 L5.5 13.2"/> <path fill="none" stroke="black" stroke-width="0.3" stroke-opacity="1.0" filling="0" d="M7.9 13.2 L7.9 13.2 C7.9 13.3 8.0 13.4 8.1 13.4 L8.1 13.9 C8.0 14.1 8.0 14.1 8.0 14.2 L8.0 14.5 C8.0 14.6 8.0 14.7 8.0 14.8 L8.0 14.8 C7.9 14.8 7.8 14.8 7.7 14.8 L7.7 14.8 C7.8 14.8 7.8 14.9 7.8 15.0 L7.8 15.0 C7.7 15.0 7.7 14.9 7.6 14.8 L7.6 14.5 C7.6 14.4 7.6 14.4 7.7 14.4 L7.7 14.0 C7.7 13.9 7.7 13.8 7.6 13.8 L7.6 13.5 C7.6 13.4 7.8 13.3 7.9 13.2 L7.9 13.2"/> <path fill="none" stroke="black" stroke-width="0.3" stroke-opacity="1.0" filling="0" d="M8.6 13.2 L8.6 13.2 C8.7 13.4 8.9 13.4 9.0 13.6 L9.0 13.9 C8.9 14.0 8.9 14.1 8.8 14.2 L8.0 14.2 C8.0 14.1 8.0 14.0 8.0 13.9 L8.0 13.7 C8.0 13.6 8.1 13.4 8.2 13.2 L8.2 13.2"/> <path fill="none" stroke="black" stroke-width="0.3" stroke-opacity="1.0" filling="0" d="M9.4 13.6 L9.4 13.6 C9.4 13.7 9.4 13.9 9.4 13.9 L9.4 13.9 C9.3 13.9 9.3 13.8 9.3 13.8 L9.3 13.5 C9.3 13.4 9.3 13.3 9.4 13.3 L9.4 13.3 C9.4 13.2 9.3 13.1 9.2 13.0 L9.2 13.0 C9.3 13.0 9.4 13.0 9.4 13.0 L9.4 13.0 C9.4 13.0 9.4 13.0 9.4 13.0 L9.4 13.0 C9.4 13.0 9.4 13.0 9.4 13.0 L9.4 13.0 C9.4 13.0 9.4 13.0 9.4 13.0 L9.4 13.0 C9.4 13.0 9.4 13.0 9.4 13.0 L9.4 13.0 C9.4 13.0 9.4 13.0 9.4 13.0 L9.4 13.0 C9.4 13.0 9.4 13.0 9.4 13.0 L9.4 13.0 C9.4 13.0 9.4 13.0 9.4 13.0 L9.4 13.0 C9.4 13.0 9.4 13.0 9.4 13.0 L9.4 13.0 C9.4 13.0 9.4 13.0 9.4 13.0 L9.4 13.0 C9.4 13.1 9.4 13.1 9.4 13.1 L9.4 13.1 C9.4 13.1 9.4 13.1 9.4 13.1 L9.4 13.1 C9.4 13.1 9.4 13.1 9.4 13.0 L9.4 13.0 C9.4 13.0 9.4 12.9 9.4 12.9 L9.4 12.9 C9.4 12.9 9.4 12.9 9.4 12.9 L9.4 12.9 C9.4 12.9 9.4 12.9 9.3 12.9 L9.3 12.9 C9.3 12.8 9.3 12.8 9.3 12.8 L9.3 12.8 C9.3 12.8 9.3 12.8 9.3 12.8 L9.3 12.8 C9.3 12.9 9.3 12.9 9.3 12.9 L9.3 12.9 C9.3 12.9 9.3 12.9 9.3 12.9 L9.3 12.9 C9.3 12.9 9.3 12.8 9.3 12.8 L9.3 12.8 C9.3 12.8 9.3 12.9 9.3 12.9 L9.3 12.9 C9.3 12.9 9.3 13.0 9.2 13.1 L9.2 13.1 C9.1 13.0 9.0 13.0 8.9 13.0 L8.9 13.0 C8.9 13.0 8.7 12.9 8.6 12.8 L8.6 12.8 C8.6 12.7 8.6 12.6 8.6 12.5 L8.6 12.5 C8.7 12.4 8.8 12.3 9.0 12.2 L9.0 12.2 C9.0 12.1 9.0 12.0 9.0 12.0 L8.6 12.0 C8.5 11.9 8.4 11.9 8.3 11.8 L8.3 11.8 C8.4 11.7 8.4 11.7 8.4 11.7 L8.4 11.7 C8.4 11.6 8.3 11.6 8.2 11.4 L8.2 11.4 C8.2 11.4 8.3 11.4 8.4 11.3 L8.4 11.3 C8.4 11.3 8.4 11.3 8.4 11.3 L8.4 11.3 C8.4 11.3 8.4 11.3 8.4 11.3 L8.4 11.3"/> <path fill="none" stroke="black" stroke-width="0.3" stroke-opacity="1.0" filling="0" d="M12.9 13.6 L12.9 13.6 C13.3 14.0 13.6 14.4 13.9 14.9 L13.9 14.9 C14.1 14.8 14.3 14.5 14.5 14.4 C14.7 14.2 14.4 14.3 14.3 14.4 L14.3 14.4 C14.3 14.4 14.3 14.3 14.3 14.3 L14.3 14.3 C13.8 14.3 13.4 14.3 13.0 14.4 L13.0 14.4 C12.9 14.2 12.7 14.1 12.5 13.9 L12.5 13.9 C12.5 13.5 12.5 13.4 12.4 13.6 L12.4 13.6"/></svg>