<svg xmlns="http://www.w3.org/2000/svg" viewBox="0 0 24 24"><path d="M4 4 L20 4 L20 20.3"/> <path fill="none" stroke="black" stroke-width="0.3" stroke-opacity="1.0" filling="0" d="M6.2 9.1 L11.9 9.1 L17.5 9.1 L17.5 13.7 L17.5 18.4 L11.9 18.4 L6.2 18.4"/> <path fill="none" stroke="black" stroke-width="0.3" stroke-opacity="1.0" filling="0" d="M6.7 11.1 L11.1 11.1 L16.5 11.1 L16.5 16.0 L11.1 16.0 L6.7 16.0"/> <path fill="none" stroke="black" stroke-width="0.3" stroke-opacity="1.0" filling="0" d="M6.6 12.4 L11.7 12.4 L16.8 12.4 L16.8 13.8 L11.7 13.8 L6.6 13.8"/> <path fill="none" stroke="black" stroke-width="0.3" stroke-opacity="1.0" filling="0" d="M10.5 12.4 L10.5 17.5 L6.0 17.5 L9.0 12.4 L10.5 12.4"/> <path fill="none" stroke="black" stroke-width="0.3" stroke-opacity="1.0" filling="0" d="M12.6 12.4 L16.5 12.4 L16.5 15.0 L12.6 15.0"/> <path fill="none" stroke="black" stroke-width="0.3" stroke-opacity="1.0" filling="0" d="M7.8 15.2 L8.0 15.2 L8.0 15.9 L7.8 15.9 L7.8 15.2"/> <path fill="none" stroke="black" stroke-width="0.3" stroke-opacity="1.0" filling="0" d="M10.5 15.2 L10.5 15.2 C11.1 15.4 11.9 15.6 12.5 16.1 C12.9 16.5 13.4 16.8 13.8 17.2 C15.2 17.7 16.5 18.9 16.7 21.3 C17.0 22.8 17.3 22.7 16.4 22.8 C15.5 22.9 14.1 22.2 13.9 22.1 C12.6 21.9 11.7 21.0 10.5 20.1 C10.0 19.4 9.6 19.0 9.2 17.6 C8.7 16.7 9.8 15.6 10.5 15.2 L10.5 15.2"/> <path fill="none" stroke="black" stroke-width="0.3" stroke-opacity="1.0" filling="0" d="M8.6 16.6 L9.6 16.6 L9.6 19.5 L8.6 19.5"/> <path fill="none" stroke="black" stroke-width="0.3" stroke-opacity="1.0" filling="0" d="M10.5 16.6 L10.5 18.5 L7.2 18.5 L7.2 16.6 L9.2 16.6 L9.2 16.6"/> <path fill="none" stroke="black" stroke-width="0.3" stroke-opacity="1.0" filling="0" d="M10.5 16.6 L10.5 18.3 L8.2 18.3 L8.2 16.6 L10.5 16.6"/> <path fill="none" stroke="black" stroke-width="0.3" stroke-opacity="1.0" filling="0" d="M10.5 16.6 L10.5 17.4 L8.6 17.4 L8.6 16.6"/> <path fill="none" stroke="black" stroke-width="0.3" stroke-opacity="1.0" filling="0" d="M10.5 16.6 L12.6 16.6 L12.6 17.4 L10.5 17.4"/> <path fill="none" stroke="black" stroke-width="0.3" stroke-opacity="1.0" filling="0" d="M6.8 17.0 L6.8 17.0 C7.1 17.2 7.7 17.3 8.1 17.7 C8.5 18.2 7.5 18.9 7.2 19.0 C6.9 19.1 6.5 19.3 6.0 19.0 C5.5 18.9 4.9 18.2 4.9 17.8 C5.1 17.3 5.8 17.2 6.8 17.0 L6.8 17.0"/></svg>