<svg xmlns="http://www.w3.org/2000/svg" viewBox="0 0 24 24"><circle cx="12" cy="12" r="10" fill="none" stroke="black"/><circle cx="9" cy="10" r="1.5" fill="black"/>/path-width="0.0" stroke-opacity="none" stroke-width="0.3" stroke-opacity="1.0" filling="0" d="M12.0 7.8 L12.0 7.8 C12.2 7.8 12.9 7.2 13.8 7.7 C14.5 9.8 14.2 11.4 13.0 13.2 L12.0 13.2 L11.8 13.4 C11.9 13.4 12.0 13.5 12.0 13.7 L12.0 13.7 C10.9 13.5 9.2 13.4 8.4 12.8 C7.7 12.5 8.0 11.5 9.0 10.4 L9.0 10.2 C9.4 10.9 10.6 11.8 11.0 12.3 C12.0 13.2 10.5 14.4 11.0 14.5 C11.3 14.5 12.6 13.5 12.5 13.5 C12.7 13.5 12.8 14.5 12.0 14.5 C12.2 14.5 12.8 15.9 12.0 15.1 C11.2 14.9 11.2 14.9 10.1 15.1 C9.5 15.7 10.3 15.8 11.6 16.0 L11.6 16.0 C12.8 17.9 13.9 18.1 12.8 18.5 C12.2 18.6 12.5 17.8 12.1 17.5 C11.1 17.5 9.7 21.8 9.8 21.5 C9.9 21.3 11.3 20.4 11.6 19.4 L11.6 18.2 C12.0 17.9 12.7 17.4 13.4 17.0 C13.2 16.8 13.9 16.1 13.3 16.5 C12.6 15.0 12.9 13.0 12.4 11.9 C12.9 10.8 13.6 10.4 14.2 9.8 L14.2 9.8 C14.3 9.3 14.6 8.7 14.3 8.8 L14.3 8.7 C14.6 8.5 15.1 8.3 15.6 8.1 C17.5 7.6 17.3 8.9 16.6 10.5 C16.8 11.4 16.6 12.4 16.0 13.4 C16.4 14.3 16.5 15.5 16.1 16.8 L16.1 16.0 C16.4 16.2 15.5 16.3 15.3 16.0 C15.3 15.1 15.1 15.2 15.0 15.6 L15.0 15.6 C14.8 15.6 14.5 15.6 14.3 15.4 L14.3 15.2 C14.0 15.6 13.8 15.7 13.6 15.8 L13.6 15.1 C13.8 13.0 13.0 10.9 13.9 11.0 C13.8 10.2 14.0 9.6 14.8 9.1 L14.8 9.1 C14.4 8.1 14.9 7.1 14.7 6.0 L14.7 6.0"/> <path fill="none" stroke="black" stroke-width="0.3" stroke-opacity="1.0" filling="0" d="M14.7 15.0 L14.7 15.0 C16.4 15.4 18.6 15.4 18.5 17.8 C18.5 18.5 16.6 19.9 14.7 19.8 C13.3 19.8 11.5 18.5 10.6 17.8 C10.6 17.4 10.9 17.3 10.4 17.1 C10.9 16.3 11.3 16.0 12.2 16.0 C12.5 15.0 13.4 15.5 14.7 15.0 L14.7 15.0"/></svg>