<svg xmlns="http://www.w3.org/2000/svg" viewBox="0 0 24 24"><circle cx="12" cy="12" r="10" fill="none" stroke="black"/><circle cx="9" cy="10" r="1.5" fill="black"/>="200path fill="none" stroke="black" stroke-width="0.3" stroke-opacity="1.0" filling="0" d="M9.8 8.5 L11.6 8.5 L11.6 14.3 L10.6 14.3 L10.8 13.3 L10.8 14.4 L12.3 14.4 L10.4 14.4 L10.6 15.4 L9.8 15.4 L9.8 15.8 L9.8 15.8 L9.8 18.7 L9.8 18.7 L9.8 18.7 L8.7 18.7 L8.7 13.9 L8.7 13.9 L8.7 13.9 L8.7 8.9 L8.7 8.5 C8.7 8.5 8.8 8.5 9.1 8.5 L9.1 8.5"/> <path fill="none" stroke="black" stroke-width="0.3" stroke-opacity="1.0" filling="0" d="M13.0 9.4 L13.0 9.4 C13.0 9.5 13.0 9.5 13.0 9.6 L13.0 10.1 C13.0 10.1 13.8 10.1 13.7 10.1 C13.7 10.1 13.7 10.1 13.7 10.1 L13.7 9.6 C13.7 9.5 13.8 9.5 13.9 9.4 L13.9 9.4 C13.9 9.5 13.9 9.5 13.0 9.4 L13.0 9.4"/> <path fill="none" stroke="black" stroke-width="0.3" stroke-opacity="1.0" filling="0" d="M12.1 11.8 L12.1 11.8 C12.2 12.9 12.3 12.9 12.2 12.8 L12.2 12.3 C12.0 12.0 11.8 11.0 11.7 10.8 L12.1 10.8"/> <path fill="none" stroke="black" stroke-width="0.3" stroke-opacity="1.0" filling="0" d="M12.1 12.8 L12.1 12.8 C12.1 12.9 11.2 12.9 11.3 12.8 C11.2 12.8 11.8 12.9 12.1 12.8 L12.1 12.8"/> <path fill="none" stroke="black" stroke-width="0.3" stroke-opacity="1.0" filling="0" d="M13.4 12.8 L13.4 12.8 C13.5 12.9 13.5 12.9 13.5 12.9 L13.5 12.9 C13.5 12.9 13.5 12.9 13.4 12.8 L13.4 12.8"/> <path fill="none" stroke="black" stroke-width="0.3" stroke-opacity="1.0" filling="0" d="M12.2 13.5 L12.2 13.5 C12.5 13.6 12.9 13.8 13.0 13.9 L13.0 14.9 C12.9 15.9 12.6 15.3 11.6 14.5 L11.6 13.5 C12.0 13.3 12.5 13.1 12.2 13.5 L12.2 13.5"/> <path fill="none" stroke="black" stroke-width="0.3" stroke-opacity="1.0" filling="0" d="M12.2 13.6 L14.2 13.6 C14.3 13.7 14.3 13.1 14.2 13.2 L12.2 13.2 C12.1 13.1 12.2 13.7 12.2 13.6 C12.2 13.5 12.1 13.2 12.2 13.1 L12.2 13.1 C12.3 13.8 12.3 13.6 12.2 13.5 L12.2 13.5"/></svg>