<svg xmlns="http://www.w3.org/2000/svg" viewBox="0 0 24 24"><circle cx="12" cy="12" r="10" fill="none" stroke="black"/><circle cx="9" cy="10" r="1.5" fill="black"/>/path-opacity="black" stroke-width="0.3" stroke-opacity="1.0" filling="0" d="M10.6 8.0 L10.6 8.0 C8.2 8.5 7.8 8.9 6.3 9.5 L6.3 9.5 C7.8 9.3 8.8 10.2 9.2 9.8 L9.6 9.8 C9.0 11.6 8.4 14.5 9.8 14.4 L9.8 14.4 C9.8 16.7 9.8 19.0 9.9 19.2 C11.4 19.6 9.3 19.0 10.6 17.0 L10.6 15.0 C10.7 13.0 10.8 11.1 10.1 8.0 C9.6 7.9 9.0 8.1 9.5 8.0 L9.5 8.0"/> <path fill="none" stroke="black" stroke-width="0.3" stroke-opacity="1.0" filling="0" d="M17.4 8.4 L17.4 8.4 C17.7 8.5 18.0 8.7 18.2 8.9 L18.2 8.1 C18.7 8.2 18.3 8.6 18.8 8.7 C20.2 8.7 20.6 10.9 19.4 11.9 L19.4 11.9 C17.6 10.7 16.8 9.3 17.4 8.0 C17.4 7.8 17.3 8.2 17.4 8.4 L17.4 8.4"/> <path fill="none" stroke="black" stroke-width="0.3" stroke-opacity="1.0" filling="0" d="M9.4 8.4 L9.4 8.4 C9.8 8.4 10.5 8.5 10.3 8.0 C10.5 8.6 10.2 9.7 10.2 10.7 L10.2 10.7 C10.2 10.6 10.2 10.5 10.3 10.4 C10.4 10.4 10.3 10.6 10.5 10.8 L10.5 10.8 C10.6 11.7 10.7 12.5 10.8 13.4 L10.8 13.4 C9.8 15.7 9.1 16.3 7.5 17.4 L7.5 17.4 C7.9 16.4 8.4 15.4 9.5 14.4 L9.5 14.4 C9.5 15.4 9.5 16.4 9.4 16.4 L9.4 16.4 C8.0 16.6 7.6 15.7 7.0 13.0 L7.0 13.0 C9.1 13.4 12.7 13.7 13.0 14.1 C14.0 14.5 14.5 15.2 15.8 15.6 C16.5 16.7 16.2 16.6 15.4 17.4 C13.6 18.2 10.9 18.6 9.3 18.8 C7.5 18.0 6.1 15.2 4.7 13.7 C4.5 12.2 5.3 9.5 6.0 8.0 C7.0 8.5 8.9 9.5 9.4 9.4 C9.6 8.4 9.8 8.2 9.4 8.4 L9.4 8.4"/> <path fill="none" stroke="black" stroke-width="0.3" stroke-opacity="1.0" filling="0" d="M9.5 8.8 L9.5 8.8 C9.9 8.8 10.4 9.8 10.9 9.9 C11.3 10.1 11.0 10.8 10.5 11.5 C10.6 12.4 10.7 12.4 10.8 13.4 C10.9 14.3 10.9 18.9 10.0 18.1 C9.1 17.2 8.0 16.4 9.9 15.5 L9.9 15.5 C10.9 15.3 10.1 15.6 9.4 15.4 L9.4 15.4 C9.3 13.5 9.1 13.6 9.9 14.4 C10.7 14.1 10.6 13.6 9.8 13.4 L9.8 13.4 C9.6 12.0 9.3 11.9 9.0 11.6 L9.0 11.6 C9.2 9.0 9.3 8.2 9.5 8.8 L9.5 8.8"/> <path fill="none" stroke="black" stroke-width="0.3" stroke-opacity="1.0" filling="0" d="M15.5 10.8 L15.5 10.8 C15.6 11.7 15.7 13.4 15.8 15.3 L15.8 15.3 C15.5 15.2 15.5 15.0 15.5 14.9 L15.5 14.9 C15.5 14.4 15.5 14.4 15.5 14.4 C15.5 14.4 15.6 14.6 15.8 15.1 C15.5 15.9 16.1 15.0 14.5 15.0 L14.5 15.0 C14.6 14.0 15.1 13.9 15.0 13.6 C14.8 12.3 15.3 11.9 15.5 10.8 L15.5 10.8"/></svg>