<svg xmlns="http://www.w3.org/2000/svg" viewBox="0 0 24 24"><circle cx="12" cy="12" r="10" fill="none" stroke="black"/><circle cx="9" cy="10" r="1.5" fill="black"/>/px"><path fill="none" stroke="black" stroke-width="0.3" stroke-opacity="1.0" filling="0" d="M15.9 7.2 L17.2 7.8 L17.1 8.4 L15.9 8.4 L15.8 7.2"/> <path fill="none" stroke="black" stroke-width="0.3" stroke-opacity="1.0" filling="0" d="M17.2 9.9 L17.8 9.9 L17.2 10.0 L17.2 10.9"/> <path fill="none" stroke="black" stroke-width="0.3" stroke-opacity="1.0" filling="0" d="M13.3 11.9 L13.7 11.9 L13.7 13.3 L12.9 13.3 L12.2 11.9 L11.7 11.9 L13.3 11.9"/> <path fill="none" stroke="black" stroke-width="0.3" stroke-opacity="1.0" filling="0" d="M17.2 13.0 L17.8 13.0 L17.2 14.0"/> <path fill="none" stroke="black" stroke-width="0.3" stroke-opacity="1.0" filling="0" d="M15.6 13.4 L17.1 13.4 L15.6 12.4 L15.3 12.4"/> <path fill="none" stroke="black" stroke-width="0.3" stroke-opacity="1.0" filling="0" d="M15.5 13.4 L15.5 13.4 C16.0 13.4 16.6 13.4 17.2 13.6 C17.7 13.8 18.6 14.4 18.2 15.5 C17.9 16.4 17.8 17.0 16.3 17.4 C15.8 17.7 15.0 17.1 14.8 16.9 C14.2 15.9 14.6 14.6 15.5 13.4 L15.5 13.4"/> <path fill="none" stroke="black" stroke-width="0.3" stroke-opacity="1.0" filling="0" d="M16.1 13.4 L16.1 13.4 C16.6 13.7 16.0 13.3 15.5 13.2 C14.9 13.8 14.7 13.2 14.3 13.6 L14.3 13.6 C14.1 13.4 14.9 13.3 15.3 13.2 L16.1 13.2 C16.6 13.8 16.0 13.3 16.5 13.4 L16.2 13.4"/> <path fill="none" stroke="black" stroke-width="0.3" stroke-opacity="1.0" filling="0" d="M15.2 13.4 L15.2 13.4 C14.6 13.6 13.2 14.5 14.2 14.4 C14.2 14.3 14.7 14.3 15.2 14.9 L16.2 14.9 C16.6 15.4 17.0 15.9 18.9 16.4 C19.2 17.2 20.9 17.6 19.2 21.1 C18.5 21.9 16.4 21.1 15.2 20.4 C13.9 20.6 12.8 20.6 12.6 19.4 C12.9 17.2 13.6 15.5 15.6 14.4 C16.5 13.1 14.4 13.3 15.2 13.2 L15.2 13.2"/> <path fill="none" stroke="black" stroke-width="0.3" stroke-opacity="1.0" filling="0" d="M15.2 13.4 L15.2 13.4 C16.4 13.6 12.5 13.6 12.4 12.4 C12.2 9.6 12.7 8.5 14.7 7.5 L14.7 7.5 C15.0 7.4 15.4 7.5 15.6 7.4 L15.6 7.4 C16.4 7.0 18.2 6.4 18.6 6.5 C19.0 6.5 19.4 7.4 18.0 9.5 C17.3 11.5 16.4 13.4 15.2 13.4 L15.2 13.4"/></svg>