<svg xmlns="http://www.w3.org/2000/svg" viewBox="0 0 24 24"><circle cx="12" cy="12" r="10" fill="none" stroke="black"/><circle cx="9" cy="10" r="1.5" fill="black"/>/path-width="0.0" stroke-opacity="none" filling="0" stroke-opacity="1.0" filling="0" d="M6.0 3.6 L8.4 3.6 C9.7 3.5 10.0 3.7 11.8 4.1 L12.0 6.0 L16.6 6.2 C17.2 6.8 17.8 7.6 18.2 8.4 L18.2 12.2 L12.8 12.2 L10.2 12.0 L9.7 5.2 C8.9 5.8 7.0 5.4 5.2 5.0 L5.2 4.9 L5.2 4.7 C5.3 3.6 5.3 3.8 6.2 3.2 L6.2 3.2 C6.3 3.9 6.3 4.6 6.2 5.6 L6.2 5.6 C6.0 5.6 5.0 5.8 5.2 5.2 L5.2 5.0 C5.4 3.8 5.3 3.6 5.2 3.6 L5.2 3.6 C5.9 3.7 5.2 3.9 5.3 4.2 L5.3 4.2 C5.5 3.7 6.7 3.5 6.2 3.1 L6.2 3.1 C6.4 3.8 6.6 3.4 6.8 3.6 L6.8 3.6"/> <path fill="none" stroke="black" stroke-width="0.3" stroke-opacity="1.0" filling="0" d="M15.5 7.0 L15.5 7.0 C15.6 7.1 15.7 7.2 15.8 7.3 L15.8 9.5 C15.4 9.6 14.4 9.7 13.4 9.5 L13.4 9.3 C14.5 8.2 14.7 8.8 15.5 7.9 L15.5 7.0"/> <path fill="none" stroke="black" stroke-width="0.3" stroke-opacity="1.0" filling="0" d="M11.5 7.4 L11.5 7.4 C12.9 7.4 13.8 7.4 14.4 8.5 L14.4 8.5 C15.4 9.2 16.0 9.0 16.7 10.8 L16.7 10.8 C17.1 12.5 17.5 14.3 16.8 16.1 C16.7 17.2 15.4 18.2 14.4 18.0 C12.5 17.8 11.3 16.3 10.0 14.5 L10.0 14.5 C10.3 13.4 10.0 12.3 10.5 10.2 C10.9 8.2 11.7 8.8 11.5 7.4 L11.5 7.4"/> <path fill="none" stroke="black" stroke-width="0.3" stroke-opacity="1.0" filling="0" d="M11.5 7.6 L11.5 7.1 C13.1 7.2 13.4 7.9 14.1 8.2 L11.7 8.2 L11.1 8.8 C12.0 9.1 12.6 10.2 12.4 10.2 C12.0 10.2 11.7 10.1 11.5 10.1 L11.5 10.7 L11.5 10.7 L10.3 10.7 C9.4 8.4 9.8 8.7 11.5 10.7 L11.9 10.7 C12.7 10.9 12.6 11.0 11.5 11.2 L11.5 10.7 L12.5 10.1 L12.5 9.6 C12.8 9.6 12.0 9.5 11.2 9.5 L8.5 9.5 C8.2 9.8 8.8 10.0 9.5 10.4 L10.6 10.0 C11.1 9.8 11.9 10.6 12.2 10.4 L12.2 10.4 L12.3 10.4 C12.1 10.4 12.9 10.3 13.7 10.3 L13.7 10.3 C14.2 9.4 14.5 9.4 14.4 9.5 L14.4 9.5 L12.4 9.5 C12.1 9.4 11.7 9.3 11.3 9.3 L11.3 10.3 C11.3 9.2 11.4 8.2 11.4 7.0 L11.4 7.0 C11.7 7.9 12.1 8.8 12.5 9.6 L12.5 10.6"/> <path fill="none" stroke="black" stroke-width="0.3" stroke-opacity="1.0" filling="0" d="M13.5 9.5 L13.5 9.5 C13.6 9.5 13.7 9.5 13.7 9.5 L13.7 9.5 C13.5 9.5 13.4 9.5 13.3 9.5 L13.3 9.5 C13.4 9.5 13.5 9.5 13.5 9.5 L13.5 9.5"/> <path fill="none" stroke="black" stroke-width="0.3" stroke-opacity="1.0" filling="0" d="M7.1 10.4 L7.1 10.4 C7.5 10.5 7.9 10.5 8.3 10.6 C8.6 10.6 8.9 10.5 9.2 10.4 C9.8 10.3 10.8 10.8 11.1 10.4 C11.4 10.9 11.8 11.6 12.3 11.0 C12.6 10.6 12.8 10.3 13.2 11.4 L14.3 12.4 C14.4 12.8 14.5 13.2 14.6 13.9 L14.6 13.7 C14.5 13.3 14.4 13.1 14.2 12.0 L14.2 11.0 C14.1 11.6 14.0 12.2 13.9 12.9 L13.9 13.0 C13.9 13.9 14.8 14.8 14.7 15.6 L13.5 15.6 C13.5 15.5 13.5 15.4 13.5 15.3 L13.5 15.3 C13.4 15.3 13.3 15.3 13.2 15.3 L13.2 15.3 C13.3 15.9 13.1 16.4 13.9 17.8 L13.9 17.8 C13.4 18.4 12.9 18.2 12.3 17.9 L12.3 17.9 C11.5 18.6 11.9 17.3 12.8 15.6 L12.8 15.6 C12.7 14.9 12.3 14.5 11.4 13.3 L11.4 12.3 C10.4 12.6 9.2 12.5 8.4 12.5 L8.5 11.5 C8.3 11.0 8.0 10.4 7.0 10.4 L7.1 9.4"/></svg>