<svg xmlns="http://www.w3.org/2000/svg" viewBox="0 0 24 24"><circle cx="12" cy="12" r="10" fill="none" stroke="black"/><circle cx="9" cy="10" r="1.5" fill="black"/> <path fill="none" stroke="black" stroke="black" stroke-width="0.3" stroke-opacity="1.0" filling="0" d="M11.7 5.3 L11.7 5.3 C12.8 5.6 14.0 6.7 14.8 7.8 C15.6 9.0 15.9 10.8 15.9 12.2 C15.9 13.5 15.9 14.9 15.9 16.3 L15.9 16.3 L15.1 16.5 C14.0 17.0 12.8 17.1 11.7 16.5 L11.7 16.5 C11.5 17.2 11.6 17.9 11.7 18.6 L11.7 18.5 C11.9 17.6 12.3 16.7 12.7 16.0 L12.7 16.0 C12.5 15.3 12.3 14.6 12.0 14.1 L12.0 12.6 C11.6 12.9 11.0 13.4 10.7 13.9 L10.7 13.9 C10.5 14.6 10.4 15.3 10.2 16.0 L10.2 16.0 C9.4 16.7 9.0 17.6 8.5 18.5 L8.5 18.5 C10.2 17.1 10.6 15.9 10.0 13.9 C9.9 13.5 9.5 13.2 9.4 12.8 C8.2 11.6 7.9 10.5 8.3 9.0 L8.3 9.0 C8.9 6.7 9.7 5.6 11.7 5.3 L11.7 5.3"/> <path fill="none" stroke="black" stroke-width="0.3" stroke-opacity="1.0" filling="0" d="M10.9 9.0 L10.9 9.0 C12.6 10.2 12.8 11.7 12.5 13.4 C12.3 14.6 11.6 15.8 10.9 16.9 L10.9 16.9"/> <path fill="none" stroke="black" stroke-width="0.3" stroke-opacity="1.0" filling="0" d="M15.4 11.7 L15.4 11.7 C16.2 13.5 16.6 14.7 16.2 16.9 L16.2 16.9"/></svg>