<svg xmlns="http://www.w3.org/2000/svg" viewBox="0 0 24 24"><circle cx="12" cy="12" r="10" fill="none" stroke="black"/><circle cx="9" cy="10" r="1.5" fill="black"/> <path fill="none" stroke="black" stroke="black" stroke-width="0.3" stroke-opacity="1.0" filling="0" d="M11.7 3.8 L12.4 3.8 C13.9 4.3 14.2 5.7 13.9 6.9 C13.7 7.5 13.3 8.1 13.1 8.7 C12.7 10.1 12.9 11.8 13.7 12.6 C14.1 13.2 15.6 13.0 16.4 13.9 C18.1 15.9 18.0 17.1 17.3 18.6 C16.6 19.9 15.0 20.8 13.3 20.8 C11.5 20.8 9.6 19.9 8.8 18.6 C8.0 17.5 7.2 16.3 7.0 14.9 C6.9 12.9 7.6 11.8 8.3 10.4 C8.9 9.1 9.5 7.9 10.1 6.9 C10.6 5.9 11.1 4.5 11.7 3.8 L11.7 3.8"/> <path fill="none" stroke="black" stroke-width="0.3" stroke-opacity="1.0" filling="0" d="M11.7 4.3 L12.4 4.3 L12.4 6.5 C12.6 6.8 13.1 6.9 13.1 7.3 C13.1 7.8 12.6 8.1 12.4 8.6 L12.4 10.1 C12.7 11.1 13.1 11.8 13.3 12.7 C14.0 14.9 14.8 16.2 13.3 17.7 L13.3 17.7 C13.1 17.8 12.9 18.0 12.8 18.2 L12.8 18.2 C12.5 18.0 12.2 17.8 11.8 17.7 L11.8 17.7 C12.1 17.6 12.5 17.6 12.4 17.4 C12.3 17.2 11.9 17.2 11.8 17.0 C11.1 15.0 11.7 13.6 11.7 11.5 C11.4 9.4 10.3 8.1 10.0 6.5 L10.0 5.4 C10.5 5.2 10.9 5.0 11.4 4.7 L11.4 4.7 C11.5 4.6 11.6 4.4 11.7 4.3 L11.7 4.3"/> <path fill="none" stroke="black" stroke-width="0.3" stroke-opacity="1.0" filling="0" d="M11.5 7.9 L12.8 7.9 L12.8 10.1 L11.5 10.1"/> <path fill="none" stroke="black" stroke-width="0.3" stroke-opacity="1.0" filling="0" d="M9.6 10.1 L12.8 10.1 L12.8 11.7 L9.6 11.7"/> <path fill="none" stroke="black" stroke-width="0.3" stroke-opacity="1.0" filling="0" d="M12.2 10.1 L12.2 10.1 C12.3 10.1 12.3 10.1 12.3 10.1 L12.3 10.7 C12.3 10.7 12.2 10.7 12.2 10.8 L9.0 10.8 C8.9 10.7 8.8 10.7 8.8 10.7 L8.8 10.1 C8.9 10.1 9.0 10.1 9.0 10.1 L12.2 10.1"/> <path fill="none" stroke="black" stroke-width="0.3" stroke-opacity="1.0" filling="0" d="M9.6 10.8 L14.3 10.8 L14.3 11.8 C14.1 11.9 13.9 12.0 13.7 12.1 L9.6 12.1 C9.5 12.0 9.4 11.9 9.2 11.8 L9.2 10.8 C9.4 10.8 9.5 10.8 9.6 10.8 L9.6 10.8"/> <path fill="none" stroke="black" stroke-width="0.3" stroke-opacity="1.0" filling="0" d="M9.6 11.2 L14.3 11.2 L14.3 12.2 L9.6 12.2"/> <path fill="none" stroke="black" stroke-width="0.3" stroke-opacity="1.0" filling="0" d="M9.6 11.7 L13.7 11.7 L13.7 12.8 C13.2 12.9 12.7 13.0 12.2 13.2 L9.6 13.2 C9.3 13.0 9.0 12.9 8.7 12.8 L8.7 11.7 L9.6 11.7"/> <path fill="none" stroke="black" stroke-width="0.3" stroke-opacity="1.0" filling="0" d="M9.6 11.7 L11.7 11.7 C11.9 11.9 12.1 12.1 12.3 12.3 L12.3 12.8 L9.6 12.8 L9.6 11.7"/> <path fill="none" stroke="black" stroke-width="0.3" stroke-opacity="1.0" filling="0" d="M13.7 11.7 L13.7 12.8 C13.3 12.9 12.7 13.0 12.3 13.2 L9.6 13.2 C9.3 13.0 9.0 12.9 8.7 12.8 L8.7 11.7 L9.6 11.7 C9.9 11.9 10.2 12.1 10.6 12.3 L13.7 11.7"/> <path fill="none" stroke="black" stroke-width="0.3" stroke-opacity="1.0" filling="0" d="M11.7 12.5 L12.8 12.5 L12.8 13.2 L11.7 13.2"/> <path fill="none" stroke="black" stroke-width="0.3" stroke-opacity="1.0" filling="0" d="M9.6 13.4 L14.3 13.4 C14.2 13.5 14.2 13.6 14.2 13.7 L9.6 13.7 C9.6 13.6 9.5 13.5 9.4 13.4 L9.4 13.4 C9.5 13.4 9.6 13.4 9.6 13.4 L9.6 13.4"/> <path fill="none" stroke="black" stroke-width="0.3" stroke-opacity="1.0" filling="0" d="M9.6 13.4 L14.3 13.4 C14.2 13.5 14.2 13.6 14.2 13.7 L9.6 13.7 C9.6 13.6 9.5 13.5 9.4 13.4 L9.4 13.4 C9.5 13.4 9.6 13.4 9.6 13.4 L9.6 13.4"/> <path fill="none" stroke="black" stroke-width="0.3" stroke-opacity="1.0" filling="0" d="M9.6 13.4 L14.3 13.4 C14.2 13.5 14.2 13.6 14.2 13.7 L9.6 13.7 C9.6 13.6 9.6 13.5 9.6 13.4 L9.6 13.4"/> <path fill="none" stroke="black" stroke-width="0.3" stroke-opacity="1.0" filling="0" d="M9.6 13.4 L14.3 13.4 C14.2 13.5 14.2 13.6 14.2 13.7 L9.6 13.7 C9.6 13.6 9.6 13.5 9.6 13.4 L9.6 13.4"/> <path fill="none" stroke="black" stroke-width="0.3" stroke-opacity="1.0" filling="0" d="M9.6 13.4 L15.3 13.4 C15.3 13.5 15.3 13.6 15.3 13.7 L9.6 13.7 C9.6 13.6 9.6 13.5 9.6 13.4 L9.6 13.4"/> <path fill="none" stroke="black" stroke-width="0.3" stroke-opacity="1.0" filling="0" d="M9.6 13.4 L14.2 13.4 C14.2 13.5 14.2 13.6 14.2 13.7 L9.6 13.7 C9.6 13.6 9.6 13.5 9.6 13.4 L9.6 13.4"/> <path fill="none" stroke="black" stroke-width="0.3" stroke-opacity="1.0" filling="0" d="M9.6 13.4 L14.2 13.4 C14.2 13.5 14.2 13.6 14.2 13.7 L9.6 13.7 C9.6 13.6 9.6 13.5 9.6 13.4 L9.6 13.4"/></svg>