<svg xmlns="http://www.w3.org/2000/svg" viewBox="0 0 24 24"><circle cx="12" cy="12" r="10" fill="none" stroke="black"/><circle cx="9" cy="10" r="1.5" fill="black"/> <path fill="none" stroke="black" stroke="black" stroke-width="0.3" stroke-opacity="1.0" filling="0" d="M5.7 8.8 L6.2 10.5 L6.2 10.5"/> <path fill="none" stroke="black" stroke-width="0.3" stroke-opacity="1.0" filling="0" d="M17.8 10.5 L19.0 10.5"/> <path fill="none" stroke="black" stroke-width="0.3" stroke-opacity="1.0" filling="0" d="M11.0 10.5 L12.1 10.5 L12.1 14.4"/> <path fill="none" stroke="black" stroke-width="0.3" stroke-opacity="1.0" filling="0" d="M12.1 14.4 L13.2 14.4"/> <path fill="none" stroke="black" stroke-width="0.3" stroke-opacity="1.0" filling="0" d="M13.9 14.4 L14.9 14.4"/> <path fill="none" stroke="black" stroke-width="0.3" stroke-opacity="1.0" filling="0" d="M18.2 14.4 L19.0 14.4"/> <path fill="none" stroke="black" stroke-width="0.3" stroke-opacity="1.0" filling="0" d="M18.2 14.4 L19.3 14.4"/> <path fill="none" stroke="black" stroke-width="0.3" stroke-opacity="1.0" filling="0" d="M15.5 15.0 L15.5 15.0 C15.8 15.3 16.3 15.5 16.3 15.7 C16.3 16.1 16.0 16.5 15.7 16.8 L15.7 16.8"/> <path fill="none" stroke="black" stroke-width="0.3" stroke-opacity="1.0" filling="0" d="M8.4 15.2 L8.4 15.2 C8.3 15.4 8.2 15.7 8.0 15.8 L6.9 15.8 C6.7 15.7 6.5 15.4 6.4 15.2 L8.4 15.2"/> <path fill="none" stroke="black" stroke-width="0.3" stroke-opacity="1.0" filling="0" d="M10.6 15.2 L13.7 15.2 C13.9 15.4 14.0 15.7 14.2 15.8 L14.2 18.8 C14.0 19.0 13.9 19.2 13.7 19.4 L10.6 19.4 C10.3 19.2 10.0 19.0 9.8 18.8 L9.8 15.8 C10.1 15.7 10.3 15.4 10.6 15.2 L10.6 15.2"/> <path fill="none" stroke="black" stroke-width="0.3" stroke-opacity="1.0" filling="0" d="M6.2 18.3 L6.2 18.3 C6.5 18.7 7.1 19.1 7.1 19.5 C7.1 19.9 6.5 19.9 6.2 19.5 C6.0 19.2 6.1 19.0 6.2 18.8 L6.2 18.8 C6.1 18.7 6.1 18.5 6.2 18.3 L6.2 18.3"/> <path fill="none" stroke="black" stroke-width="0.3" stroke-opacity="1.0" filling="0" d="M8.4 18.3 L8.4 18.3 C8.4 19.6 8.4 19.6 8.4 18.3 L8.4 18.3"/></svg>