<svg xmlns="http://www.w3.org/2000/svg" viewBox="0 0 24 24"><circle cx="12" cy="12" r="10" fill="none" stroke="black"/><circle cx="9" cy="10" r="1.5" fill="black"/> <path fill="none" stroke="black" stroke="black" stroke-width="0.3" stroke-opacity="1.0" filling="0" d="M11.7 7.9 L11.7 11.0"/> <path fill="none" stroke="black" stroke-width="0.3" stroke-opacity="1.0" filling="0" d="M12.3 8.1 L14.8 8.1 C14.9 8.3 15.0 8.4 15.1 8.5 L15.1 9.3 C14.9 9.4 14.7 9.5 14.5 9.6 L10.6 9.6 L10.6 8.5 L12.3 8.5 C12.3 8.4 12.3 8.3 12.3 8.1 L12.3 8.1"/> <path fill="none" stroke="black" stroke-width="0.3" stroke-opacity="1.0" filling="0" d="M11.7 9.6 L13.8 9.6 L13.8 13.5 L13.8 17.5 C13.7 17.6 13.6 17.8 13.5 17.8 L13.2 17.8 C13.0 17.8 12.8 17.6 12.7 17.5 L12.7 13.5 L11.7 13.5 L11.7 9.6"/> <path fill="none" stroke="black" stroke-width="0.3" stroke-opacity="1.0" filling="0" d="M12.3 10.6 L12.3 10.6 C12.5 10.6 12.7 10.6 12.9 10.6 L13.2 10.8 L13.6 10.8 L14.0 10.6 C14.1 10.6 14.3 10.6 14.5 10.6 L14.5 10.6 C14.7 10.6 14.8 10.6 15.0 10.6 L15.0 10.6 C15.0 10.7 15.0 10.9 15.0 11.0 L15.0 13.5 L15.0 16.0 C14.8 16.1 14.7 16.3 14.5 16.4 L11.7 16.4 L11.7 16.0 L13.2 16.0 L13.2 14.8 L11.7 14.8 L11.7 12.4 L12.3 12.4 L12.3 10.6"/> <path fill="none" stroke="black" stroke-width="0.3" stroke-opacity="1.0" filling="0" d="M14.7 12.3 L14.7 12.3 C14.7 12.6 14.7 13.0 14.6 13.4 L14.6 13.4 C14.7 13.2 14.7 12.9 14.8 12.7 L14.8 12.7 C14.7 12.6 14.7 12.4 14.7 12.3 L14.7 12.3"/> <path fill="none" stroke="black" stroke-width="0.3" stroke-opacity="1.0" filling="0" d="M8.7 12.7 L8.7 12.7 C9.6 10.8 10.8 9.5 12.9 9.0 L12.9 9.0"/> <path fill="none" stroke="black" stroke-width="0.3" stroke-opacity="1.0" filling="0" d="M5.8 12.8 L6.5 12.8 C6.6 12.9 6.7 13.1 6.9 13.3 L6.9 13.5 L5.8 13.5 L5.8 12.8"/> <path fill="none" stroke="black" stroke-width="0.3" stroke-opacity="1.0" filling="0" d="M16.3 15.5 L16.3 15.5 C16.4 15.7 16.4 15.8 16.5 15.9 L16.5 17.1 L14.5 17.1 L14.5 16.6 C14.8 16.5 15.0 16.4 15.3 16.3 L16.3 16.3 L16.3 15.9 C16.3 15.8 16.3 15.7 16.3 15.5 L16.3 15.5"/></svg>