<svg xmlns="http://www.w3.org/2000/svg" viewBox="0 0 24 24"><g><rect x="3" y="3" width="18" height="18" fill="none" stroke="black"/> stroke-width="0.3" stroke-opacity="1.0" filling="0" d="M18.4 8.1 L15.0 8.1 C14.2 9.6 14.3 10.9 14.1 12.4 C13.9 12.9 13.9 13.9 12.9 14.5 C12.0 14.8 11.1 16.4 10.6 17.3 C10.1 18.1 9.5 18.8 8.4 18.7 C7.3 18.7 5.9 18.8 6.4 17.7 C7.1 16.7 8.3 16.1 9.6 16.0 L9.6 16.0"/> <path fill="none" stroke="black" stroke-width="0.3" stroke-opacity="1.0" filling="0" d="M14.5 13.4 L14.5 13.4 C14.2 13.9 14.0 14.6 13.6 14.9 L13.6 14.9 C12.5 13.7 11.6 13.3 10.9 12.9 L10.9 12.9 C10.7 13.0 10.5 13.4 10.2 13.4 C10.2 13.4 10.6 13.4 10.6 13.4 L10.6 13.4"/> <path fill="none" stroke="black" stroke-width="0.3" stroke-opacity="1.0" filling="0" d="M7.3 15.4 L7.3 15.4 C7.6 15.7 8.1 16.1 8.4 16.4 L8.4 16.4"/> <path fill="none" stroke="black" stroke-width="0.3" stroke-opacity="1.0" filling="0" d="M15.0 15.4 L15.0 15.4 C15.3 15.7 15.9 16.0 15.9 16.4 C15.9 16.7 15.0 15.7 15.0 15.4 L15.0 15.4"/> <path fill="none" stroke="black" stroke-width="0.3" stroke-opacity="1.0" filling="0" d="M7.3 16.6 L7.3 16.6 C7.7 16.8 8.3 17.1 8.3 17.5 C8.3 17.8 6.8 17.8 6.8 17.5 C6.8 17.1 7.3 16.5 7.3 16.6 L7.3 16.6"/> <path fill="none" stroke="black" stroke-width="0.3" stroke-opacity="1.0" filling="0" d="M15.0 16.6 L15.0 16.6 C16.2 17.1 11.1 17.1 12.3 16.6 L12.3 16.6"/></svg>