<svg xmlns="http://www.w3.org/2000/svg" viewBox="0 0 24 24"><g><rect x="3" y="3" width="18" height="18" fill="none" stroke="black"/> <path fill="none" stroke="black" stroke-width="0.3" stroke-opacity="1.0" filling="0" d="M5.2 7.5 L11.1 7.5 L16.0 7.5 C16.1 7.6 16.3 7.8 16.3 8.0 L10.1 12.8 L5.9 16.6 L5.2 16.6 L5.2 12.4 L5.2 7.5"/> <path fill="none" stroke="black" stroke-width="0.3" stroke-opacity="1.0" filling="0" d="M6.4 8.0 L11.1 8.0 L16.0 8.0 L16.0 12.0 L16.0 16.0 L11.1 16.0 L6.3 16.0 L6.3 12.0 L6.3 8.0"/> <path fill="none" stroke="black" stroke-width="0.3" stroke-opacity="1.0" filling="0" d="M8.4 8.1 L8.4 13.0 L12.1 13.0 L16.9 13.0 L16.9 13.1 L13.1 10.2 L9.2 11.4 L8.4 8.1"/> <path fill="none" stroke="black" stroke-width="0.3" stroke-opacity="1.0" filling="0" d="M8.4 8.1 L8.4 13.0 C8.4 11.4 8.2 8.6 8.4 8.1 L8.4 8.1"/> <path fill="none" stroke="black" stroke-width="0.3" stroke-opacity="1.0" filling="0" d="M8.4 8.5 L8.4 13.0 L8.4 17.5 L5.7 14.0 L8.4 8.5"/> <path fill="none" stroke="black" stroke-width="0.3" stroke-opacity="1.0" filling="0" d="M8.4 8.8 L8.4 13.0 L8.4 18.3 L6.2 13.6 L6.2 8.8 L8.4 8.8"/> <path fill="none" stroke="black" stroke-width="0.3" stroke-opacity="1.0" filling="0" d="M8.4 8.7 L8.4 13.0 L8.4 17.4 L6.8 17.4 L6.8 13.0 L6.8 8.7 L8.4 8.7"/> <path fill="none" stroke="black" stroke-width="0.3" stroke-opacity="1.0" filling="0" d="M8.4 8.7 L8.4 13.0 L8.4 18.3 L5.4 18.3 L5.4 11.3 L8.4 8.7"/> <path fill="none" stroke="black" stroke-width="0.3" stroke-opacity="1.0" filling="0" d="M10.5 8.7 L10.5 13.0 L8.9 13.0 L8.9 10.4 L10.5 10.4 L10.5 8.7"/> <path fill="none" stroke="black" stroke-width="0.3" stroke-opacity="1.0" filling="0" d="M11.6 8.7 L11.6 13.0 L11.6 17.3 L11.6 17.3 L6.4 16.3 L6.4 13.0 L7.2 8.7 L11.6 8.7"/> <path fill="none" stroke="black" stroke-width="0.3" stroke-opacity="1.0" filling="0" d="M12.3 8.7 L12.3 13.0 L12.3 18.3 L12.3 18.3"/> <path fill="none" stroke="black" stroke-width="0.3" stroke-opacity="1.0" filling="0" d="M13.3 8.7 L13.3 13.0 L13.3 18.3 L13.3 18.3 L13.3 13.0 L13.3 8.7"/> <path fill="none" stroke="black" stroke-width="0.3" stroke-opacity="1.0" filling="0" d="M6.5 11.9 L9.5 13.6 L13.7 13.6 L15.8 13.1 L15.8 17.3 L10.5 17.3 L6.4 17.3"/> <path fill="none" stroke="black" stroke-width="0.3" stroke-opacity="1.0" filling="0" d="M6.5 11.9 L9.5 13.3 L13.5 13.3 L13.5 14.1 L15.4 14.1 L15.4 16.3 L14.5 17.3 L9.3 16.3 L4.3 15.5 L9.8 15.5 L9.8 15.3 L6.5 14.0 L6.5 16.3 L6.5 16.3 L6.5 13.5 L4.9 13.3 L5.1 12.3 L6.5 11.9"/> <path fill="none" stroke="black" stroke-width="0.3" stroke-opacity="1.0" filling="0" d="M11.4 11.9 L14.9 11.9 L14.9 11.9 L11.4 11.9"/></svg>