<svg xmlns="http://www.w3.org/2000/svg" viewBox="0 0 24 24"><g><rect x="3" y="3" width="18" height="18" fill="none" stroke="black"/> <path fill="none" stroke="black" stroke-width="0.3" stroke-opacity="1.0" filling="0" d="M11.6 6.3 L11.6 6.3 C12.6 6.6 13.7 7.1 14.4 8.1 C15.1 9.4 15.5 10.1 15.3 11.6 L11.5 11.6 C11.2 11.5 10.9 11.0 10.1 11.2 L10.1 11.2 C10.0 10.1 10.0 9.4 10.8 8.2 C11.2 7.1 11.9 6.7 11.6 6.3 L11.6 6.3"/> <path fill="none" stroke="black" stroke-width="0.3" stroke-opacity="1.0" filling="0" d="M6.5 8.4 L13.7 8.4 L13.7 10.2 L6.5 10.2 L6.5 8.4"/> <path fill="none" stroke="black" stroke-width="0.3" stroke-opacity="1.0" filling="0" d="M6.9 8.4 L12.7 8.4 L12.7 11.0 L6.9 11.0"/> <path fill="none" stroke="black" stroke-width="0.3" stroke-opacity="1.0" filling="0" d="M16.3 8.4 L16.3 11.0 L13.7 11.0 L13.7 8.4 L16.3 8.4"/> <path fill="none" stroke="black" stroke-width="0.3" stroke-opacity="1.0" filling="0" d="M6.6 13.5 L12.7 13.5 L12.7 14.0 L6.6 14.0"/> <path fill="none" stroke="black" stroke-width="0.3" stroke-opacity="1.0" filling="0" d="M16.3 13.5 L16.3 13.5 C16.6 13.7 16.9 13.9 17.2 14.1 L17.2 14.1 C16.9 14.3 16.6 14.6 16.3 14.9 L16.3 14.9 C16.0 14.6 15.7 14.3 15.5 14.1 L15.5 13.5 C15.7 13.4 15.9 13.3 16.3 13.5 L16.3 13.5"/> <path fill="none" stroke="black" stroke-width="0.3" stroke-opacity="1.0" filling="0" d="M11.6 13.7 L12.4 13.7 L12.4 14.0 L11.6 14.0 L11.6 13.7"/> <path fill="none" stroke="black" stroke-width="0.3" stroke-opacity="1.0" filling="0" d="M6.6 13.9 L12.7 13.9 L12.7 14.2 L6.6 14.2"/> <path fill="none" stroke="black" stroke-width="0.3" stroke-opacity="1.0" filling="0" d="M7.0 13.9 L12.6 13.9 L12.6 15.2 L7.0 15.2"/> <path fill="none" stroke="black" stroke-width="0.3" stroke-opacity="1.0" filling="0" d="M4.3 14.1 L4.3 14.1 C5.8 15.0 6.8 16.6 4.3 16.6 C3.8 16.6 0.8 15.0 4.3 14.1 L4.3 14.1"/></svg>