<svg xmlns="http://www.w3.org/2000/svg" viewBox="0 0 24 24"><g><rect x="3" y="3" width="18" height="18" fill="none" stroke="black"/> <path fill="none" stroke="black" stroke-width="0.3" stroke-opacity="1.0" filling="0" d="M8.9 7.4 L8.9 7.4 C9.2 7.7 9.5 7.9 9.8 8.2 L9.8 8.2 C10.0 7.8 10.4 7.5 10.6 7.4 L10.6 7.4 C11.0 7.6 11.3 7.9 11.6 8.2 L11.6 8.2 C11.7 8.0 11.8 7.7 12.0 7.4 L12.0 7.4 C12.3 7.6 12.7 7.8 12.9 8.0 L13.2 8.0 C13.3 8.0 13.3 7.9 13.4 7.7 L13.4 7.7 C13.4 7.9 13.4 8.1 13.3 8.5 L13.3 10.1 C13.3 10.2 13.4 10.3 13.5 10.4 L13.5 10.4 C13.4 10.4 13.3 10.4 13.2 10.4 L13.2 9.0 C13.0 8.9 12.9 8.7 12.7 8.6 L12.7 8.6 C12.7 8.6 12.7 8.5 12.7 8.4 L12.7 8.4 C12.8 8.6 12.9 8.8 13.0 8.9 L13.0 8.9 C12.9 8.9 12.7 9.0 12.7 9.1 L12.7 9.1 C12.7 9.2 12.7 9.3 12.7 9.3 L12.7 9.3 C11.8 9.3 11.0 9.3 10.0 9.3 L10.0 9.3 C9.9 9.3 9.8 9.3 9.7 9.4 L9.7 9.4 C9.7 9.4 9.7 9.4 9.7 9.4 L9.7 9.4 C9.8 9.3 9.8 9.2 9.9 9.1 L9.9 8.9 C9.9 8.8 9.8 8.6 9.8 8.4 L9.8 8.4 C9.9 8.0 10.0 7.8 10.1 7.6 L10.1 7.6 C10.2 7.5 10.3 7.4 10.4 7.4 L10.4 7.4 C10.4 7.4 10.5 7.4 10.6 7.4 L10.6 7.4 C10.4 7.4 10.3 7.3 10.2 7.3 L10.2 7.3 C10.3 7.3 10.4 7.3 10.5 7.2 L10.5 7.2"/> <path fill="none" stroke="black" stroke-width="0.3" stroke-opacity="1.0" filling="0" d="M8.9 10.6 L8.9 10.6 C8.8 10.7 8.8 10.8 8.9 10.9 L8.9 11.0 C8.8 11.1 8.8 11.2 8.7 11.3 L8.7 11.3 C8.6 11.2 8.5 11.1 8.5 11.0 L8.5 10.9 C8.5 10.8 8.5 10.7 8.5 10.6 L8.5 10.6"/> <path fill="none" stroke="black" stroke-width="0.3" stroke-opacity="1.0" filling="0" d="M12.0 10.6 L12.0 10.6 C12.1 10.6 12.1 10.8 12.2 10.9 L10.0 12.9 C10.0 12.9 10.0 12.9 10.0 12.9 L10.0 11.9 C10.0 11.9 10.0 11.8 10.0 11.7 L12.0 10.9 C12.1 10.8 12.3 10.6 12.0 10.6 L12.0 10.6"/> <path fill="none" stroke="black" stroke-width="0.3" stroke-opacity="1.0" filling="0" d="M8.6 10.7 L8.6 10.7 C8.7 10.8 8.8 10.9 8.9 11.0 L8.9 11.5 C8.8 11.6 8.7 11.7 8.6 11.8 L8.6 11.8 C8.5 11.7 8.4 11.6 8.3 11.5 L8.3 10.7"/> <path fill="none" stroke="black" stroke-width="0.3" stroke-opacity="1.0" filling="0" d="M8.3 10.7 L8.3 10.7 C8.3 10.8 8.4 10.8 8.4 10.8 L8.4 10.8 C8.4 10.9 8.4 10.9 8.3 10.9 L8.3 10.8 C8.4 10.8 8.4 10.8 8.3 10.7 L8.3 10.7"/> <path fill="none" stroke="black" stroke-width="0.3" stroke-opacity="1.0" filling="0" d="M8.3 10.7 L8.3 10.7 C8.4 10.8 8.4 10.8 8.5 10.8 L8.5 10.8 C8.4 10.8 8.4 10.8 8.3 10.8 L8.3 10.8 C8.3 10.8 8.3 10.8 8.3 10.7 L8.3 10.7"/> <path fill="none" stroke="black" stroke-width="0.3" stroke-opacity="1.0" filling="0" d="M10.1 10.7 L10.1 10.7 C10.2 10.8 10.3 10.8 10.3 10.8 L10.3 10.8 C10.3 10.8 10.3 10.8 10.3 10.8 L10.3 10.8 C10.3 10.8 10.3 10.8 10.3 10.7 L10.3 10.7 C10.3 10.8 10.2 10.8 10.1 10.7 L10.1 10.7"/> <path fill="none" stroke="black" stroke-width="0.3" stroke-opacity="1.0" filling="0" d="M10.1 10.7 L10.1 10.7 C10.1 11.0 10.1 11.0 10.1 10.8 L10.1 10.8 C10.0 10.8 10.1 10.7 10.1 10.7 L10.1 10.7"/> <path fill="none" stroke="black" stroke-width="0.3" stroke-opacity="1.0" filling="0" d="M10.1 10.7 L10.1 10.7 C10.1 11.0 10.1 11.0 10.1 11.1 L9.6 11.3 C9.5 11.0 9.4 10.8 9.3 10.7 L9.3 10.7 C9.4 10.7 9.4 10.7 9.4 10.7 L9.4 10.7 C9.4 10.7 9.3 10.7 9.3 10.7 L9.3 10.7 C9.3 10.7 9.3 10.7 9.4 10.7 L9.4 10.7 C9.4 10.7 9.4 10.7 9.5 10.7 L9.5 10.7 C9.5 10.7 9.5 10.7 9.5 10.7 L9.5 10.7 C9.5 10.7 9.5 10.7 9.5 10.7 L9.5 10.7 C9.5 10.7 9.5 10.7 9.5 10.7 L9.5 10.7 C9.5 10.7 9.5 10.7 9.4 10.7 L9.4 10.7 C9.4 10.7 9.4 10.7 9.4 10.7 L9.4 10.7 C9.4 10.7 9.4 10.7 9.4 10.7 L9.4 10.7 C9.4 10.7 9.3 10.7 9.3 10.7 L9.3 10.7 C9.4 10.7 9.5 10.7 9.5 10.7 L9.5 10.7 C9.5 10.7 9.5 10.7 9.5 10.7 L9.5 15.7 C9.4 15.8 9.4 15.8 9.4 15.7 L9.4 15.7 C8.4 15.3 8.4 15.5 7.3 15.7 L7.3 15.7 C6.8 15.8 6.5 15.9 6.0 15.7 L6.0 15.7 C6.0 15.6 5.7 15.6 5.4 15.4 L5.4 15.4 C5.1 15.1 4.8 14.8 4.6 14.3 L4.6 14.3 C4.7 14.2 4.7 14.0 4.7 13.9 L4.7 13.9 C4.7 13.7 4.7 13.4 4.7 13.3 L4.7 13.3 C4.7 13.1 4.8 12.8 4.9 12.5 L4.9 12.5 C3.6 11.7 3.4 11.4 3.1 11.0 L3.1 11.0 C3.2 10.9 4.4 10.7 4.7 10.6 L4.7 10.6 C4.8 10.6 4.9 10.6 5.0 10.5 L5.0 10.5 C4.6 10.5 4.4 10.5 4.5 10.5 L4.5 10.5 C4.8 10.4 4.8 10.3 5.2 10.0 L5.2 10.0 C5.4 10.0 5.6 9.9 5.7 9.9 L5.7 9.9 C5.6 9.8 5.5 9.7 5.4 9.7 L5.4 9.7 C5.4 9.6 5.3 9.5 5.3 9.4 L5.3 9.4 C5.0 9.3 4.8 9.2 4.7 9.0 L4.7 9.0 C4.6 9.0 4.6 9.0 4.7 9.0 L4.7 9.0 C4.8 9.1 5.0 9.1 5.1 9.0 L5.1 8.9 C5.1 8.7 5.0 8.5 4.9 8.4 L4.4 8.4 C4.4 8.4 4.4 8.3 4.5 8.3 L4.5 8.3 C4.5 8.2 4.5 8.2 4.5 8.1 L4.5 7.9 C4.5 7.7 4.5 7.6 4.6 7.5 L4.5 7.5 C4.6 7.4 4.6 7.3 4.6 7.2 L4.6 7.2"/> <path fill="none" stroke="black" stroke-width="0.3" stroke-opacity="1.0" filling="0" d="M9.8 10.2 L9.8 10.2 C11.2 10.6 12.4 12.4 9.8 12.4 C7.4 12.4 7.2 10.6 9.8 10.2 L9.8 10.2"/> <path fill="none" stroke="black" stroke-width="0.3" stroke-opacity="1.0" filling="0" d="M9.8 13.1 L9.8 13.1 C10.2 13.4 10.5 14.0 10.8 14.3 L10.8 14.3 C10.5 14.1 10.2 13.8 9.8 13.7 C9.4 13.7 9.0 13.4 9.0 13.1 L9.0 13.1"/> <path fill="none" stroke="black" stroke-width="0.3" stroke-opacity="1.0" filling="0" d="M10.0 14.0 L11.7 14.0 L11.7 14.6 L10.0 14.6 L10.0 14.0 L10.0 14.0"/></svg>