<svg xmlns="http://www.w3.org/2000/svg" viewBox="0.0 0.0 24.0 24.0" height="200px" width="200px"><path fill="none" stroke="black" stroke-width="0.3" stroke-opacity="1.0" filling="0" d="M15.2 5.5 L15.2 5.5 C15.9 5.6 16.2 5.8 16.5 6.9 L16.5 7.9 L12.4 8.3 C12.2 6.7 12.2 5.7 15.4 5.5 L15.2 5.5"/> <path fill="none" stroke="black" stroke-width="0.3" stroke-opacity="1.0" filling="0" d="M14.9 6.7 L14.9 6.7 C15.2 6.3 15.4 6.7 15.4 6.3 L15.4 6.3 C16.8 6.4 17.6 7.3 18.6 7.5 C19.7 7.9 20.7 9.5 20.6 11.6 L20.6 11.9 C20.3 12.2 20.9 12.6 20.4 13.7 C19.2 14.7 18.6 15.7 16.3 16.6 C15.1 17.6 13.4 17.7 11.1 16.9 C9.2 16.0 7.8 13.0 7.7 11.0 L7.7 11.0 C8.4 9.7 9.5 9.6 10.7 8.6 L11.9 8.7 C12.2 7.8 12.3 7.6 13.5 7.4 L13.5 7.4 C13.9 6.9 14.3 6.6 14.8 6.7 L14.8 6.7"/> <path fill="none" stroke="black" stroke-width="0.3" stroke-opacity="1.0" filling="0" d="M14.3 7.5 L14.3 7.5 C14.8 7.8 15.2 8.3 15.3 8.7 C15.3 9.2 14.1 10.7 13.0 10.2 C11.8 10.0 10.9 10.6 10.8 10.2 C10.7 9.8 10.9 10.4 10.3 10.9 C9.7 12.3 8.5 13.2 6.7 14.6 L6.7 14.6 C7.8 15.0 9.8 14.4 11.4 15.5 C13.1 16.6 15.1 17.0 17.7 16.1 C18.1 15.3 16.7 13.1 16.7 11.5 C16.3 10.7 15.0 10.2 13.1 9.9 L13.7 8.6 C15.3 8.7 15.8 8.0 16.8 7.4 C18.1 7.6 18.4 8.8 18.6 9.3 C18.7 9.2 18.1 10.6 18.9 11.5 L18.2 11.5 C17.1 11.2 16.2 11.7 15.0 11.1 L15.0 11.7 C15.5 11.8 16.8 11.5 17.0 11.8 C16.1 13.1 14.5 14.0 13.4 14.9 C12.3 15.6 11.9 16.7 11.7 17.2 C10.5 17.8 10.8 17.1 10.2 17.8 L10.1 17.5 C10.1 16.5 10.0 15.5 10.9 14.7 L10.5 14.1 C10.6 13.0 10.8 11.8 11.6 11.7 C12.3 11.2 11.3 10.2 11.2 9.0 L12.9 9.6 C13.4 9.6 13.9 9.7 13.5 10.6 C12.6 12.4 10.9 13.5 10.4 10.9 L10.6 10.9 C9.9 9.9 9.8 9.6 9.5 8.3 L9.7 8.1 C9.6 7.9 9.5 7.6 9.3 7.4 L9.8 7.0 C10.7 7.0 11.0 7.1 11.2 7.3 L11.2 7.3"/> <path fill="none" stroke="black" stroke-width="0.3" stroke-opacity="1.0" filling="0" d="M11.5 11.5 L11.5 11.5 C11.5 11.4 11.5 11.4 11.5 11.5 L11.5 11.5"/> <path fill="none" stroke="black" stroke-width="0.3" stroke-opacity="1.0" filling="0" d="M12.6 11.5 L12.6 11.5 C12.6 11.4 12.6 11.4 12.6 11.5 L12.6 11.5"/> <path fill="none" stroke="black" stroke-width="0.3" stroke-opacity="1.0" filling="0" d="M13.0 11.5 L13.0 11.5 C13.0 11.4 13.0 11.4 13.0 11.5 L13.0 11.5"/> <path fill="none" stroke="black" stroke-width="0.3" stroke-opacity="1.0" filling="0" d="M13.7 11.5 L13.7 11.5 C13.7 11.4 13.7 11.4 13.7 11.5 L13.7 11.5"/> <path fill="none" stroke="black" stroke-width="0.3" stroke-opacity="1.0" filling="0" d="M13.8 12.5 L13.8 12.5 C13.8 12.4 13.8 12.4 13.8 12.5 L13.8 12.5"/> <path fill="none" stroke="black" stroke-width="0.3" stroke-opacity="1.0" filling="0" d="M13.7 12.9 L13.7 12.9 C13.7 13.9 13.7 13.9 13.7 12.9 L13.7 12.9"/> <path fill="none" stroke="black" stroke-width="0.3" stroke-opacity="1.0" filling="0" d="M13.3 14.5 L13.3 14.5 C13.3 15.7 13.3 15.6 13.3 14.5 L13.3 14.5"/></svg>