<svg xmlns="http://www.w3.org/2000/svg" viewBox="0.0 0.0 24.0 24.0" height="200px" width="200px"><path fill="none" stroke="black" stroke-width="0.3" stroke-opacity="1.0" filling="0" d="M9.2 7.6 L11.7 7.6 C12.8 8.9 13.5 9.3 15.0 11.9 L15.0 13.3 C15.6 15.2 16.3 16.7 15.3 18.8 L12.8 18.8 C12.1 18.4 11.1 17.0 10.9 15.3 L10.5 15.2 L7.0 15.2 C6.5 14.0 6.6 12.5 7.3 11.2 C8.0 10.9 9.2 10.5 9.9 10.2 L10.7 10.6 C12.0 10.3 12.3 9.9 11.8 9.7 C11.5 9.6 10.1 10.6 10.7 10.5 L11.2 11.3 C10.9 9.9 11.6 8.2 10.7 7.3 L10.7 7.3 C11.4 7.7 12.0 8.2 12.7 9.6 L15.2 9.6 C15.2 10.2 15.1 10.9 15.0 11.6 C14.8 12.6 14.3 14.1 15.0 15.5 L14.9 15.5 C14.9 15.7 15.8 15.8 15.7 17.4 C15.7 18.0 15.9 19.7 16.8 20.1 L18.3 20.1 C18.7 18.3 19.4 16.8 18.4 15.3 C16.4 13.8 14.7 11.7 13.7 9.8 C12.9 8.1 12.3 8.8 10.2 10.1 L9.7 10.1 L9.7 7.5 C9.4 7.3 9.0 7.9 8.2 8.6 C7.9 9.7 7.5 11.2 10.4 12.4 L10.7 11.4 C9.8 8.5 9.9 8.1 12.2 7.6 L12.2 7.6"/> <path fill="none" stroke="black" stroke-width="0.3" stroke-opacity="1.0" filling="0" d="M12.7 10.9 L12.7 10.9 C13.3 10.1 14.0 9.0 14.5 8.1 L15.4 8.1 C16.4 8.6 17.6 8.7 18.8 9.7 C20.3 10.1 21.7 12.2 20.3 14.8 C20.7 16.5 20.3 18.3 18.2 19.1 C16.1 19.8 13.1 20.6 11.0 18.0 L11.0 18.0 C11.0 21.0 10.9 19.7 11.0 19.0 L11.0 19.0 C11.0 17.2 11.0 15.4 10.1 15.4 L10.2 15.7 C10.2 15.0 10.3 14.2 10.6 13.0 C11.9 12.4 13.9 10.5 14.7 9.9 L14.7 9.9 C14.5 9.9 15.2 9.9 15.0 10.9 C15.8 11.9 16.5 11.3 16.6 11.8 C17.7 12.9 18.8 13.9 19.4 15.9 L19.4 15.1 C19.6 15.4 20.7 15.7 20.0 16.2 C19.6 16.6 18.8 17.4 18.6 18.2 C17.9 18.8 16.4 18.1 15.7 17.8 C14.4 17.5 13.6 17.5 11.0 17.1 L11.0 16.9 C9.0 17.9 8.4 19.5 7.2 19.6 L7.2 19.6 C6.0 18.2 5.4 16.5 5.3 14.2 C5.9 11.8 6.7 10.9 8.6 10.2 L8.6 10.9 C9.3 11.8 9.2 12.9 10.6 13.1 C11.0 13.1 11.0 13.7 11.3 13.5 L11.3 12.9 C11.7 12.8 12.0 12.4 12.6 12.2 L12.7 12.9"/> <path fill="none" stroke="black" stroke-width="0.3" stroke-opacity="1.0" filling="0" d="M10.9 13.7 L10.9 13.7 C11.7 13.9 12.8 14.1 13.2 14.0 C14.2 14.9 14.0 17.1 13.8 17.5 C13.5 17.5 12.0 17.4 11.9 17.6 L11.9 17.6 C11.5 17.6 10.2 17.5 10.8 17.5 C10.4 17.5 10.1 17.6 9.9 17.6 L9.9 17.6 C10.2 18.6 10.4 19.5 10.3 20.3 C10.3 20.3 9.3 19.7 8.5 19.6 C7.6 19.6 7.8 19.0 7.8 17.2 C7.8 16.3 7.2 16.8 6.5 16.5 C6.8 14.5 7.1 13.6 7.5 12.2 C8.8 10.0 9.6 11.5 10.0 13.7 C10.1 14.2 10.7 14.1 10.2 13.7 L10.2 13.7 C11.5 13.5 12.7 13.6 12.9 13.7 L12.9 13.7 C12.9 13.7 12.2 13.7 11.9 13.7 L11.9 13.7"/> <path fill="none" stroke="black" stroke-width="0.3" stroke-opacity="1.0" filling="0" d="M10.5 14.1 L10.5 14.1 C10.9 14.3 11.5 14.5 11.0 14.9 C10.5 15.2 9.9 15.5 10.6 14.1 C12.1 14.1 12.9 14.5 13.0 14.9 L13.0 14.9 C11.8 14.7 9.8 15.9 10.0 15.7 C10.1 15.5 10.6 14.5 11.4 14.4 L11.4 14.4 C11.1 14.4 10.8 14.3 10.5 14.1 L10.5 14.1"/> <path fill="none" stroke="black" stroke-width="0.3" stroke-opacity="1.0" filling="0" d="M8.9 14.9 L8.9 14.9 C9.4 15.3 10.9 15.8 11.2 16.1 C11.5 18.0 12.9 18.0 12.1 16.6 C12.2 16.8 11.8 16.1 11.0 15.8 L11.0 15.8 C10.7 16.5 10.2 17.6 10.8 17.6 C10.9 17.2 11.3 16.0 11.7 15.5 C12.0 15.4 12.9 15.7 13.7 15.2 C14.3 15.9 16.3 17.7 16.3 18.2 C16.3 18.7 15.6 19.1 15.5 19.4 C15.3 20.1 15.3 19.8 15.0 18.3 C14.8 17.0 14.4 16.4 13.4 15.0 C11.4 13.0 10.0 12.4 12.4 14.9 L12.4 14.9 C12.4 14.4 12.9 14.7 12.9 15.9 C12.9 18.2 12.4 19.6 12.4 20.6 C12.2 20.5 11.7 20.2 11.7 19.8 L12.7 19.8 C12.1 19.3 11.2 19.8 11.9 19.0 L11.9 19.0 C11.1 18.4 10.1 17.5 10.6 16.9 C11.4 16.1 12.7 16.6 12.2 16.0 L12.2 16.0 C11.9 15.9 11.8 15.9 12.6 16.9 L12.6 16.9 C11.9 16.0 10.2 15.8 9.9 15.9 L9.9 15.9 C9.4 16.9 8.9 17.7 8.6 18.6 L8.6 18.6 C7.9 18.0 7.4 17.5 7.0 16.4 L7.0 16.4 C5.9 16.1 4.0 16.7 3.7 17.0 C3.4 16.7 3.8 16.0 4.9 15.0 L4.9 15.0 C5.5 15.1 6.8 15.0 7.9 14.8 L7.9 14.8 C8.3 15.1 8.2 15.5 8.1 16.6 L8.1 16.6 C8.6 15.7 9.4 15.4 10.6 15.0 L10.6 15.0 C11.1 15.1 11.7 14.1 12.4 14.3 L12.4 14.3"/></svg>