<svg xmlns="http://www.w3.org/2000/svg" viewBox="0.0 0.0 24.0 24.0" height="200px" width="200px"><path fill="none" stroke="black" stroke-width="0.3" stroke-opacity="1.0" filling="0" d="M15.6 5.6 L15.6 11.3 L15.6 17.0 L15.8 17.6 L15.8 18.3"/> <path fill="none" stroke="black" stroke-width="0.3" stroke-opacity="1.0" filling="0" d="M15.8 5.5 L15.8 11.6 L15.8 17.6 L15.8 17.6 L15.8 17.6"/> <path fill="none" stroke="black" stroke-width="0.3" stroke-opacity="1.0" filling="0" d="M17.0 8.5 L17.5 8.5 L17.5 13.0 L17.5 17.0 L17.0 17.0 L17.0 13.0 L17.0 8.5"/> <path fill="none" stroke="black" stroke-width="0.3" stroke-opacity="1.0" filling="0" d="M16.3 8.5 L16.3 8.5"/> <path fill="none" stroke="black" stroke-width="0.3" stroke-opacity="1.0" filling="0" d="M18.7 8.5 L18.7 8.5"/> <path fill="none" stroke="black" stroke-width="0.3" stroke-opacity="1.0" filling="0" d="M18.7 8.5 L18.7 8.5 C20.9 8.2 21.0 10.6 18.8 10.8 C17.5 10.8 16.4 10.8 17.9 10.1 L17.9 10.1 C18.8 11.8 19.0 12.0 18.0 12.9 C16.0 13.4 16.7 13.4 18.7 12.0 C19.6 11.0 18.9 10.5 18.7 9.9 L18.7 9.5"/> <path fill="none" stroke="black" stroke-width="0.3" stroke-opacity="1.0" filling="0" d="M11.8 10.4 L11.8 10.4 C13.0 10.7 12.5 11.2 12.8 11.9 C13.3 14.4 13.7 14.4 11.4 13.9 C10.9 13.2 11.6 12.0 12.4 11.4 C12.4 11.1 12.8 10.4 12.8 10.4 C12.7 10.3 12.8 10.1 12.8 10.4 L12.8 10.4"/> <path fill="none" stroke="black" stroke-width="0.3" stroke-opacity="1.0" filling="0" d="M18.9 10.4 L18.9 10.4 C19.2 10.0 19.8 10.6 19.0 11.4 C18.4 11.2 16.0 10.3 16.2 10.4 C16.3 10.6 16.9 10.0 17.3 10.4 C17.6 10.6 18.2 11.0 18.9 11.4 L18.9 12.4"/> <path fill="none" stroke="black" stroke-width="0.3" stroke-opacity="1.0" filling="0" d="M12.9 11.9 L12.9 11.9 C12.9 12.1 12.9 12.3 12.9 12.5 L12.9 12.5 C12.9 12.3 12.9 12.1 12.9 11.9 L12.9 11.9"/> <path fill="none" stroke="black" stroke-width="0.3" stroke-opacity="1.0" filling="0" d="M18.3 12.9 L18.3 12.9 C18.3 13.8 18.3 13.8 18.3 12.9 L18.3 12.9"/> <path fill="none" stroke="black" stroke-width="0.3" stroke-opacity="1.0" filling="0" d="M15.1 13.0 L16.1 13.0 C16.1 13.1 16.1 13.2 16.1 13.3 L15.1 13.3 C15.1 13.2 15.1 13.1 15.1 13.0 L15.1 13.0"/> <path fill="none" stroke="black" stroke-width="0.3" stroke-opacity="1.0" filling="0" d="M12.9 13.1 L12.9 13.1 C13.1 13.0 13.2 13.9 13.9 13.4 C14.2 12.0 14.9 11.4 14.8 11.8 C14.8 12.4 14.4 13.8 14.4 13.3 C14.5 13.8 14.9 14.4 15.9 14.0 L15.9 14.0 C15.9 14.7 16.9 14.4 16.0 14.1 L16.0 14.1 C15.1 14.9 14.6 14.0 14.6 13.9 C14.6 13.8 14.3 13.3 14.9 13.1 L14.9 13.1 C14.9 12.9 15.8 12.7 16.6 12.4 C17.1 12.3 17.0 12.2 16.9 12.3 L16.9 12.3"/></svg>