<svg xmlns="http://www.w3.org/2000/svg" viewBox="0.0 0.0 24.0 24.0" height="200px" width="200px"><path fill="none" stroke="black" stroke-width="0.3" stroke-opacity="1.0" filling="0" d="M15.3 7.0 L15.3 11.0"/> <path fill="none" stroke="black" stroke-width="0.3" stroke-opacity="1.0" filling="0" d="M13.3 10.8 L14.5 12.5 L14.5 15.1 L13.7 15.1 L13.7 12.7 L15.5 12.8 L13.4 15.6 L13.4 13.3 L14.2 12.3 L13.3 12.3 L13.3 11.8"/> <path fill="none" stroke="black" stroke-width="0.3" stroke-opacity="1.0" filling="0" d="M12.5 12.8 L12.5 12.8 C13.4 13.1 14.3 13.5 15.7 14.5 C17.3 15.5 18.1 18.1 18.2 20.5 C18.3 21.5 18.6 21.3 18.3 21.4 L11.3 21.4 L5.3 21.4 C4.4 21.9 4.5 21.1 5.8 20.0 C5.8 19.9 6.4 19.8 7.3 19.2 C7.3 18.5 7.9 17.5 8.9 16.5 L11.8 18.7 C12.3 19.1 12.0 19.5 11.7 19.5 L12.7 19.3 C12.8 19.6 12.8 19.0 13.9 18.4 C14.1 17.4 14.7 18.1 15.4 18.5 C16.1 18.9 16.2 19.6 16.6 20.6 C17.2 21.1 17.0 21.1 17.1 21.3 C17.3 21.4 17.8 21.0 17.2 21.2 C16.6 21.3 16.0 21.0 15.5 20.2 C15.2 20.6 14.9 20.1 14.5 20.3 C14.2 20.5 14.6 21.9 14.3 21.4 C13.0 21.3 11.6 20.0 11.5 18.7 C12.4 17.2 12.8 16.7 12.6 15.2 C12.0 13.3 11.7 13.3 12.1 12.8 L12.1 12.8"/> <path fill="none" stroke="black" stroke-width="0.3" stroke-opacity="1.0" filling="0" d="M8.4 12.4 L8.4 15.3 C8.7 15.3 9.1 15.3 9.3 15.3 L9.3 15.4 C10.5 15.4 10.9 15.0 11.1 14.4 L11.1 14.0 L11.1 14.4 L11.3 14.4 C10.2 15.4 9.4 19.6 8.3 19.5 L8.3 18.5 C8.4 18.8 8.7 19.2 8.9 19.4 L8.9 19.0 C8.5 19.8 7.4 18.6 6.9 18.5 L6.9 13.5 C7.4 12.2 7.5 11.9 8.4 12.4 L8.4 12.4"/></svg>