<svg xmlns="http://www.w3.org/2000/svg" viewBox="0.0 0.0 24.0 24.0" height="200px" width="200px"><path fill="none" stroke="black" stroke-width="0.3" stroke-opacity="1.0" filling="0" d="M11.3 7.2 L13.9 7.8 C14.3 8.0 14.8 8.3 15.0 9.7 L16.4 13.0 C16.5 13.5 16.7 13.0 16.9 13.5 L16.9 13.7 C16.6 14.9 16.1 16.4 15.9 18.7 L15.5 18.1 C15.3 17.8 14.0 18.4 13.8 18.2 L11.3 19.3 L11.0 21.2 C10.2 21.4 9.4 21.8 9.2 21.5 C8.0 21.4 7.5 20.8 7.4 19.1 L7.1 19.7 C8.1 19.4 8.3 19.8 8.6 19.1 L8.6 19.7 C9.0 20.4 9.6 21.8 10.6 21.2 C10.8 21.7 11.0 21.2 11.3 20.4 L11.3 20.4 L12.8 19.7 C13.0 19.6 13.1 19.4 13.1 19.2 L11.4 19.4 C11.3 18.2 11.1 17.8 11.0 17.5 L11.8 17.5 C11.8 17.3 11.7 16.2 11.7 15.1 L12.7 10.3 L12.9 9.3 C13.4 8.0 13.8 8.9 15.3 7.8 L15.3 7.2"/> <path fill="none" stroke="black" stroke-width="0.3" stroke-opacity="1.0" filling="0" d="M16.9 7.8 L16.9 7.4 L16.9 8.6 L16.9 8.6"/> <path fill="none" stroke="black" stroke-width="0.3" stroke-opacity="1.0" filling="0" d="M16.9 7.1 L12.1 11.5 L7.3 11.1 L4.7 10.2 L4.3 10.1 L6.2 7.1"/> <path fill="none" stroke="black" stroke-width="0.3" stroke-opacity="1.0" filling="0" d="M5.8 7.5 L5.8 7.5 C6.1 7.5 6.8 7.5 7.8 7.5 C9.8 7.5 11.3 8.8 13.3 10.8 L15.9 12.3 C15.8 11.9 15.6 11.6 15.5 11.4 L14.9 11.7 C14.3 11.5 13.6 11.2 13.8 11.9 L13.9 12.9 C13.8 13.8 13.6 14.5 11.3 14.5 L11.3 14.5 C11.1 14.8 9.9 15.0 8.7 15.7 L8.4 15.7 C6.6 15.5 4.6 14.3 4.9 12.9 L4.9 11.0 C5.6 11.0 5.9 11.6 6.5 12.8 L6.6 11.8 C6.4 11.6 5.2 11.4 4.0 11.1 L4.8 11.1 C4.8 11.0 4.8 10.0 4.8 10.9 L4.8 10.9 C5.3 10.9 6.5 10.9 6.3 11.8 C5.1 12.2 3.2 12.8 3.1 11.5 L3.1 11.5 C3.9 11.0 5.6 10.3 5.9 10.9 L5.8 10.9 L5.8 10.4 C5.3 9.5 4.1 8.6 4.5 7.9 L4.5 7.9 C4.5 7.1 5.3 6.3 5.8 5.5 L5.8 5.5"/></svg>