<svg xmlns="http://www.w3.org/2000/svg" viewBox="0.0 0.0 24.0 24.0" height="200px" width="200px"><path fill="none" stroke="black" stroke-width="0.3" stroke-opacity="1.0" filling="0" d="M11.5 8.4 L13.3 8.4 L13.3 9.2 L15.5 9.2 L15.5 9.4 L15.5 9.6 L13.1 9.6 L13.1 9.5 L11.5 10.5 L11.5 10.6 L11.5 10.6 L11.5 9.6 L11.5 9.4 L11.5 9.4 L11.5 9.4"/> <path fill="none" stroke="black" stroke-width="0.3" stroke-opacity="1.0" filling="0" d="M14.7 8.4 L15.3 8.4 L16.3 8.3 L16.5 8.3 C17.6 9.6 19.8 11.1 20.3 12.9 C20.7 14.8 20.7 16.2 20.9 18.4 C21.2 19.8 21.9 21.0 20.0 21.1 C18.9 21.1 16.2 21.8 15.3 19.8 L15.3 19.2 C14.4 19.9 13.0 19.5 11.5 19.4 L11.5 19.6 C11.8 19.4 9.2 19.0 8.8 19.5 C8.3 19.4 8.2 18.5 8.8 18.2 C9.2 17.7 10.1 17.2 10.8 16.7 L10.8 17.5 C12.0 17.6 13.4 17.2 14.9 16.1 L14.9 16.5"/> <path fill="none" stroke="black" stroke-width="0.3" stroke-opacity="1.0" filling="0" d="M17.9 12.3 L18.1 12.3 L18.1 16.8 L18.9 16.8 L18.9 17.8 L17.2 17.8 L17.2 17.3 L17.2 17.3 L17.9 16.3"/></svg>