<svg xmlns="http://www.w3.org/2000/svg" viewBox="0.0 0.0 24.0 24.0" height="200px" width="200px"><path fill="none" stroke="black" stroke-width="0.3" stroke-opacity="1.0" filling="0" d="M13.4 5.6 L13.4 5.6 C15.0 6.2 16.9 7.7 17.2 10.6 C18.3 12.5 18.0 14.6 16.9 16.5 C15.8 17.4 15.2 18.1 13.7 18.2 C11.3 18.3 10.7 17.3 9.1 16.4 C7.4 14.4 6.5 12.4 7.1 10.5 C8.0 7.7 9.1 6.2 10.5 5.6 C11.9 5.0 12.7 5.7 13.4 5.6 L13.4 5.6"/> <path fill="none" stroke="black" stroke-width="0.3" stroke-opacity="1.0" filling="0" d="M13.4 6.6 L13.4 6.6 C14.0 8.7 14.1 10.8 12.7 13.2 C11.3 13.7 10.3 13.2 9.0 12.5 C7.8 11.1 8.0 9.4 9.0 8.3 C10.0 7.9 10.0 7.9 10.2 7.6 C11.4 7.0 12.1 7.9 13.4 6.6 L13.4 6.6"/> <path fill="none" stroke="black" stroke-width="0.3" stroke-opacity="1.0" filling="0" d="M15.7 8.6 L15.7 8.6 C16.0 8.1 17.8 7.6 16.0 8.4 C14.6 9.2 14.1 9.7 15.7 11.4 L15.7 11.2 C18.0 11.0 18.7 8.0 18.2 12.6 C17.7 12.5 14.9 12.3 15.2 12.5 C15.0 13.4 14.5 14.3 15.0 15.1 C15.4 15.2 15.0 15.3 15.3 15.3 L15.3 15.9 C14.4 15.6 14.9 16.7 15.5 17.2 L15.5 17.0 C15.8 19.0 14.0 18.5 15.5 17.3 C16.0 15.7 15.8 14.7 15.7 14.5 C15.7 13.4 15.9 13.5 15.1 12.8 L15.1 12.8 C15.2 10.3 15.4 9.5 15.4 8.6 L15.4 8.6 C15.2 8.6 15.0 8.5 15.9 8.6 L15.9 8.6"/> <path fill="none" stroke="black" stroke-width="0.3" stroke-opacity="1.0" filling="0" d="M9.8 11.1 L9.8 11.1 C10.8 11.1 10.9 11.1 10.8 11.1 L10.8 11.2 C10.9 11.1 10.9 11.2 11.0 11.2 L11.6 11.0 C11.7 11.9 11.8 12.9 11.6 13.8 L11.6 14.8 C12.0 15.7 12.4 16.6 12.7 17.1 C12.9 18.6 12.5 17.6 11.0 17.8 L11.0 19.8 C10.6 19.5 9.0 19.3 8.6 18.8 C8.5 19.3 8.1 19.5 8.8 19.8 L8.8 17.8 C8.8 17.6 8.8 17.4 8.9 17.2 L8.9 15.2 C9.0 15.8 9.1 15.4 9.3 15.1 L9.4 15.0 C9.6 14.9 9.9 14.8 10.2 14.6 L10.7 13.6 C10.8 13.1 10.8 13.6 10.8 14.5 L9.0 12.5 C8.9 12.0 8.8 11.5 9.2 11.1 L9.8 11.1"/></svg>