<svg xmlns="http://www.w3.org/2000/svg" viewBox="0.0 0.0 24.0 24.0" height="200px" width="200px"><path fill="none" stroke="black" stroke-width="0.3" stroke-opacity="1.0" filling="0" d="M15.0 7.2 L15.0 9.2"/> <path fill="none" stroke="black" stroke-width="0.3" stroke-opacity="1.0" filling="0" d="M16.9 7.2 L16.9 7.4 C17.8 7.6 18.1 8.2 18.9 9.6 C20.0 11.1 17.5 13.9 16.0 13.4 C14.3 13.9 16.6 12.0 18.0 12.7 C18.4 14.0 18.4 15.0 16.6 16.0 C14.4 17.5 12.9 16.3 13.5 15.2 C14.1 13.4 14.2 11.4 16.0 9.4 L15.2 7.7 C15.8 7.2 16.4 7.6 16.0 7.2 L16.0 7.2"/> <path fill="none" stroke="black" stroke-width="0.3" stroke-opacity="1.0" filling="0" d="M13.5 7.4 L14.3 9.4 L14.3 7.6 C14.5 8.5 14.0 8.5 13.6 7.5 L13.5 7.4"/> <path fill="none" stroke="black" stroke-width="0.3" stroke-opacity="1.0" filling="0" d="M13.5 9.9 L14.8 9.9 L14.8 16.5 L13.5 16.5 L13.5 14.9"/> <path fill="none" stroke="black" stroke-width="0.3" stroke-opacity="1.0" filling="0" d="M13.5 11.4 L14.9 11.4 L14.9 13.8 L13.5 13.8 L13.5 11.4"/> <path fill="none" stroke="black" stroke-width="0.3" stroke-opacity="1.0" filling="0" d="M17.0 12.4 L17.0 12.4 C17.5 13.0 17.0 13.2 16.4 14.9 C15.7 15.5 15.0 14.5 14.0 14.5 C11.1 13.5 10.9 13.1 10.6 12.5 L10.6 12.5 C9.3 11.5 8.3 11.4 7.2 13.4 L7.2 14.8"/></svg>