<svg xmlns="http://www.w3.org/2000/svg" viewBox="0.0 0.0 24.0 24.0" height="200px" width="200px"><path fill="none" stroke="black" stroke-width="0.3" stroke-opacity="1.0" filling="0" d="M12.7 5.6 L12.7 5.6 C11.9 6.9 11.6 7.9 10.7 9.6 C10.8 9.2 10.0 9.8 9.8 10.2 C9.6 10.8 11.6 10.5 11.0 10.2 C10.8 9.7 10.9 9.5 11.9 9.0 C12.9 7.6 13.8 6.3 12.7 5.6 L12.7 5.6"/> <path fill="none" stroke="black" stroke-width="0.3" stroke-opacity="1.0" filling="0" d="M6.1 7.4 L6.1 7.4 C7.0 9.6 8.9 11.1 10.3 12.9 C11.7 13.8 13.5 16.9 14.1 16.8 L14.1 16.8 C14.4 16.6 15.3 16.5 15.9 15.3 C17.6 13.7 18.6 11.0 19.8 10.8 L19.8 10.8 C18.4 11.1 17.0 11.6 15.7 11.4 C15.4 11.7 14.9 12.4 14.5 12.2 C13.1 12.9 11.6 12.7 9.0 12.8 C7.5 11.9 6.8 11.9 5.4 13.7 C3.9 14.4 3.2 15.9 2.3 17.5 L2.3 16.5 C3.5 14.4 5.3 11.0 7.5 9.0 C9.1 7.3 10.0 7.7 8.1 9.4 L6.1 9.4 C5.0 9.7 3.8 10.2 4.6 10.7 C5.0 11.2 9.5 12.6 10.9 12.1 C12.4 12.8 14.4 13.5 16.2 14.4 C16.7 15.6 17.7 15.0 18.3 14.0 C18.3 12.3 18.0 10.0 18.3 8.2 C18.2 6.0 17.6 5.3 16.0 5.0 C14.8 4.3 12.1 6.3 10.3 8.3 C8.6 9.0 7.0 11.2 6.4 14.8 C5.8 16.4 5.1 18.7 4.7 19.3 C4.5 19.9 4.3 19.7 4.2 19.4 C4.0 18.2 4.2 17.9 4.3 17.7 L4.3 17.7 C4.3 16.2 4.3 14.8 4.3 13.4 C4.2 11.1 4.3 9.1 4.3 7.0 C4.3 5.0 4.3 3.4 5.7 2.9 L5.7 2.9 C5.9 3.8 5.0 5.8 5.1 7.2 L5.1 7.2 C5.4 6.9 5.0 6.2 6.3 5.9 L6.1 5.9 C7.0 5.7 8.9 5.0 10.1 7.7 L10.1 7.7 C11.5 5.0 13.0 5.2 14.6 6.0 L14.6 6.0"/> <path fill="none" stroke="black" stroke-width="0.3" stroke-opacity="1.0" filling="0" d="M18.2 6.0 L18.2 6.0 C17.4 6.0 18.0 5.2 18.2 5.7 C18.0 6.2 17.2 6.9 17.7 7.5 C17.2 8.0 15.4 10.2 15.7 10.0 C16.0 10.0 16.4 10.5 16.5 10.7 C16.7 10.0 15.3 9.4 15.8 9.3 C16.0 8.2 16.3 8.0 17.1 7.9 C17.1 7.3 17.7 7.0 18.2 6.0 L18.2 6.0"/> <path fill="none" stroke="black" stroke-width="0.3" stroke-opacity="1.0" filling="0" d="M18.4 8.6 L18.4 8.6 C17.6 9.0 16.4 11.4 15.2 11.6 L15.2 10.6 L12.6 10.6 L12.6 11.8 C12.4 11.6 12.1 11.4 12.8 11.2 L14.4 10.6 C13.4 10.7 12.7 10.5 11.9 10.8 L11.9 11.8 L13.5 12.8 C14.0 12.1 14.8 11.3 15.5 10.7 C16.0 10.5 16.0 9.9 16.6 9.5 L16.6 9.2"/></svg>