<svg xmlns="http://www.w3.org/2000/svg" viewBox="0 0 24 24"><g><rect x="3" y="3" width="18" height="18" fill="none" stroke="black"/> <path fill="0.3" stroke-opacity="0" stroke-opacity="1.0" filling="0" d="M6.4 4.6 L12.4 4.6 C12.8 4.9 13.4 5.0 13.6 5.4 C14.8 7.4 9.8 7.4 10.9 5.4 C11.2 5.0 11.9 4.9 12.4 4.6 L12.4 4.6"/> <path fill="none" stroke="black" stroke-width="0.3" stroke-opacity="1.0" filling="0" d="M12.4 5.7 L12.4 5.7 C12.7 6.1 13.3 6.3 13.4 6.7 C14.5 9.1 9.8 9.1 11.0 6.7 C11.2 6.3 11.9 6.1 12.4 5.7 L12.4 5.7"/> <path fill="none" stroke="black" stroke-width="0.3" stroke-opacity="1.0" filling="0" d="M12.4 6.1 L12.4 6.1 C13.1 6.4 14.0 7.9 12.4 7.9 C10.9 7.9 11.8 6.4 12.4 6.1 L12.4 6.1"/> <path fill="none" stroke="black" stroke-width="0.3" stroke-opacity="1.0" filling="0" d="M12.4 6.5 L12.4 6.5 C12.7 6.9 13.3 7.3 13.3 7.8 C13.3 8.0 12.7 8.5 12.4 8.5 C12.0 8.5 11.4 8.0 11.4 7.8 C11.4 7.3 12.1 6.9 12.4 6.5 L12.4 6.5"/> <path fill="none" stroke="black" stroke-width="0.3" stroke-opacity="1.0" filling="0" d="M6.2 6.8 L6.2 6.8 C7.4 7.3 8.2 7.3 8.8 8.5 C9.6 10.0 9.4 11.8 8.7 13.0 C8.0 14.2 6.6 15.1 5.3 15.5 L5.3 15.5 C4.9 14.2 4.7 12.8 4.6 11.4 C4.5 10.0 4.5 8.6 5.3 7.4 L5.3 7.4 C5.6 7.2 5.9 7.0 6.2 6.8 L6.2 6.8"/> <path fill="none" stroke="black" stroke-width="0.3" stroke-opacity="1.0" filling="0" d="M6.2 6.8 L6.2 6.8 C7.0 7.1 8.0 7.3 8.5 8.5 C9.6 10.0 9.4 11.8 8.7 13.0 C8.0 14.2 6.6 15.1 5.3 15.5 L5.3 15.5 C4.9 14.2 4.7 12.8 4.7 11.4 C4.7 10.0 4.7 8.6 5.3 7.4 L5.3 7.4 C5.6 7.2 5.9 7.0 6.2 6.8 L6.2 6.8"/> <path fill="none" stroke="black" stroke-width="0.3" stroke-opacity="1.0" filling="0" d="M6.2 6.8 L6.2 6.8 C6.6 7.2 7.0 7.4 7.3 7.8 C8.3 9.5 7.5 11.5 6.2 12.8 L6.2 12.8 C5.0 11.5 4.3 9.5 5.3 7.8 L5.3 7.8 C5.6 7.5 5.9 7.2 6.2 6.8 L6.2 6.8"/> <path fill="none" stroke="black" stroke-width="0.3" stroke-opacity="1.0" filling="0" d="M9.2 7.8 L9.2 7.8 C9.6 8.1 10.1 8.2 10.4 8.5 C12.4 10.3 9.3 12.5 8.5 14.2 C8.4 14.7 8.3 15.4 7.9 15.7 C7.5 16.0 7.1 15.4 6.8 15.0 L6.8 15.0 C6.3 13.0 6.1 11.4 7.4 9.6 C7.9 9.1 8.5 8.3 9.2 7.8 L9.2 7.8"/> <path fill="none" stroke="black" stroke-width="0.3" stroke-opacity="1.0" filling="0" d="M9.2 8.3 L9.2 8.3 C9.7 8.6 10.3 8.8 10.6 9.3 C12.1 11.3 7.6 13.5 7.5 10.8 C7.5 10.3 7.6 9.8 7.8 9.3 C8.0 8.8 8.7 8.6 9.2 8.3 L9.2 8.3"/> <path fill="none" stroke="black" stroke-width="0.3" stroke-opacity="1.0" filling="0" d="M9.2 8.7 L9.2 8.7 C10.4 9.1 11.0 9.5 11.5 10.8 L11.5 10.8 C11.2 10.8 10.9 10.9 10.6 11.0 L10.6 11.0 C10.5 11.2 10.6 11.4 10.6 11.7 L10.6 11.7 C10.3 12.0 9.7 12.3 9.5 12.7 C8.3 15.1 11.2 15.8 12.7 13.9 L12.7 13.9 C12.4 13.6 12.1 13.4 11.8 13.1 L11.8 13.1 C10.7 12.4 9.4 11.7 8.8 10.3 L8.8 10.3 C8.8 10.7 8.8 11.0 8.8 11.4 L8.8 11.4 C8.2 11.3 7.6 11.2 7.2 10.8 C6.8 10.4 6.9 9.8 6.9 9.3 L6.9 9.3 C7.6 8.9 8.4 8.7 9.2 8.7 L9.2 8.7"/></svg>