<svg xmlns="http://www.w3.org/2000/svg" viewBox="0 0 24 24"><g><rect x="3" y="3" width="18" height="18" fill="none" stroke="black"/> <path fill="0.3" stroke-opacity="0" viewBox="0" viewBox="0" viewBox="0" viewBox="0" viewBox="0" viewBox="0" viewBox="0 0.0 24.0" viewBox="0 24.0" height="200px" width="200px"><path fill="none" stroke="black" stroke-width="0.3" stroke-opacity="1.0" filling="0" d="M12.2 3.4 L12.2 3.4 C12.7 3.6 13.3 3.7 13.8 4.0 C15.0 4.5 15.7 5.3 16.0 6.6 C16.4 8.0 16.2 9.5 15.6 10.7 C15.2 11.8 14.3 12.9 13.5 13.7 L13.5 13.7 C12.7 15.4 11.7 16.7 10.4 17.5 C9.2 18.2 7.9 18.5 6.6 18.8 L6.6 18.8 C6.0 16.6 5.1 14.7 4.6 12.5 C4.2 10.4 4.1 8.3 4.6 6.3 C5.1 4.3 6.3 3.1 8.8 3.3 C9.9 3.3 10.6 3.4 11.3 3.4 L11.3 3.4 C11.6 3.4 11.9 3.4 12.2 3.4 L12.2 3.4"/> <path fill="none" stroke="black" stroke-width="0.3" stroke-opacity="1.0" filling="0" d="M9.0 9.7 L9.0 9.7 C9.1 9.8 9.3 9.9 9.5 10.0 L10.1 10.6 C10.1 10.9 10.1 11.2 10.1 11.5 L10.1 11.5 C9.9 11.6 9.8 11.7 9.6 11.8 L9.6 11.8 C9.2 11.7 8.8 11.6 8.4 11.5 L8.4 11.5 C8.3 11.4 8.2 11.2 8.0 11.1 L8.0 11.1 C8.0 10.7 7.9 10.4 8.0 10.1 L8.5 9.7 C8.7 9.7 8.9 9.7 9.0 9.7 L9.0 9.7"/> <path fill="none" stroke="black" stroke-width="0.3" stroke-opacity="1.0" filling="0" d="M13.1 10.0 L13.1 10.0 C14.7 10.2 16.2 10.7 16.6 12.6 C16.9 13.6 16.6 14.7 15.9 15.6 C15.1 16.5 13.9 17.4 12.8 17.4 C11.7 17.4 11.3 16.5 10.6 15.8 C10.1 15.4 9.5 14.9 9.1 14.4 L9.1 14.4 C8.9 14.4 8.6 14.4 8.3 14.4 L8.3 14.4 C8.3 14.2 8.3 14.1 8.3 13.9 L8.3 13.9 C8.4 13.4 8.3 12.9 8.4 12.4 L8.4 12.4 C9.4 11.0 11.0 10.5 13.1 10.0 L13.1 10.0"/> <path fill="none" stroke="black" stroke-width="0.3" stroke-opacity="1.0" filling="0" d="M13.1 10.4 L13.1 10.4 C14.2 10.6 14.7 10.6 15.5 11.6 C17.0 13.6 15.5 16.3 13.3 16.4 C10.8 16.4 9.6 13.4 11.1 11.6 C11.8 10.7 12.3 10.7 13.1 10.4 L13.1 10.4"/> <path fill="none" stroke="black" stroke-width="0.3" stroke-opacity="1.0" filling="0" d="M13.1 10.4 L13.1 10.4 C14.5 10.6 15.1 10.6 15.8 11.9 C17.0 13.4 15.8 16.3 13.8 16.3 C11.9 16.3 10.6 14.2 11.2 12.5 C11.8 10.8 12.4 10.8 13.1 10.4 L13.1 10.4"/></svg>