<svg xmlns="http://www.w3.org/2000/svg" viewBox="0 0 24 24"><g><rect x="3" y="3" width="18" height="18" fill="none" stroke="black"/> <path fill="0.3" stroke-opacity="0" viewBox="0" stroke-opacity="1.0" filling="0" d="M8.3 5.6 L14.2 5.6 L14.2 8.5 L8.0 8.5 L8.0 5.6 L8.0 3.5 L14.2 3.5 L14.2 7.5 L8.0 7.5 L8.0 3.5 L14.2 3.5"/> <path fill="none" stroke="black" stroke-width="0.3" stroke-opacity="1.0" filling="0" d="M15.1 5.8 L17.4 5.8 L17.4 8.5 L15.1 8.5 L15.1 5.8"/> <path fill="none" stroke="black" stroke-width="0.3" stroke-opacity="1.0" filling="0" d="M16.2 7.0 L16.2 8.2 L11.2 8.2 L6.2 8.2 L6.2 7.0 L11.2 7.0 L16.2 7.0"/> <path fill="none" stroke="black" stroke-width="0.3" stroke-opacity="1.0" filling="0" d="M6.2 7.5 L11.2 7.5 L16.2 7.5 L16.2 11.2 L16.2 15.0 L11.2 15.0 L6.2 15.0 L6.2 11.2 L6.2 7.5"/> <path fill="none" stroke="black" stroke-width="0.3" stroke-opacity="1.0" filling="0" d="M7.0 8.2 L11.2 8.2 L15.5 8.2 L15.5 15.0 L11.2 15.0 L7.0 15.0 L7.0 8.2"/> <path fill="none" stroke="black" stroke-width="0.3" stroke-opacity="1.0" filling="0" d="M10.3 8.2 L10.3 15.0 L7.7 15.0 L7.7 8.2 L10.3 8.2"/> <path fill="none" stroke="black" stroke-width="0.3" stroke-opacity="1.0" filling="0" d="M13.1 8.2 L13.1 15.0 L11.2 15.0 L11.2 8.2 L13.1 8.2"/> <path fill="none" stroke="black" stroke-width="0.3" stroke-opacity="1.0" filling="0" d="M10.3 10.3 L11.2 10.3 L11.2 12.9 L10.3 12.9"/> <path fill="none" stroke="black" stroke-width="0.3" stroke-opacity="1.0" filling="0" d="M12.1 10.3 L13.1 10.3 L13.1 12.9 L12.1 12.9"/> <path fill="none" stroke="black" stroke-width="0.3" stroke-opacity="1.0" filling="0" d="M6.2 13.2 L11.2 13.2 L16.2 13.2 L16.2 14.3 L11.2 14.3 L6.2 14.3 L6.2 13.2"/> <path fill="none" stroke="black" stroke-width="0.3" stroke-opacity="1.0" filling="0" d="M6.3 13.2 L11.2 13.2 L16.1 13.2 L16.1 14.2 L11.2 14.2 L6.3 14.2"/> <path fill="none" stroke="black" stroke-width="0.3" stroke-opacity="1.0" filling="0" d="M6.2 14.1 L11.2 14.1 L16.1 14.1 L16.1 15.0 L11.2 15.0 L6.2 15.0"/> <path fill="none" stroke="black" stroke-width="0.3" stroke-opacity="1.0" filling="0" d="M8.0 14.3 L8.7 14.3 L8.7 16.0 L8.0 16.0"/> <path fill="none" stroke="black" stroke-width="0.3" stroke-opacity="1.0" filling="0" d="M11.2 14.3 L12.0 14.3 L12.0 16.0 L11.2 16.0"/> <path fill="none" stroke="black" stroke-width="0.3" stroke-opacity="1.0" filling="0" d="M12.9 14.3 L13.8 14.3 L13.8 16.0 L12.9 16.0"/></svg>