<svg xmlns="http://www.w3.org/2000/svg" viewBox="0 0 24 24"><g><rect x="3" y="3" width="18" height="18" fill="none" stroke="black"/> <path fill="0.3" stroke-opacity="0" stroke-opacity="1.0" filling="0" d="M11.4 8.4 L11.4 8.4 C12.7 8.4 13.7 8.7 14.6 9.4 L14.6 9.4 C17.0 8.5 19.7 8.1 20.5 11.0 C21.5 13.1 20.3 14.9 18.7 15.7 C17.2 16.5 15.1 16.7 13.9 16.8 L13.9 16.8 C14.2 16.4 14.6 15.8 15.0 15.5 L15.0 15.5 C15.9 14.4 16.9 13.5 17.2 12.3 C17.5 11.1 16.6 10.2 15.9 9.6 L15.9 9.6 C14.7 10.6 12.7 11.3 11.2 12.4 C10.7 13.0 10.1 13.5 9.6 14.0 L9.6 14.0 C9.7 12.0 10.0 10.3 11.2 8.6 L11.2 8.6 C11.3 8.5 11.3 8.4 11.4 8.4 L11.4 8.4"/> <path fill="none" stroke="black" stroke-width="0.3" stroke-opacity="1.0" filling="0" d="M11.2 8.5 L11.2 8.5 C13.4 8.6 15.1 9.4 16.4 11.4 C17.7 13.4 17.7 15.6 16.4 17.2 C15.1 18.8 13.2 19.9 11.2 19.9 C9.2 19.9 7.3 18.9 6.3 17.1 C5.3 15.4 5.2 12.8 6.4 10.7 C7.8 8.6 9.5 8.6 11.2 8.5 L11.2 8.5"/> <path fill="none" stroke="black" stroke-width="0.3" stroke-opacity="1.0" filling="0" d="M11.4 9.0 L11.4 9.0 C13.1 9.1 14.7 9.5 15.9 11.0 C17.2 12.7 17.2 15.1 16.2 17.0 C15.3 18.8 13.5 20.1 11.4 20.1 C9.2 20.1 7.4 18.7 6.5 17.0 C5.5 15.1 5.5 12.7 7.0 11.0 C8.1 9.5 9.7 9.1 11.4 9.0 L11.4 9.0"/> <path fill="none" stroke="black" stroke-width="0.3" stroke-opacity="1.0" filling="0" d="M11.4 10.1 L11.4 10.1 C12.8 10.1 13.2 10.3 13.7 11.6 C14.4 12.9 14.3 14.1 13.5 15.4 C12.7 16.7 11.5 17.7 10.1 17.7 C8.8 17.7 7.6 16.7 7.0 15.4 C6.2 14.1 6.2 12.8 7.0 11.6 C7.6 10.5 9.4 10.1 11.4 10.1 L11.4 10.1"/> <path fill="none" stroke="black" stroke-width="0.3" stroke-opacity="1.0" filling="0" d="M12.7 10.6 L12.7 10.6 C13.3 10.7 14.1 10.8 14.5 11.3 C15.4 12.3 15.5 13.4 15.0 14.7 C14.4 16.1 13.2 17.3 11.9 17.6 C10.8 17.8 9.4 17.5 8.4 16.6 C7.5 15.6 7.2 14.4 7.5 13.3 C7.9 12.2 8.9 11.0 10.0 11.0 C10.8 11.0 11.8 10.7 12.7 10.6 L12.7 10.6"/> <path fill="none" stroke="black" stroke-width="0.3" stroke-opacity="1.0" filling="0" d="M12.7 10.8 L12.7 10.8 C13.3 11.0 14.1 11.2 14.7 11.5 L15.0 11.7 C15.7 12.6 15.9 13.4 15.1 14.7 C14.3 16.1 12.9 17.0 11.9 17.3 C10.8 17.7 9.6 17.5 8.6 16.5 C7.6 15.4 7.4 14.3 7.9 13.3 C8.4 12.3 9.3 11.7 10.1 11.3 L10.5 11.3 L11.0 11.7 C11.5 11.2 12.0 10.9 12.7 10.8 L12.7 10.8"/> <path fill="none" stroke="black" stroke-width="0.3" stroke-opacity="1.0" filling="0" d="M12.7 11.1 L12.7 11.1 C13.1 11.3 13.7 11.4 13.9 11.8 C14.6 13.1 12.8 15.1 11.6 14.5 C10.4 14.1 10.0 13.1 10.4 12.0 C10.7 11.6 11.5 11.5 12.0 11.1 L12.4 11.1 L12.7 11.1"/> <path fill="none" stroke="black" stroke-width="0.3" stroke-opacity="1.0" filling="0" d="M11.8 12.5 L11.8 12.5 C12.1 12.7 12.7 12.8 12.6 13.1 C12.5 13.4 12.0 13.4 11.6 13.3 C11.2 13.2 11.0 12.6 11.8 12.5 L11.8 12.5"/> <path fill="none" stroke="black" stroke-width="0.3" stroke-opacity="1.0" filling="0" d="M13.2 13.8 L13.2 13.8 C13.2 14.5 13.2 14.5 13.2 13.8 L13.2 13.8"/> <path fill="none" stroke="black" stroke-width="0.3" stroke-opacity="1.0" filling="0" d="M10.3 14.1 L10.3 14.1 C10.3 14.9 10.3 14.9 10.3 14.1 L10.3 14.1"/></svg>