<svg xmlns="http://www.w3.org/2000/svg" viewBox="0 0 24 24"><g><rect x="3" y="3" width="18" height="18" fill="none" stroke="black"/> <path fill="0.3" stroke-opacity="0" stroke-opacity="1.0" filling="0" d="M16.5 7.5 L16.5 7.5 C16.7 7.5 17.0 7.5 17.1 7.6 L17.1 9.0 C17.0 9.1 16.7 9.1 16.5 9.0 L16.5 7.6 C16.5 7.5 16.5 7.5 16.5 7.5 L16.5 7.5"/> <path fill="none" stroke="black" stroke-width="0.3" stroke-opacity="1.0" filling="0" d="M12.7 7.7 L12.7 7.7 C12.8 7.7 13.1 7.7 13.2 7.8 L13.2 9.1 C13.1 9.3 12.8 9.3 12.7 9.1 L12.7 7.8 C12.7 7.7 12.7 7.7 12.7 7.7 L12.7 7.7"/> <path fill="none" stroke="black" stroke-width="0.3" stroke-opacity="1.0" filling="0" d="M9.5 8.0 L9.5 8.0 C9.6 8.1 9.7 8.1 9.8 8.1 L9.8 9.6 C10.1 10.3 10.8 10.8 11.7 10.8 L12.7 10.8 C13.1 10.8 13.6 10.4 14.1 10.4 C14.6 10.4 15.1 10.8 15.5 11.3 C16.8 12.4 17.2 14.1 16.1 15.8 C15.9 16.1 15.4 16.4 15.1 16.6 L15.1 16.6 C14.2 17.2 12.5 17.2 11.7 16.6 L11.7 16.6 C11.7 16.5 11.7 16.4 11.7 16.4 L11.7 16.4 C11.8 15.6 12.1 15.0 11.6 14.8 C10.0 14.1 9.7 15.4 8.4 14.1 C7.2 12.6 7.6 10.7 9.6 9.6 L9.6 8.1 C9.6 8.1 9.5 8.1 9.5 8.0 L9.5 8.0"/> <path fill="none" stroke="black" stroke-width="0.3" stroke-opacity="1.0" filling="0" d="M15.1 8.5 L15.1 8.5 C15.2 8.5 15.2 8.6 15.3 8.6 L15.3 9.2 C15.2 9.3 15.2 9.4 15.1 9.5 L15.1 9.5 C15.1 9.4 15.1 9.3 15.0 9.2 L15.0 8.6 C15.1 8.6 15.1 8.5 15.1 8.5 L15.1 8.5"/> <path fill="none" stroke="black" stroke-width="0.3" stroke-opacity="1.0" filling="0" d="M12.5 8.6 L12.5 8.6 C12.6 8.7 12.7 8.8 12.8 8.9 L12.8 10.1 C12.6 10.2 12.3 10.2 12.2 10.1 L12.2 8.9 C12.3 8.8 12.4 8.7 12.5 8.6 L12.5 8.6"/> <path fill="none" stroke="black" stroke-width="0.3" stroke-opacity="1.0" filling="0" d="M13.5 8.6 L13.5 8.6 C13.7 8.7 13.8 8.8 13.9 8.9 L13.9 10.1 C13.7 10.2 13.5 10.2 13.3 10.1 L13.3 8.9 C13.3 8.8 13.4 8.7 13.5 8.6 L13.5 8.6"/> <path fill="none" stroke="black" stroke-width="0.3" stroke-opacity="1.0" filling="0" d="M13.5 8.7 L13.5 8.7 C13.6 8.8 13.7 8.8 13.8 8.9 L13.8 10.1 C13.7 10.2 13.5 10.2 13.4 10.1 L13.4 8.9 C13.4 8.8 13.5 8.8 13.5 8.7 L13.5 8.7"/> <path fill="none" stroke="black" stroke-width="0.3" stroke-opacity="1.0" filling="0" d="M12.8 9.3 L12.8 9.3 C12.9 9.4 13.0 9.5 13.0 9.6 L13.0 10.1 C12.9 10.2 12.7 10.2 12.6 10.1 L12.6 9.6 C12.7 9.5 12.8 9.4 12.8 9.3 L12.8 9.3"/> <path fill="none" stroke="black" stroke-width="0.3" stroke-opacity="1.0" filling="0" d="M13.9 9.3 L13.9 9.3 C14.0 9.4 14.1 9.5 14.2 9.6 L14.2 10.1 C14.1 10.2 13.9 10.2 13.8 10.1 L13.8 9.6 C13.8 9.5 13.9 9.4 13.9 9.3 L13.9 9.3"/> <path fill="none" stroke="black" stroke-width="0.3" stroke-opacity="1.0" filling="0" d="M12.2 10.6 L12.2 10.6 C12.4 10.8 12.8 10.9 12.8 11.2 C12.8 11.6 12.5 12.3 12.2 12.3 C11.8 12.3 11.5 11.6 11.5 11.2 C11.5 10.9 11.9 10.8 12.2 10.6 L12.2 10.6"/> <path fill="none" stroke="black" stroke-width="0.3" stroke-opacity="1.0" filling="0" d="M13.2 10.6 L13.2 10.6 C13.4 10.8 13.7 11.0 13.9 11.2 L13.9 11.7 C13.7 11.9 13.4 12.2 13.2 12.3 L13.2 10.6"/> <path fill="none" stroke="black" stroke-width="0.3" stroke-opacity="1.0" filling="0" d="M13.9 10.6 L13.9 10.6 C14.0 10.8 14.2 11.0 14.4 11.2 L14.4 11.7 C14.2 11.9 14.0 12.0 13.9 12.3 L13.9 10.6"/> <path fill="none" stroke="black" stroke-width="0.3" stroke-opacity="1.0" filling="0" d="M10.0 11.0 L10.0 11.0 C10.1 11.1 10.2 11.2 10.3 11.3 L10.3 13.2 C10.1 13.3 9.7 13.4 9.5 13.2 L9.5 11.3 C9.6 11.2 9.8 11.1 10.0 11.0 L10.0 11.0"/> <path fill="none" stroke="black" stroke-width="0.3" stroke-opacity="1.0" filling="0" d="M13.9 11.0 L13.9 11.0 C14.0 11.1 14.2 11.2 14.3 11.3 L14.3 13.2 C14.1 13.4 13.7 13.4 13.5 13.2 L13.5 11.3 C13.7 11.2 13.8 11.1 13.9 11.0 L13.9 11.0"/> <path fill="none" stroke="black" stroke-width="0.3" stroke-opacity="1.0" filling="0" d="M10.0 11.2 L10.0 11.2 C10.2 11.3 10.3 11.4 10.5 11.5 L10.5 13.2 C10.3 13.2 10.1 13.2 9.9 13.2 L9.9 11.5 C9.9 11.4 10.0 11.3 10.0 11.2 L10.0 11.2"/> <path fill="none" stroke="black" stroke-width="0.3" stroke-opacity="1.0" filling="0" d="M14.8 11.2 L14.8 11.2 C15.0 11.3 15.1 11.4 15.2 11.5 L15.2 13.2 C15.1 13.2 14.9 13.2 14.8 13.2 L14.8 11.5 C14.8 11.4 14.8 11.3 14.8 11.2 L14.8 11.2"/> <path fill="none" stroke="black" stroke-width="0.3" stroke-opacity="1.0" filling="0" d="M9.5 11.8 L9.5 11.8 C9.6 11.9 9.6 12.2 9.5 12.3 L9.5 11.8"/> <path fill="none" stroke="black" stroke-width="0.3" stroke-opacity="1.0" filling="0" d="M13.9 11.8 L13.9 12.3 C13.8 12.2 13.8 12.2 13.7 12.3 L13.7 11.8 C13.8 11.8 13.8 11.8 13.9 11.8 L13.9 11.8"/> <path fill="none" stroke="black" stroke-width="0.3" stroke-opacity="1.0" filling="0" d="M8.5 12.5 L8.5 12.5 C8.7 12.7 8.7 13.8 8.5 13.8 C8.3 13.8 8.3 12.7 8.5 12.5 L8.5 12.5"/> <path fill="none" stroke="black" stroke-width="0.3" stroke-opacity="1.0" filling="0" d="M13.9 12.5 L13.9 12.5 C14.0 12.6 14.0 12.6 14.1 12.7 L14.1 13.0 C13.9 13.1 13.9 13.1 13.9 13.2 L13.9 12.7 C13.9 12.6 13.9 12.6 13.9 12.5 L13.9 12.5"/> <path fill="none" stroke="black" stroke-width="0.3" stroke-opacity="1.0" filling="0" d="M8.5 13.0 L8.5 13.0 C8.5 13.1 8.6 13.1 8.6 13.2 L8.6 14.2 C8.5 14.3 8.2 14.3 8.1 14.2 L8.1 13.2 C8.2 13.1 8.3 13.1 8.5 13.0 L8.5 13.0"/> <path fill="none" stroke="black" stroke-width="0.3" stroke-opacity="1.0" filling="0" d="M13.9 13.0 L13.9 13.0 C14.0 13.1 14.1 13.1 14.2 13.2 L14.2 14.2 C14.1 14.3 13.8 14.3 13.7 14.2 L13.7 13.2 C13.8 13.1 13.9 13.1 13.9 13.0 L13.9 13.0"/> <path fill="none" stroke="black" stroke-width="0.3" stroke-opacity="1.0" filling="0" d="M8.5 13.4 L8.5 13.4 C8.5 14.4 8.5 14.4 8.5 13.4 L8.5 13.4"/> <path fill="none" stroke="black" stroke-width="0.3" stroke-opacity="1.0" filling="0" d="M12.3 13.4 L12.3 13.4 C12.3 14.4 12.3 14.4 12.3 13.4 L12.3 13.4"/> <path fill="none" stroke="black" stroke-width="0.3" stroke-opacity="1.0" filling="0" d="M8.5 14.1 L8.5 14.1 C8.5 15.0 8.5 15.0 8.5 14.1 L8.5 14.1"/> <path fill="none" stroke="black" stroke-width="0.3" stroke-opacity="1.0" filling="0" d="M9.5 15.1 L9.5 15.1 C9.5 15.8 9.5 15.8 9.5 15.1 L9.5 15.1"/> <path fill="none" stroke="black" stroke-width="0.3" stroke-opacity="1.0" filling="0" d="M10.5 15.1 L10.5 15.1 C10.5 15.8 10.5 15.8 10.5 15.1 L10.5 15.1"/> <path fill="none" stroke="black" stroke-width="0.3" stroke-opacity="1.0" filling="0" d="M11.5 15.1 L11.5 15.1 C11.5 15.8 11.5 15.8 11.5 15.1 L11.5 15.1"/> <path fill="none" stroke="black" stroke-width="0.3" stroke-opacity="1.0" filling="0" d="M12.6 15.1 L12.6 15.1 C12.6 15.8 12.6 15.8 12.6 15.1 L12.6 15.1"/> <path fill="none" stroke="black" stroke-width="0.3" stroke-opacity="1.0" filling="0" d="M8.5 15.8 L8.5 15.8 C8.5 16.7 8.5 16.7 8.5 15.8 L8.5 15.8"/> <path fill="none" stroke="black" stroke-width="0.3" stroke-opacity="1.0" filling="0" d="M9.5 15.8 L9.5 15.8 C9.5 16.7 9.5 16.7 9.5 15.8 L9.5 15.8"/> <path fill="none" stroke="black" stroke-width="0.3" stroke-opacity="1.0" filling="0" d="M10.5 15.8 L10.5 15.8 C10.5 16.7 10.5 16.7 10.5 15.8 L10.5 15.8"/> <path fill="none" stroke="black" stroke-width="0.3" stroke-opacity="1.0" filling="0" d="M11.5 15.8 L11.5 15.8 C11.5 16.7 11.5 16.7 11.5 15.8 L11.5 15.8"/> <path fill="none" stroke="black" stroke-width="0.3" stroke-opacity="1.0" filling="0" d="M12.6 15.8 L12.6 15.8 C12.6 16.7 12.6 16.7 12.6 15.8 L12.6 15.8"/> <path fill="none" stroke="black" stroke-width="0.3" stroke-opacity="1.0" filling="0" d="M13.6 15.8 L13.6 15.8 C13.6 16.7 13.6 16.7 13.6 15.8 L13.6 15.8"/> <path fill="none" stroke="black" stroke-width="0.3" stroke-opacity="1.0" filling="0" d="M14.5 15.8 L14.5 15.8 C14.5 16.7 14.5 16.7 14.5 15.8 L14.5 15.8"/></svg>