<svg xmlns="http://www.w3.org/2000/svg" viewBox="0.0 0.0 24.0 24.0" height="200px" width="200px"><path fill="none" stroke="black" stroke-width="0.3" stroke-opacity="1.0" filling="0" d="M9.3 9.3 L9.3 9.3 C10.1 8.4 10.4 8.2 11.8 8.2 C13.2 8.2 14.5 9.2 14.5 10.6 C14.5 11.8 14.2 13.1 13.5 14.1 C12.5 15.3 10.9 16.2 9.3 16.2 C7.8 16.2 6.2 15.3 5.4 14.1 C4.7 13.0 4.4 11.8 4.4 10.6 C4.3 9.2 5.7 8.2 7.1 8.2 C7.8 8.2 8.5 8.3 9.3 9.3 L9.3 9.3"/> <path fill="none" stroke="black" stroke-width="0.3" stroke-opacity="1.0" filling="0" d="M15.5 10.2 L15.5 10.2 C15.7 10.9 15.9 11.5 15.8 12.2 C15.5 14.1 13.7 15.6 11.8 14.1 C9.8 12.4 10.3 9.2 11.8 8.4 C13.6 7.9 14.3 8.5 15.5 10.2 L15.5 10.2"/> <path fill="none" stroke="black" stroke-width="0.3" stroke-opacity="1.0" filling="0" d="M9.8 13.5 L9.8 13.5 C10.6 13.7 11.4 14.1 12.1 14.6 L7.5 14.6 C7.9 14.1 8.4 13.7 9.8 13.5 L9.8 13.5"/> <path fill="none" stroke="black" stroke-width="0.3" stroke-opacity="1.0" filling="0" d="M9.8 15.9 L9.8 15.9 C10.3 16.1 10.7 16.9 11.2 16.9 C11.7 16.9 12.2 16.2 12.7 16.2 C13.2 16.2 13.8 16.6 14.1 17.1 C14.2 17.2 14.5 17.3 14.4 17.3 C14.0 17.1 12.5 16.7 12.3 16.6 C10.8 15.9 10.2 18.0 9.8 15.9 L9.8 15.9"/></svg>