<svg xmlns="http://www.w3.org/2000/svg" viewBox="0.0 0.0 24.0 24.0" height="200px" width="200px"><path fill="none" stroke="black" stroke-width="0.3" stroke-opacity="1.0" filling="0" d="M13.8 5.3 L13.8 5.3 C12.9 6.1 12.2 6.7 11.6 7.5 L11.6 7.5"/> <path fill="none" stroke="black" stroke-width="0.3" stroke-opacity="1.0" filling="0" d="M15.2 5.3 L15.2 9.9"/> <path fill="none" stroke="black" stroke-width="0.3" stroke-opacity="1.0" filling="0" d="M16.3 8.9 L9.1 9.9"/> <path fill="none" stroke="black" stroke-width="0.3" stroke-opacity="1.0" filling="0" d="M6.9 9.4 L6.9 9.4 C6.2 9.7 5.5 10.3 5.2 11.1 L4.7 10.8 L5.2 11.5 L4.4 12.1 L5.0 12.8 C4.4 12.5 4.0 12.3 3.8 12.0 L3.8 11.7 L4.4 12.2 C4.7 12.3 5.2 12.4 5.2 12.6 C5.4 14.4 3.6 13.5 3.2 12.8 L3.2 12.3 L4.7 11.6 L3.5 10.2 L6.9 9.4"/> <path fill="none" stroke="black" stroke-width="0.3" stroke-opacity="1.0" filling="0" d="M5.9 10.5 L5.9 10.5 C5.7 10.4 5.4 10.5 5.2 10.6 L4.8 10.8 L5.1 11.5 L4.6 11.3 L5.0 10.7 L5.3 10.5 L5.2 9.9 L5.8 9.6"/> <path fill="none" stroke="black" stroke-width="0.3" stroke-opacity="1.0" filling="0" d="M5.9 11.6 L5.9 11.6 C5.8 11.8 5.6 12.1 5.4 12.3 L4.8 12.8 L4.4 12.3 L5.1 11.9 L5.6 11.4 L5.6 10.0 L5.2 9.3"/> <path fill="none" stroke="black" stroke-width="0.3" stroke-opacity="1.0" filling="0" d="M7.4 15.3 L7.4 15.3 C7.3 15.4 7.1 15.5 6.9 15.6 L5.9 15.0"/></svg>