<svg xmlns="http://www.w3.org/2000/svg" viewBox="0.0 0.0 24.0 24.0" height="200px" width="200px"><path fill="none" stroke="black" stroke-width="0.3" stroke-opacity="1.0" filling="0" d="M7.1 3.6 L7.1 3.6 C8.1 3.8 9.4 5.1 7.7 6.0 L7.7 6.0 C8.1 5.5 9.3 4.9 9.4 4.4 C9.6 3.2 6.4 4.6 6.5 5.1 C6.3 5.8 7.3 5.1 7.6 5.0 L7.6 5.0 C8.8 5.2 10.0 5.8 10.7 6.7 L10.7 6.7 C11.2 7.0 11.8 7.4 12.3 7.8 L12.3 7.8 C12.8 7.8 13.3 7.4 13.9 7.4 C15.6 7.2 15.9 9.2 16.1 11.0 L16.1 11.9 C15.8 11.4 15.3 11.0 14.8 10.6 L14.8 10.6 C14.5 10.1 14.1 9.5 13.5 9.4 L13.5 9.4 C12.7 6.8 11.4 6.9 10.2 7.8 L10.2 7.8 C9.6 6.2 8.4 6.6 7.4 7.8 L7.4 7.8 C6.8 8.4 6.0 9.2 5.6 10.0 L5.6 10.0 C5.2 10.4 4.8 10.8 4.5 11.2 L4.5 11.2 C3.3 11.0 2.7 11.7 2.8 13.3 L2.8 13.3 C2.7 11.0 2.6 9.8 3.8 8.2 C4.6 6.8 5.7 5.5 9.2 4.7 L9.2 4.7 C8.9 4.4 8.7 4.0 8.4 3.6 L8.4 3.6 C6.6 4.9 4.8 3.4 5.9 5.0 L5.9 5.0 C6.2 4.5 6.6 4.0 6.9 3.6 L6.9 3.6 C6.9 3.6 7.0 3.6 7.1 3.6 L7.1 3.6"/> <path fill="none" stroke="black" stroke-width="0.3" stroke-opacity="1.0" filling="0" d="M15.5 10.9 L15.5 10.9 C15.4 9.9 15.6 9.3 15.5 8.5 C15.4 7.2 14.2 5.6 13.0 5.1 C11.7 4.7 10.4 4.7 9.3 5.1 C8.7 5.6 8.0 6.2 7.6 6.8 C6.4 9.4 5.2 11.0 5.9 13.1 C6.1 13.6 6.3 14.1 6.6 14.4 L6.6 14.4"/> <path fill="none" stroke="black" stroke-width="0.3" stroke-opacity="1.0" filling="0" d="M15.5 11.3 L15.5 11.3 C16.8 12.1 17.3 12.8 18.4 14.1 L18.4 14.1 C17.2 15.1 15.9 16.5 13.9 16.9 C12.1 17.3 9.7 16.7 8.0 15.1 L8.0 15.1 C9.7 15.1 11.4 15.2 12.6 13.7 C13.4 12.7 14.0 11.6 15.5 11.3 L15.5 11.3"/></svg>