<svg xmlns="http://www.w3.org/2000/svg" viewBox="0.0 0.0 24.0 24.0" height="200px" width="200px"><path fill="none" stroke="black" stroke-width="0.3" stroke-opacity="1.0" filling="0" d="M12.9 6.8 L12.9 6.8 C13.6 7.2 14.5 9.1 12.9 9.1 C11.3 9.1 12.2 7.2 12.9 6.8 L12.9 6.8"/> <path fill="none" stroke="black" stroke-width="0.3" stroke-opacity="1.0" filling="0" d="M6.4 8.1 L11.2 8.1 L11.2 9.1 L6.4 9.1 L6.4 8.1"/> <path fill="none" stroke="black" stroke-width="0.3" stroke-opacity="1.0" filling="0" d="M12.9 8.1 L12.9 10.0 C12.3 10.9 11.9 11.8 11.2 12.5 L6.8 12.5 C7.5 11.4 8.3 10.9 8.9 9.9 L12.9 8.1"/> <path fill="none" stroke="black" stroke-width="0.3" stroke-opacity="1.0" filling="0" d="M6.8 8.5 L12.9 8.5 L12.9 9.1 L6.8 9.1"/> <path fill="none" stroke="black" stroke-width="0.3" stroke-opacity="1.0" filling="0" d="M12.6 12.2 L12.6 12.2 C13.4 12.3 14.1 12.3 14.9 12.4 L18.8 15.9 L17.4 15.3 L14.9 17.5 L9.6 15.3 L8.1 15.9 L6.8 15.3 L6.8 14.0 L7.5 13.2 C8.3 13.2 8.8 13.2 9.5 13.2 L12.6 12.2"/> <path fill="none" stroke="black" stroke-width="0.3" stroke-opacity="1.0" filling="0" d="M12.6 17.4 L12.2 19.0 L12.1 17.4"/></svg>