<svg xmlns="http://www.w3.org/2000/svg" viewBox="0.0 0.0 24.0 24.0" height="200px" width="200px"><path fill="none" stroke="black" stroke-width="0.3" stroke-opacity="1.0" filling="0" d="M5.9 3.8 L12.3 3.8 L18.7 3.8 C18.8 4.0 19.0 4.1 19.2 4.2 L19.2 4.7 C19.1 4.9 19.1 5.2 19.2 5.4 L19.2 12.3 L19.2 19.1 C19.0 19.3 18.8 19.5 18.7 19.7 L12.3 19.7 L5.9 19.7 C5.8 19.5 5.7 19.3 5.6 19.1 L5.6 12.3 L5.6 5.4 C5.7 5.2 5.8 4.9 5.9 4.7 L5.9 4.2 C5.9 4.1 5.8 4.0 5.8 3.8 L5.8 3.8"/> <path fill="none" stroke="black" stroke-width="0.3" stroke-opacity="1.0" filling="0" d="M6.5 4.7 L12.3 4.7 L18.0 4.7 L18.0 5.8 L12.3 5.8 L6.5 5.8 L6.5 4.7"/> <path fill="none" stroke="black" stroke-width="0.3" stroke-opacity="1.0" filling="0" d="M7.2 5.3 L12.3 5.3 L17.4 5.3 L17.4 9.4 L17.4 13.4 L12.3 13.4 L7.2 13.4 L7.2 9.4 L7.2 5.3"/> <path fill="none" stroke="black" stroke-width="0.3" stroke-opacity="1.0" filling="0" d="M9.1 6.3 L9.1 6.3 C9.4 6.8 9.7 7.2 10.0 7.5 L10.0 8.5 C9.8 8.7 9.7 10.5 9.1 10.5 C8.6 10.5 8.5 8.7 8.3 8.5 L8.3 7.5 C8.5 7.2 8.8 6.8 9.1 6.3 L9.1 6.3"/> <path fill="none" stroke="black" stroke-width="0.3" stroke-opacity="1.0" filling="0" d="M11.0 6.3 L11.0 6.3 C11.3 6.8 11.5 7.2 11.8 7.5 L11.8 8.5 C11.5 8.7 11.5 10.5 11.0 10.5 C11.0 10.5 11.0 8.7 10.8 8.5 L10.8 7.5 C11.0 7.2 11.0 6.8 11.0 6.3 L11.0 6.3"/> <path fill="none" stroke="black" stroke-width="0.3" stroke-opacity="1.0" filling="0" d="M13.8 6.3 L13.8 6.3 C14.1 6.8 14.3 7.2 14.5 7.5 L12.3 7.5 C12.6 7.2 12.9 6.8 13.2 6.3 L13.8 6.3"/> <path fill="none" stroke="black" stroke-width="0.3" stroke-opacity="1.0" filling="0" d="M17.0 6.3 L17.8 6.3 C17.9 6.8 18.1 7.2 18.3 7.5 L18.3 8.5 C18.1 8.7 18.1 10.5 17.6 10.5 C17.0 10.5 17.0 8.7 16.8 8.5 L16.8 7.5 C17.0 7.2 17.0 6.8 17.0 6.3 L17.0 6.3"/> <path fill="none" stroke="black" stroke-width="0.3" stroke-opacity="1.0" filling="0" d="M6.5 7.5 L12.3 7.5 L18.0 7.5 L18.0 12.3 L12.3 12.3 L6.5 12.3 L6.5 7.5"/> <path fill="none" stroke="black" stroke-width="0.3" stroke-opacity="1.0" filling="0" d="M6.7 7.7 L12.3 7.7 L18.0 7.7 L18.0 12.2 L12.3 12.2 L6.7 12.2"/> <path fill="none" stroke="black" stroke-width="0.3" stroke-opacity="1.0" filling="0" d="M17.7 8.0 L17.7 12.0 L12.3 12.0 L7.0 12.0 L7.0 8.0 L12.3 8.0 L17.7 8.0"/> <path fill="none" stroke="black" stroke-width="0.3" stroke-opacity="1.0" filling="0" d="M6.9 9.6 L11.7 9.6 L11.7 13.1 L6.9 13.1 L6.9 9.6"/> <path fill="none" stroke="black" stroke-width="0.3" stroke-opacity="1.0" filling="0" d="M16.8 9.6 L16.8 12.9 L12.3 12.9 L8.7 12.9 L8.7 9.6 L12.3 9.6 L16.8 9.6"/> <path fill="none" stroke="black" stroke-width="0.3" stroke-opacity="1.0" filling="0" d="M6.9 14.4 L11.7 14.4 L10.9 15.0 L7.0 15.0 L6.9 14.4"/> <path fill="none" stroke="black" stroke-width="0.3" stroke-opacity="1.0" filling="0" d="M15.8 14.4 L15.8 14.4 C15.7 14.9 15.6 15.4 15.5 15.8 L15.1 15.5 C15.3 15.1 15.5 14.8 15.6 14.4 L15.8 14.4"/> <path fill="none" stroke="black" stroke-width="0.3" stroke-opacity="1.0" filling="0" d="M15.8 15.4 L15.8 15.4 C15.5 15.6 15.3 15.8 15.1 16.0 L15.1 16.0 C15.1 15.5 15.3 15.0 15.5 14.6 L15.8 14.6"/></svg>