<svg xmlns="http://www.w3.org/2000/svg" viewBox="0.0 0.0 24.0 24.0" height="200px" width="200px"><path fill="none" stroke="black" stroke-width="0.3" stroke-opacity="1.0" filling="0" d="M16.2 3.5 L16.2 3.5 C17.0 4.2 18.1 4.7 19.0 5.3 L16.8 8.5 L18.3 10.2 C16.8 10.9 16.5 11.4 15.5 12.5 L11.4 12.5 C10.3 14.0 10.1 16.2 10.3 18.4 L10.3 18.4"/> <path fill="none" stroke="black" stroke-width="0.3" stroke-opacity="1.0" filling="0" d="M15.5 5.8 L18.4 10.2 L15.5 13.5 C14.6 15.7 13.5 16.6 11.9 18.0 L11.9 18.0"/> <path fill="none" stroke="black" stroke-width="0.3" stroke-opacity="1.0" filling="0" d="M15.1 12.5 L15.1 12.5 C15.2 12.9 15.5 13.3 15.3 13.5 C14.2 15.0 12.4 15.9 11.5 12.9 L11.5 12.9"/> <path fill="none" stroke="black" stroke-width="0.3" stroke-opacity="1.0" filling="0" d="M12.7 11.6 L12.7 11.6 C13.0 11.5 13.2 11.2 13.6 11.3 C13.9 11.4 14.1 11.8 13.9 12.1 C13.8 12.2 13.5 12.3 13.4 12.3 C12.7 12.3 12.0 12.5 11.5 12.9 L11.5 12.9"/> <path fill="none" stroke="black" stroke-width="0.3" stroke-opacity="1.0" filling="0" d="M13.5 15.0 L13.2 16.3 L10.5 13.5 L9.0 13.5"/></svg>