<svg xmlns="http://www.w3.org/2000/svg" viewBox="0.0 0.0 24.0 24.0" height="200px" width="200px"><path fill="none" stroke="black" stroke-width="0.3" stroke-opacity="1.0" filling="0" d="M9.6 6.6 L9.6 8.8"/> <path fill="none" stroke="black" stroke-width="0.3" stroke-opacity="1.0" filling="0" d="M15.0 6.6 L15.0 8.8"/> <path fill="none" stroke="black" stroke-width="0.3" stroke-opacity="1.0" filling="0" d="M11.4 9.2 L11.4 13.3"/> <path fill="none" stroke="black" stroke-width="0.3" stroke-opacity="1.0" filling="0" d="M13.4 9.2 L13.4 9.2 C14.4 9.6 15.4 11.7 13.4 11.7 C11.5 11.7 12.4 9.6 13.4 9.2 L13.4 9.2"/> <path fill="none" stroke="black" stroke-width="0.3" stroke-opacity="1.0" filling="0" d="M12.0 9.5 L14.8 11.3 L16.0 12.8 L12.0 16.5 L8.0 12.8 L9.2 11.3 L11.0 9.5"/> <path fill="none" stroke="black" stroke-width="0.3" stroke-opacity="1.0" filling="0" d="M11.1 11.3 L11.1 11.3 C11.6 11.5 12.1 11.9 12.6 12.2 L12.6 12.2 C14.6 9.3 9.8 12.4 12.0 13.4 C12.4 13.8 13.3 13.5 13.0 14.3 C12.9 14.5 11.8 14.9 11.6 14.6 C9.9 13.7 12.3 13.7 12.6 12.6 C12.8 12.3 12.5 11.9 12.3 11.5 L12.3 11.5 C12.4 11.3 12.4 11.2 12.5 11.0 L12.5 11.0 C13.1 10.1 14.5 10.2 15.1 11.4 C15.8 12.7 15.0 14.6 13.4 13.7 C13.1 13.4 13.1 12.7 12.7 12.5 L12.7 12.5 C12.6 12.0 12.4 11.5 11.7 11.4 L11.7 11.4 C10.3 12.4 9.8 12.6 9.1 14.0 L9.1 14.0 C8.9 14.0 8.8 13.8 8.5 13.9 L8.5 14.4 C6.8 11.6 9.7 11.8 11.4 11.4 L11.4 11.4 C10.7 11.4 10.9 11.4 11.1 11.3 L11.1 11.3"/> <path fill="none" stroke="black" stroke-width="0.3" stroke-opacity="1.0" filling="0" d="M14.2 15.4 L14.2 15.4 C14.2 15.9 14.2 15.9 14.2 15.4 L14.2 15.4"/> <path fill="none" stroke="black" stroke-width="0.3" stroke-opacity="1.0" filling="0" d="M13.0 15.6 L11.8 16.0 C11.6 16.2 11.4 16.3 11.2 16.5 L13.4 16.5"/> <path fill="none" stroke="black" stroke-width="0.3" stroke-opacity="1.0" filling="0" d="M12.7 15.6 L13.4 17.1 C13.4 17.1 13.4 17.2 13.4 17.3 L13.4 17.3 C12.9 17.8 12.5 18.0 11.9 18.1 L11.9 17.0 L12.8 15.6 C12.7 15.6 12.7 15.6 12.7 15.6 L12.7 15.6"/></svg>