<svg xmlns="http://www.w3.org/2000/svg" viewBox="0.0 0.0 24.0 24.0" height="200px" width="200px"><path fill="none" stroke="black" stroke-width="0.3" stroke-opacity="1.0" filling="0" d="M10.1 8.0 L15.0 8.0 L19.8 8.0 C20.0 8.3 20.2 8.7 20.4 9.0 L20.4 15.2 C20.2 15.5 20.0 15.7 19.8 15.9 L15.0 15.9 L10.1 15.9 C9.9 15.7 9.7 15.5 9.5 15.2 L9.5 9.0 C9.7 8.7 9.9 8.3 10.1 8.0 L10.1 8.0"/> <path fill="none" stroke="black" stroke-width="0.3" stroke-opacity="1.0" filling="0" d="M10.6 11.2 L10.6 11.2 C11.0 11.2 11.3 11.2 11.6 11.2 L15.5 15.2 C15.5 15.8 15.0 16.4 14.5 16.6 L10.5 12.5 C10.5 12.2 11.0 11.8 10.9 12.5 C10.9 12.6 10.5 12.5 10.2 12.5 L10.2 11.6 C10.3 11.4 10.5 11.2 10.6 11.2 L10.6 11.2"/> <path fill="none" stroke="black" stroke-width="0.3" stroke-opacity="1.0" filling="0" d="M14.1 14.4 L14.1 14.4 C13.3 15.1 12.6 14.4 12.0 15.2 C11.5 15.5 12.1 16.4 12.7 16.4 C13.3 16.4 13.9 15.5 14.3 15.2 L14.3 15.2"/></svg>