<svg xmlns="http://www.w3.org/2000/svg" viewBox="0.0 0.0 24.0 24.0" height="200px" width="200px"><path fill="none" stroke="black" stroke-width="0.3" stroke-opacity="1.0" filling="0" d="M5.1 2.5 L5.1 2.5 C5.3 2.5 5.5 2.5 5.7 2.6 L9.8 4.9 L13.9 7.4 L18.2 9.9 L20.2 13.0 L16.0 15.3 L10.7 18.7 L7.3 15.3 L5.8 13.6 L5.8 9.9 L5.8 6.1 C5.3 6.1 4.7 6.1 4.2 6.1 L2.6 6.1 C2.4 6.1 2.2 6.1 2.0 6.0 L2.0 6.0 C2.8 2.3 2.8 2.9 4.8 1.5 L4.8 1.5"/> <path fill="none" stroke="black" stroke-width="0.3" stroke-opacity="1.0" filling="0" d="M11.5 3.5 L11.5 3.5 C13.7 3.4 15.7 4.4 16.5 6.3 L17.7 8.1 C17.2 8.6 16.6 9.0 15.9 9.1 L14.8 9.2 L9.0 9.8 L4.3 10.4 L8.5 5.6 L11.5 3.5"/> <path fill="none" stroke="black" stroke-width="0.3" stroke-opacity="1.0" filling="0" d="M9.0 5.3 L9.0 5.3 C9.3 5.4 9.6 5.4 10.1 5.5 L8.8 8.0 C8.3 8.1 7.6 8.4 7.3 8.2 C7.1 7.9 7.4 7.4 7.5 7.1 L9.0 5.3"/> <path fill="none" stroke="black" stroke-width="0.3" stroke-opacity="1.0" filling="0" d="M7.1 6.8 L7.1 6.8 C7.2 7.5 7.3 8.4 7.3 9.1 L5.8 9.1 C5.8 8.5 5.4 7.6 5.6 7.0 C5.9 6.7 6.5 6.8 7.1 6.8 L7.1 6.8"/> <path fill="none" stroke="black" stroke-width="0.3" stroke-opacity="1.0" filling="0" d="M15.7 7.3 L15.7 7.3 C17.0 9.7 18.3 11.3 16.9 14.5 C16.6 15.0 16.2 15.4 15.7 15.7 L14.5 15.7 C14.0 15.1 13.6 14.4 13.3 13.7 L14.3 10.3 C14.7 9.6 15.0 9.0 15.3 8.4 L15.3 8.4 C15.3 7.9 15.4 7.4 15.5 7.0 L15.5 7.0"/> <path fill="none" stroke="black" stroke-width="0.3" stroke-opacity="1.0" filling="0" d="M6.0 8.1 L6.0 8.1 C6.4 8.4 6.9 8.8 7.3 9.3 L6.9 13.4 C6.6 12.2 6.6 11.0 6.6 9.8 L6.2 13.2 C6.3 13.7 6.5 14.3 6.4 14.8 C6.2 15.7 4.5 16.6 4.5 15.5 C4.5 14.6 5.3 13.9 5.3 13.0 C5.3 11.3 4.7 9.5 6.0 8.1 L6.0 8.1"/> <path fill="none" stroke="black" stroke-width="0.3" stroke-opacity="1.0" filling="0" d="M10.2 8.1 L11.9 8.1 L14.6 10.0 L17.7 11.7 L14.3 14.3 L10.8 17.8 L8.5 14.3 L6.2 10.0 L10.2 8.1"/> <path fill="none" stroke="black" stroke-width="0.3" stroke-opacity="1.0" filling="0" d="M6.3 8.5 L6.3 8.5 C6.7 9.1 5.6 10.7 5.0 9.3 C4.6 8.0 5.6 8.2 6.3 8.5 L6.3 8.5"/> <path fill="none" stroke="black" stroke-width="0.3" stroke-opacity="1.0" filling="0" d="M16.4 8.5 L16.4 8.5 C16.5 8.5 16.6 8.6 16.6 8.7 L16.6 8.7 C17.4 9.5 18.3 10.0 18.3 11.5 C18.3 11.6 16.6 14.1 15.8 13.7 L15.8 13.7 C15.8 13.8 15.8 13.9 15.8 14.0 L15.8 14.0 C16.0 13.9 16.3 13.7 16.4 13.4 C16.5 12.2 14.7 11.4 15.4 10.0 C15.6 9.4 16.0 9.2 16.4 8.5 L16.4 8.5"/> <path fill="none" stroke="black" stroke-width="0.3" stroke-opacity="1.0" filling="0" d="M13.1 10.0 L13.1 10.0 C13.0 10.8 13.0 10.8 13.1 10.0 L13.1 10.0"/> <path fill="none" stroke="black" stroke-width="0.3" stroke-opacity="1.0" filling="0" d="M6.4 11.4 L6.4 11.4 C6.4 12.4 6.4 12.4 6.4 11.4 L6.4 11.4"/> <path fill="none" stroke="black" stroke-width="0.3" stroke-opacity="1.0" filling="0" d="M10.2 11.4 L11.7 12.0 L11.6 14.5 L10.8 14.6 L10.8 13.6 L8.7 13.6 L8.7 14.6 L7.9 14.5 L7.9 12.0 L9.4 11.4 C9.7 11.4 9.9 11.4 10.2 11.4 L10.2 11.4"/> <path fill="none" stroke="black" stroke-width="0.3" stroke-opacity="1.0" filling="0" d="M11.7 11.4 L13.3 11.9 L14.8 11.4 L14.8 15.2 L14.1 15.7 L13.4 15.2 L13.4 15.0 L12.3 15.0 L12.3 15.3 C12.3 15.2 12.2 15.1 12.1 15.0 L11.5 15.0 L11.5 15.3 C11.4 15.3 11.3 15.3 11.2 15.2 L11.1 15.2 C11.2 15.2 11.2 15.2 11.2 15.2 L11.2 11.9 L11.7 11.4"/></svg>