<svg xmlns="http://www.w3.org/2000/svg" viewBox="0 0 24 24"><circle cx="12" cy="12" r="10" fill="none" stroke="black"/><circle cx="9" cy="10" r="1.5" fill="black"/> <path fill="none" stroke-width="1.3" stroke-opacity="1.0" filling="0" d="M14.9 9.9 L14.9 9.9 C15.3 11.2 15.3 12.5 16.0 13.4 L16.0 13.4 C16.1 14.5 16.5 15.3 16.4 16.5 L16.4 16.5 C16.3 16.8 16.2 17.1 16.0 17.4 L16.0 17.4 C16.3 17.8 16.5 18.2 16.7 18.6 L16.7 18.6 C17.0 18.6 17.3 19.1 17.5 19.6 L17.5 19.6 C17.4 19.9 17.3 20.3 17.1 20.6 L17.1 20.6 C16.9 20.6 16.7 20.6 16.6 20.6 L16.6 20.6 C16.5 20.7 16.3 20.7 16.1 20.8 L16.1 20.8 C14.4 20.1 12.6 20.8 10.9 20.3 L10.9 20.3 C10.7 20.1 10.6 19.8 10.4 19.6 L10.3 19.6 C10.3 19.2 10.2 18.9 10.0 18.6 L10.0 18.6 C10.2 18.2 10.3 17.8 10.4 17.4 L10.4 17.4 C10.1 17.1 9.6 16.8 9.6 16.4 C9.6 16.1 9.8 15.9 10.0 15.6 L10.0 15.6 C10.0 15.2 10.1 14.8 10.2 14.4 L10.2 14.4 C10.0 14.1 9.9 13.9 9.8 13.7 L9.8 13.7 C10.6 12.7 10.2 11.5 10.2 10.4 L10.2 10.4 C10.1 9.4 10.1 8.3 11.0 7.9 C11.7 7.5 12.4 7.3 13.3 7.1 L13.3 7.1 C12.5 7.0 12.0 7.1 11.3 7.3 L11.3 7.3 C11.1 7.4 11.0 7.5 10.9 7.5 L10.9 7.5 C10.8 7.1 10.7 6.7 10.3 6.9 C9.6 7.2 9.3 7.5 9.0 7.6 C7.8 7.7 7.3 7.4 8.3 7.3 L8.3 7.3 C9.1 6.8 10.1 6.4 11.0 6.3 L11.0 6.3 C11.7 5.9 12.2 5.4 13.0 5.2 C13.7 4.9 14.3 5.0 15.0 5.0 L15.0 5.0 C16.0 4.9 17.0 4.9 17.9 5.1 L17.9 5.1"/> <path fill="none" stroke="black" stroke-width="0.3" stroke-opacity="1.0" filling="0" d="M13.7 10.9 L13.7 10.9 C14.7 12.0 15.7 12.9 15.3 14.7 C15.2 15.0 14.7 15.2 14.4 15.2 L14.4 15.2 C14.3 15.3 14.3 15.4 14.2 15.5 L14.2 15.5 C14.1 15.4 14.1 15.3 14.0 15.2 L14.0 15.2 C13.8 15.2 13.7 15.1 13.6 15.0 L13.6 15.0 C13.4 15.0 13.3 15.0 13.2 15.0 L13.2 15.0 C12.6 15.2 12.2 15.0 11.6 14.6 L11.6 14.6 C10.8 15.4 10.3 15.8 9.5 15.8 C8.6 15.8 8.6 15.0 8.9 14.7 C9.3 12.9 10.3 12.0 11.7 11.2 C12.5 10.8 12.9 10.9 13.7 10.9 L13.7 10.9"/> <path fill="none" stroke="black" stroke-width="0.3" stroke-opacity="1.0" filling="0" d="M13.7 10.9 L13.7 10.9 C14.8 11.0 15.6 11.6 16.4 12.3 L16.4 12.3 C16.0 13.1 15.9 13.9 16.3 14.9 L16.3 14.9 C15.8 16.4 14.6 17.6 13.2 15.9 C12.9 15.3 12.6 15.0 12.2 14.7 L12.2 14.7 C12.4 13.9 12.3 13.1 12.2 12.3 L12.2 12.3 C12.7 11.6 13.3 11.0 13.7 10.9 L13.7 10.9"/> <path fill="none" stroke="black" stroke-width="0.3" stroke-opacity="1.0" filling="0" d="M13.3 11.0 L13.3 11.0 C13.6 11.0 13.9 11.1 14.3 11.3 L14.3 11.3 C14.3 11.5 14.3 11.9 14.4 12.2 L14.4 12.2 C14.5 12.5 14.5 12.9 14.4 13.2 L14.4 13.2 C14.3 13.4 14.3 13.7 14.2 14.0 L14.2 14.0 C14.2 14.3 14.3 14.6 14.4 14.9 L14.4 14.9 C14.4 15.1 14.4 15.3 14.4 15.5 L14.4 15.5 C14.2 15.5 14.1 15.5 14.0 15.4 L14.0 15.4 C13.8 15.3 13.6 15.2 13.3 15.1 L13.3 15.1 C13.3 15.1 13.3 15.2 13.3 15.3 L13.4 15.3 C13.2 15.1 13.0 15.0 12.8 15.0 L12.8 15.0 C12.7 15.3 12.7 15.5 12.6 15.8 L12.6 15.8 C12.1 15.3 11.7 15.3 11.3 15.0 L11.3 15.0 C11.4 15.2 11.5 15.3 11.6 15.5 L11.6 15.5 C11.5 15.3 11.4 15.1 11.3 15.0 L11.3 15.0 C11.3 15.1 11.3 15.3 11.3 15.5 L11.3 15.5 C10.9 15.4 10.4 15.4 10.1 15.2 C9.8 15.0 9.0 15.1 9.0 14.8 C9.0 14.1 9.6 13.7 10.0 13.4 L10.0 13.4 C10.1 13.0 10.2 12.6 10.2 12.2 L10.2 12.2 C10.6 11.9 11.0 11.5 11.4 11.3 L11.4 11.3 C11.7 11.1 11.9 11.0 12.3 11.0 L12.3 11.0 C12.5 11.0 12.7 10.9 13.0 10.9 L13.0 10.9"/> <path fill="none" stroke="black" stroke-width="0.3" stroke-opacity="1.0" filling="0" d="M11.7 13.9 L11.7 13.9 C11.8 14.0 12.1 14.1 12.1 14.2 C12.1 14.4 11.8 14.6 11.7 14.8 L11.7 14.8 C11.6 14.6 11.5 14.4 11.4 14.2 L11.4 14.2 C11.5 14.0 11.6 14.0 11.7 13.9 L11.7 13.9"/> <path fill="none" stroke="black" stroke-width="0.3" stroke-opacity="1.0" filling="0" d="M10.6 14.5 L11.0 15.0 L10.9 14.5"/> <path fill="none" stroke="black" stroke-width="0.3" stroke-opacity="1.0" filling="0" d="M14.4 14.7 L14.1 14.7 C14.3 14.7 14.5 14.7 14.6 14.7 L14.6 14.7"/> <path fill="none" stroke="black" stroke-width="0.3" stroke-opacity="1.0" filling="0" d="M8.2 14.9 L8.2 14.9 C8.6 14.9 9.1 14.8 9.5 14.9 L9.5 14.9"/> <path fill="none" stroke="black" stroke-width="0.3" stroke-opacity="1.0" filling="0" d="M16.4 14.9 L16.4 15.4 C16.0 15.3 15.6 15.0 15.2 14.7 L15.2 14.7 C15.6 14.8 16.0 14.9 16.4 14.9 L16.4 14.9"/> <path fill="none" stroke="black" stroke-width="0.3" stroke-opacity="1.0" filling="0" d="M13.2 14.9 L13.2 14.9 C11.7 14.1 11.7 14.1 10.7 14.4 L10.7 14.4"/></svg>