<svg xmlns="http://www.w3.org/2000/svg" viewBox="0 0 24 24"><circle cx="12" cy="12" r="10" fill="none" stroke="black"/><circle cx="9" cy="10" r="1.5" fill="black"/> <path fill="none" stroke-width="1.3" stroke-opacity="1.0" filling="0" d="M9.9 7.5 L9.9 7.5"/> <path fill="none" stroke="black" stroke-width="0.3" stroke-opacity="1.0" filling="0" d="M13.8 8.0 L13.8 8.0 C15.4 8.0 15.7 8.7 15.7 10.6 L15.7 10.6 C15.3 10.7 14.9 10.8 14.5 10.9 L14.5 10.9 C15.3 11.7 15.3 11.8 15.8 12.6 L15.8 12.8 C16.5 14.7 16.5 15.7 14.8 16.4 C14.2 16.5 13.7 16.7 13.3 16.7 C12.8 16.7 11.1 14.8 10.9 14.4 C10.9 14.1 11.6 14.1 11.8 14.0 C13.5 12.4 11.0 8.4 13.8 8.0 L13.8 8.0"/> <path fill="none" stroke="black" stroke-width="0.3" stroke-opacity="1.0" filling="0" d="M11.3 8.3 L11.3 8.3 C12.1 8.4 11.8 8.5 12.6 8.6 L12.6 8.6 C12.8 8.8 13.2 8.9 13.2 9.3 C13.2 10.5 10.5 10.1 10.5 9.3 C10.5 8.9 11.0 8.8 11.3 8.6 L11.3 8.6 C11.3 8.5 11.3 8.4 11.3 8.3 L11.3 8.3"/> <path fill="none" stroke="black" stroke-width="0.3" stroke-opacity="1.0" filling="0" d="M14.4 8.3 L14.4 8.3 C14.4 8.4 14.4 8.5 14.5 8.6 L14.5 8.6 C14.1 8.7 13.6 8.7 13.4 8.6 C13.3 8.6 13.9 8.4 14.4 8.3 L14.4 8.3"/> <path fill="none" stroke="black" stroke-width="0.3" stroke-opacity="1.0" filling="0" d="M14.4 8.3 L14.4 8.3 C14.4 8.6 14.5 8.9 14.5 9.3 L14.5 9.3 C14.4 9.5 14.3 9.8 14.1 9.8 C13.9 9.8 13.6 9.5 13.4 9.3 L13.4 9.3 C13.4 8.9 13.5 8.6 14.0 8.3 L14.0 8.3 C14.1 8.3 14.3 8.3 14.4 8.3 L14.4 8.3"/> <path fill="none" stroke="black" stroke-width="0.3" stroke-opacity="1.0" filling="0" d="M9.9 8.9 L9.9 8.9 C9.5 9.5 9.0 10.1 8.3 10.9 L8.3 10.9 C8.5 9.5 9.1 8.7 9.9 8.9 L9.9 8.9"/> <path fill="none" stroke="black" stroke-width="0.3" stroke-opacity="1.0" filling="0" d="M11.2 8.9 L11.2 8.9 C11.8 8.7 12.5 9.5 12.8 10.3 C13.7 11.9 12.6 13.7 11.2 14.6 C9.8 15.4 8.2 14.8 6.9 13.7 C5.7 12.6 4.9 10.9 5.2 10.3 C5.6 9.5 6.3 8.7 7.9 8.5 C8.5 8.4 9.1 8.6 9.8 8.9 C10.2 8.8 10.8 8.5 11.2 8.9 L11.2 8.9"/> <path fill="none" stroke="black" stroke-width="0.3" stroke-opacity="1.0" filling="0" d="M11.2 9.3 L11.2 9.3 C11.6 9.6 12.1 9.9 12.4 10.3 C13.8 12.2 12.4 13.5 10.5 13.6 L10.5 13.6 C9.6 12.8 9.0 11.5 9.7 10.6 C10.0 9.9 10.4 9.6 11.2 9.3 L11.2 9.3"/> <path fill="none" stroke="black" stroke-width="0.3" stroke-opacity="1.0" filling="0" d="M11.2 9.8 L11.2 9.8 C11.5 10.0 12.0 10.1 12.1 10.3 C14.1 12.9 8.7 12.7 9.7 10.3 C9.9 10.1 11.4 10.0 11.2 9.8 L11.2 9.8"/> <path fill="none" stroke="black" stroke-width="0.3" stroke-opacity="1.0" filling="0" d="M11.2 10.0 L11.2 10.0 C11.4 10.3 11.9 10.4 11.9 10.9 C11.9 11.3 11.3 11.4 11.2 11.9 L11.2 11.9 C11.2 11.6 11.2 11.3 11.2 11.0 L11.2 10.0"/> <path fill="none" stroke="black" stroke-width="0.3" stroke-opacity="1.0" filling="0" d="M15.1 10.0 L15.1 10.0 C15.3 10.3 15.7 10.5 15.7 10.8 C15.7 11.2 15.3 11.5 15.1 11.9 L15.1 11.9 C15.2 11.4 15.2 11.0 15.1 10.6 L15.1 10.0"/> <path fill="none" stroke="black" stroke-width="0.3" stroke-opacity="1.0" filling="0" d="M13.8 13.3 L13.8 13.3 C13.9 13.6 14.0 14.1 13.8 14.4 C13.6 14.6 13.0 14.5 12.9 14.4 C12.3 14.1 11.5 14.0 11.1 13.8 L11.1 13.8 C11.4 13.6 11.7 13.4 12.1 13.3 C12.5 13.2 13.4 13.3 13.8 13.3 L13.8 13.3"/> <path fill="none" stroke="black" stroke-width="0.3" stroke-opacity="1.0" filling="0" d="M13.8 14.2 L13.8 14.2 C14.1 14.5 14.4 14.6 14.4 14.9 C14.4 15.1 13.5 15.1 13.5 14.9 C13.5 14.6 14.4 14.5 14.4 14.2 C14.4 14.0 13.5 14.1 13.5 14.4 C13.5 14.4 14.4 14.5 14.4 14.6 C14.4 14.8 14.0 15.2 13.8 15.2 C13.8 15.2 14.5 14.9 14.5 14.7 C14.5 14.5 14.1 14.5 13.8 14.4 L13.8 14.4 C14.0 14.4 14.4 14.4 14.4 14.7 C14.4 14.9 13.5 15.0 13.5 14.2 C13.5 14.0 14.4 14.1 14.4 14.2 L14.4 14.2"/></svg>