<svg xmlns="http://www.w3.org/2000/svg" viewBox="0 0 24 24"><circle cx="12" cy="12" r="10" fill="none" stroke="black"/><circle cx="9" cy="10" r="1.5" fill="black"/> <path fill="none" stroke-width="1.3" stroke-opacity="1.0" filling="0" d="M14.0 4.9 L14.0 4.9 C14.9 5.8 15.8 5.8 16.7 6.7 L16.7 6.7 C17.5 6.7 18.8 6.3 18.8 8.1 C18.9 10.3 17.5 12.0 16.3 13.0 C15.0 14.0 13.3 14.4 12.1 13.9 C11.9 13.7 11.7 13.2 11.5 12.9 L11.5 12.9 C11.7 12.8 12.0 12.8 12.1 12.9 L12.9 12.9 C13.0 12.8 13.0 12.8 13.1 12.8 L13.1 12.8 C13.1 12.7 13.1 12.6 13.2 12.6 L13.2 7.8 C13.6 7.0 14.0 6.4 14.0 5.9 L14.0 5.9"/> <path fill="none" stroke="black" stroke-width="0.3" stroke-opacity="1.0" filling="0" d="M14.0 5.9 L14.0 5.9 C14.5 6.3 15.3 6.3 15.6 6.9 C15.9 7.8 15.6 9.0 15.1 9.7 C14.7 10.5 14.3 9.7 14.0 9.7 L14.0 5.9"/> <path fill="none" stroke="black" stroke-width="0.3" stroke-opacity="1.0" filling="0" d="M14.0 6.1 L14.0 6.1 C13.9 6.2 13.8 6.3 13.7 6.4 L13.7 6.4 C13.4 6.7 13.3 6.6 13.3 6.9 L13.3 12.5 C13.1 12.8 12.9 12.9 12.7 13.1 L12.7 13.1 C12.8 13.0 12.9 12.9 13.0 12.8 L13.0 12.8 C13.1 12.7 13.1 12.7 13.1 12.6 L13.1 6.9 C13.3 6.6 13.4 6.3 14.0 6.1 L14.0 6.1"/> <path fill="none" stroke="black" stroke-width="0.3" stroke-opacity="1.0" filling="0" d="M15.0 6.2 L15.0 6.2 C15.3 6.4 15.4 6.6 15.6 6.9 L15.6 13.6 C15.4 12.7 15.3 12.7 15.1 12.8 L15.1 9.3 L15.1 7.5 C15.2 7.2 15.2 7.0 15.2 6.7 L15.2 6.3"/> <path fill="none" stroke="black" stroke-width="0.3" stroke-opacity="1.0" filling="0" d="M4.8 7.1 L4.8 7.1 C5.0 7.4 5.3 7.5 5.5 7.7 C5.7 8.0 6.2 8.2 6.4 8.8 C8.0 11.0 3.9 11.9 4.7 8.8 C4.7 8.2 5.1 8.0 5.4 7.7 L5.4 7.7 C5.1 7.9 5.1 8.2 4.8 8.4 C4.4 8.6 4.2 8.9 3.9 9.0 L3.9 6.4 C4.2 6.3 4.4 6.2 4.8 6.1 L4.8 6.1"/> <path fill="none" stroke="black" stroke-width="0.3" stroke-opacity="1.0" filling="0" d="M6.4 12.4 L6.4 12.4 C7.1 12.6 8.5 13.6 8.8 14.7 C9.5 16.2 9.3 18.2 6.4 18.2 C3.5 18.2 3.5 15.2 4.2 14.7 C4.8 13.6 6.0 12.6 6.4 12.4 L6.4 12.4"/> <path fill="none" stroke="black" stroke-width="0.3" stroke-opacity="1.0" filling="0" d="M12.3 12.4 L12.3 12.4 C12.5 12.6 13.0 12.7 13.0 12.9 C13.2 13.7 12.6 15.2 12.3 15.2 C11.9 15.2 12.2 13.7 12.0 13.5 C12.0 13.2 10.7 11.4 12.3 12.4 C12.5 12.4 12.9 12.5 12.9 12.7 C12.9 12.9 12.5 13.0 12.3 13.0 C12.0 13.0 12.4 12.8 12.3 12.4 L12.3 12.4"/> <path fill="none" stroke="black" stroke-width="0.3" stroke-opacity="1.0" filling="0" d="M7.2 14.7 L7.2 14.7 C8.7 15.6 5.7 15.6 7.2 14.7 L7.2 14.7"/> <path fill="none" stroke="black" stroke-width="0.3" stroke-opacity="1.0" filling="0" d="M14.6 14.7 L14.6 14.7 C15.1 15.8 15.3 16.9 14.6 17.9 C14.0 18.3 14.2 16.2 14.3 15.7 C14.4 15.4 14.7 15.2 14.9 14.7 L14.9 14.7"/> <path fill="none" stroke="black" stroke-width="0.3" stroke-opacity="1.0" filling="0" d="M9.3 14.9 L9.3 14.9 C9.7 15.1 10.0 15.3 10.3 15.5 L10.3 15.5 C10.1 15.8 9.8 16.1 9.7 16.5 L8.4 14.7 C8.7 14.5 9.0 14.3 9.3 14.9 L9.3 14.9"/> <path fill="none" stroke="black" stroke-width="0.3" stroke-opacity="1.0" filling="0" d="M11.3 14.9 L11.3 14.9 C11.5 15.0 11.8 15.2 12.0 15.4 L12.0 15.4 C11.7 15.8 11.4 16.2 11.2 16.6 L10.9 16.6 C10.7 16.2 10.4 15.8 10.0 15.5 L10.0 15.5 C10.2 15.2 10.6 15.0 11.0 14.9 L11.0 14.9"/> <path fill="none" stroke="black" stroke-width="0.3" stroke-opacity="1.0" filling="0" d="M10.4 16.3 L10.4 16.3 C10.5 16.5 10.6 16.6 10.7 16.7 L10.7 16.9 C10.6 17.1 10.4 17.3 10.3 16.3 L10.3 16.3"/> <path fill="none" stroke="black" stroke-width="0.3" stroke-opacity="1.0" filling="0" d="M10.7 17.3 L10.7 17.3 C10.8 17.4 11.0 17.4 11.1 17.5 L11.1 17.5 C10.9 17.7 10.6 18.0 10.4 18.3 C10.0 18.6 10.7 17.9 10.5 17.3 L10.5 17.3 C10.6 17.3 10.7 17.3 10.7 17.3 L10.7 17.3"/> <path fill="none" stroke="black" stroke-width="0.3" stroke-opacity="1.0" filling="0" d="M15.0 17.6 L15.0 17.6 C15.1 17.6 15.2 17.7 15.3 17.8 L15.3 17.8 C15.3 18.0 15.2 17.8 15.0 17.6 L15.0 17.6"/> <path fill="none" stroke="black" stroke-width="0.3" stroke-opacity="1.0" filling="0" d="M10.3 18.8 L10.3 18.8 C10.4 19.0 10.7 19.1 10.9 19.3 L10.9 19.3 C10.8 19.4 10.7 19.6 10.6 19.7 L10.6 19.7 C10.5 19.9 10.4 20.1 10.3 20.3 L10.3 20.3 C10.2 20.1 10.1 19.9 10.0 19.7 L10.0 19.7 C10.1 19.4 10.1 19.1 10.3 18.8 L10.3 18.8"/> <path fill="none" stroke="black" stroke-width="0.3" stroke-opacity="1.0" filling="0" d="M16.0 18.8 L16.0 18.8 C16.2 19.0 16.3 19.2 16.4 19.3 L16.4 19.3 C16.5 19.3 16.5 19.3 16.6 19.3 L16.6 19.3 C16.5 19.4 16.4 19.5 16.3 19.6 L16.3 19.6 C16.2 19.5 16.2 19.4 16.1 19.3 L16.1 19.3 C16.1 19.3 16.0 19.3 16.0 19.3 L15.8 19.3 C15.8 19.2 15.8 19.1 15.8 18.9 L16.0 18.8"/></svg>