<svg xmlns="http://www.w3.org/2000/svg" viewBox="0 0 24 24"><circle cx="12" cy="12" r="10" fill="none" stroke="black"/><circle cx="9" cy="10" r="1.5" fill="black"/> <path fill="none" stroke-width="1.3" stroke-opacity="1.0" filling="0" d="M15.1 4.5 L15.1 4.5 C15.3 5.3 15.7 5.2 15.8 5.3 C15.9 5.7 16.0 6.5 16.0 6.9 L16.0 6.9 C15.7 7.2 15.3 7.4 15.1 6.9 L15.1 6.9 C14.9 6.5 14.8 6.3 14.7 6.0 C14.4 5.8 14.7 5.5 15.1 4.5 L15.1 4.5"/> <path fill="none" stroke="black" stroke-width="0.3" stroke-opacity="1.0" filling="0" d="M6.3 5.5 L6.3 5.5 C5.5 5.8 5.0 6.3 4.6 7.1 L4.5 4.9 C5.3 4.8 6.0 4.7 6.5 5.0 L6.5 5.0"/> <path fill="none" stroke="black" stroke-width="0.3" stroke-opacity="1.0" filling="0" d="M15.1 8.4 L15.1 8.4 C15.9 8.6 16.3 9.2 17.0 9.6 L18.8 10.3 L18.8 10.4 C20.8 12.4 19.7 14.1 18.8 16.4 L17.7 16.4 C20.1 16.2 21.2 16.7 20.4 18.7 L20.4 18.7 C21.3 18.7 20.8 19.3 19.4 19.2 C14.3 18.7 16.5 17.6 14.4 16.2 L14.4 16.2 C15.1 15.6 15.5 15.0 15.7 14.5 L16.5 14.7 C17.1 15.5 17.4 15.9 18.0 16.7 L18.0 16.7 C18.5 15.9 18.0 15.3 17.7 14.9 C17.5 14.5 17.1 14.1 16.7 13.8 L16.6 13.8 C16.3 13.6 16.0 13.3 15.7 13.0 L14.7 13.3 C13.2 13.3 12.7 12.8 13.4 11.4 L13.4 11.3 C13.3 10.8 13.2 10.3 13.2 10.0 L13.2 10.0 C13.7 9.8 14.1 9.7 14.7 9.6 L15.6 9.4"/></svg>