<svg xmlns="http://www.w3.org/2000/svg" viewBox="0 0 24 24"><circle cx="12" cy="12" r="10" fill="none" stroke="black"/><circle cx="9" cy="10" r="1.5" fill="black"/> <path L10.3.3.3.3 5.0" stroke-width="0.3" stroke-opacity="1.0" filling="0" d="M4.4 5.6 L10.1 5.6 L16.8 5.6 C17.0 5.7 17.1 5.9 17.2 6.0 L17.2 10.1 C16.9 10.3 16.6 10.4 16.5 10.7 L10.1 10.7 L4.7 10.7 C4.5 10.4 4.2 10.1 4.0 10.0 L4.0 6.0 C4.2 5.9 4.4 5.7 4.5 5.6 L4.5 5.6"/> <path fill="none" stroke="black" stroke-width="0.3" stroke-opacity="1.0" filling="0" d="M7.2 6.1 L10.3 6.1 L14.4 6.1 C14.5 6.2 14.5 6.4 14.5 6.5 L14.9 11.1 L14.9 16.7 C14.5 17.0 14.0 17.3 13.4 17.5 L7.2 17.5 C7.0 17.3 6.6 17.0 6.2 16.7 L6.4 11.1 L6.4 7.0 C6.6 6.8 6.8 6.5 7.2 6.1 L7.2 6.1"/> <path fill="none" stroke="black" stroke-width="0.3" stroke-opacity="1.0" filling="0" d="M14.6 6.1 L14.6 6.1 C14.8 6.2 14.9 6.3 15.1 6.4 L15.1 10.1 L10.0 10.1 L6.9 10.1 L6.1 6.4 C6.2 6.3 6.3 6.2 6.4 6.0 L10.7 6.0 L14.6 6.1"/> <path fill="none" stroke="black" stroke-width="0.3" stroke-opacity="1.0" filling="0" d="M17.7 6.1 L17.7 6.1 C17.3 6.2 17.0 6.4 16.9 6.6 L16.9 10.1 L16.9 14.7 C16.8 14.8 16.7 14.9 16.6 15.0 L10.1 15.0 L6.5 15.0 C6.4 14.9 6.3 14.8 6.2 14.7 L6.2 7.0 L11.1 7.0 L15.1 6.6 C15.3 6.4 15.7 6.9 15.9 7.0 L15.9 7.0 C16.0 6.9 16.2 6.7 16.3 6.6 L16.3 6.6 C16.5 6.4 16.7 6.2 16.9 6.1 L16.9 6.1"/> <path fill="none" stroke="black" stroke-width="0.3" stroke-opacity="1.0" filling="0" d="M4.8 7.0 L10.3 7.0 L15.7 7.0 C15.9 7.2 16.1 7.4 16.2 7.5 L16.2 11.2 L16.2 15.8 C16.1 16.0 16.0 16.3 16.0 16.5 L10.3 16.5 L4.8 16.5 C4.7 16.3 4.6 16.0 4.5 15.8 L4.5 11.2 L4.5 7.5 C4.6 7.4 4.7 7.2 4.8 7.0 L4.8 7.0"/> <path fill="none" stroke="black" stroke-width="0.3" stroke-opacity="1.0" filling="0" d="M5.2 9.5 L10.9 9.5 L16.5 9.5 C16.8 9.7 17.1 10.1 17.3 10.6 L17.3 15.8 C17.1 15.9 16.8 16.0 16.6 16.1 L10.3 16.1 L5.9 16.1 C5.9 16.0 5.8 15.9 5.6 15.8 L5.6 9.5"/> <path fill="none" stroke="black" stroke-width="0.3" stroke-opacity="1.0" filling="0" d="M10.5 10.2 L10.5 10.2 C11.0 10.2 11.6 10.3 12.1 10.4 L12.1 16.8 C11.6 17.0 11.0 17.1 10.5 17.3 L10.5 17.3 C10.5 17.1 10.6 16.8 10.5 16.8 L10.5 10.4 C10.6 10.3 10.5 10.2 10.5 10.2 L10.5 10.2"/> <path fill="none" stroke="black" stroke-width="0.3" stroke-opacity="1.0" filling="0" d="M14.0 10.2 L14.0 10.2 C14.3 10.4 14.4 10.5 14.6 10.7 L14.6 15.8 C14.6 15.9 14.6 16.0 14.6 16.0 L14.0 16.0 C14.0 16.0 14.0 15.9 14.0 15.8 L14.0 10.7 C14.1 10.5 14.2 10.4 14.0 10.2 L14.0 10.2"/> <path fill="none" stroke="black" stroke-width="0.3" stroke-opacity="1.0" filling="0" d="M12.1 12.1 L12.1 12.1 C12.5 12.5 13.2 12.8 13.2 13.4 C13.2 13.8 12.7 15.3 12.1 15.3 C11.5 15.3 11.2 14.8 11.3 14.4 C11.3 14.0 11.8 13.8 12.1 13.4 C12.2 13.0 12.7 13.0 12.7 12.8 C12.8 12.7 12.9 12.5 12.9 12.1 L12.9 12.1"/> <path fill="none" stroke="black" stroke-width="0.3" stroke-opacity="1.0" filling="0" d="M13.3 13.6 L15.0 13.6 C15.4 14.3 15.7 15.9 15.1 16.6 L13.3 16.6 C13.0 15.9 12.6 15.0 12.4 14.6 C12.2 14.3 12.7 14.4 12.7 14.4 L12.7 14.4 C12.9 14.3 13.2 14.3 13.3 13.9 C13.3 13.7 13.7 13.6 13.9 13.6 L13.9 13.6"/> <path fill="none" stroke="black" stroke-width="0.3" stroke-opacity="1.0" filling="0" d="M4.9 14.6 L4.9 14.6 C5.3 14.8 5.8 14.8 5.4 15.0 C5.1 15.2 4.5 15.2 4.3 15.0 C4.0 14.8 4.4 14.8 4.9 14.6 L4.9 14.6"/> <path fill="none" stroke="black" stroke-width="0.3" stroke-opacity="1.0" filling="0" d="M7.4 14.6 L7.4 14.6 C7.6 14.8 8.0 14.9 8.1 15.0 C8.1 15.2 8.0 15.2 7.8 15.0 C7.5 14.9 7.1 14.8 7.4 14.6 L7.4 14.6"/> <path fill="none" stroke="black" stroke-width="0.3" stroke-opacity="1.0" filling="0" d="M11.9 14.6 L11.9 14.6 C12.1 14.8 12.4 14.9 12.4 15.0 C12.4 15.2 12.1 15.2 11.9 15.0 C11.8 14.9 11.7 14.8 11.9 14.6 L11.9 14.6"/> <path fill="none" stroke="black" stroke-width="0.3" stroke-opacity="1.0" filling="0" d="M9.4 14.8 L9.4 14.8 C10.4 15.7 10.4 15.6 9.4 14.8 L9.4 14.8"/></svg>