<svg xmlns="http://www.w3.org/2000/svg" viewBox="0 0 24 24"><circle cx="12" cy="12" r="10" fill="none" stroke="black"/><circle cx="9" cy="10" r="1.5" fill="black"/> <path fill="none" stroke="black" stroke-width="0.3" stroke-opacity="1.0" filling="0" d="M10.6 6.0 L10.6 6.0 C10.8 6.0 11.0 6.1 11.1 6.3 L11.1 6.3 C11.2 6.2 11.4 6.2 11.5 6.1 L11.5 6.1 C11.4 6.1 11.3 6.0 11.2 5.9 L11.2 4.5 C10.3 4.3 10.3 4.1 10.2 3.8 L10.2 3.8 C10.0 3.5 9.8 3.3 9.6 3.3 L9.6 3.3 C9.8 3.2 10.0 3.0 10.2 2.9 L10.2 2.9 C10.3 2.9 10.4 2.9 10.5 2.9 L10.5 2.9 C10.6 2.9 10.7 2.9 10.6 2.8 L10.6 2.8 C10.7 2.6 10.8 2.5 10.9 2.2 L10.9 2.2 C10.9 2.1 11.0 2.0 11.0 2.0 L11.0 2.0 C10.1 2.1 10.1 2.1 10.2 2.0 L10.2 2.0 C10.3 2.0 10.3 2.0 10.3 2.0 L10.3 2.0"/> <path fill="none" stroke="black" stroke-width="0.3" stroke-opacity="1.0" filling="0" d="M12.6 2.0 L12.6 2.0 C12.7 2.1 12.8 2.2 12.9 2.3 L12.9 2.3 C13.0 2.2 13.1 2.1 13.2 2.1 L13.2 2.1 C13.2 2.1 13.2 2.1 13.3 2.1 L13.3 2.1 C13.3 2.2 13.3 2.3 13.3 2.5 L13.3 2.5 C13.4 2.4 13.4 2.3 13.5 2.3 L13.5 2.3 C13.6 2.2 13.7 2.0 14.0 2.0 C14.0 2.1 13.9 2.1 13.9 2.1 L13.9 2.1 C13.9 2.2 14.0 2.2 14.0 2.3 L14.0 2.3 C14.0 2.3 14.0 2.3 14.0 2.4 L14.0 2.4 C14.0 2.4 14.0 2.4 14.0 2.4 L14.0 2.4 C14.0 2.4 14.0 2.4 14.0 2.4 L14.0 2.4 C14.0 2.3 14.1 2.3 14.1 2.3 L14.1 2.3 C14.2 2.4 14.2 2.5 14.3 2.5 L14.3 2.5 C14.4 2.5 14.4 2.5 14.5 2.5 L14.5 2.5 C14.5 2.6 14.5 2.7 14.5 2.7 L14.5 2.7 C14.5 2.7 14.6 2.8 14.6 2.8 L14.6 2.8 C14.6 2.8 14.5 2.7 14.4 2.7 L14.4 2.7 C14.3 2.8 14.3 2.9 14.3 3.0 L14.3 3.0 C14.3 3.0 14.2 3.0 14.3 3.0 L14.3 3.0 C14.3 3.1 14.3 3.1 14.3 3.1 L14.3 3.1 C14.3 3.4 14.2 3.5 14.1 3.7 L14.1 3.7 C14.1 3.8 14.1 4.0 14.0 4.1 L14.0 4.1 C14.2 4.0 14.3 3.8 14.9 3.7 L14.9 3.7 C14.9 3.7 14.9 3.8 14.9 3.8 L14.9 3.8 C14.9 3.8 14.9 3.9 14.9 4.0 L14.9 4.0 C14.9 4.0 14.9 4.0 15.0 4.0 L15.0 4.0 C15.0 4.1 15.0 4.1 15.0 4.1 L15.0 4.1 C15.1 4.1 15.2 4.1 15.2 4.1 L15.2 4.1 C15.1 4.0 15.1 3.9 15.0 3.9 L15.0 3.9 C15.0 2.9 15.0 2.9 15.1 3.0 L15.1 3.0 C15.5 2.9 15.8 2.8 16.1 2.6 L16.1 2.6 C16.2 2.7 16.3 2.8 16.5 3.0 L16.5 3.0 C16.4 3.0 16.3 3.1 16.4 3.1 L16.4 3.1 C16.5 3.1 16.5 3.1 16.5 3.2 L16.5 3.2 C16.5 3.2 16.6 3.2 16.7 3.2 L16.7 3.2 C16.7 3.2 16.8 3.2 16.8 3.2 L16.8 3.2 C16.7 3.2 16.7 3.2 16.7 3.2 L16.7 3.2 C16.8 3.2 16.9 3.2 17.0 3.1 L17.0 3.1 C17.0 3.1 17.1 3.1 17.1 3.2 L17.1 3.2 C17.1 3.3 17.1 3.3 17.0 3.3 L17.0 3.3 C17.1 3.4 17.2 3.4 17.2 3.4 L17.2 3.4 C17.2 3.4 17.3 3.4 17.3 3.4 L17.3 3.4 C17.4 3.4 17.4 3.4 17.4 3.4 L17.4 3.4 C17.4 3.5 17.5 3.5 17.6 3.5 L17.6 3.5 C17.7 3.5 17.8 3.5 17.8 3.6 L17.8 3.6 C17.9 3.6 18.0 3.6 18.1 3.7 L18.1 3.7 C18.1 3.8 18.1 3.9 18.1 4.0 L18.1 4.0 C18.2 4.1 18.3 4.1 18.4 4.1 L18.4 4.1 C18.4 4.2 18.5 4.3 18.5 4.4 L18.5 4.4 C18.4 4.4 18.3 4.4 18.2 4.4 L18.2 4.4 C18.3 4.5 18.3 4.5 18.3 4.5 L18.3 4.5 C18.3 4.5 18.3 4.5 18.3 4.5 L18.3 4.5 C18.4 4.6 18.4 4.7 18.5 4.7 L18.5 4.7 C18.5 4.7 18.5 4.7 18.5 4.8 L18.5 4.8 C18.7 4.9 18.8 5.0 18.9 5.1 L18.9 5.1 C18.9 5.1 18.9 5.1 19.0 5.1 L19.0 5.1 C19.2 5.2 19.4 5.3 19.6 5.4 L19.6 5.4 C19.8 5.5 19.9 5.6 20.0 5.8 L20.0 5.8"/> <path fill="none" stroke="black" stroke-width="0.3" stroke-opacity="1.0" filling="0" d="M17.1 11.2 L17.1 11.2 C18.6 12.2 19.1 12.4 19.7 13.5 L19.7 13.5 C19.8 13.6 19.9 13.7 19.9 13.8 L19.9 13.8 C19.8 13.7 19.7 13.7 19.6 13.6 L19.6 13.6 C19.6 13.7 19.6 13.8 19.6 13.8 L19.6 13.8 C19.6 13.8 19.7 13.8 19.8 13.8 L19.8 13.8 C19.8 13.8 19.8 13.9 19.9 13.9 L19.9 13.9 C19.9 13.7 19.9 13.6 19.9 13.5 L19.9 13.5 C19.9 13.5 19.9 13.6 19.9 13.7 L19.9 13.7 C19.9 13.8 19.9 13.9 19.9 13.9 L19.9 13.9 C19.9 13.9 19.9 13.9 19.9 13.9 L20.0 13.9 C20.0 13.9 20.0 13.9 20.0 13.9 L20.0 13.9 C20.0 13.9 20.0 13.9 20.0 13.9 L19.6 13.9 C19.7 13.9 19.8 13.9 19.9 13.9 L19.9 13.9 C19.8 13.9 19.9 13.9 19.9 13.9 L19.9 13.9 C19.9 14.0 19.8 14.0 19.8 14.0 L20.8 14.0 C20.8 14.1 20.8 14.1 20.7 14.2 L20.7 14.2 C20.6 14.2 20.6 14.2 20.5 14.2 L20.5 14.2 C20.5 14.3 20.5 14.4 20.4 14.5 L19.8 14.5 C19.7 14.4 19.7 14.4 19.7 14.5 L19.7 14.5 C19.8 14.6 19.8 14.7 19.8 14.8 L20.8 14.9 C20.8 14.9 20.8 14.9 20.8 14.9 L20.8 14.9 C20.8 15.0 20.8 15.0 20.8 15.0 L20.8 15.0 C20.8 15.1 20.8 15.2 20.8 15.2 L20.8 15.1 C20.8 15.2 20.8 15.3 20.8 15.4 L20.8 15.4 C20.7 15.5 20.6 15.5 20.5 15.5 L20.5 15.4 C20.5 15.4 20.5 15.4 20.5 15.4 L20.5 15.4 C20.3 15.4 20.2 15.4 20.1 15.4 L20.1 15.4 C20.1 15.4 20.2 15.5 20.2 15.5 L20.2 15.5 C20.1 15.6 20.1 15.7 20.0 15.7 L20.0 15.7 C20.0 15.8 20.0 15.9 20.0 15.9 L20.0 15.9 C20.1 15.9 20.1 15.9 20.1 16.0 L20.1 16.0 C20.1 16.1 20.1 16.2 20.1 16.3 L20.1 16.3 C20.2 16.4 20.4 16.5 20.5 16.6 L20.5 17.0 L20.5 17.0 C20.4 17.0 20.3 17.0 20.2 17.0 L20.2 17.0 C20.3 17.0 19.3 17.0 19.3 17.0 L19.3 17.0 C19.2 17.0 19.1 17.0 19.0 17.0 L19.0 17.0 C19.0 17.0 19.1 17.0 19.1 17.0 L19.1 17.0 C19.1 17.0 19.1 17.0 19.1 17.0 L19.1 17.0 C19.2 17.0 19.3 17.0 19.4 17.0 L19.4 17.0 C19.4 17.1 19.4 17.1 19.4 17.2 L19.4 17.2 C19.3 17.3 19.3 17.4 19.3 17.5 L19.3 17.5 C19.3 17.5 19.4 17.4 19.4 17.4 L19.4 17.4 C19.3 17.5 19.3 17.5 19.3 17.5 L19.3 17.5 C19.2 17.4 19.1 17.3 19.0 17.2 L19.0 17.2 C19.0 17.1 19.0 17.0 19.0 17.0 L19.0 17.0 C19.0 17.0 19.0 17.0 19.0 17.0 L19.0 17.0 C19.0 17.0 19.0 17.0 19.0 17.1 L19.0 17.1 C19.2 17.1 19.3 17.1 19.3 17.2 L19.3 17.2 C19.3 17.2 19.3 17.3 19.3 17.4 L19.3 17.4 C19.3 17.3 19.4 17.2 19.4 17.1 L19.4 17.1 C19.3 17.0 19.2 17.0 19.1 17.0 L19.1 17.0 C19.2 17.1 19.3 17.2 19.4 17.2 L19.4 17.2"/></svg>