<svg xmlns="http://www.w3.org/2000/svg" viewBox="0 0 24 24"><circle cx="12" cy="12" r="10" fill="none" stroke="black"/><circle cx="9" cy="10" r="1.5" fill="black"/> <path fill="none" stroke="black" stroke-width="0.3" stroke-opacity="1.0" filling="0" d="M10.7 5.0 L10.7 5.0 C12.5 5.1 14.4 5.1 15.4 6.1 L15.4 6.1 C15.4 6.2 15.4 6.3 15.4 6.4 L14.3 6.4 C14.3 6.3 14.3 6.2 14.4 6.1 L13.3 6.1 C13.4 6.1 13.5 6.1 13.5 6.1 L13.5 7.1 C13.4 7.2 13.3 7.2 13.2 7.3 L12.8 7.3 C12.8 7.3 12.8 7.4 12.8 7.4 L12.8 6.2 C12.7 6.1 12.7 6.0 12.7 5.9 L13.2 5.9 C13.2 5.9 13.3 5.9 13.3 5.9 L13.3 5.9 C13.4 6.0 13.5 6.1 13.6 6.2 L13.6 8.0 C13.6 8.1 13.7 8.2 13.8 8.3 L15.4 8.3 C15.4 8.3 15.4 8.3 15.3 8.3 L15.1 7.3 C14.9 7.2 14.8 7.0 14.6 6.9 L14.6 6.9 C14.7 6.9 14.8 6.9 14.9 6.9 L15.3 6.9 C15.3 6.9 15.3 6.9 15.3 6.9 L15.1 8.2 C15.1 8.1 15.0 8.1 15.0 8.0 L15.0 7.2 C15.0 7.1 15.0 7.1 15.0 7.0 L14.7 6.5 C14.7 6.4 14.8 6.4 14.8 6.3 L14.5 6.2 C14.4 6.2 14.3 6.1 14.2 6.0 L14.0 6.0 C13.9 6.0 13.7 5.9 13.6 5.9 L13.6 5.9 C13.6 6.0 13.5 6.1 13.4 6.0 L13.1 6.0 C13.0 6.0 13.0 5.9 12.9 5.9 L12.7 5.9 C12.8 5.9 12.8 5.9 12.8 5.9 L12.8 5.9 C12.8 5.9 12.8 5.9 12.7 5.9 L12.4 5.9 C12.4 5.9 12.3 6.0 12.3 6.1 L13.0 6.9 L13.2 6.9 C13.1 7.1 13.1 7.2 13.1 7.3 L13.1 6.3 C13.2 6.3 13.3 6.3 13.4 6.3 L14.0 6.1 C14.0 6.1 14.0 6.1 14.0 6.1 L14.0 6.1"/> <path fill="none" stroke="black" stroke-width="0.3" stroke-opacity20.3" d="M13.4 7.4 L13.4 7.4 C13.5 7.4 13.6 7.4 13.6 7.4 L13.6 8.3 C13.6 8.4 13.6 8.4 13.6 8.5 L14.3 8.4 C14.4 8.5 14.4 8.6 14.5 8.7 L14.5 8.7 C14.5 8.8 14.4 8.9 14.4 9.0 L14.4 9.0 C14.4 9.0 14.4 9.0 14.4 9.0 L14.4 8.8 C14.4 8.7 14.4 8.6 14.3 8.6 L14.3 8.6 C14.3 9.8 14.4 10.7 14.0 11.1 L13.6 11.1 C13.4 11.0 13.9 10.8 13.7 10.7 L13.7 10.7 C13.6 10.6 13.5 10.5 13.4 10.4 L13.4 10.4 C13.2 10.3 13.2 10.2 13.1 10.1 L13.1 8.7 C13.2 8.5 13.3 8.3 13.4 8.1 L13.4 7.4 C13.5 7.4 13.5 7.4 13.6 7.4 L13.4 7.4 C13.4 7.4 13.4 7.4 13.4 7.4 L13.4 7.4 C13.3 7.4 13.2 7.4 13.1 7.4 L13.1 7.4 C13.1 7.3 13.2 7.3 13.2 7.3 L13.2 7.4 C13.3 7.4 13.3 7.4 13.4 7.4 L13.4 7.4 C13.4 7.4 13.4 7.4 13.4 7.4 L13.4 6.9 C13.5 6.9 13.6 6.9 13.7 6.9 L13.7 7.3 C13.7 7.4 13.7 7.4 13.7 7.4 L13.7 7.4 C13.7 7.4 13.7 7.4 13.7 7.4 L13.7 7.4 C13.6 7.4 13.5 7.4 13.4 7.4 L13.3 7.4 C13.4 7.4 13.4 7.4 13.4 7.3 L13.4 7.3 C13.4 7.3 13.4 7.3 13.4 7.3 L13.4 7.3 C13.4 7.3 13.3 7.3 13.3 7.3 L13.3 7.3 C13.3 7.3 13.3 7.3 13.3 7.3 L13.3 7.3 C13.3 7.3 13.3 7.3 13.3 7.3 L13.3 7.3 C13.3 7.3 13.3 7.3 13.4 7.3 L13.4 7.3 C13.5 7.3 13.5 7.3 13.6 7.3 L13.6 7.3 C13.5 7.3 13.4 7.3 13.4 7.3 L13.4 7.3 C13.4 7.3 13.5 7.3 13.5 7.3 L13.5 7.3 C13.5 7.3 13.4 7.4 13.4 7.4 L13.4 7.4 C13.4 7.3 13.3 7.3 13.3 7.3 L13.3 7.3"/> <path fill="none" stroke="black" stroke-width="0.3" stroke-opacity="1.0" filling="0" d="M11.7 6.6 L11.7 6.6 C11.8 6.8 11.9 6.9 12.0 7.1 L12.0 7.1 C12.0 7.1 11.8 7.2 11.7 7.3 L11.7 7.3 C11.8 7.2 11.8 7.1 11.8 6.9 L11.8 6.6"/> <path fill="none" stroke="black" stroke-width="0.3" stroke-opacity="1.0" filling="0" d="M13.8 7.6 L13.8 7.6 C14.0 7.7 14.1 7.8 14.3 7.9 L14.3 8.2 C14.3 8.3 14.3 8.4 14.3 8.4 L14.3 8.4 C14.4 8.4 14.4 8.4 14.4 8.4 L14.4 8.4 C14.1 8.2 14.0 8.0 13.8 7.8 L13.8 7.8 C13.8 7.7 13.8 7.7 13.8 7.6 L13.8 7.6"/> <path fill="none" stroke="black" stroke-width="0.3" stroke-opacity="1.0" filling="0" d="M10.6 10.2 L10.6 10.2 C10.7 10.3 10.7 10.3 10.8 10.3 L10.8 11.2 C10.8 11.3 10.7 11.3 10.6 11.4 L10.6 11.4 C10.6 11.3 10.6 11.3 10.6 11.2 L10.6 10.3 C10.6 10.3 10.6 10.3 10.6 10.3 L10.6 10.3 C10.7 10.3 10.7 10.3 10.7 10.2 L10.7 10.2"/> <path fill="none" stroke="black" stroke-width="0.3" stroke-opacity="1.0" filling="0" d="M13.0 10.2 L13.0 10.2 C13.1 10.3 13.2 10.3 13.3 10.3 L13.3 10.3 C13.2 10.3 13.2 10.3 13.2 10.3 L13.2 10.3 C13.2 10.3 13.3 10.3 13.4 10.2 L13.4 10.2"/> <path fill="none" stroke="black" stroke-width="0.3" stroke-opacity="1.0" filling="0" d="M11.8 11.2 L11.8 11.2 C11.9 11.1 12.0 11.1 12.1 11.1 L12.1 11.1 C12.1 11.2 12.1 11.3 12.1 11.4 L12.1 11.4 C12.1 11.4 12.1 11.4 12.1 11.4 L12.1 11.4 C11.9 11.4 11.8 11.2 11.8 11.2 L11.8 11.2"/> <path fill="none" stroke="black" stroke-width="0.3" stroke-opacity="1.0" filling="0" d="M9.3 12.9 L10.6 12.9 C10.7 13.0 10.7 13.9 10.6 14.0 L10.6 14.0 C10.6 14.0 10.6 14.0 10.6 14.0 L10.6 14.0 C10.6 14.1 10.7 14.2 10.7 14.0 L10.7 13.7 C10.7 13.6 10.7 13.5 10.7 13.5 L10.7 14.0 C10.7 14.0 10.7 14.0 10.7 14.0 L9.4 14.0 C9.4 13.9 9.3 13.8 9.3 13.7 L9.3 12.9"/></svg>