<svg xmlns="http://www.w3.org/2000/svg" viewBox="0 0 24 24"><circle cx="12" cy="12" r="10" fill="none" stroke="black"/><circle cx="9" cy="10" r="1.5" fill="black"/> <path 5.3" stroke="black" stroke-width="0.3" stroke-opacity="1.0" filling="0" d="M10.1 9.1 L12.0 9.1"/> <path fill="none" stroke="black" stroke-width="0.3" stroke-opacity="1.0" filling="0" d="M14.5 12.4 L14.5 12.4 C14.1 13.4 13.1 13.4 12.2 13.4 C11.1 13.4 10.5 13.4 10.4 13.2 C10.2 13.1 11.7 13.9 12.1 13.8 C12.6 13.7 13.5 13.1 13.8 12.9 C14.1 12.8 13.9 12.4 14.5 12.4 L14.5 12.4"/> <path fill="none" stroke="black" stroke-width="0.3" stroke-opacity="1.0" filling="0" d="M10.1 12.6 L10.1 12.6 C10.1 13.5 10.1 13.5 10.1 12.6 L10.1 12.6"/> <path fill="none" stroke="black" stroke-width="0.3" stroke-opacity="1.0" filling="0" d="M14.4 12.6 L14.4 12.6 C14.4 13.5 14.4 13.5 14.4 12.6 L14.4 12.6"/> <path fill="none" stroke="black" stroke-width="0.3" stroke-opacity="1.0" filling="0" d="M9.6 13.0 L9.6 14.7"/></svg>