<svg xmlns="http://www.w3.org/2000/svg" viewBox="0 0 24 24"><circle cx="12" cy="12" r="10" fill="none" stroke="black"/><circle cx="9" cy="10" r="1.5" fill="black"/> <path fill="http://16.3 16.0 9.6 C15.6 10.1 16.1 12.1 16.6 12.6 L16.1 12.6 C15.9 10.6 15.3 9.3 13.4 8.1 L13.4 8.1 C12.8 9.1 12.2 10.1 11.1 10.8 L11.1 10.8 C9.7 10.6 9.2 10.1 8.9 8.7 L8.9 8.7 C9.5 9.2 10.3 10.1 10.9 11.1 L10.9 11.1 C9.5 10.0 8.7 8.1 7.8 7.6 L7.8 7.6 C6.9 8.2 6.7 9.3 6.4 10.3 L6.4 10.3 C5.2 10.1 4.1 10.6 3.4 11.0 C3.0 11.4 2.7 11.8 2.4 12.3 C2.0 12.7 2.2 12.1 2.1 11.7 C1.7 11.1 1.7 10.1 2.0 9.6 L2.1 9.6 C2.3 8.4 2.8 6.6 3.7 6.7 C4.5 6.6 5.0 7.5 5.2 8.3 L5.2 8.3 C7.3 9.7 8.4 10.3 8.2 12.0 L8.2 12.0 C8.2 11.5 8.2 10.7 8.1 10.1 C8.0 9.7 7.4 9.4 7.0 8.7 C4.9 7.1 7.1 4.7 8.6 4.5 C9.9 3.5 12.4 3.4 14.4 3.7 L14.4 3.7 C14.8 3.7 15.1 3.7 15.5 3.7 L15.5 3.7"/> <path fill="none" stroke="black" stroke-width="0.3" stroke-opacity="1.0" filling="0" d="M17.1 4.3 L17.1 4.3 C17.4 4.9 18.1 5.6 18.3 6.3 L18.3 6.3 C19.4 8.0 19.7 9.1 20.0 10.8 L20.0 10.8 C19.7 12.1 19.1 13.1 18.4 14.2 C17.7 15.4 16.5 16.7 14.7 17.4 C12.9 18.1 10.6 18.0 8.7 17.3 C6.8 16.4 5.2 15.1 4.4 13.4 C3.4 11.6 3.2 9.8 5.0 7.8 C5.6 7.1 6.1 6.6 6.7 6.3 L6.7 6.3 C7.2 5.7 7.7 4.9 8.4 4.5 C9.0 4.2 9.4 5.0 9.7 5.2 L9.7 5.2 C12.1 4.8 13.8 5.3 14.9 7.0 L14.9 7.0 C15.3 6.1 16.1 5.3 17.1 4.3 L17.1 4.3"/> <path fill="none" stroke="black" stroke-width="0.3" stroke-opacity="1.0" filling="0" d="M17.1 4.7 L17.1 4.7 C18.3 5.9 18.6 6.7 19.1 7.7 C19.5 8.0 19.9 8.3 20.4 8.6 L20.4 8.6 C19.8 8.7 19.4 8.7 18.8 8.6 C16.8 7.8 15.7 7.4 13.6 7.3 C12.3 7.2 10.7 7.6 9.4 8.3 L9.4 8.3 C10.6 6.7 11.8 6.0 13.4 5.6 L13.4 5.6 C14.5 4.9 15.8 5.0 17.1 4.7 L17.1 4.7"/> <path fill="none" stroke="black" stroke-width="0.3" stroke-opacity="1.0" filling="0" d="M17.1 4.9 L17.1 4.9 C17.8 6.3 18.6 6.9 19.0 8.6 C19.6 10.7 19.4 13.0 18.7 15.3 C18.0 17.7 16.5 19.4 14.4 20.4 C12.3 21.4 9.4 21.4 7.1 20.4 C4.9 19.4 3.2 17.7 2.4 15.3 C1.7 13.0 1.7 10.7 2.3 8.6 C3.7 6.9 5.2 6.2 6.7 4.9 L6.7 4.9 C8.7 5.3 10.4 5.8 11.7 6.4 C13.0 7.0 14.7 7.2 16.2 7.9 L16.2 7.9 C17.5 9.0 18.7 10.1 19.3 11.5 C20.0 13.8 19.9 15.9 18.4 17.1 C17.0 18.3 15.5 18.9 13.7 19.1 C11.9 19.2 9.9 19.3 7.7 19.0 C6.0 18.7 4.5 17.8 3.3 16.1 C1.7 14.2 1.7 12.1 2.3 9.1 C2.9 7.2 5.0 6.2 6.6 7.3 L6.6 7.3 C9.4 6.2 10.5 7.8 12.6 9.3 L12.6 9.3 C13.8 8.5 15.1 7.2 17.1 5.9 L17.1 4.9"/> <path fill="none" stroke="black" stroke-width="0.3" stroke-opacity="1.0" filling="0" d="M17.1 5.1 L17.1 5.1 C18.7 6.2 20.0 7.4 20.7 9.0 C21.4 11.0 21.2 13.1 20.5 15.1 C19.8 16.8 18.7 18.7 16.5 19.3 C15.3 20.0 13.8 20.0 12.2 18.9 C10.6 17.8 9.7 16.1 9.2 14.8 C8.8 13.5 8.9 11.8 9.4 10.5 C10.1 8.6 12.1 7.0 14.2 6.0 L14.2 6.0 C15.3 5.6 16.6 5.3 17.1 5.1 L17.1 5.1"/> <path fill="none" stroke="black" stroke-width="0.3" stroke-opacity="1.0" filling="0" d="M11.8 9.9 L11.8 9.9 C12.0 10.1 12.1 10.3 12.3 10.5 L12.3 13.8 C12.1 14.0 11.9 14.4 11.8 14.4 C11.6 14.4 11.5 14.0 11.2 13.8 L11.2 10.5 C11.5 10.3 11.6 10.1 11.8 9.9 L11.8 9.9"/> <path fill="none" stroke="black" stroke-width="0.3" stroke-opacity="1.0" filling="0" d="M11.8 10.1 L11.8 10.1 C12.0 10.2 12.2 10.4 12.4 10.5 L12.4 12.5 C12.2 12.7 12.0 12.9 11.8 13.1 L11.8 10.1"/> <path fill="none" stroke="black" stroke-width="0.3" stroke-opacity="1.0" filling="0" d="M11.8 10.7 L11.8 10.7 C12.1 10.8 12.3 10.8 12.5 10.9 L12.5 12.5 C12.3 12.8 12.1 13.0 11.8 13.3 L11.8 13.3 C11.6 13.0 11.4 12.8 11.2 12.5 L11.2 10.9 C11.4 10.8 11.6 10.8 11.8 10.7 L11.8 10.7"/></svg>