<svg xmlns="http://www.w3.org/2000/svg" viewBox="0 0 24 24"><circle cx="12" cy="12" r="10" fill="none" stroke="black"/><circle cx="9" cy="10" r="1.5" fill="black"/> <path fill="http://17.6 18.6 17.1 11.1 L18.8 9.0 C19.9 9.3 20.9 9.9 20.7 11.2 20.9 11.7 L20.9 11.7 C21.5 12.1 22.0 12.6 21.6 13.2 21.4 13.8 L21.4 16.1 C21.5 16.6 21.5 17.2 21.1 17.6 21.2 C16.1 21.5 14.4 21.4 12.6 20.4 11.2 L20.2 11.2 C19.0 13.3 17.3 14.8 15.3 14.9 13.9 L14.9 13.9 C12.9 13.7 12.2 13.1 11.6 11.6 10.1 L12.4 10.1 C12.2 10.0 12.1 9.6 10.7 9.3 10.6 L9.5 10.6 C9.2 10.6 8.9 10.5 8.5 8.9 10.1 C8.7 10.7 9.3 11.1 9.4 10.6 11.0 L10.3 11.0 C10.3 9.9 10.6 9.0 9.3 10.4 8.8 C10.9 8.2 11.4 8.9 13.1 7.8 C13.8 7.5 16.5 7.3 18.6 7.1 L18.6 7.1 C19.4 7.4 20.3 8.1 20.9 8.7 L20.9 8.7 C21.4 9.4 21.8 10.0 22.1 10.5 L22.1 10.5 C21.8 11.4 21.4 12.1 20.8 12.8 L20.8 12.8 C20.7 13.1 20.7 14.4 20.2 15.5 C19.5 16.6 18.0 17.8 16.7 18.2 C15.5 18.6 14.4 18.7 13.2 18.3 C11.0 17.8 9.7 16.6 9.1 15.5 C8.4 14.4 8.2 13.1 8.1 11.8 C8.0 10.5 8.2 9.7 9.3 8.7 L10.1 8.6 C10.3 7.8 10.8 7.0 11.1 6.4 C11.5 6.0 12.0 6.0 12.5 5.8 L12.5 5.8 C12.5 5.6 12.6 5.2 12.8 5.0 C13.2 4.7 13.9 4.8 14.4 4.8 L14.4 4.8"/> <path fill="none" stroke="black" stroke-width="0.3" stroke-opacity="1.0" filling="0" d="M14.0 10.1 L14.0 10.1 C15.5 10.3 16.3 10.3 17.0 11.4 C18.7 12.9 19.0 14.6 18.8 16.2 C18.5 17.8 17.0 18.9 15.3 19.8 C13.6 20.6 11.2 20.6 9.6 19.8 C7.9 19.2 6.6 17.9 6.1 16.2 C5.7 14.6 6.0 12.9 7.1 11.4 C8.2 10.3 9.1 10.3 11.0 10.1 L11.0 10.1 C12.0 10.0 12.9 10.0 14.0 10.1 L14.0 10.1"/> <path fill="none" stroke="black" stroke-width="0.3" stroke-opacity="1.0" filling="0" d="M19.6 10.1 L19.6 10.1 C19.3 12.1 19.2 13.7 19.3 15.4 C19.4 16.9 19.3 18.2 18.5 19.8 L19.2 19.8 C18.0 20.6 16.9 20.6 16.2 19.8 L16.2 19.8 C16.7 18.9 17.4 16.9 17.9 15.4 C18.4 13.7 18.8 12.1 19.6 10.1 L19.6 10.1"/> <path fill="none" stroke="black" stroke-width="0.3" stroke-opacity="1.0" filling="0" d="M18.8 12.8 L18.8 12.8 C19.0 14.7 19.3 16.4 18.8 18.6 C18.3 19.9 17.4 20.9 15.7 21.4 L15.7 21.4 C15.4 21.6 14.9 21.6 14.6 21.4 L14.6 21.4 C15.5 20.2 15.8 18.2 16.2 16.5 C16.5 15.0 17.1 14.2 17.6 12.8 L17.6 12.8 C18.0 12.9 18.3 13.2 18.8 12.8 L18.8 12.8"/> <path fill="none" stroke="black" stroke-width="0.3" stroke-opacity="1.0" filling="0" d="M8.2 14.7 L8.2 14.7 C8.3 16.2 8.5 18.2 9.0 20.2 C9.4 20.6 9.8 20.8 10.1 21.1 L10.1 21.1 C12.4 19.6 12.9 17.7 14.0 16.3 L14.0 16.3 C14.4 16.6 15.1 16.7 15.6 17.1 C16.0 17.5 16.4 18.2 16.9 18.7 L17.8 18.7 C16.9 19.8 15.2 20.6 14.5 21.0 L14.5 21.0 C15.0 20.1 16.0 19.5 17.3 18.6 C18.2 17.8 19.0 16.9 19.8 15.7 C20.5 15.5 20.9 15.6 21.5 16.1 C22.0 16.6 21.8 17.1 22.1 18.5 C22.1 19.0 22.0 19.8 21.8 20.8 C20.8 22.0 19.2 21.8 18.3 21.3 C16.6 20.9 15.0 19.6 14.2 18.2 C14.4 17.3 14.3 16.8 14.0 16.3 C13.5 16.2 13.0 16.6 12.7 16.8 C12.4 17.2 12.1 18.6 11.4 19.1 C11.1 19.7 10.5 20.1 10.1 21.0 L10.1 21.0 C8.1 21.6 6.6 21.8 5.3 19.7 C4.5 18.8 4.4 17.2 5.0 15.7 C5.7 14.8 6.5 14.9 7.2 14.7 L7.2 14.7 C7.6 14.6 8.0 14.6 8.2 14.7 L8.2 14.7"/> <path fill="none" stroke="black" stroke-width="0.3" stroke-opacity="1.0" filling="0" d="M7.5 16.7 L7.5 16.7 C7.5 18.4 7.5 18.4 7.5 16.7 L7.5 16.7"/> <path fill="none" stroke="black" stroke-width="0.3" stroke-opacity="1.0" filling="0" d="M16.5 17.0 L16.5 17.0 C16.5 19.2 16.5 19.2 16.5 17.0 L16.5 17.0"/> <path fill="none" stroke="black" stroke-width="0.3" stroke-opacity="1.0" filling="0" d="M19.6 19.3 L19.6 19.3 C19.7 19.5 19.9 20.6 19.6 20.6 C19.2 20.6 19.4 19.5 19.6 19.3 L19.6 19.3"/> <path fill="none" stroke="black" stroke-width="0.3" stroke-opacity="1.0" filling="0" d="M18.4 17.4 L18.4 17.4 C18.5 17.5 18.6 18.0 18.7 18.3 L18.7 19.2 C18.5 19.3 18.4 19.4 18.3 19.4 L18.3 19.4 C18.2 19.3 18.2 19.2 18.1 19.2 L18.1 19.2 C18.1 19.2 18.0 19.2 18.0 19.2 L18.0 18.3 C18.2 18.2 18.3 18.1 18.4 17.9 L18.4 17.4"/> <path fill="none" stroke="black" stroke-width="0.3" stroke-opacity="1.0" filling="0" d="M20.2 19.3 L20.2 19.3 C20.2 19.4 20.3 19.5 20.4 19.6 L20.4 20.1 C20.3 20.2 20.2 20.3 20.1 20.4 L20.1 20.4 C20.1 20.3 20.1 20.3 20.1 20.3 L20.1 20.3 C20.1 20.3 20.0 20.3 20.0 20.4 L20.0 20.4 C20.0 20.3 19.9 20.3 19.9 20.3 L19.9 20.3 C20.0 20.3 20.1 20.3 20.2 20.3 L20.2 20.3 C20.2 20.3 20.2 20.3 20.2 20.3 L20.2 20.3 C20.2 20.3 20.1 20.3 20.1 20.3 L20.1 20.3 C20.1 20.3 20.1 20.3 20.1 20.3 L20.1 20.3 C20.0 20.3 20.0 20.3 19.9 20.3 L19.9 20.3 C20.0 20.3 20.0 20.3 20.1 20.3 L20.1 20.3 C20.2 20.3 20.2 20.3 20.2 20.3 L20.2 20.3 C20.2 20.3 20.2 20.3 20.2 20.3 L20.2 20.3 C20.3 20.3 20.4 20.3 20.5 20.3 L20.5 20.3 C20.5 20.3 20.5 20.3 20.6 20.3 L20.6 20.3 C20.6 20.3 20.6 20.3 20.7 20.3 L20.7 20.3 C20.7 20.3 20.8 20.3 20.9 20.3 L20.9 20.3 C20.9 20.3 21.0 20.3 20.9 20.3 L20.9 20.3 C20.9 20.3 20.9 20.3 20.9 20.3 L20.9 20.3 C21.0 20.3 21.1 20.3 20.9 20.3 L20.9 20.3 C20.9 20.3 20.9 20.3 20.9 20.3 L20.9 20.3 C20.9 20.3 20.9 20.3 20.9 20.3 L20.9 19.6 C20.9 19.5 20.9 19.4 20.9 19.3 L20.9 19.3"/></svg>