<svg xmlns="http://www.w3.org/2000/svg" viewBox="0 0 24 24"><circle cx="12" cy="12" r="10" fill="none" stroke="black"/><circle cx="9" cy="10" r="1.5" fill="black"/> <path fill="black" stroke-width="0.3" stroke-opacity="1.0" filling="0" d="M10.0 12.4 L10.0 12.4 C8.0 12.7 7.2 11.9 6.1 10.0 C4.7 8.3 4.7 6.8 7.5 7.5 C8.5 8.3 8.5 9.1 9.4 10.0 L9.4 10.0"/> <path fill="none" stroke="black" stroke-width="0.3" stroke-opacity="1.0" filling="0" d="M8.3 13.6 L12.3 13.6 L12.3 16.0 C12.0 16.1 11.7 16.2 11.4 16.3 L8.3 16.3 C8.2 16.2 8.0 16.1 7.9 16.0 L7.9 13.6"/> <path fill="none" stroke="black" stroke-width="0.3" stroke-opacity="1.0" filling="0" d="M16.3 13.6 L19.2 13.6 C19.3 13.8 19.4 13.9 19.5 14.2 L19.5 17.0 C19.4 17.1 19.3 17.2 19.2 17.3 L16.3 17.3 C16.2 17.2 16.1 17.1 16.0 17.0 L16.0 14.2 C16.1 14.1 16.2 14.0 16.3 13.9 L16.3 13.6"/> <path fill="none" stroke="black" stroke-width="0.3" stroke-opacity="1.0" filling="0" d="M19.2 14.3 L19.2 14.3 C19.3 14.4 19.4 14.4 19.4 14.5 L19.4 15.7 C19.4 15.8 19.3 15.9 19.2 16.0 L16.3 16.0 C16.2 15.9 16.2 15.8 16.1 15.7 L16.1 14.5 C17.2 14.4 17.2 14.4 17.3 14.4 L18.5 14.4 C18.5 14.4 18.5 14.4 18.5 14.4 L18.5 14.4 C18.5 14.5 18.5 14.5 18.5 14.5 L19.2 14.5 L19.2 14.3"/></svg>