<svg xmlns="http://www.w3.org/2000/svg" viewBox="0.0 0.0 24.0 24.0" height="200px" width="200px"><path fill="none" stroke="black" stroke-width="0.3" stroke-opacity="1.0" filling="0" d="M13.4 7.7 L13.4 7.7 C13.5 7.8 13.6 7.9 13.7 8.0 L13.3 10.1 C13.1 10.2 13.0 10.3 12.9 10.4 L10.9 10.1 C10.8 9.9 10.7 9.8 10.6 9.7 L10.0 9.9 C9.9 9.9 9.9 9.9 9.9 9.9 L11.7 9.9 L12.5 9.9 C12.6 9.6 12.7 9.3 12.9 9.2 L12.3 9.0 C12.5 9.0 12.6 8.9 12.8 8.7 L13.2 8.4 L12.8 8.1 C12.9 8.0 13.0 8.0 13.1 8.0 L12.9 8.0 C12.8 8.0 12.7 8.1 12.7 8.1 L13.4 7.7"/> <path fill="none" stroke="black" stroke-width="0.3" stroke-opacity="1.0" filling="0" d="M6.1 11.5 L10.5 11.5 L14.4 11.5 L14.2 13.9 L10.7 13.9 L10.7 15.5 L8.4 15.5 L8.4 12.9 L6.2 12.9 C6.2 12.9 6.2 12.9 6.1 12.8 L6.1 11.5"/> <path fill="none" stroke="black" stroke-width="0.3" stroke-opacity="1.0" filling="0" d="M15.0 11.5 L15.0 11.5 C15.0 11.6 15.1 11.7 15.2 11.8 L15.2 13.9 L13.0 13.9 L13.0 11.8 C13.2 11.7 13.4 11.6 13.6 11.5 L15.0 11.5"/> <path fill="none" stroke="black" stroke-width="0.3" stroke-opacity="1.0" filling="0" d="M8.4 15.3 L10.4 15.3"/> <path fill="none" stroke="black" stroke-width="0.3" stroke-opacity="1.0" filling="0" d="M11.7 15.3 L11.4 18.4 L10.4 18.4 L10.4 15.3"/> <path fill="none" stroke="black" stroke-width="0.3" stroke-opacity="1.0" filling="0" d="M11.7 15.3 L14.0 15.3"/></svg>