<svg xmlns="http://www.w3.org/2000/svg" viewBox="0.0 0.0 24.0 24.0" height="200px" width="200px"><path fill="none" stroke="black" stroke-width="0.3" stroke-opacity="1.0" filling="0" d="M3.9 5.5 L9.5 5.5 L14.0 5.5 L18.7 5.5 C19.0 5.8 19.5 6.2 19.5 6.6 C19.5 7.0 19.0 7.0 18.7 7.2 L18.7 7.2 C18.7 7.4 18.7 7.6 18.7 7.8 L14.0 7.8 L9.5 7.8 L3.9 7.8 C3.6 7.6 3.2 7.4 3.2 7.2 L3.2 7.2 C3.2 7.0 3.6 6.7 3.9 6.5 L3.9 6.5 C3.9 6.4 3.7 6.4 3.7 6.3 L3.7 6.3 C3.6 6.2 3.5 5.8 3.9 5.9 L3.9 5.9 C4.2 5.8 4.5 5.7 4.9 5.5 L4.9 5.5"/> <path fill="none" stroke="black" stroke-width="0.3" stroke-opacity="1.0" filling="0" d="M3.9 5.9 L9.5 5.9 L14.0 5.9 L19.5 5.9 C19.7 6.0 19.9 6.2 20.1 6.3 L20.1 6.3 C20.2 6.5 20.3 6.8 20.4 6.9 L20.4 11.0 L20.4 15.9 C20.3 16.1 20.2 16.3 20.1 16.5 L13.6 16.5 L7.1 16.5 L3.2 16.5 C3.1 16.3 3.0 16.1 2.9 15.9 L2.9 11.0 L2.9 6.9 C3.0 6.5 3.1 6.1 3.2 5.9 L3.2 5.9 C3.4 5.7 3.5 5.5 3.9 5.4 L3.9 5.9"/> <path fill="none" stroke="black" stroke-width="0.3" stroke-opacity="1.0" filling="0" d="M9.5 5.9 L9.5 5.9 C9.8 6.0 10.2 6.3 10.3 6.6 C10.4 7.0 9.9 7.0 9.8 6.6 C9.7 6.3 9.9 6.0 9.9 5.9 L9.9 5.9 C10.0 5.9 10.1 6.0 10.3 5.9 L10.3 5.9 C10.4 5.9 10.5 6.0 10.6 6.0 L10.6 6.0 C10.8 6.0 11.0 5.9 11.2 5.9 L11.2 5.9 C11.6 6.0 11.8 6.3 12.0 6.6 L11.9 6.6 C11.9 6.6 11.9 6.7 12.0 6.7 L12.0 6.7 C12.3 6.9 12.7 6.6 12.7 6.7 L12.7 6.7 C12.7 6.8 12.7 7.0 12.7 7.1 L12.8 7.1 C12.7 7.3 12.7 7.4 12.7 7.6 L12.9 7.6 C13.4 7.9 13.7 8.5 14.1 9.0 L14.5 9.0 C14.8 9.5 15.1 10.2 15.5 10.9 L15.1 11.3 C15.1 11.5 15.1 11.6 15.1 11.6 L14.5 11.6 C14.5 11.6 14.4 11.5 14.4 11.4 L13.9 11.4 C13.8 11.4 13.7 11.4 13.6 11.3 L13.2 11.3 C12.8 11.4 12.7 11.4 12.6 11.3 L12.5 11.3 C12.4 11.4 12.3 11.5 12.2 11.5 L12.1 11.5 C11.9 11.5 11.7 11.5 11.5 11.6 L11.2 11.6 C11.0 11.5 10.8 11.5 10.7 11.5 L10.4 11.5 C10.3 11.5 10.2 11.5 10.1 11.6 L10.0 12.0 C10.0 11.8 9.8 11.8 9.6 11.7 L9.1 11.7 C9.0 11.6 8.9 11.5 8.8 11.3 L8.5 11.3 C8.4 11.5 8.3 11.6 8.2 11.7 L7.8 11.3 C7.8 11.3 7.8 11.3 7.8 11.3 L7.8 11.3 C7.8 11.3 7.9 11.3 8.0 11.3 L8.3 11.3 C8.2 11.4 8.1 11.4 8.0 11.5 L7.8 11.5 C7.6 11.5 7.4 11.5 7.2 11.5 L7.2 11.5 C7.1 11.5 6.9 11.5 6.8 11.3 L6.8 11.3 C6.7 11.5 6.7 11.5 6.6 11.4 L6.6 10.9 C6.4 10.7 6.2 10.5 6.1 10.3 L6.5 10.3 C6.6 10.2 6.7 10.0 6.9 9.8 L7.7 9.8 C7.8 9.7 7.9 9.5 8.0 9.4 L8.0 9.4 C7.7 9.2 7.6 9.0 7.5 8.8 L7.4 8.8 C7.2 8.5 7.0 8.2 6.9 8.1 L6.9 8.1 C6.9 7.9 6.7 7.6 6.9 7.3 L5.5 7.3 C5.5 7.4 5.4 7.4 5.4 7.4 L6.7 7.4 C6.9 7.3 7.1 7.3 7.3 7.1 L8.0 7.1 C8.3 6.9 8.5 6.6 8.7 6.5 L8.9 6.5 C9.1 6.4 9.4 6.3 9.6 6.1 L9.6 6.0 C9.8 5.8 10.0 5.6 10.2 5.4 L10.2 5.4"/> <path fill="none" stroke="black" stroke-width="0.3" stroke-opacity="1.0" filling="0" d="M9.0 5.4 L9.6 5.4 C9.7 5.5 9.8 5.5 9.9 5.6 L10.1 7.2 C10.0 7.4 9.9 7.4 9.8 7.4 L9.6 7.4 L9.4 6.9 L9.4 7.4 C9.2 7.4 9.0 7.5 8.9 7.5 L8.7 7.0 L9.0 6.5 L8.9 6.5 C8.9 6.4 9.0 6.3 9.0 6.2 L9.2 6.2 L8.7 6.2 C8.6 6.2 8.4 6.2 8.3 6.2 L7.8 6.2 C7.8 6.1 7.9 6.1 7.9 6.0 L8.5 6.0 C8.6 5.8 8.8 5.6 9.0 5.4 L9.0 5.4"/> <path fill="none" stroke="black" stroke-width="0.3" stroke-opacity="1.0" filling="0" d="M7.2 5.7 L7.5 6.3 L7.2 6.3 C7.2 6.3 7.2 6.3 7.2 6.3 L7.2 5.7"/> <path fill="none" stroke="black" stroke-width="0.3" stroke-opacity="1.0" filling="0" d="M9.4 5.7 L9.4 5.7 C9.7 5.7 9.9 5.7 10.2 5.7 L10.2 6.3 C10.1 6.5 10.0 6.5 9.8 6.6 L9.8 6.4 C9.7 6.3 9.6 6.3 9.5 6.3 L9.2 6.6 C8.7 6.7 8.7 6.7 8.5 6.6 L8.5 6.3 C8.5 6.2 8.6 6.2 8.6 5.9 L8.6 5.9 C8.7 5.9 8.7 5.9 8.8 5.9 L8.8 6.3 C8.7 6.3 8.6 6.3 8.5 6.3 L8.5 5.9 C8.6 5.9 8.7 5.8 8.8 5.8 L9.1 6.3 C9.2 6.3 9.3 6.4 9.4 6.3 L9.5 5.7 C9.5 5.7 9.6 5.7 9.6 5.7 L9.8 5.7 C9.9 5.7 10.0 5.7 10.1 5.7 L10.1 5.7 C10.1 5.7 10.1 5.7 10.1 5.7 L10.1 5.7 C10.1 5.7 10.1 5.7 10.1 5.7 L9.4 5.7 C9.4 5.7 9.5 5.7 9.5 5.7 L9.4 5.7"/> <path fill="none" stroke="black" stroke-width="0.3" stroke-opacity="1.0" filling="0" d="M9.4 6.3 L9.4 6.3 C9.5 6.3 9.6 6.3 9.7 6.3 L10.1 7.0 C10.1 7.1 10.1 7.2 10.1 7.3 L9.4 7.3 C9.4 7.2 9.4 7.2 9.4 7.1 L9.4 6.3"/> <path fill="none" stroke="black" stroke-width="0.3" stroke-opacity="1.0" filling="0" d="M9.4 6.3 L9.4 6.3 C9.5 6.3 9.6 6.3 9.7 6.3 L10.1 7.0 C10.1 7.2 10.1 7.3 10.1 7.3 L9.4 7.3 C9.4 7.3 9.4 7.3 9.4 7.3 L9.4 6.3 C9.4 6.3 9.4 6.3 9.4 6.3 L9.4 6.3"/> <path fill="none" stroke="black" stroke-width="0.3" stroke-opacity="1.0" filling="0" d="M9.4 10.4 L12.8 10.4 L12.8 12.3 C12.7 12.4 12.6 12.5 12.5 12.6 L7.7 12.6 C7.6 12.5 7.5 12.4 7.5 12.3 L8.5 10.4 C8.6 10.4 8.7 10.4 8.8 10.4 L8.8 10.4 C9.0 10.4 9.2 10.4 9.4 10.4 L9.4 10.4"/></svg>