<svg xmlns="http://www.w3.org/2000/svg" viewBox="0.0 0.0 24.0 24.0" height="200px" width="200px"><path fill="none" stroke="black" stroke-width="0.3" stroke-opacity="1.0" filling="0" d="M3.5 5.3 L9.4 5.3 L9.4 9.6 L9.4 14.5 L9.4 19.3 L3.5 19.3 L3.5 12.2 L3.5 5.3"/> <path fill="none" stroke="black" stroke-width="0.3" stroke-opacity="1.0" filling="0" d="M11.3 5.3 L11.3 5.3 C11.6 5.9 12.0 6.5 12.4 7.1 L12.4 7.1 C12.3 8.6 13.7 8.7 14.1 9.4 C15.1 11.4 13.5 13.1 12.1 13.4 L12.1 13.4 C10.5 14.0 9.3 14.1 8.1 13.4 C5.8 12.6 4.7 11.2 6.6 9.4 C7.2 8.7 8.6 8.6 9.5 8.4 L9.5 8.4 C9.6 8.2 9.6 8.1 9.6 7.9 L9.6 7.9 C10.9 8.1 12.6 7.1 10.5 5.7 L10.5 5.7 C10.7 5.6 10.9 5.4 11.3 5.3 L11.3 5.3"/> <path fill="none" stroke="black" stroke-width="0.3" stroke-opacity="1.0" filling="0" d="M8.0 6.2 L11.1 6.2 C12.6 6.6 13.4 6.7 14.3 7.7 L14.3 12.3 L14.3 16.1 C12.9 15.8 12.1 15.4 11.3 15.1 L11.3 15.1 C10.1 15.4 9.1 15.9 8.0 16.1 L8.0 16.1 C6.7 14.5 6.2 12.6 7.1 10.5 C7.7 8.0 9.1 6.9 8.0 6.2 L8.0 6.2"/> <path fill="none" stroke="black" stroke-width="0.3" stroke-opacity="1.0" filling="0" d="M9.5 7.0 L9.5 7.0 C10.0 7.9 10.8 8.7 11.6 9.2 L11.6 9.2 C13.6 9.7 14.6 9.8 15.4 11.6 C16.0 13.4 15.7 15.4 14.6 16.7 C13.5 17.9 11.5 18.6 9.5 18.6 C7.4 18.6 5.6 17.9 4.8 16.7 C3.9 15.4 3.6 13.4 4.2 11.6 C4.8 9.8 5.8 9.7 7.1 9.2 L7.1 9.2 C7.6 8.7 8.0 7.9 8.5 7.0 L8.5 7.0"/> <path fill="none" stroke="black" stroke-width="0.3" stroke-opacity="1.0" filling="0" d="M12.8 8.1 L13.7 9.4 L12.8 9.4 L12.8 8.1"/> <path fill="none" stroke="black" stroke-width="0.3" stroke-opacity="1.0" filling="0" d="M12.8 8.7 L12.8 8.7 C14.5 9.1 15.2 9.4 16.0 11.3 C16.9 13.3 16.1 15.3 14.4 16.2 C13.0 17.1 11.1 17.2 9.4 16.6 C8.7 16.1 7.9 15.5 7.4 14.8 C6.6 13.8 6.2 12.2 6.9 11.0 C7.7 9.9 9.1 9.4 10.3 9.2 L10.3 9.2 C10.9 9.0 11.5 8.9 12.8 8.7 L12.8 8.7"/> <path fill="none" stroke="black" stroke-width="0.3" stroke-opacity="1.0" filling="0" d="M12.8 9.5 L12.8 9.5 C14.1 9.6 15.1 9.7 16.1 10.1 C17.1 10.4 17.7 10.9 18.5 11.4 C19.2 12.7 19.3 15.1 18.2 16.1 C17.8 16.7 16.3 18.0 15.9 18.1 C14.6 18.2 13.1 17.9 12.3 17.1 C11.6 16.3 11.2 15.2 11.1 14.3 C11.0 12.7 11.2 10.6 12.8 9.5 L12.8 9.5"/> <path fill="none" stroke="black" stroke-width="0.3" stroke-opacity="1.0" filling="0" d="M14.3 16.3 L14.3 16.3 C16.5 16.6 16.9 17.1 17.3 19.5 L17.3 19.5 C17.8 19.5 18.3 19.8 18.7 20.1 C19.2 20.3 19.0 20.4 18.9 20.6 C18.2 20.9 17.6 21.4 16.9 21.4 C15.1 21.4 14.5 20.9 13.8 20.2 C13.1 19.8 13.2 19.5 13.2 19.2 C13.1 17.4 13.8 16.7 14.3 16.3 L14.3 16.3"/></svg>