<svg xmlns="http://www.w3.org/2000/svg" viewBox="0.0 0.0 24.0 24.0" height="200px" width="200px"><path fill="none" stroke="black" stroke-width="0.3" stroke-opacity="1.0" filling="0" d="M7.4 8.4 L8.7 8.4 L8.7 9.7 L7.4 9.7"/> <path fill="none" stroke="black" stroke-width="0.3" stroke-opacity="1.0" filling="0" d="M9.7 8.4 L11.2 8.4 L11.2 9.7 L9.7 9.7"/> <path fill="none" stroke="black" stroke-width="0.3" stroke-opacity="1.0" filling="0" d="M12.8 8.4 L14.1 8.4 L14.1 9.7 L12.8 9.7"/> <path fill="none" stroke="black" stroke-width="0.3" stroke-opacity="1.0" filling="0" d="M7.4 11.2 L8.7 11.2 L8.7 12.5 L7.4 12.5"/> <path fill="none" stroke="black" stroke-width="0.3" stroke-opacity="1.0" filling="0" d="M12.8 11.2 L14.1 11.2 L14.1 12.5 L12.8 12.5"/> <path fill="none" stroke="black" stroke-width="0.3" stroke-opacity="1.0" filling="0" d="M7.4 13.4 L8.7 13.4 L8.7 14.0 L7.4 14.0"/> <path fill="none" stroke="black" stroke-width="0.3" stroke-opacity="1.0" filling="0" d="M9.7 13.4 L10.7 13.4 L10.7 14.0 L9.7 14.0"/> <path fill="none" stroke="black" stroke-width="0.3" stroke-opacity="1.0" filling="0" d="M11.8 13.4 L14.1 13.4 L14.1 14.0 L11.8 14.0"/></svg>