<svg xmlns="http://www.w3.org/2000/svg" viewBox="0.0 0.0 24.0 24.0" height="200px" width="200px"><path fill="none" stroke="black" stroke-width="0.3" stroke-opacity="1.0" filling="0" d="M15.4 7.3 L15.4 7.3 C16.3 7.4 17.6 7.5 18.3 8.4 C19.4 10.4 16.6 12.3 15.6 12.5 C14.7 12.8 13.8 12.5 12.6 12.2 C11.5 11.7 11.2 11.3 10.7 10.7 C9.4 9.0 10.2 7.7 12.0 7.6 C13.4 7.3 14.3 7.5 15.4 7.3 L15.4 7.3"/> <path fill="none" stroke="black" stroke-width="0.3" stroke-opacity="1.0" filling="0" d="M15.4 9.5 L15.4 9.5 C15.7 9.6 15.8 9.7 16.0 9.9 L16.0 11.1 L15.0 11.1 C14.9 11.1 14.7 11.1 14.6 11.1 L14.6 11.1 C14.7 11.1 14.8 11.1 14.9 11.1 L14.9 11.1 C15.1 11.0 15.2 10.9 15.3 10.8 L15.3 9.9 C15.3 9.7 15.3 9.6 15.4 9.5 L15.4 9.5"/> <path fill="none" stroke="black" stroke-width="0.3" stroke-opacity="1.0" filling="0" d="M8.8 13.2 L14.2 13.2 L19.4 13.2 L19.4 14.2 L14.2 14.2 L8.8 14.2"/> <path fill="none" stroke="black" stroke-width="0.3" stroke-opacity="1.0" filling="0" d="M18.4 14.4 L18.4 14.4 C18.5 14.5 18.7 14.6 18.8 14.8 L18.8 18.3 L16.1 18.3 L16.1 14.8 C16.3 14.6 16.5 14.5 16.7 14.4 L18.4 14.4"/> <path fill="none" stroke="black" stroke-width="0.3" stroke-opacity="1.0" filling="0" d="M9.9 15.0 L10.5 15.0 C10.6 15.3 10.6 15.7 10.5 16.0 L9.9 16.0 L9.9 15.0"/> <path fill="none" stroke="black" stroke-width="0.3" stroke-opacity="1.0" filling="0" d="M14.9 15.0 L18.6 15.0 L18.6 16.0 L14.9 16.0 L14.9 15.0"/> <path fill="none" stroke="black" stroke-width="0.3" stroke-opacity="1.0" filling="0" d="M18.3 15.0 L18.3 15.0 C18.5 15.2 18.5 15.4 18.6 15.6 L18.3 15.6 C18.1 15.7 17.9 15.7 17.7 15.6 L17.7 15.6 C17.8 15.4 18.0 15.2 18.3 15.0 L18.3 15.0"/> <path fill="none" stroke="black" stroke-width="0.3" stroke-opacity="1.0" filling="0" d="M8.4 17.0 L14.1 17.0 L19.2 17.0 L19.2 18.3 L14.1 18.3 L8.4 18.3"/></svg>